<svg width="108" height="108" viewBox="0 0 108 108" xmlns="http://www.w3.org/2000/svg" xmlns:xlink="http://www.w3.org/1999/xlink"><title>Shape</title><defs><path d="M64.248 93.683c0 .869-.345 1.637-1.035 2.305l-5.176 5.01c-.69.668-1.484 1.002-2.38 1.002-.898 0-1.692-.334-2.382-1.002L5.035 54.305C4.345 53.637 4 52.868 4 52c0-.868.345-1.637 1.035-2.305l48.24-46.693C53.965 2.334 54.76 2 55.656 2c.897 0 1.691.334 2.381 1.002l5.176 5.01c.69.668 1.035 1.436 1.035 2.305 0 .868-.345 1.636-1.035 2.304L22.53 52l40.683 39.379c.69.668 1.035 1.436 1.035 2.304zm39.752 0c0 .869-.345 1.637-1.035 2.305l-5.176 5.01c-.69.668-1.484 1.002-2.381 1.002-.897 0-1.691-.334-2.381-1.002l-48.24-46.693c-.69-.668-1.035-1.437-1.035-2.305 0-.868.345-1.637 1.035-2.305l48.24-46.693C93.717 2.334 94.51 2 95.407 2c.898 0 1.692.334 2.382 1.002l5.176 5.01c.69.668 1.035 1.436 1.035 2.305 0 .868-.345 1.636-1.035 2.304L62.282 52l40.683 39.379c.69.668 1.035 1.436 1.035 2.304z" id="b"/><filter x="-50%" y="-50%" width="200%" height="200%" filterUnits="objectBoundingBox" id="a"><feOffset dy="2" in="SourceAlpha" result="shadowOffsetOuter1"/><feGaussianBlur stdDeviation="2" in="shadowOffsetOuter1" result="shadowBlurOuter1"/><feColorMatrix values="0 0 0 0 0.933333333 0 0 0 0 0.933333333 0 0 0 0 0.933333333 0 0 0 0.5 0" in="shadowBlurOuter1"/></filter></defs><g fill="none" fill-rule="evenodd"><use fill="#000" filter="url(#a)" xlink:href="#b"/><use fill="#FFF" style="mix-blend-mode:darken" xlink:href="#b"/></g></svg>