<?xml version="1.0" encoding="UTF-8"?>
<svg width="26px" height="26px" viewBox="0 0 26 26" version="1.1" xmlns="http://www.w3.org/2000/svg" xmlns:xlink="http://www.w3.org/1999/xlink">
    <!-- Generator: Sketch 40.3 (33839) - http://www.bohemiancoding.com/sketch -->
    <title>Shape</title>
    <desc>Created with Sketch.</desc>
    <defs></defs>
    <g id="Page-1" stroke="none" stroke-width="1" fill="none" fill-rule="evenodd">
        <path d="M12.1263525,1.27025677 L0.28125,14.0623847 L1.59104499,15.4768988 L2.75847096,14.2161362 L2.75847096,24.6097402 L2.75847096,25.59375 L3.66963269,25.59375 L10.0477648,25.59375 L10.9589265,25.59375 L10.9589265,24.6097402 L10.9589265,15.7536516 L14.6035735,15.7536516 L14.6035735,24.6097402 L14.6035735,25.59375 L15.5147352,25.59375 L21.8928673,25.59375 L22.804029,25.59375 L22.804029,24.6097402 L22.804029,14.2161362 L23.971455,15.4768988 L25.28125,14.0623847 L13.4361475,1.27025677 L12.78125,0.59375 L12.1263525,1.27025677 Z M20.9817056,12.2481165 L20.9817056,23.6257303 L16.4258969,23.6257303 L16.4258969,14.7696418 L16.4258969,13.7856319 L15.5147352,13.7856319 L10.0477648,13.7856319 L9.13660308,13.7856319 L9.13660308,14.7696418 L9.13660308,23.6257303 L4.58079442,23.6257303 L4.58079442,12.2481165 L12.78125,3.39202798 L20.9817056,12.2481165 Z" id="Shape" fill="#00FFFF"></path>
    </g>
</svg>