<svg viewBox="0 0 142 142" xmlns="http://www.w3.org/2000/svg"><title>analytics</title><g fill="none" fill-rule="evenodd"><path d="M104.47 70.9l-2.33-1.88 21.06-28.47 2.33 1.9-21.06 28.45zm-5.87-1.25L82 10.08l2.86-.9 16.57 59.58-2.83.89zM60.53 53.18l-2.6-1.5 21.7-43.1 2.6 1.5-21.7 43.1zM41.3 38.74l14.53 13.5-2.04 2.2-14.56-13.5 2.07-2.2zm-6.7.46l2.56 1.53-19.68 32.74-2.57-1.54L34.6 39.2z" fill="#DDD"/><ellipse fill="#5BB862" cx="126.155" cy="39.01" rx="3.344" ry="3.355"/><path d="M126.16 45.86c-3.78 0-6.85-3.07-6.85-6.85 0-3.76 3.1-6.84 6.87-6.84s6.84 3.08 6.84 6.86c0 3.8-3.06 6.86-6.83 6.86l-.03-.03zm0-7c-.1 0-.16.07-.16.15 0 .18.3.18.3 0 0-.06-.06-.12-.14-.12v-.03z" fill="#EC8E51"/><ellipse fill="#5BB862" cx="82.474" cy="6.855" rx="3.344" ry="3.355"/><path d="M82.47 13.7c-3.77 0-6.84-3.06-6.84-6.84S78.7 0 82.47 0c3.78 0 6.85 3.08 6.85 6.86 0 3.78-3.07 6.85-6.84 6.85l-.01-.01zm0-7c-.08 0-.15.08-.15.16 0 .16.3.16.3 0 0-.1-.06-.15-.15-.15V6.7z" fill="#EC8E51"/><ellipse fill="#5BB862" cx="56.953" cy="55.004" rx="3.344" ry="3.355"/><path d="M56.95 61.86c-3.77 0-6.84-3.08-6.84-6.86 0-3.78 3.1-6.85 6.86-6.85 3.78 0 6.85 3.07 6.85 6.85s-3.06 6.86-6.84 6.86h-.03zm0-7c-.08 0-.15.06-.15.14 0 .16.3.16.3 0 0-.08-.06-.14-.15-.14z" fill="#EC8E51"/><ellipse fill="#5BB862" cx="37.924" cy="37.728" rx="3.344" ry="3.355"/><path d="M37.93 44.58a6.854 6.854 0 0 1 0-13.71c3.77 0 6.84 3.08 6.84 6.86 0 3.78-3.07 6.85-6.85 6.85h.01zm0-7c-.1 0-.16.07-.16.15 0 .16.3.16.3 0 0-.08-.06-.15-.14-.15z" fill="#EC8E51"/><ellipse fill="#5BB862" cx="13.845" cy="75.145" rx="3.344" ry="3.355"/><path d="M13.84 82C10.07 82 7 78.92 7 75.15c0-3.78 3.07-6.86 6.84-6.86 3.78 0 6.85 3.06 6.85 6.84 0 3.77-3.1 6.85-6.86 6.85l.01.02zm0-7c-.08 0-.15.07-.15.15 0 .16.3.16.3 0 0-.1-.08-.15-.17-.15h.02z" fill="#EC8E51"/><ellipse fill="#5BB862" cx="101.195" cy="72.561" rx="3.344" ry="3.355"/><path d="M101.2 79.42a6.854 6.854 0 1 1 0-13.71c3.77 0 6.84 3.1 6.84 6.87 0 3.78-3.07 6.86-6.85 6.86l.01-.02zm0-7c-.1 0-.16.06-.16.14 0 .16.3.16.3 0 0-.08-.06-.14-.15-.14h.01z" fill="#EC8E51"/><path d="M2.776 133.566H0l10.753-24.88h2.46l10.683 24.88h-2.812l-2.74-6.536H5.481l-2.706 6.536zm3.655-8.855h10.964l-5.482-13.213-5.482 13.213zm23.147-7.59a31.816 31.816 0 0 1 .14 2.811h.07c.469-.96 1.23-1.74 2.285-2.337a6.67 6.67 0 0 1 3.338-.896c2.085 0 3.649.62 4.691 1.862 1.043 1.242 1.564 2.882 1.564 4.92v10.085h-2.39v-9.101c0-.867-.07-1.652-.21-2.355-.141-.702-.381-1.306-.72-1.81a3.444 3.444 0 0 0-1.371-1.177c-.574-.28-1.295-.421-2.161-.421-.633 0-1.248.129-1.845.386-.598.258-1.13.65-1.6 1.178-.468.527-.843 1.194-1.124 2.003-.28.808-.421 1.762-.421 2.864v8.433h-2.39V120.74c0-.445-.012-1.02-.035-1.722a38.494 38.494 0 0 0-.106-1.898h2.285zm28.664 5.833c0-1.43-.375-2.495-1.125-3.198-.75-.703-1.839-1.054-3.268-1.054-.984 0-1.898.176-2.741.527-.843.351-1.558.82-2.144 1.406l-1.335-1.582c.68-.68 1.576-1.241 2.688-1.687 1.113-.445 2.372-.667 3.778-.667.89 0 1.722.123 2.495.369a5.923 5.923 0 0 1 2.038 1.107 5.013 5.013 0 0 1 1.37 1.862c.329.75.493 1.628.493 2.636v7.204c0 .632.023 1.288.07 1.967.047.68.117 1.254.21 1.722h-2.143c-.07-.398-.129-.831-.176-1.3-.046-.468-.07-.925-.07-1.37h-.07c-.75 1.1-1.599 1.891-2.548 2.372-.949.48-2.09.72-3.426.72a7.649 7.649 0 0 1-1.95-.264 5.46 5.46 0 0 1-1.828-.86 4.867 4.867 0 0 1-1.37-1.547c-.363-.632-.545-1.405-.545-2.319 0-1.265.322-2.267.967-3.005.644-.737 1.505-1.288 2.582-1.651 1.078-.363 2.314-.598 3.708-.703a57.576 57.576 0 0 1 4.34-.158v-.527zm-.703 2.39c-.984 0-1.974.04-2.97.122-.995.082-1.897.246-2.705.492-.809.246-1.47.604-1.986 1.072-.515.469-.773 1.09-.773 1.863 0 .585.111 1.077.334 1.475.222.399.521.72.896.967.375.246.79.422 1.247.527.457.105.92.158 1.388.158.844 0 1.594-.146 2.25-.44a4.758 4.758 0 0 0 1.651-1.194 5.28 5.28 0 0 0 1.02-1.74 6.118 6.118 0 0 0 .35-2.073v-1.23h-.702zm11.585 8.222h-2.39V107h2.39v26.566zm12.078-2.565h.07l5.096-13.88h2.6l-8.188 20.697c-.492 1.265-1.118 2.279-1.88 3.04-.761.761-1.856 1.142-3.285 1.142-.727 0-1.441-.07-2.144-.21l.246-2.18a5.52 5.52 0 0 0 1.757.282c.82 0 1.464-.252 1.933-.756.468-.504.878-1.224 1.23-2.161l1.335-3.444-7.028-16.41h2.67L81.203 131zm18.93-11.878h-4.638v9.594c0 .609.058 1.113.175 1.51.117.4.287.71.51.932.222.223.486.375.79.457.305.082.633.123.984.123a4.15 4.15 0 0 0 1.037-.14 5.237 5.237 0 0 0 1.037-.387l.105 2.073c-.422.164-.86.287-1.318.37a8.468 8.468 0 0 1-1.493.122c-.445 0-.914-.058-1.406-.176a3.557 3.557 0 0 1-1.37-.667c-.422-.328-.768-.773-1.037-1.336-.27-.562-.404-1.3-.404-2.213v-10.262h-3.409v-2.003h3.409v-4.638h2.39v4.638h4.638v2.003zm6.174 14.443h-2.39V117.12h2.39v16.446zm.492-22.77c0 .491-.176.895-.527 1.212-.351.316-.738.474-1.16.474-.421 0-.808-.158-1.16-.474-.35-.317-.526-.72-.526-1.213 0-.492.175-.896.527-1.212.351-.316.738-.475 1.16-.475.421 0 .808.159 1.159.475.351.316.527.72.527 1.212zm17.735 10.085c-.398-.633-.978-1.154-1.74-1.564a5.144 5.144 0 0 0-2.477-.615c-.96 0-1.827.17-2.6.51a5.883 5.883 0 0 0-1.985 1.405c-.551.597-.973 1.3-1.265 2.108a7.629 7.629 0 0 0-.44 2.618c0 .937.147 1.804.44 2.6a6.365 6.365 0 0 0 1.247 2.092 5.7 5.7 0 0 0 1.968 1.405c.773.34 1.64.51 2.6.51 1.054 0 1.945-.2 2.67-.598a5.466 5.466 0 0 0 1.793-1.546l1.792 1.336a7.835 7.835 0 0 1-2.583 2.073c-1.019.515-2.243.773-3.672.773-1.335 0-2.542-.217-3.62-.65-1.077-.434-1.996-1.037-2.758-1.81a8.196 8.196 0 0 1-1.774-2.74c-.422-1.055-.633-2.203-.633-3.445 0-1.241.211-2.39.633-3.443a8.196 8.196 0 0 1 1.774-2.741c.762-.773 1.681-1.377 2.759-1.81 1.077-.434 2.284-.65 3.62-.65 1.1 0 2.219.24 3.355.72 1.136.48 2.056 1.19 2.759 2.126l-1.863 1.336zm14.503.14c-.352-.68-.885-1.236-1.6-1.67-.714-.432-1.528-.65-2.442-.65-.421 0-.843.048-1.265.141a3.44 3.44 0 0 0-1.124.457c-.328.211-.592.48-.79.808-.2.328-.3.715-.3 1.16 0 .773.317 1.365.95 1.775.632.41 1.627.755 2.986 1.036 1.945.399 3.38.978 4.305 1.74.925.761 1.388 1.786 1.388 3.075 0 .937-.182 1.727-.545 2.372a4.743 4.743 0 0 1-1.423 1.58 5.746 5.746 0 0 1-1.985.88 9.602 9.602 0 0 1-2.232.263 8.9 8.9 0 0 1-3.62-.773c-1.17-.516-2.131-1.324-2.88-2.425l1.897-1.405c.422.726 1.042 1.335 1.862 1.827a5.16 5.16 0 0 0 2.706.738c.516 0 1.008-.047 1.476-.14a3.39 3.39 0 0 0 1.23-.493c.351-.234.632-.533.843-.896.211-.363.317-.814.317-1.353 0-.867-.416-1.517-1.248-1.95-.832-.433-2.032-.838-3.602-1.212a21.672 21.672 0 0 1-1.564-.44 5.37 5.37 0 0 1-1.528-.773 4.206 4.206 0 0 1-1.16-1.282c-.304-.516-.457-1.16-.457-1.933 0-.843.164-1.564.492-2.161a4.316 4.316 0 0 1 1.318-1.476 5.874 5.874 0 0 1 1.88-.861 8.42 8.42 0 0 1 2.179-.281c1.148 0 2.26.257 3.338.773 1.078.515 1.886 1.242 2.425 2.179l-1.827 1.37z" fill="#EEE"/></g></svg>