<?xml version="1.0" encoding="UTF-8"?>
<svg width="809px" height="238px" viewBox="0 0 809 238" version="1.1" xmlns="http://www.w3.org/2000/svg" xmlns:xlink="http://www.w3.org/1999/xlink">
    <!-- Generator: Sketch 41 (35326) - http://www.bohemiancoding.com/sketch -->
    <title>apollo-word</title>
    <desc>Created with Sketch.</desc>
    <defs></defs>
    <g id="Page-1" stroke="none" stroke-width="1" fill="none" fill-rule="evenodd">
        <g id="apollo-word" fill="#FFFFFF">
            <polygon id="Shape" points="131.58 67.38 107.269 67.38 72.167 158.477 94.157 158.477 99.894 143.045 133.06 143.045 127.056 125.971 105.217 125.971 119.422 86.773 144.692 158.477 166.681 158.477"></polygon>
            <polygon id="Shape" points="500.882 158.477 500.882 67.38 520.41 67.38 520.41 141.404 558.927 141.404 558.927 158.476 500.882 158.476"></polygon>
            <polygon id="Shape" points="613.445 158.477 613.445 67.38 632.976 67.38 632.976 141.404 671.492 141.404 671.492 158.476 613.445 158.476"></polygon>
            <path d="M392.715,83.705 C408.867,83.705 422.008,96.845 422.008,112.997 C422.008,129.148 408.867,142.289 392.715,142.289 C376.564,142.289 363.423,129.148 363.423,112.997 C363.422,96.842 376.563,83.705 392.715,83.705 L392.715,83.705 Z M392.715,65.88 C366.693,65.88 345.597,86.976 345.597,112.997 C345.597,139.02 366.693,160.117 392.715,160.117 C418.736,160.117 439.834,139.02 439.834,112.997 C439.834,86.974 418.738,65.88 392.715,65.88 L392.715,65.88 Z" id="Shape"></path>
            <path d="M761.277,83.705 C777.431,83.705 790.572,96.845 790.572,112.997 C790.572,129.148 777.431,142.289 761.277,142.289 C745.125,142.289 731.986,129.148 731.986,112.997 C731.986,96.842 745.126,83.705 761.277,83.705 L761.277,83.705 Z M761.277,65.88 C735.256,65.88 714.158,86.976 714.158,112.997 C714.158,139.02 735.259,160.117 761.277,160.117 C787.3,160.117 808.398,139.02 808.398,112.997 C808.398,86.974 787.302,65.88 761.277,65.88 L761.277,65.88 Z" id="Shape"></path>
            <path d="M265.979,67.38 L242.897,67.38 L239.585,67.38 L223.501,67.38 L223.501,158.479 L242.897,158.479 L242.897,127.126 L265.979,127.126 C282.168,127.126 295.293,113.441 295.293,97.252 C295.293,81.061 282.168,67.38 265.979,67.38 Z M265.979,109.298 L242.897,109.298 L242.897,85.209 L265.979,85.209 C272.315,85.209 277.465,90.92 277.465,97.254 C277.465,103.589 272.315,109.298 265.979,109.298 Z" id="Shape"></path>
            <path d="M206.754,186.124 C205.066,186.124 203.576,186.96 202.666,188.242 C202.666,188.242 198.291,193.233 195.934,195.596 C185.955,205.575 174.334,213.408 161.401,218.877 C148.014,224.54 133.79,227.411 119.12,227.411 C104.448,227.411 90.224,224.54 76.839,218.877 C63.903,213.405 52.284,205.572 42.307,195.596 C32.328,185.615 24.494,173.994 19.022,161.062 C13.362,147.672 10.489,133.449 10.489,118.78 C10.489,104.111 13.362,89.885 19.022,76.499 C24.494,63.563 32.328,51.945 42.307,41.966 C52.286,31.987 63.905,24.154 76.839,18.681 C90.225,13.02 104.448,10.149 119.12,10.149 C133.79,10.149 148.016,13.02 161.401,18.681 C170.823,22.667 179.542,27.911 187.442,34.322 C187.02,35.565 186.784,36.898 186.784,38.285 C186.784,45.055 192.272,50.543 199.04,50.543 C205.811,50.543 211.298,45.055 211.298,38.285 C211.298,31.514 205.811,26.028 199.04,26.028 C197.36,26.028 195.757,26.367 194.298,26.981 C173.831,10.199 147.653,0.123 119.12,0.123 C53.585,0.123 0.46,53.248 0.46,118.783 C0.46,184.318 53.585,237.444 119.12,237.444 C155.778,237.444 188.54,220.808 210.305,194.686 C211.21,193.779 211.774,192.526 211.774,191.143 C211.772,188.367 209.528,186.124 206.754,186.124 Z" id="Shape"></path>
        </g>
    </g>
</svg>