<?xml version="1.0" encoding="UTF-8"?>
<svg width="330px" height="69px" viewBox="0 0 330 69" version="1.1" xmlns="http://www.w3.org/2000/svg" xmlns:xlink="http://www.w3.org/1999/xlink">
    <title>Atom (text editor)</title>
    <desc>Atom is a free and open-source text and source code editor for OS X, Linux, and Windows with support for plug-ins written in Node.js, and embedded Git Control, developed by GitHub. Atom is a desktop application built using web technologies.</desc>
    <defs></defs>
    <g id="Page-1" stroke="none" stroke-width="1" fill="none" fill-rule="evenodd">
        <g id="atom" transform="translate(-1.000000, 0.000000)" fill="#EEEEEE">
            <g id="Group" transform="translate(98.000000, 10.000000)">
                <path d="M0.7,48.4 L21.7,2.9 C22.2,1.8 22.9,1.1 24.2,1.1 L24.3,1.1 C25.6,1.1 26.3,1.8 26.8,2.9 L47.7,48.3 C47.9,48.7 48,49.1 48,49.4 C48,50.3 47.2,51.1 46.2,51.1 C45.4,51.1 44.7,50.5 44.4,49.7 L38.6,37.1 L9.6,37.1 L3.8,49.8 C3.4,50.6 2.9,51.1 2,51.1 C1.1,51.1 0.3,50.4 0.3,49.6 C0.4,49.3 0.5,48.9 0.7,48.4 L0.7,48.4 Z M37.1,33.8 L24.2,5.4 L11.2,33.8 L37.1,33.8 L37.1,33.8 Z" id="Shape"></path>
                <path d="M77.1,5 L61.4,5 C60.5,5 59.7,4.2 59.7,3.3 C59.7,2.4 60.5,1.6 61.4,1.6 L96.5,1.6 C97.4,1.6 98.2,2.4 98.2,3.3 C98.2,4.2 97.4,5 96.5,5 L80.8,5 L80.8,49.2 C80.8,50.2 80,51 79,51 C78,51 77.2,50.2 77.2,49.2 L77.2,5 L77.1,5 Z" id="Shape"></path>
                <path d="M113.5,26.4 L113.5,26.3 C113.5,12.9 123.4,0.9 138.3,0.9 C153.2,0.9 163,12.8 163,26.2 L163,26.3 C163,39.7 153.1,51.7 138.2,51.7 C123.2,51.7 113.5,39.8 113.5,26.4 L113.5,26.4 Z M159.1,26.4 L159.1,26.3 C159.1,14.1 150.2,4.2 138.1,4.2 C125.9,4.2 117.2,14 117.2,26.2 L117.2,26.3 C117.2,38.5 126,48.4 138.2,48.4 C150.4,48.4 159.1,38.5 159.1,26.4 L159.1,26.4 Z" id="Shape"></path>
                <path d="M185.9,3.3 C185.9,2.3 186.7,1.5 187.7,1.5 L188.1,1.5 C188.9,1.5 189.4,1.9 189.9,2.6 L209.1,30.8 L228.3,2.6 C228.7,2 229.4,1.5 230.1,1.5 L230.5,1.5 C231.5,1.5 232.3,2.3 232.3,3.3 L232.3,49.3 C232.3,50.3 231.5,51.1 230.5,51.1 C229.5,51.1 228.7,50.3 228.7,49.3 L228.7,8.1 L210.6,34.4 C210.2,35 209.7,35.3 209.1,35.3 C208.5,35.3 208,35 207.6,34.4 L189.5,8.1 L189.5,49.3 C189.5,50.3 188.7,51.1 187.7,51.1 C186.7,51.1 185.9,50.3 185.9,49.3 L185.9,3.3 L185.9,3.3 Z" id="Shape"></path>
            </g>
            <circle id="Oval" cx="38.5" cy="34.9" r="4.4"></circle>
            <path d="M52.3,68.8 C49,68.8 45,66.7 40.7,62.7 C35.3,57.7 29.9,50.2 25.5,41.5 C21.1,32.9 18.2,24.1 17.3,16.8 C16.3,9 17.8,3.6 21.6,1.7 C24.9,0 29.3,1.2 34.4,5.3 C35.1,5.8 35.2,6.8 34.6,7.5 C34.1,8.2 33.1,8.3 32.4,7.7 C28.5,4.6 25.1,3.4 23,4.5 C20.6,5.7 19.6,10.2 20.3,16.5 C21.1,23.5 23.9,31.9 28.2,40.2 C32.5,48.5 37.6,55.7 42.8,60.5 C47.4,64.8 51.6,66.6 54.1,65.3 C58.8,62.9 58.2,48.6 49.7,31.2 C49.3,30.4 49.6,29.5 50.4,29.1 C51.2,28.7 52.1,29 52.5,29.8 C61.3,48 62.6,64.4 55.5,68 C54.4,68.5 53.4,68.8 52.3,68.8 L52.3,68.8 Z" id="Shape"></path>
            <path d="M65.5,45.8 C64.9,45.8 64.3,45.4 64.1,44.8 C63.8,44 64.2,43.1 65,42.8 C69.6,41 72.2,38.7 72.4,36.3 C72.7,30.8 59,24 38.9,22.9 C29.6,22.4 20.7,23.3 14,25.4 C8,27.3 4.3,30 4.2,32.7 C4,35.1 6.3,37.7 10.7,40 C11.5,40.4 11.7,41.3 11.4,42.1 C11,42.9 10.1,43.1 9.3,42.8 C3.7,39.8 0.8,36.3 1,32.6 C1.2,28.4 5.5,24.8 13,22.5 C20,20.3 29.2,19.4 38.9,19.9 C60.1,21 75.7,28.1 75.3,36.5 C75.1,40.2 71.9,43.4 66,45.7 C65.8,45.7 65.6,45.8 65.5,45.8 L65.5,45.8 Z" id="Shape"></path>
            <path d="M21.4,66.9 C19.9,66.9 18.6,66.5 17.5,65.8 C14,63.5 13,58 14.7,50.3 C16.3,43.1 20.1,34.7 25.4,26.5 C30.7,18.3 36.8,11.6 42.7,7.2 C49,2.4 54.4,1.1 58,3.4 C61.3,5.6 62.4,10.4 61.1,17.4 C60.9,18.2 60.1,18.8 59.3,18.6 C58.5,18.4 57.9,17.6 58.1,16.8 C59.1,11.3 58.5,7.3 56.4,5.9 C54,4.5 49.6,5.9 44.6,9.6 C39,13.8 33.1,20.5 28,28.3 C22.9,36.1 19.3,44.2 17.7,51.1 C16.3,57.2 16.8,61.8 19.1,63.3 C21.3,64.7 25.4,63.6 30.3,60 C31,59.5 32,59.7 32.5,60.3 C33,60.9 32.8,62 32.2,62.5 C28.1,65.4 24.4,66.9 21.4,66.9 L21.4,66.9 Z" id="Shape"></path>
        </g>
    </g>
</svg>
