<svg width="330" height="69" viewBox="0 0 330 69" xmlns="http://www.w3.org/2000/svg"><title>Atom (text editor)</title><desc>Atom is a free and open-source text and source code editor for OS X, Linux, and Windows with support for plug-ins written in Node.js, and embedded Git Control, developed by GitHub. Atom is a desktop application built using web technologies.</desc><g transform="translate(-1)" fill="#EEE" fill-rule="evenodd"><path d="M98.7 58.4l21-45.5c.5-1.1 1.2-1.8 2.5-1.8h.1c1.3 0 2 .7 2.5 1.8l20.9 45.4c.2.4.3.8.3 1.1 0 .9-.8 1.7-1.8 1.7-.8 0-1.5-.6-1.8-1.4l-5.8-12.6h-29l-5.8 12.7c-.4.8-.9 1.3-1.8 1.3s-1.7-.7-1.7-1.5c.1-.3.2-.7.4-1.2zm36.4-14.6l-12.9-28.4-13 28.4h25.9zM175.1 15h-15.7c-.9 0-1.7-.8-1.7-1.7 0-.9.8-1.7 1.7-1.7h35.1c.9 0 1.7.8 1.7 1.7 0 .9-.8 1.7-1.7 1.7h-15.7v44.2c0 1-.8 1.8-1.8 1.8s-1.8-.8-1.8-1.8V15h-.1zM211.5 36.4v-.1c0-13.4 9.9-25.4 24.8-25.4S261 22.8 261 36.2v.1c0 13.4-9.9 25.4-24.8 25.4-15 0-24.7-11.9-24.7-25.3zm45.6 0v-.1c0-12.2-8.9-22.1-21-22.1-12.2 0-20.9 9.8-20.9 22v.1c0 12.2 8.8 22.1 21 22.1s20.9-9.9 20.9-22zM283.9 13.3c0-1 .8-1.8 1.8-1.8h.4c.8 0 1.3.4 1.8 1.1l19.2 28.2 19.2-28.2c.4-.6 1.1-1.1 1.8-1.1h.4c1 0 1.8.8 1.8 1.8v46c0 1-.8 1.8-1.8 1.8s-1.8-.8-1.8-1.8V18.1l-18.1 26.3c-.4.6-.9.9-1.5.9s-1.1-.3-1.5-.9l-18.1-26.3v41.2c0 1-.8 1.8-1.8 1.8s-1.8-.8-1.8-1.8v-46z"/><circle cx="38.5" cy="34.9" r="4.4"/><path d="M52.3 68.8c-3.3 0-7.3-2.1-11.6-6.1-5.4-5-10.8-12.5-15.2-21.2-4.4-8.6-7.3-17.4-8.2-24.7-1-7.8.5-13.2 4.3-15.1 3.3-1.7 7.7-.5 12.8 3.6.7.5.8 1.5.2 2.2-.5.7-1.5.8-2.2.2-3.9-3.1-7.3-4.3-9.4-3.2-2.4 1.2-3.4 5.7-2.7 12 .8 7 3.6 15.4 7.9 23.7 4.3 8.3 9.4 15.5 14.6 20.3 4.6 4.3 8.8 6.1 11.3 4.8 4.7-2.4 4.1-16.7-4.4-34.1-.4-.8-.1-1.7.7-2.1.8-.4 1.7-.1 2.1.7 8.8 18.2 10.1 34.6 3 38.2-1.1.5-2.1.8-3.2.8z"/><path d="M65.5 45.8c-.6 0-1.2-.4-1.4-1-.3-.8.1-1.7.9-2 4.6-1.8 7.2-4.1 7.4-6.5.3-5.5-13.4-12.3-33.5-13.4-9.3-.5-18.2.4-24.9 2.5-6 1.9-9.7 4.6-9.8 7.3-.2 2.4 2.1 5 6.5 7.3.8.4 1 1.3.7 2.1-.4.8-1.3 1-2.1.7-5.6-3-8.5-6.5-8.3-10.2.2-4.2 4.5-7.8 12-10.1 7-2.2 16.2-3.1 25.9-2.6 21.2 1.1 36.8 8.2 36.4 16.6-.2 3.7-3.4 6.9-9.3 9.2-.2 0-.4.1-.5.1z"/><path d="M21.4 66.9c-1.5 0-2.8-.4-3.9-1.1C14 63.5 13 58 14.7 50.3c1.6-7.2 5.4-15.6 10.7-23.8 5.3-8.2 11.4-14.9 17.3-19.3C49 2.4 54.4 1.1 58 3.4c3.3 2.2 4.4 7 3.1 14-.2.8-1 1.4-1.8 1.2-.8-.2-1.4-1-1.2-1.8 1-5.5.4-9.5-1.7-10.9-2.4-1.4-6.8 0-11.8 3.7C39 13.8 33.1 20.5 28 28.3c-5.1 7.8-8.7 15.9-10.3 22.8-1.4 6.1-.9 10.7 1.4 12.2 2.2 1.4 6.3.3 11.2-3.3.7-.5 1.7-.3 2.2.3.5.6.3 1.7-.3 2.2-4.1 2.9-7.8 4.4-10.8 4.4z"/></g></svg>