<?xml version="1.0" encoding="UTF-8"?>
<svg width="289px" height="108px" viewBox="0 0 289 108" version="1.1" xmlns="http://www.w3.org/2000/svg" xmlns:xlink="http://www.w3.org/1999/xlink">
    <!-- Generator: Sketch 40.3 (33839) - http://www.bohemiancoding.com/sketch -->
    <title>BASIC</title>
    <desc>Beginners All-purpose Symbolic Instruction Code</desc>
    <defs></defs>
    <g id="Page-1" stroke="none" stroke-width="1" fill="none" fill-rule="evenodd">
        <g id="BASIC" transform="translate(-12.000000, -39.000000)" fill="#ECF905">
            <path d="M65.134,116.208 C65.134,121.488026 64.2940084,125.903982 62.614,129.456 C60.9339916,133.008018 58.798013,135.863989 56.206,138.024 C53.613987,140.184011 50.7580156,141.719995 47.638,142.632 C44.5179844,143.544005 41.5180144,144 38.638,144 L12.574,144 L12.574,42.048 L35.614,42.048 C38.4940144,42.048 41.4699846,42.4319962 44.542,43.2 C47.6140154,43.9680038 50.4219873,45.2879906 52.966,47.16 C55.5100127,49.0320094 57.5979918,51.5759839 59.23,54.792 C60.8620082,58.0080161 61.678,62.0639755 61.678,66.96 C61.678,70.4160173 61.2700041,73.4159873 60.454,75.96 C59.6379959,78.5040127 58.5580067,80.7119906 57.214,82.584 C55.8699933,84.4560094 54.3340086,85.991994 52.606,87.192 C50.8779914,88.392006 49.1020091,89.3279966 47.278,90 L47.278,90.288 C49.1020091,90.6720019 51.0699894,91.4399942 53.182,92.592 C55.2940106,93.7440058 57.2379911,95.3519897 59.014,97.416 C60.7900089,99.4800103 62.2539942,102.071984 63.406,105.192 C64.5580058,108.312016 65.134,111.983979 65.134,116.208 L65.134,116.208 Z M52.318,68.4 C52.318,65.0399832 51.814005,62.2080115 50.806,59.904 C49.797995,57.5999885 48.4540084,55.752007 46.774,54.36 C45.0939916,52.967993 43.1980106,51.9840029 41.086,51.408 C38.9739894,50.8319971 36.814011,50.544 34.606,50.544 L22.078,50.544 L22.078,86.688 L34.894,86.688 C37.0060106,86.688 39.0939897,86.3520034 41.158,85.68 C43.2220103,85.0079966 45.0699918,83.9280074 46.702,82.44 C48.3340082,80.9519926 49.6779947,79.0560115 50.734,76.752 C51.7900053,74.4479885 52.318,71.6640163 52.318,68.4 L52.318,68.4 Z M55.198,115.632 C55.198,111.791981 54.6220058,108.552013 53.47,105.912 C52.3179942,103.271987 50.8300091,101.136008 49.006,99.504 C47.1819909,97.8719918 45.1420113,96.6720038 42.886,95.904 C40.6299887,95.1359962 38.4460106,94.752 36.334,94.752 L22.078,94.752 L22.078,135.504 L36.334,135.504 C38.926013,135.504 41.3739885,135.120004 43.678,134.352 C45.9820115,133.583996 47.9979914,132.384008 49.726,130.752 C51.4540086,129.119992 52.7979952,127.056012 53.758,124.56 C54.7180048,122.063988 55.198,119.088017 55.198,115.632 L55.198,115.632 Z M126.29,144 L120.098,118.512 L88.706,118.512 L82.226,144 L72.002,144 L97.922,42.048 L111.602,42.048 L136.802,144 L126.29,144 Z M104.834,51.12 L104.258,51.12 L90.146,110.448 L118.658,110.448 L104.834,51.12 Z M193.782,117.936 C193.782,122.448023 193.110007,126.455982 191.766,129.96 C190.421993,133.464018 188.574012,136.439988 186.222,138.888 C183.869988,141.336012 181.110016,143.207994 177.942,144.504 C174.773984,145.800006 171.414018,146.448 167.862,146.448 C162.677974,146.448 157.902022,145.344011 153.534,143.136 C149.165978,140.927989 145.638013,138.000018 142.95,134.352 L149.142,127.296 C151.350011,130.464016 154.133983,132.911991 157.494,134.64 C160.854017,136.368009 164.261983,137.232 167.718,137.232 C172.326023,137.232 176.189984,135.600016 179.31,132.336 C182.430016,129.071984 183.99,124.41603 183.99,118.368 C183.99,115.487986 183.510005,112.944011 182.55,110.736 C181.589995,108.527989 180.294008,106.560009 178.662,104.832 C177.029992,103.103991 175.18201,101.568007 173.118,100.224 C171.05399,98.8799933 168.870012,97.6320058 166.566,96.48 C163.781986,95.1359933 161.142012,93.6240084 158.646,91.944 C156.149988,90.2639916 153.966009,88.320011 152.094,86.112 C150.221991,83.903989 148.710006,81.2880151 147.558,78.264 C146.405994,75.2399849 145.83,71.7120202 145.83,67.68 C145.83,62.9759765 146.549993,58.8720175 147.99,55.368 C149.430007,51.8639825 151.373988,48.9360118 153.822,46.584 C156.270012,44.2319882 159.029985,42.4800058 162.102,41.328 C165.174015,40.1759942 168.389983,39.6 171.75,39.6 C176.358023,39.6 180.509982,40.3919921 184.206,41.976 C187.902018,43.5600079 190.997988,46.0319832 193.494,49.392 L187.302,56.448 C185.38199,53.6639861 183.126013,51.672006 180.534,50.472 C177.941987,49.271994 175.110015,48.672 172.038,48.672 C170.02199,48.672 168.03001,49.0319964 166.062,49.752 C164.09399,50.4720036 162.342008,51.5999923 160.806,53.136 C159.269992,54.6720077 158.022005,56.639988 157.062,59.04 C156.101995,61.440012 155.622,64.2719837 155.622,67.536 C155.622,70.4160144 156.053996,72.9119894 156.918,75.024 C157.782004,77.1360106 158.957993,79.0079918 160.446,80.64 C161.934007,82.2720082 163.66199,83.7119938 165.63,84.96 C167.59801,86.2080062 169.637989,87.3599947 171.75,88.416 C174.438013,89.7600067 177.101987,91.2959914 179.742,93.024 C182.382013,94.7520086 184.757989,96.7679885 186.87,99.072 C188.982011,101.376012 190.661994,104.063985 191.91,107.136 C193.158006,110.208015 193.782,113.807979 193.782,117.936 L193.782,117.936 Z M212.17,144 L212.17,42.048 L222.25,42.048 L222.25,144 L212.17,144 Z M300.398,132.48 C297.709987,136.992023 294.302021,140.447988 290.174,142.848 C286.045979,145.248012 281.390026,146.448 276.206,146.448 C270.637972,146.448 265.694022,145.080014 261.374,142.344 C257.053978,139.607986 253.406015,135.864024 250.43,131.112 C247.453985,126.359976 245.174008,120.720033 243.59,114.192 C242.005992,107.663967 241.214,100.608038 241.214,93.024 C241.214,85.3439616 242.005992,78.2400326 243.59,71.712 C245.174008,65.1839674 247.477985,59.5440238 250.502,54.792 C253.526015,50.0399762 257.197978,46.3200134 261.518,43.632 C265.838022,40.9439866 270.733973,39.6 276.206,39.6 C281.006024,39.6 285.493979,40.6079899 289.67,42.624 C293.846021,44.6400101 297.325986,47.8079784 300.11,52.128 L293.63,58.752 C291.421989,55.3919832 288.854015,52.8960082 285.926,51.264 C282.997985,49.6319918 279.902016,48.816 276.638,48.816 C272.413979,48.816 268.742016,49.9679885 265.622,52.272 C262.501984,54.5760115 259.91001,57.7439798 257.846,61.776 C255.78199,65.8080202 254.246005,70.5119731 253.238,75.888 C252.229995,81.2640269 251.726,86.9759698 251.726,93.024 C251.726,99.0720302 252.253995,104.759973 253.31,110.088 C254.366005,115.416027 255.92599,120.09598 257.99,124.128 C260.05401,128.16002 262.645984,131.351988 265.766,133.704 C268.886016,136.056012 272.557979,137.232 276.782,137.232 C280.430018,137.232 283.741985,136.20001 286.718,134.136 C289.694015,132.07199 292.14199,129.360017 294.062,126 L300.398,132.48 Z"></path>
        </g>
    </g>
</svg>
