<svg width="289" height="108" viewBox="0 0 289 108" xmlns="http://www.w3.org/2000/svg"><title>BASIC</title><desc>Beginners All-purpose Symbolic Instruction Code</desc><path d="M53.134 77.208c0 5.28-.84 9.696-2.52 13.248-1.68 3.552-3.816 6.408-6.408 8.568-2.592 2.16-5.448 3.696-8.568 4.608-3.12.912-6.12 1.368-9 1.368H.574V3.048h23.04c2.88 0 5.856.384 8.928 1.152a23.83 23.83 0 0 1 8.424 3.96c2.544 1.872 4.632 4.416 6.264 7.632 1.632 3.216 2.448 7.272 2.448 12.168 0 3.456-.408 6.456-1.224 9-.816 2.544-1.896 4.752-3.24 6.624-1.344 1.872-2.88 3.408-4.608 4.608-1.728 1.2-3.504 2.136-5.328 2.808v.288c1.824.384 3.792 1.152 5.904 2.304s4.056 2.76 5.832 4.824c1.776 2.064 3.24 4.656 4.392 7.776 1.152 3.12 1.728 6.792 1.728 11.016zM40.318 29.4c0-3.36-.504-6.192-1.512-8.496-1.008-2.304-2.352-4.152-4.032-5.544a15 15 0 0 0-5.688-2.952 24.518 24.518 0 0 0-6.48-.864H10.078v36.144h12.816c2.112 0 4.2-.336 6.264-1.008a15.072 15.072 0 0 0 5.544-3.24c1.632-1.488 2.976-3.384 4.032-5.688s1.584-5.088 1.584-8.352zm2.88 47.232c0-3.84-.576-7.08-1.728-9.72-1.152-2.64-2.64-4.776-4.464-6.408-1.824-1.632-3.864-2.832-6.12-3.6-2.256-.768-4.44-1.152-6.552-1.152H10.078v40.752h14.256c2.592 0 5.04-.384 7.344-1.152 2.304-.768 4.32-1.968 6.048-3.6 1.728-1.632 3.072-3.696 4.032-6.192s1.44-5.472 1.44-8.928zM114.29 105l-6.192-25.488H76.706L70.226 105H60.002L85.922 3.048h13.68L124.802 105H114.29zM92.834 12.12h-.576L78.146 71.448h28.512L92.834 12.12zm88.948 66.816c0 4.512-.672 8.52-2.016 12.024-1.344 3.504-3.192 6.48-5.544 8.928a23.904 23.904 0 0 1-8.28 5.616c-3.168 1.296-6.528 1.944-10.08 1.944-5.184 0-9.96-1.104-14.328-3.312-4.368-2.208-7.896-5.136-10.584-8.784l6.192-7.056c2.208 3.168 4.992 5.616 8.352 7.344 3.36 1.728 6.768 2.592 10.224 2.592 4.608 0 8.472-1.632 11.592-4.896 3.12-3.264 4.68-7.92 4.68-13.968 0-2.88-.48-5.424-1.44-7.632a20.34 20.34 0 0 0-3.888-5.904 30.42 30.42 0 0 0-5.544-4.608 66.468 66.468 0 0 0-6.552-3.744 63.955 63.955 0 0 1-7.92-4.536c-2.496-1.68-4.68-3.624-6.552-5.832-1.872-2.208-3.384-4.824-4.536-7.848-1.152-3.024-1.728-6.552-1.728-10.584 0-4.704.72-8.808 2.16-12.312 1.44-3.504 3.384-6.432 5.832-8.784 2.448-2.352 5.208-4.104 8.28-5.256C153.174 1.176 156.39.6 159.75.6c4.608 0 8.76.792 12.456 2.376 3.696 1.584 6.792 4.056 9.288 7.416l-6.192 7.056c-1.92-2.784-4.176-4.776-6.768-5.976-2.592-1.2-5.424-1.8-8.496-1.8-2.016 0-4.008.36-5.976 1.08-1.968.72-3.72 1.848-5.256 3.384-1.536 1.536-2.784 3.504-3.744 5.904-.96 2.4-1.44 5.232-1.44 8.496 0 2.88.432 5.376 1.296 7.488a18.854 18.854 0 0 0 3.528 5.616c1.488 1.632 3.216 3.072 5.184 4.32a69.231 69.231 0 0 0 6.12 3.456 79.598 79.598 0 0 1 7.992 4.608 37.452 37.452 0 0 1 7.128 6.048c2.112 2.304 3.792 4.992 5.04 8.064 1.248 3.072 1.872 6.672 1.872 10.8zM200.17 105V3.048h10.08V105h-10.08zm88.228-11.52c-2.688 4.512-6.096 7.968-10.224 10.368-4.128 2.4-8.784 3.6-13.968 3.6-5.568 0-10.512-1.368-14.832-4.104-4.32-2.736-7.968-6.48-10.944-11.232-2.976-4.752-5.256-10.392-6.84-16.92-1.584-6.528-2.376-13.584-2.376-21.168 0-7.68.792-14.784 2.376-21.312 1.584-6.528 3.888-12.168 6.912-16.92 3.024-4.752 6.696-8.472 11.016-11.16C253.838 1.944 258.734.6 264.206.6c4.8 0 9.288 1.008 13.464 3.024s7.656 5.184 10.44 9.504l-6.48 6.624c-2.208-3.36-4.776-5.856-7.704-7.488-2.928-1.632-6.024-2.448-9.288-2.448-4.224 0-7.896 1.152-11.016 3.456-3.12 2.304-5.712 5.472-7.776 9.504-2.064 4.032-3.6 8.736-4.608 14.112-1.008 5.376-1.512 11.088-1.512 17.136s.528 11.736 1.584 17.064c1.056 5.328 2.616 10.008 4.68 14.04 2.064 4.032 4.656 7.224 7.776 9.576 3.12 2.352 6.792 3.528 11.016 3.528 3.648 0 6.96-1.032 9.936-3.096s5.424-4.776 7.344-8.136l6.336 6.48z" fill="#ECF905" fill-rule="evenodd"/></svg>