<svg width="509" height="111" viewBox="0 0 509 111" xmlns="http://www.w3.org/2000/svg"><title>dBase Logo</title><desc>dBase is a database management system (DBMS) that the first widely used for microcomputers, published by Ashton-Tate for CP / M, and later for Apple II, Apple Macintosh, UNIX, VMS, and IBM PC for DOS where it became one of the best-selling software titles for a few years.</desc><g fill="none" fill-rule="evenodd"><path d="M3.989 5.989V110.27h95.344V5.989H3.989zm61.937 5.218H87.24v92.126H65.926v-9.594c-2.92 3.907-6.143 6.778-9.656 8.593-3.513 1.816-7.57 2.72-12.188 2.72-8.17 0-14.875-3.247-20.125-9.72-5.249-6.512-7.875-14.87-7.875-25.093s2.626-18.59 7.875-25.063c5.25-6.512 11.955-9.75 20.126-9.75 4.578 0 8.643.927 12.156 2.782 3.552 1.815 6.767 4.663 9.687 8.53v-35.53zM51.958 50.802c-4.5 0-7.937 1.654-10.344 4.969-2.368 3.315-3.563 8.154-3.563 14.469 0 6.315 1.195 11.122 3.563 14.437 2.407 3.316 5.844 4.969 10.344 4.969 4.538 0 8.006-1.653 10.375-4.969 2.407-3.315 3.593-8.122 3.593-14.437 0-6.315-1.186-11.154-3.593-14.469-2.369-3.315-5.837-4.969-10.375-4.969z" fill="#4D4D4D"/><path d="M153.079 42.615c4.624 0 8.131-.937 10.52-2.813 2.388-1.874 3.583-4.64 3.583-8.296 0-3.61-1.195-6.352-3.583-8.227-2.389-1.922-5.896-2.883-10.52-2.883H136.84v22.219h16.238m.99 45.914c5.896 0 10.317-1.148 13.265-3.445 2.999-2.297 4.498-5.766 4.498-10.407 0-4.546-1.474-7.945-4.422-10.195-2.947-2.297-7.394-3.445-13.34-3.445h-17.23v27.492h17.23m27.291-37.758c6.302 1.688 11.181 4.805 14.637 9.352 3.456 4.547 5.184 10.125 5.184 16.734 0 10.125-3.71 17.672-11.13 22.64-7.42 4.97-18.703 7.454-33.848 7.454H107.49V1.974h44.063c15.806 0 27.24 2.204 34.305 6.61 7.115 4.406 10.673 11.46 10.673 21.164 0 5.11-1.296 9.469-3.888 13.078-2.592 3.562-6.353 6.21-11.283 7.945m103.281 37.055h-45.893l-7.242 19.125h-29.502L244.16 1.974h34.991l42.158 104.977h-29.503l-7.166-19.125m-38.574-19.477h31.18l-15.552-41.765-15.628 41.765M409.03 5.279v22.219c-6.252-2.578-12.35-4.524-18.297-5.836-5.946-1.313-11.562-1.969-16.847-1.969-7.014 0-12.198.89-15.552 2.672-3.354 1.781-5.032 4.547-5.032 8.297 0 2.812 1.119 5.016 3.355 6.61 2.287 1.546 6.403 2.882 12.35 4.007l12.502 2.32c12.655 2.344 21.65 5.907 26.987 10.688 5.336 4.781 8.004 11.578 8.004 20.39 0 11.579-3.735 20.204-11.206 25.875-7.42 5.625-18.78 8.438-34.077 8.438-7.216 0-14.459-.633-21.726-1.898-7.268-1.266-14.536-3.141-21.803-5.625V78.615c7.267 3.563 14.281 6.258 21.04 8.086 6.81 1.781 13.367 2.672 19.669 2.672 6.403 0 11.308-.985 14.713-2.953 3.405-1.969 5.107-4.782 5.108-8.438 0-3.281-1.17-5.812-3.507-7.594-2.287-1.78-6.887-3.375-13.799-4.78l-11.358-2.321c-11.385-2.25-19.72-5.836-25.005-10.758-5.235-4.922-7.852-11.555-7.852-19.898 0-10.453 3.66-18.492 10.978-24.118 7.318-5.624 17.838-8.437 31.56-8.437 6.251 0 12.68.445 19.287 1.336 6.607.844 13.443 2.133 20.507 3.867m18.136-3.305h79.207v20.461h-49.857v19.547h46.883v20.461h-46.883V86.49h51.534v20.46h-80.884V1.975" fill="#eee"/><path d="M.78 2.67v104.28h95.345V2.67H.78zm61.938 5.218h21.313v92.125H62.718V90.42c-2.92 3.907-6.143 6.778-9.656 8.593-3.513 1.816-7.57 2.72-12.187 2.72-8.17 0-14.876-3.247-20.125-9.72-5.25-6.512-7.875-14.87-7.875-25.093S15.5 48.33 20.75 41.857c5.249-6.512 11.955-9.75 20.125-9.75 4.578 0 8.643.926 12.156 2.781 3.552 1.816 6.767 4.664 9.687 8.532V7.888zM48.75 47.482c-4.5 0-7.937 1.654-10.344 4.969-2.368 3.315-3.563 8.154-3.563 14.469 0 6.315 1.195 11.122 3.563 14.437 2.407 3.316 5.844 4.969 10.344 4.969 4.538 0 8.006-1.653 10.375-4.969 2.407-3.315 3.593-8.122 3.593-14.437 0-6.315-1.186-11.154-3.593-14.47-2.369-3.314-5.837-4.968-10.375-4.968z" fill="#FF5F56"/></g></svg>