<svg viewBox="0 0 316 408" xmlns="http://www.w3.org/2000/svg"><title>GraphQL</title><g fill="none" fill-rule="evenodd"><g fill="#E535AB"><path d="M41.275 243.796l-11.706-6.759L160.304 10.605l11.706 6.758z"/><path d="M27.051 218.939h260.816v13.551H27.051z"/><path d="M162.66 301.967L32.205 226.646l6.775-11.736 130.457 75.322zm113.328-196.799L145.531 29.846l6.776-11.735 130.457 75.321z"/><path d="M38.844 105.196l-6.76-11.706L162.87 17.98l6.758 11.706z"/><path d="M273.577 243.524L143.169 17.658l11.735-6.776 130.408 225.866zM37.393 84.49H50.91v151.02H37.393z"/><path d="M264.09 84.49h13.517v151.02H264.09z"/><path d="M160.226 296.313l-5.904-10.226 113.746-65.673 5.904 10.225z"/><path d="M295.521 239.918c-7.817 13.633-25.242 18.286-38.841 10.45-13.599-7.837-18.24-25.307-10.423-38.94 7.817-13.632 25.243-18.285 38.842-10.448 13.68 7.918 18.321 25.306 10.422 38.938M68.661 108.571c-7.817 13.633-25.242 18.286-38.841 10.45-13.599-7.837-18.24-25.307-10.423-38.94C27.214 66.45 44.64 61.797 58.24 69.634c13.598 7.918 18.24 25.306 10.422 38.938M19.479 239.918c-7.818-13.632-3.176-31.02 10.422-38.938 13.599-7.837 30.943-3.184 38.842 10.449 7.817 13.632 3.176 31.02-10.423 38.938-13.68 7.837-31.024 3.184-38.841-10.449m226.86-131.347c-7.818-13.632-3.176-31.02 10.422-38.938 13.599-7.837 30.943-3.184 38.842 10.449 7.817 13.632 3.176 31.02-10.423 38.938-13.599 7.837-31.024 3.184-38.841-10.449M157.5 319.837c-15.716 0-28.419-12.735-28.419-28.49 0-15.755 12.703-28.49 28.419-28.49 15.716 0 28.419 12.735 28.419 28.49 0 15.673-12.703 28.49-28.419 28.49m0-262.694c-15.716 0-28.419-12.735-28.419-28.49 0-15.755 12.703-28.49 28.419-28.49 15.716 0 28.419 12.735 28.419 28.49 0 15.755-12.703 28.49-28.419 28.49"/></g><path d="M43.563 345.258c-1.868-1.97-4.09-3.497-6.667-4.583-2.576-1.086-5.53-1.63-8.864-1.63-3.434 0-6.528.632-9.28 1.895-2.754 1.263-5.09 2.967-7.009 5.114-1.92 2.147-3.396 4.634-4.432 7.463-1.035 2.828-1.553 5.808-1.553 8.94 0 3.131.518 6.111 1.553 8.94 1.036 2.828 2.513 5.303 4.432 7.424 1.92 2.122 4.255 3.814 7.008 5.076 2.753 1.263 5.847 1.894 9.281 1.894 3.03 0 5.809-.328 8.334-.985 2.525-.656 4.571-1.49 6.137-2.5v-16.289H30.002v-4.773h17.956v24.169a34.774 34.774 0 0 1-9.47 3.94c-3.385.858-6.895 1.287-10.532 1.287-4.04 0-7.778-.707-11.212-2.121-3.435-1.414-6.39-3.372-8.865-5.872-2.475-2.5-4.407-5.467-5.796-8.902C.694 370.311 0 366.548 0 362.457c0-4.092.707-7.855 2.121-11.29 1.415-3.434 3.372-6.401 5.872-8.901s5.455-4.458 8.864-5.872c3.41-1.414 7.11-2.121 11.1-2.121 4.293 0 8.03.631 11.212 1.894 3.182 1.263 5.91 3.03 8.183 5.303l-3.789 3.788zm18.085 16.365c0-.96-.026-2.197-.076-3.712a82.992 82.992 0 0 0-.228-4.091h4.925c.101.96.177 2.02.227 3.182.05 1.161.076 2.121.076 2.879h.152c1.01-2.071 2.525-3.75 4.545-5.039 2.02-1.288 4.294-1.932 6.819-1.932.657 0 1.25.026 1.78.076s1.074.152 1.63.303l-.683 4.85c-.303-.102-.808-.203-1.515-.304a14.982 14.982 0 0 0-2.121-.152c-1.364 0-2.677.253-3.94.758s-2.361 1.3-3.296 2.387c-.934 1.086-1.692 2.475-2.272 4.167-.581 1.692-.872 3.725-.872 6.098v18.183h-5.151v-27.653zm48.767 4.773c0-3.08-.808-5.379-2.424-6.894-1.616-1.515-3.965-2.273-7.046-2.273-2.121 0-4.091.379-5.91 1.136-1.818.758-3.358 1.768-4.62 3.03l-2.88-3.408c1.465-1.465 3.397-2.677 5.796-3.637 2.4-.96 5.114-1.44 8.144-1.44 1.92 0 3.713.266 5.38.796 1.666.53 3.131 1.326 4.394 2.386 1.262 1.061 2.247 2.4 2.955 4.016.707 1.616 1.06 3.51 1.06 5.682v15.531c0 1.364.05 2.778.152 4.243.1 1.465.252 2.702.454 3.712h-4.621a37.873 37.873 0 0 1-.379-2.803 29.696 29.696 0 0 1-.152-2.955h-.151c-1.616 2.374-3.447 4.079-5.493 5.114-2.045 1.036-4.508 1.554-7.387 1.554a16.49 16.49 0 0 1-4.205-.569 11.772 11.772 0 0 1-3.94-1.856c-1.186-.858-2.171-1.97-2.954-3.333-.783-1.364-1.174-3.03-1.174-5 0-2.728.694-4.887 2.083-6.478 1.39-1.591 3.245-2.778 5.569-3.561 2.323-.783 4.987-1.288 7.993-1.515 3.005-.228 6.124-.341 9.356-.341v-1.137zm-1.515 5.152a77.89 77.89 0 0 0-6.402.265c-2.146.177-4.091.53-5.833 1.06-1.743.531-3.17 1.301-4.281 2.312-1.111 1.01-1.667 2.348-1.667 4.015 0 1.263.24 2.323.72 3.182a5.887 5.887 0 0 0 1.932 2.084c.808.53 1.704.909 2.69 1.136.984.227 1.982.34 2.992.34 1.818 0 3.435-.315 4.849-.946 1.414-.632 2.601-1.49 3.56-2.576a11.385 11.385 0 0 0 2.198-3.75 13.19 13.19 0 0 0 .757-4.47v-2.652H108.9zm24.827 35.911h-5.152v-53.64h5.152v6.137h.227c1.465-2.323 3.422-4.078 5.872-5.265 2.45-1.187 4.937-1.78 7.463-1.78 2.778 0 5.29.48 7.538 1.439 2.248.96 4.167 2.273 5.758 3.94 1.59 1.666 2.828 3.636 3.712 5.91.884 2.272 1.326 4.722 1.326 7.348 0 2.626-.442 5.076-1.326 7.349-.884 2.273-2.121 4.243-3.712 5.91-1.591 1.666-3.51 2.98-5.758 3.94-2.248.959-4.76 1.439-7.538 1.439-2.526 0-5.013-.594-7.463-1.78-2.45-1.188-4.407-2.892-5.872-5.115h-.227v24.168zm26.441-35.911c0-1.97-.303-3.826-.909-5.569-.606-1.742-1.477-3.257-2.614-4.545-1.136-1.288-2.538-2.311-4.205-3.069-1.666-.757-3.56-1.136-5.682-1.136-1.97 0-3.788.366-5.455 1.098a13.093 13.093 0 0 0-4.318 3.031c-1.212 1.288-2.16 2.803-2.841 4.546-.682 1.742-1.023 3.624-1.023 5.644s.34 3.902 1.023 5.644c.682 1.743 1.629 3.245 2.84 4.508a13.372 13.372 0 0 0 4.32 2.993c1.666.732 3.484 1.098 5.454 1.098 2.122 0 4.016-.366 5.682-1.098 1.667-.733 3.069-1.743 4.205-3.03 1.137-1.289 2.008-2.804 2.614-4.546.606-1.743.91-3.6.91-5.569zm22.024-11.895c.96-2.07 2.55-3.712 4.773-4.924a14.647 14.647 0 0 1 7.122-1.819c4.495 0 7.866 1.339 10.114 4.016 2.248 2.677 3.371 6.212 3.371 10.607v21.743h-5.151v-19.622c0-1.869-.152-3.56-.455-5.076-.303-1.515-.82-2.816-1.553-3.902-.733-1.086-1.717-1.932-2.955-2.538-1.237-.606-2.79-.91-4.66-.91a9.958 9.958 0 0 0-3.977.834c-1.288.556-2.437 1.402-3.447 2.538-1.01 1.137-1.818 2.576-2.424 4.319-.607 1.742-.91 3.8-.91 6.174v18.183h-5.151V332h5.151v27.653h.152zm41.95 2.122c0 3.03.492 5.91 1.477 8.637.984 2.727 2.386 5.139 4.204 7.235 1.819 2.096 4.054 3.763 6.705 5 2.652 1.238 5.645 1.856 8.978 1.856 3.283 0 6.25-.618 8.902-1.856 2.652-1.237 4.9-2.904 6.743-5 1.844-2.096 3.27-4.508 4.28-7.235 1.01-2.728 1.516-5.607 1.516-8.637 0-3.03-.505-5.91-1.515-8.637-1.01-2.728-2.437-5.14-4.28-7.236-1.844-2.096-4.092-3.762-6.744-5-2.651-1.237-5.619-1.856-8.902-1.856-3.333 0-6.326.619-8.978 1.856-2.651 1.238-4.886 2.904-6.705 5-1.818 2.097-3.22 4.508-4.204 7.236-.985 2.727-1.478 5.606-1.478 8.637zm52.048 27.501h-30.684c-3.889 0-7.488-.681-10.796-2.045-3.308-1.364-6.175-3.27-8.599-5.72-2.424-2.45-4.318-5.354-5.682-8.713-1.364-3.359-2.046-7.033-2.046-11.023 0-3.99.682-7.665 2.046-11.024 1.364-3.359 3.258-6.263 5.682-8.712 2.424-2.45 5.29-4.357 8.6-5.72 3.307-1.364 6.906-2.046 10.795-2.046 3.839 0 7.412.682 10.72 2.045 3.309 1.364 6.175 3.27 8.6 5.72 2.424 2.45 4.318 5.354 5.682 8.713 1.364 3.359 2.045 7.033 2.045 11.024 0 4.747-1.048 9.079-3.144 12.993-2.096 3.914-5.24 7.084-9.432 9.508l16.213.152v4.848zm14.447-4.848h25.002v4.848h-30.456v-53.64h5.454v48.792z" fill="#FFF"/></g></svg>