<?xml version="1.0" encoding="UTF-8"?>
<svg width="1000px" height="400px" viewBox="0 0 1000 400" version="1.1" xmlns="http://www.w3.org/2000/svg" xmlns:xlink="http://www.w3.org/1999/xlink">
    <title>International Business Machines Corporation</title>
    <desc>An American multinational technology company headquartered in Armonk, New York, United States, with operations in over 170 countries.</desc>
    <defs></defs>
    <g stroke="none" stroke-width="1" fill="none" fill-rule="evenodd">
        <path fill="rgb(0,170,255)" d="M0,0 L0,27.367 L194.64844,27.367 L194.64844,0 L0,0 L0,0 Z M222.22657,0 L222.22657,27.367 L499.60937,27.367 C499.60936,27.367 471.27625,0 433.75,0 L222.22657,0 L222.22657,0 Z M554.02344,0 L554.02344,27.367 L721.83594,27.367 L711.875,0 L554.02344,0 L554.02344,0 Z M842.14844,0 L832.1875,27.367 L998.47656,27.367 L998.47656,0 L842.14844,0 L842.14844,0 Z M0,53.22221 L0,80.589202 L194.64844,80.589202 L194.64844,53.22221 L0,53.22221 L0,53.22221 Z M222.22657,53.260975 L222.22657,80.589202 L531.79688,80.589202 C531.79688,80.589214 528.18125,59.526386 521.875,53.260975 L222.22657,53.260975 L222.22657,53.260975 Z M554.02344,53.260975 L554.02344,80.589202 L740.23438,80.589202 L731.01562,53.260975 L554.02344,53.260975 L554.02344,53.260975 Z M822.22656,53.260975 L813.00781,80.589202 L998.47656,80.589202 L998.47656,53.260975 L822.22656,53.260975 L822.22656,53.260975 Z M55.937496,106.44442 L55.937496,133.85017 L140.23437,133.85017 L140.23437,106.44442 L55.937496,106.44442 L55.937496,106.44442 Z M278.16407,106.44442 L278.16407,133.85017 L362.46093,133.85017 L362.46093,106.44442 L278.16407,106.44442 L278.16407,106.44442 Z M444.45313,106.44442 L444.45313,133.85017 L528.75,133.85017 C528.75001,133.85017 534.10156,119.37715 534.10156,106.44442 L444.45313,106.44442 L444.45313,106.44442 Z M609.96094,106.44442 L609.96094,133.85017 L759.41407,133.85017 L749.45313,106.44442 L609.96094,106.44442 L609.96094,106.44442 Z M803.86719,106.44442 L793.86719,133.85017 L944.0625,133.85017 L944.0625,106.44442 L803.86719,106.44442 L803.86719,106.44442 Z M55.937496,159.7054 L55.937496,187.07238 L140.23437,187.07238 L140.23437,159.7054 L55.937496,159.7054 L55.937496,159.7054 Z M278.16407,159.7054 L278.16407,187.07238 L493.47657,187.07238 C493.47658,187.07237 511.48781,173.0301 517.22656,159.7054 L278.16407,159.7054 L278.16407,159.7054 Z M609.96094,159.7054 L609.96094,187.07238 L694.25781,187.07238 L694.25781,171.83835 L699.60937,187.07238 L854.02344,187.07238 L859.76563,171.83835 L859.76563,187.07238 L944.0625,187.07238 L944.0625,159.7054 L785.82031,159.7054 L777.42187,182.88593 L768.98438,159.7054 L609.96094,159.7054 L609.96094,159.7054 Z M55.937496,212.92761 L55.937496,240.29459 L140.23437,240.29459 L140.23437,212.92761 L55.937496,212.92761 L55.937496,212.92761 Z M278.16407,212.92761 L278.16407,240.29459 L517.22656,240.29459 C511.48657,227.01331 493.47657,212.92761 493.47657,212.92761 L278.16407,212.92761 L278.16407,212.92761 Z M609.96094,212.92761 L609.96094,240.29459 L694.25781,240.29459 L694.25781,212.92761 L609.96094,212.92761 L609.96094,212.92761 Z M709.57031,212.92761 L719.76563,240.29459 L835.54688,240.29459 L845.23438,212.92761 L709.57031,212.92761 L709.57031,212.92761 Z M859.76563,212.92761 L859.76563,240.29459 L944.0625,240.29459 L944.0625,212.92761 L859.76563,212.92761 L859.76563,212.92761 Z M55.937496,266.14982 L55.937496,293.5168 L140.23437,293.5168 L140.23437,266.14982 L55.937496,266.14982 L55.937496,266.14982 Z M278.16407,266.14982 L278.16407,293.5168 L362.46093,293.5168 L362.46093,266.14982 L278.16407,266.14982 L278.16407,266.14982 Z M444.45313,266.14982 L444.45313,293.5168 L534.10156,293.5168 C534.10158,280.60147 528.75,266.14982 528.75,266.14982 L444.45313,266.14982 L444.45313,266.14982 Z M609.96094,266.14982 L609.96094,293.5168 L694.25781,293.5168 L694.25781,266.14982 L609.96094,266.14982 L609.96094,266.14982 Z M728.71093,266.14982 L738.59375,293.5168 L816.21093,293.5168 L826.17187,266.14982 L728.71093,266.14982 L728.71093,266.14982 Z M859.76563,266.14982 L859.76563,293.5168 L944.0625,293.5168 L944.0625,266.14982 L859.76563,266.14982 L859.76563,266.14982 Z M1.52343,319.37203 L1.52343,346.77778 L196.17187,346.77778 L196.17187,319.37203 L1.52343,319.37203 L1.52343,319.37203 Z M222.22657,319.37203 L222.22657,346.77778 L521.875,346.77778 C528.18125,340.50245 531.79688,319.37203 531.79688,319.37203 L222.22657,319.37203 L222.22657,319.37203 Z M555.54687,319.37203 L555.54687,346.77778 L694.25781,346.77778 L694.25781,319.37203 L555.54687,319.37203 L555.54687,319.37203 Z M747.89062,319.37203 L758.04687,346.77778 L797.53906,346.77778 L807.07031,319.37203 L747.89062,319.37203 L747.89062,319.37203 Z M859.76563,319.37203 L859.76563,346.77778 L1000,346.77778 L1000,319.37203 L859.76563,319.37203 L859.76563,319.37203 Z M1.52343,372.633 L1.52343,400 L196.17187,400 L196.17187,372.633 L1.52343,372.633 L1.52343,372.633 Z M222.22657,372.633 L222.22657,399.96124 L433.75,399.96124 C471.27624,399.96122 499.60937,372.633 499.60937,372.633 L222.22657,372.633 L222.22657,372.633 Z M555.54687,372.633 L555.54687,400 L694.25781,400 L694.25781,372.633 L555.54687,372.633 L555.54687,372.633 Z M767.14844,372.633 L776.91407,399.92246 L778.59375,399.96124 L788.51563,372.633 L767.14844,372.633 L767.14844,372.633 Z M859.76563,372.633 L859.76563,400 L1000,400 L1000,372.633 L859.76563,372.633 L859.76563,372.633 Z"></path>
    </g>
</svg>
