<svg width="255" height="331" viewBox="0 0 255 331" xmlns="http://www.w3.org/2000/svg"><title>jenkins</title><g fill="none" fill-rule="evenodd"><path d="M221.876 130.57c0 53.312-42.269 96.57-94.438 96.57-52.17 0-94.438-43.258-94.438-96.57C33 77.26 75.269 34 127.438 34c52.17 0 94.438 43.259 94.438 96.57" fill="#D33833"/><path d="M36.95 154.392S30.096 53.709 122.935 50.815L116.46 40 66.119 56.907 51.725 73.434 39.16 97.5 32 125.527l2.132 18.735" fill="#EF3D3A"/><path d="M62.672 64.282c-16.526 16.983-26.808 40.364-26.808 66.259 0 25.894 10.282 49.275 26.808 66.258 16.603 16.984 39.375 27.418 64.66 27.418 25.285 0 48.057-10.434 64.66-27.418 16.526-16.983 26.808-40.364 26.808-66.258 0-25.895-10.282-49.276-26.809-66.26-16.602-16.907-39.374-27.417-64.66-27.417-25.208 0-48.056 10.434-64.659 27.418zm-4.188 136.554C40.89 182.862 30 157.958 30 130.54c0-27.418 10.89-52.322 28.484-70.372C76.077 42.195 100.448 31 127.332 31s51.255 11.195 68.848 29.17c17.593 17.973 28.484 42.877 28.484 70.37 0 27.418-10.891 52.322-28.484 70.296-17.593 18.05-41.964 29.169-68.848 29.169s-51.255-11.12-68.848-29.17z" fill="#231F20"/><path fill="#F0D6B7" d="M167.445 130.501l-14.395 2.132-19.42 2.21-12.567.304-12.261-.381-9.368-2.894-8.301-8.987-6.474-18.354-1.447-3.96-8.606-2.895-5.027-8.301L66 77.494l3.96-10.434 9.368-3.275 7.54 3.58 3.58 7.92 4.34-.685 1.447-1.828-1.447-8.301-.38-10.434 2.132-14.394-.076-8.226 6.55-10.51 11.5-8.301L134.62 4l22.315 3.275 19.42 14.013 8.987 14.394 5.788 10.434 1.447 25.894-4.34 22.315-7.922 19.802-7.463 10.586"/><path fill="#335061" d="M154.52 193.325l-51.407 2.133v8.606l4.341 30.235-2.132 2.513-35.948-12.262-2.513-4.34-3.58-40.67-8.453-24.37L53 149.38l28.788-19.802L90.775 126l7.92 9.748 6.855 6.093 7.92 2.513 3.58 1.067 4.341 18.735 3.275 3.96 8.302-2.894-5.789 11.196 31.226 14.775-3.884 2.132"/><path fill="#6D6B6D" d="M69.447 67.785l9.368-3.275 7.54 3.58 3.579 7.92 4.341-.685 1.066-4.341-2.132-8.301L95.34 42.88l-1.828-10.815 6.474-7.54L114 13.408 110.04 8l-19.8 9.748-8.302 6.474-4.646 10.053-7.159 9.748L68 55.523l1.447 12.262"/><path d="M84.301 33.685s5.408-13.328 26.96-19.801c21.554-6.474 1.067-4.646 1.067-4.646l-23.38 8.987-8.988 8.987L76 34.37l8.301-.686M73.407 65.13s-7.54-25.21 21.249-28.789L93.59 32l-19.802 4.646L68 55.38l1.447 12.262 3.96-2.514" fill="#DCD9D8"/><path d="M85 98.57L89.722 94s2.132.228 2.513 2.742c.381 2.513 1.447 25.209 16.908 37.394 1.447 1.142-11.5-1.828-11.5-1.828l-11.5-17.973m64.872-23.236s.837-10.89 3.808-10.053c2.97.838 2.97 3.808 2.97 3.808s-7.16 4.57-6.778 6.245M181.502 52s-5.94 1.219-6.473 6.474c-.533 5.255 6.473 1.066 7.54.685M137.92 52S130 53.066 130 58.093c0 5.026 8.987 4.645 11.5 2.513M88.381 75.434s-13.633-8.302-15.08-.38c-1.447 7.92-4.645 13.632 2.133 21.933l-4.646-1.447-4.341-11.12L65 73.607 73.301 65l9.368.685 5.407 4.342.305 5.407m7.007-23.217s6.092-31.682 37.013-37.775c25.437-5.027 38.841 1.066 43.868 6.854 0 0-22.696-26.96-44.249-18.735-21.553 8.301-37.394 23.38-37.013 33.053.609 16.603.38 16.603.38 16.603m83.428-27.215S168.38 24.622 168 33.99c0 0 0 1.447.685 2.894 0 0 8.302-9.368 13.328-4.341" fill="#F7E4CD"/><path d="M132.671 38.605s-1.828-14.318-14.013-6.016c-7.92 5.407-7.16 12.947-5.788 14.394 1.447 1.447 1.066 4.341 2.132 2.361 1.067-1.98.762-8.454 4.722-10.282 3.884-1.827 10.434-3.808 12.947-.457" fill="#F7E4CD"/><path d="M98.696 135.053l-33.815 15.08s14.013 55.748 6.854 73.037l-5.026-1.828-.381-21.249-9.368-40.212-3.96-11.12L88.262 125l10.434 10.053M102.6 166l4.797 5.864v21.553h-5.712S101 178.337 101 176.51c0-1.828.685-8.301.685-8.301m.537 28.791L86 197.685l4.646 3.275 11.5 1.828" fill="#49728B"/><path fill="#335061" d="M158 193.38l13.328-.38 3.275 33.053-13.633 1.828-2.97-34.5m4-.344l20.106-1.066s8.302-20.868 8.302-21.934c0-1.066 7.159-30.236 7.159-30.236l-16.222-16.907L178.07 120l-8.606 8.606v33.434L162 193.037"/><path d="M170.566 191L158 193.513l1.828 10.053c4.646 2.133 12.566-3.58 12.566-3.58M171 127.464l25.209 18.735.685-8.606L177.854 120 171 127.464" fill="#49728B"/><path fill="#FFF" d="M114.805 263.905l-7.464-30.236-3.732-22.315-.609-16.526L136.739 193h20.944l-1.904 37.775 3.274 29.17-.38 5.407-27.342 2.132-16.526-3.58"/><path d="M153 193.132s-1.828 37.395 3.58 64.05c0 0-10.815 6.855-26.58 8.607l30.235-1.067 3.58-2.132-4.341-58.948L158.33 191" fill="#DCD9D8"/><path fill="#FFF" d="M174.808 222.984l14.013-3.96 26.58-1.448 3.96-12.261-7.159-21.249-8.301-1.066-11.5 3.58-10.967 5.407-5.864-1.066-4.57 1.827"/><path d="M175 215.59s9.368-4.341 10.815-3.96l-3.96-19.802L186.5 190s3.275 18.735 3.275 20.868c0 0 20.106 1.066 21.934 1.066 0 0 4.341-8.301 3.275-16.907l3.96 11.5.38 6.473-5.787 8.606-6.474 1.447-10.814-.38-3.58-4.646-12.566 1.828-3.96 1.447" fill="#DCD9D8"/><path d="M161.222 190.014l-7.92-20.107-8.302-11.88s1.828-5.027 4.341-5.027h8.301l7.921 2.894-.685 13.328-3.656 20.792" fill="#FFF"/><path d="M162.354 183.997s-10.053-19.42-10.053-22.315c0 0 1.828-4.34 4.341-3.275 2.514 1.067 7.921 3.96 7.921 3.96v-6.854L152.301 153 144 154.066l14.013 33.206 2.894.38" fill="#DCD9D8"/><path fill="#FFF" d="M118.345 135.96l-9.977-1.066L99 132v3.275l4.57 5.026 14.394 6.474"/><path d="M101.99 137s11.12 4.646 14.775 3.58l.38 4.34-10.052-2.132-6.093-4.341.99-1.447" fill="#DCD9D8"/><path d="M174.897 154.934c-6.092-.153-11.652-.914-16.45-2.285.305-1.98-.305-3.884.229-5.331 1.37-.99 3.579-.99 5.635-1.219-1.751-.838-4.265-1.219-6.245-.685-.076-1.371-.685-2.209-1.066-3.275 3.427-1.219 11.5-9.216 16.07-6.626 2.208 1.295 3.122 8.454 3.275 12.033.152 2.894-.305 5.788-1.448 7.388" fill="#D33833"/><path d="M174.897 154.934c-6.092-.153-11.652-.914-16.45-2.285.305-1.98-.305-3.884.229-5.331 1.37-.99 3.579-.99 5.635-1.219-1.751-.838-4.265-1.219-6.245-.685-.076-1.371-.685-2.209-1.066-3.275 3.427-1.219 11.5-9.216 16.07-6.626 2.208 1.295 3.122 8.454 3.275 12.033.152 2.894-.305 5.788-1.448 7.388z" stroke="#D33833" stroke-width="2" fill="#000"/><path d="M145.713 144.473c0 .457 0 .914-.076 1.371-1.904 1.219-4.95 1.219-7.083 2.285 3.047.152 5.484.914 7.616 1.904-.076 1.142-.076 2.36-.152 3.503-3.504 2.361-6.702 5.94-10.815 8.225-1.98 1.067-8.758 3.808-10.815 3.275-1.142-.304-1.294-1.751-1.751-3.122-.99-2.894-3.275-7.616-3.504-12.034-.228-5.56-.837-14.927 5.18-13.784 4.874.913 10.51 3.122 14.241 5.178 2.361 1.371 3.656 2.894 7.16 3.2" fill="#D33833"/><path d="M145.713 144.473c0 .457 0 .914-.076 1.371-1.904 1.219-4.95 1.219-7.083 2.285 3.047.152 5.484.914 7.616 1.904-.076 1.142-.076 2.36-.152 3.503-3.504 2.361-6.702 5.94-10.815 8.225-1.98 1.067-8.758 3.808-10.815 3.275-1.142-.304-1.294-1.751-1.751-3.122-.99-2.894-3.275-7.616-3.504-12.034-.228-5.56-.837-14.927 5.18-13.784 4.874.913 10.51 3.122 14.241 5.178 2.361 1.371 3.656 2.894 7.16 3.2z" stroke="#D33833" stroke-width="2" fill="#000"/><path d="M148.963 151.755c-.533-3.046-1.142-3.884-.914-6.55 8.15-5.407 9.596 9.292.914 6.55" fill="#D33833"/><path d="M148.963 151.755c-.533-3.046-1.142-3.884-.914-6.55 8.15-5.407 9.596 9.292.914 6.55z" stroke="#D33833" stroke-width="2" fill="#000"/><path d="M160.95 153.63s-2.513-3.58-.685-4.646c1.828-1.067 3.58 0 4.646-1.828 1.066-1.828 0-2.894.38-5.027.381-2.132 2.133-2.513 3.96-2.894 1.829-.38 6.855-1.066 7.54.686l-2.132-6.474-4.341-1.447-13.633 7.92-.685 3.96v7.921m-32.292 13.495c-.457-5.636-.914-11.196-1.371-16.832-.762-8.377 1.98-6.93 9.291-6.93 1.143 0 6.855 1.294 7.235 2.132 1.98 4.037-3.274 3.123 2.285 6.17 4.646 2.512 12.947-1.524 11.043-7.236-1.066-1.295-5.483-.38-7.082-1.219l-8.454-4.34c-3.58-1.829-11.805-4.57-15.613-1.98-9.672 6.549.61 23 4.037 29.854" fill="#EF3D3A"/><path d="M133.383 37.799c-9.824-2.285-14.699 4.113-17.669 10.739-2.665-.61-1.6-4.265-.914-6.093 1.752-4.798 8.835-11.272 14.623-10.358 2.437.305 5.788 2.59 3.96 5.712M180.627 49h.457c2.209 4.57 4.113 9.444 6.93 13.556-1.903 4.418-14.165 8.226-14.013.457 2.666-1.142 7.236-.228 9.597-1.751-1.371-3.732-3.275-6.93-2.97-12.262m-42.656 0c2.133 3.884 2.818 7.92 5.788 10.815 1.371 1.294 3.96 2.894 2.666 6.55-.305.837-2.513 2.741-3.808 3.122-4.646 1.37-15.537.305-11.88-5.56 3.883.153 9.062 2.514 11.956-.304-2.208-3.504-6.169-10.51-4.722-14.623m40.852 39.329c-7.007 4.493-14.851 9.444-26.428 8.301-2.437-2.132-3.427-6.93-.99-10.053 1.219 2.133.457 6.093 3.96 6.702 6.55 1.143 14.166-4.036 18.888-5.788 2.894-4.95-.228-6.702-2.894-9.9-5.407-6.474-12.566-14.547-12.338-24.22 2.209-1.599 2.361 2.438 2.666 3.123 2.818 6.55 9.9 15.004 15.003 20.64 1.295 1.37 3.351 2.741 3.58 3.655.685 2.59-1.752 5.788-1.447 7.54m-93.039-4.853c-2.209-1.295-2.742-6.779-5.331-6.93-3.732-.23-3.047 7.158-3.047 11.5-2.513-2.286-2.97-9.445-1.142-13.1-2.133-1.066-3.046 1.142-4.265 1.904 1.6-11.043 16.222-5.103 13.785 6.626M183.749 93c-3.275 6.245-7.921 13.1-17.517 13.328-.229-1.98-.38-5.103 0-6.321 7.387-.762 11.957-4.494 17.517-7.007M137 97c6.093 3.199 17.364 3.58 25.742 3.351.457 1.828.457 4.113.457 6.321-10.739.457-23.381-2.208-26.199-9.672m-.4 6c4.265 10.662 18.812 9.444 31.074 9.14-.534 1.37-1.676 3.046-3.2 3.579-3.96 1.599-14.774 2.818-20.258-.077-3.427-1.827-5.712-6.016-7.616-8.453-.837-1.143-5.407-4.113 0-4.189" fill="#231F20"/><path d="M178.613 161.852c-4.95 8.53-9.749 17.288-15.613 24.752 2.437-7.235 3.503-19.42 3.884-28.712 5.179-2.437 9.596.533 11.729 3.96" fill="#81B0C4"/><path d="M204.927 193c-5.56 1.142-9.444 6.55-14.927 6.169 3.046-4.189 8.225-6.017 14.927-6.169m2.543 8.326c-4.57.457-9.9 1.219-14.47.838 2.209-3.351 10.586-2.133 14.47-.838m1.828 7.71c-5.103.076-11.424 0-16.298-.381 2.894-3.123 13.023-1.143 16.298.38" fill="#231F20"/><path d="M169.132 229.09c.761 6.397 3.275 12.87 2.97 19.877-2.818.914-4.417 1.752-8.225 1.752-.229-5.94-1.066-15.08-.838-20.792 1.828.153 4.57-1.294 6.093-.837" fill="#DCD9D8"/><path d="M160.65 135c-2.59 1.676-4.723 3.732-7.236 5.56-5.483.304-8.454-.381-12.414-3.504.076-.228.457-.152.457-.457 5.864 2.59 13.328-1.066 19.192-1.599" fill="#F0D6B7"/><path d="M130 174.394c1.6-6.93 7.92-10.586 13.633-14.394 5.864 7.464 9.443 17.06 13.404 26.351-9.368-2.818-18.888-7.311-27.037-11.957" fill="#81B0C4"/><path d="M162.514 229.775c-.228 5.712.533 14.775.838 20.791 3.808 0 5.407-.838 8.225-1.751.305-7.007-2.208-13.48-2.97-19.878-1.523-.533-4.265.914-6.093.838zm-58.795-32.292c2.513 22.924 6.093 42.116 12.719 62.45 14.698 4.494 32.367 4.875 45.39.839-2.36-11.424-1.37-25.362-2.741-37.623-1.066-9.216-.533-18.43-1.98-27.798-15.765-3.275-38.004-.762-53.388 2.132zm57.12-1.98c-.153 9.824.457 19.573 1.218 29.397 3.808-.533 6.321-.913 9.825-1.751-1.143-9.444-.99-20.183-3.351-28.56-2.666.076-5.027 0-7.692.914zm19.116-1.6c-1.828-.38-3.884 0-5.56 0 .838 7.997 2.742 16.832 3.427 25.285 2.666.077 4.113-1.218 6.321-1.599.153-7.387-.609-17.593-4.188-23.685zm29.016 26.504c5.636-1.37 9.14-8.225 7.54-15.308-1.066-4.722-2.894-13.709-4.95-16.755-1.447-2.209-5.484-5.179-8.758-3.123-5.255 3.351-14.47 4.341-18.279 8.378 1.904 6.397 2.514 15.08 3.275 23.152 6.55.381 14.547-1.827 20.03.533-3.808 1.219-8.682 1.219-11.957 3.047 2.742 1.295 8.987 1.066 13.1.076zm-52.245-34.196c-3.96-9.291-7.54-18.887-13.404-26.35-5.712 3.807-11.957 7.463-13.633 14.393 8.226 4.646 17.746 9.14 27.037 11.957zm9.748-28.712c-.38 9.292-1.447 21.477-3.884 28.712 5.865-7.54 10.663-16.222 15.613-24.751-2.132-3.428-6.55-6.398-11.729-3.96zm-11.043-3.884c-2.208-.228-4.112 2.59-7.006 1.371-.686.762-1.295 1.523-1.98 2.285 6.397 7.768 9.367 18.735 14.317 27.798 2.666-8.758 2.361-18.278 2.97-27.798-3.655.152-5.711-3.427-8.3-3.656zm-7.083-9.368c-.228 2.666.381 3.504.914 6.55 8.683 2.742 7.236-11.957-.914-6.55zm-9.672-3.198c-3.732-2.057-9.367-4.265-14.242-5.18-6.016-1.141-5.407 8.226-5.178 13.786.228 4.417 2.513 9.063 3.503 12.033.457 1.37.61 2.818 1.752 3.123 2.056.457 8.91-2.21 10.814-3.275 4.113-2.209 7.312-5.788 10.815-8.226.076-1.142.076-2.36.152-3.503-2.132-1.066-4.493-1.752-7.616-1.904 2.057-1.066 5.18-1.066 7.083-2.285 0-.457 0-.914.076-1.37-3.503-.381-4.798-1.905-7.159-3.2zm-35.795-6.474c-3.122 3.199 8.759 7.464 12.49 7.692 0-1.98 1.143-3.884.914-5.33-4.493-.762-10.357-.23-13.404-2.362zm38.385 1.447c0 .305-.381.229-.457.457 4.036 3.123 7.006 3.808 12.414 3.504 2.437-1.752 4.645-3.885 7.235-5.56-5.94.533-13.404 4.189-19.192 1.6zm35.185 10.663c-.152-3.504-1.066-10.739-3.275-12.034-4.57-2.665-12.642 5.408-16.07 6.626.382 1.066.99 1.904 1.067 3.275 2.056-.533 4.493-.152 6.245.686-2.056.228-4.265.228-5.636 1.218-.457 1.447.153 3.351-.228 5.331 4.798 1.371 10.358 2.057 16.45 2.285 1.143-1.523 1.6-4.417 1.447-7.387zm-78.825-9.063c-.99-.686-7.616-9.292-8.53-8.911-11.957 4.722-23.152 12.87-33.129 20.64 9.52 20.486 13.404 45.543 14.09 69.685 10.89 5.103 20.486 12.49 35.337 13.252-1.751-12.11-3.274-23-4.264-34.424-3.732-1.6-9.063.076-12.567-.457 0-4.189 5.331-1.828 5.788-4.646.305-2.132-2.97-2.285-1.904-5.636 2.742.99 4.19 3.199 7.083 4.037 2.666-5.788 0-16.07.381-20.944.076-.914.457-5.027 2.513-4.341 1.828.61-.076 11.043.076 15.612.153 4.265-.533 8.302 1.219 10.967 14.318-1.98 28.864-3.198 44.401-3.655-3.427-1.447-7.464-2.818-11.88-5.331-2.438-1.371-9.978-4.19-10.663-6.474-1.143-3.656 2.894-5.56 3.58-8.682-7.236 3.96-8.607-3.808-10.358-9.215-1.524-4.95-2.438-8.683-2.818-11.5-6.322-3.2-13.024-6.17-18.355-9.977zm72.504-7.921c9.977-4.798 11.805 18.05 7.845 25.437.609 2.209 2.665 3.047 3.503 5.027-5.56 9.977-11.729 19.268-17.44 29.093 4.188-2.666 10.28-.457 15.231-2.437 1.828-.686 3.123-4.875 4.494-8.226 3.808-9.139 7.768-20.715 9.52-29.397.38-1.98 1.523-6.321 1.218-8.073-.457-3.199-4.722-5.56-6.93-7.464-4.037-3.655-6.55-6.778-10.815-10.205-1.6 2.513-5.255 4.189-6.626 6.245zM74.855 41.28c-4.722 5.255-3.732 15.003-3.2 22.01 8.607-5.407 19.955.457 19.878 9.596 4.113-.076 1.524-5.103.762-8.378-2.437-10.586 4.113-22.01.305-31.682-7.388.61-13.404 3.58-17.745 8.454zm33.967-30.388c-10.739 3.046-24.524 10.89-28.941 20.563 3.427-.533 5.788-2.208 9.14-2.437 1.294-.076 2.97.533 4.416.152 2.895-.761 5.408-7.31 7.616-9.748 2.133-2.361 4.722-3.427 6.474-5.56 1.142-.533 2.818-.533 2.894-2.208-.457-.533-.99-.914-1.6-.762zm55.977 2.894c-11.196-6.321-30.083-11.043-41.964-5.103-9.596 4.799-22.543 12.72-26.96 22.696 4.112 9.672-1.219 18.507-1.6 28.331-.152 5.255 2.437 9.749 2.666 15.46-1.447 2.362-5.712 2.59-8.682 2.438-.99-5.027-2.742-10.662-7.921-11.272-7.311-.837-12.719 5.255-13.023 11.577-.381 7.463 5.712 19.801 14.394 18.963 3.35-.304 4.189-3.655 7.844-3.655 1.98 3.96-3.046 5.178-3.58 7.996-.152.762.382 3.58.762 4.95 1.6 6.474 5.103 14.928 8.53 19.878 4.418 6.322 13.024 7.236 22.315 7.845 1.676-3.58 7.768-3.275 11.729-2.361-4.798-1.904-9.216-6.474-12.871-10.51-4.19-4.646-8.454-9.596-8.683-15.69 7.997 11.044 14.547 20.716 29.017 25.59 10.967 3.656 23.762-1.675 32.216-7.615 3.503-2.438 5.56-6.398 8.073-9.901 9.291-13.404 13.632-32.444 12.718-50.95-.38-7.617-.38-15.233-2.97-20.335-2.666-5.332-11.729-10.206-17.06-5.332-.99-5.255 4.418-8.453 10.739-6.55-4.494-5.864-9.215-12.794-15.69-16.45zm20.868 172.197c8.758-4.341 25.056-11.652 30.463 0 2.057 4.341 4.418 11.576 5.408 16.07 1.447 6.245-1.6 19.496-8.073 21.553-5.712 1.828-12.338 1.751-19.192.38-.838-.685-1.676-1.827-2.361-3.046-4.874-.152-9.52.229-13.328 2.285.38 3.656-2.056 4.189-4.417 4.95-1.676 6.779 3.427 15.613 2.208 21.706-.838 4.417-6.245 5.102-10.205 5.864-.152 2.437.152 4.493.457 6.55-.914 3.35-4.95 5.255-8.835 5.712-12.718 1.523-31.987 2.208-44.172-2.209-3.427-8.377-6.093-18.507-8.91-28.027-11.882 1.295-21.554-5.102-30.617-9.367-3.123-1.447-7.464-2.285-8.682-4.798-1.143-2.437-.686-7.083-.99-11.424-.686-11.196-1.371-22.01-4.265-33.434-1.295-5.18-3.656-9.673-5.255-14.623-1.523-4.57-4.113-10.281-4.798-14.851-.99-6.778 5.407-7.159 9.443-10.13 6.322-4.569 11.272-7.082 18.126-11.195 2.057-1.218 8.15-4.265 8.835-5.712 1.37-2.818-2.361-6.778-3.351-8.986-1.6-3.504-2.437-6.474-2.666-9.901-5.712-.914-10.129-4.341-12.718-8.15-4.341-6.397-7.388-18.201-3.58-27.112.305-.686 1.752-2.133 1.98-3.199.457-2.132-.837-4.95-.914-7.235-.38-11.652 1.98-21.705 9.825-25.209 3.199-12.718 14.623-16.907 25.361-23.228 4.037-2.361 8.454-3.885 13.023-5.56 16.375-6.017 41.584-4.874 55.216 5.407 5.788 4.341 15.004 13.557 18.278 20.259 8.759 17.593 8.073 47.066 1.98 68.543-.837 2.894-1.98 7.083-3.655 10.586-1.143 2.438-4.722 7.236-4.341 9.368.457 2.209 8.225 8.073 9.9 9.672 2.97 2.894 8.683 6.702 9.14 10.358.533 3.884-1.676 9.215-2.818 12.947-3.656 12.49-7.312 23.99-11.5 35.186z" fill="#231F20"/><path d="M127.249 99.835c.457-.61 3.046-1.6 6.702.153 0 0-4.341.685-3.96 7.92l-1.828-.38c.076.075-1.828-6.474-.914-7.693" fill="#F7E4CD"/><path d="M158.96 161.98c0 1.066-.914 1.98-1.98 1.98-1.066 0-1.98-.914-1.98-1.98 0-1.066.914-1.98 1.98-1.98 1.143 0 1.98.914 1.98 1.98m2 9c0 1.066-.914 1.98-1.98 1.98-1.066 0-1.98-.914-1.98-1.98 0-1.066.914-1.98 1.98-1.98 1.143 0 1.98.838 1.98 1.98" fill="#1D1919"/><path d="M35.614 288.276c-.794.1-1.488.198-2.084.298-.595.099-1.19.198-1.984.397-.893.198-1.39.595-1.588 1.19-.198.596-.397 1.19-.397 1.985v24.21a14.33 14.33 0 0 1-1.389 6.153c-.893 1.885-2.084 3.373-3.671 4.663-1.588 1.19-3.374 2.183-5.358 2.778-1.985.596-4.069.993-6.252.993-3.87 0-6.945-.893-9.327-2.779-2.381-1.885-3.572-4.366-3.572-7.64 0-1.885.496-3.473 1.588-4.763 1.091-1.29 2.58-1.885 4.465-1.885 1.786 0 3.175.496 4.267 1.588 1.091 1.091 1.587 2.381 1.587 3.87 0 1.29-.496 2.58-1.389 3.67-.893 1.092-1.984 2.184-3.175 3.077v.397c.198.396.595.793 1.19 1.091.596.298 1.29.397 1.886.397 2.48 0 4.465-.893 5.854-2.68 1.39-1.785 2.084-4.464 2.084-8.036v-24.807c0-.694-.1-1.389-.298-1.885-.198-.496-.794-.893-1.687-1.29-.595-.297-1.389-.496-2.282-.694-.893-.199-1.587-.298-2.183-.397v-2.382h23.417v2.481h.298zm36.713 34.134c-.694 1.19-1.587 2.281-2.58 3.373-.992 1.091-2.183 1.885-3.473 2.679-1.389.794-2.778 1.39-4.167 1.786-1.39.397-3.076.595-4.862.595-3.076 0-5.656-.396-7.938-1.29-2.183-.893-4.068-1.984-5.457-3.472-1.489-1.489-2.481-3.176-3.275-5.16a19.548 19.548 0 0 1-1.091-6.45c0-2.083.397-4.167 1.19-6.052.794-1.886 1.886-3.672 3.275-5.16s3.175-2.68 5.358-3.572a18.709 18.709 0 0 1 7.144-1.39c2.878 0 5.26.398 7.144 1.092 1.886.695 3.374 1.687 4.565 2.878 1.19 1.19 1.984 2.58 2.58 4.167.496 1.588.793 3.275.793 5.06v1.985H50.597c0 4.267.794 7.442 2.48 9.625 1.588 2.183 4.267 3.274 7.74 3.274 1.985 0 3.671-.496 5.259-1.587a14.111 14.111 0 0 0 3.969-4.069l2.282 1.687zM60.52 310.601c0-1.191-.099-2.481-.198-3.771-.1-1.29-.298-2.381-.695-3.175-.397-.992-.793-1.687-1.488-2.183-.595-.496-1.39-.695-2.282-.695-1.588 0-2.878.794-3.77 2.382-.993 1.587-1.49 4.167-1.588 7.64l10.021-.198zm55.565 19.151H97.431v-2.282c.397 0 .893-.1 1.39-.199a8.573 8.573 0 0 0 1.29-.297c.396-.199.694-.596.892-.993.199-.397.298-1.091.298-1.885V309.61c0-2.083-.397-3.671-1.19-4.762-.795-1.092-1.886-1.588-3.474-1.588-.794 0-1.587.1-2.282.397-.695.198-1.39.595-2.084 1.091-.595.397-1.091.794-1.488 1.29-.397.397-.695.794-.893 1.19v16.571c0 .695.1 1.29.298 1.786.198.497.595.894.992 1.092.298.198.694.397 1.19.496l1.489.298v2.282H75.006v-2.282c.496 0 .992-.1 1.588-.199.496-.099.992-.198 1.389-.297.695-.199 1.091-.596 1.39-1.092.198-.496.396-1.091.396-1.885v-18.059c0-.595-.198-1.29-.496-1.885-.298-.596-.794-1.092-1.29-1.489-.397-.198-.794-.496-1.39-.595a5.777 5.777 0 0 0-1.884-.298v-2.282l14.784-.794.496.496v4.466h.1a29.808 29.808 0 0 0 2.083-1.886 29.367 29.367 0 0 1 2.282-1.786c.794-.496 1.786-.893 2.977-1.29 1.19-.397 2.58-.496 3.969-.496 3.374 0 5.854.992 7.541 2.878 1.687 1.885 2.48 4.465 2.48 7.64v15.181c0 .794.1 1.39.298 1.786.199.497.695.794 1.29 1.092.298.1.695.298 1.191.397.496.1.992.198 1.687.298v2.38h.198zm42.667 0h-14.586a110.352 110.352 0 0 0-4.961-8.037c-1.489-2.183-2.878-4.267-4.168-6.053l-1.786 1.588v6.747c0 .694.1 1.389.298 1.786.198.496.595.794 1.29 1.091.397.199.794.298 1.29.397.496.1.992.199 1.488.199v2.282h-19.25v-2.282c.497 0 .993-.1 1.588-.199.496-.099.992-.198 1.39-.297.694-.199 1.09-.596 1.388-1.092.199-.496.397-1.091.397-1.885v-34.53c0-.695-.198-1.39-.496-2.084-.298-.695-.694-1.29-1.29-1.687-.397-.198-.992-.496-1.786-.595-.794-.199-1.488-.298-2.183-.298v-2.282l15.38-.794.496.496v31.95c1.489-1.389 3.275-2.976 5.16-4.762 1.885-1.786 3.473-3.275 4.564-4.465.695-.695 1.092-1.191 1.092-1.588.099-.397.099-.595.099-.694 0-.397-.298-.695-.992-.893-.695-.199-1.588-.497-2.977-.695v-2.183h15.677v2.183c-2.083.595-3.67 1.091-4.762 1.588-1.092.496-2.283 1.19-3.572 1.984a53.708 53.708 0 0 0-2.481 1.786c-.794.595-1.687 1.39-2.778 2.282 1.984 2.977 3.87 5.656 5.556 8.137 1.687 2.48 3.473 5.16 5.358 7.938.596.992 1.39 1.587 2.382 1.984.992.298 1.885.496 2.877.596v2.38h.298zm19.845 0H159.05v-2.282c.496 0 1.091-.1 1.587-.199s.992-.198 1.29-.297c.695-.199 1.092-.596 1.39-1.092.297-.496.396-1.091.396-1.885v-18.059c0-.695-.198-1.39-.496-1.885a3.016 3.016 0 0 0-1.19-1.29c-.398-.199-.894-.496-1.687-.695-.794-.198-1.489-.397-2.084-.397v-2.282l15.181-.794.496.496V323.7c0 .695.199 1.29.496 1.885a2.74 2.74 0 0 0 1.29 1.092c.397.198.893.397 1.39.496.496.1.992.199 1.587.298v2.282h-.1zm-4.465-42.17c0 1.587-.596 2.877-1.786 3.968-1.191 1.092-2.68 1.687-4.267 1.687-1.687 0-3.076-.595-4.366-1.687-1.19-1.091-1.786-2.48-1.786-3.969 0-1.587.595-2.877 1.786-4.068 1.19-1.091 2.68-1.687 4.366-1.687 1.687 0 3.076.596 4.267 1.687 1.19 1.092 1.786 2.48 1.786 4.068zm48.223 42.17h-18.654v-2.282c.397 0 .893-.1 1.389-.199a8.543 8.543 0 0 0 1.29-.297c.397-.199.694-.596.893-.993.198-.397.298-1.091.298-1.885V309.61c0-2.083-.397-3.671-1.191-4.762-.794-1.092-1.885-1.588-3.473-1.588-.794 0-1.588.1-2.282.397-.695.297-1.39.595-2.084 1.091-.595.397-1.091.794-1.488 1.29-.397.397-.695.794-.893 1.19v16.571c0 .695.099 1.29.297 1.786.199.497.596.894.993 1.092.297.198.694.397 1.19.496l1.489.298v2.282h-18.853v-2.282c.496 0 .992-.1 1.588-.199.496-.099.992-.198 1.389-.297.694-.199 1.091-.596 1.389-1.092.198-.496.397-1.091.397-1.885v-18.059c0-.595-.199-1.29-.496-1.885-.298-.596-.794-1.092-1.29-1.489-.397-.198-.794-.496-1.39-.595a5.777 5.777 0 0 0-1.885-.298v-2.282l14.785-.794.496.496v4.466h.1a29.807 29.807 0 0 0 2.083-1.886 29.367 29.367 0 0 1 2.282-1.786c.794-.496 1.786-.893 2.977-1.29 1.19-.397 2.58-.496 3.969-.496 3.373 0 5.854.992 7.54 2.878 1.688 1.885 2.481 4.465 2.481 7.64v15.181c0 .794.1 1.39.298 1.786.199.497.695.794 1.29 1.092.298.1.695.298 1.19.397.497.1.993.198 1.688.298v2.38h.198zm17.165 1.091c-1.984 0-3.968-.297-5.853-.893-1.886-.595-3.374-1.19-4.465-1.885l-.893 2.084h-2.382l-.397-11.51h2.282c.298.893.794 1.984 1.588 3.175.695 1.19 1.588 2.183 2.48 3.175a17.082 17.082 0 0 0 3.374 2.382c1.29.595 2.58.992 3.97.992 1.885 0 3.274-.397 4.167-1.092.893-.694 1.389-1.885 1.389-3.373 0-.794-.199-1.489-.596-2.084-.396-.496-.992-.992-1.686-1.39-.794-.396-1.687-.793-2.68-1.09-.992-.298-2.182-.596-3.571-1.092-1.39-.397-2.58-.794-3.573-1.29-.992-.397-2.083-1.092-3.076-1.985-.893-.793-1.686-1.786-2.182-2.877-.596-1.092-.794-2.48-.794-4.068 0-2.878 1.19-5.26 3.671-7.045 2.48-1.786 5.656-2.68 9.625-2.68 1.885 0 3.572.2 5.16.596 1.587.397 2.877.794 3.969 1.29l.694-1.786h2.381l.497 10.518h-2.183c-.695-2.183-1.985-3.97-3.672-5.557-1.786-1.587-3.671-2.381-5.655-2.381-1.588 0-2.878.297-3.771.992-.893.695-1.39 1.588-1.39 2.778 0 1.588.695 2.68 1.985 3.374 1.29.695 3.176 1.39 5.557 1.984 3.671.993 6.35 2.283 8.136 3.87 1.687 1.687 2.58 3.77 2.58 6.251 0 3.374-1.29 6.053-3.969 7.84-2.977 1.785-6.45 2.777-10.716 2.777z" fill="#FFF"/></g></svg>