<?xml version="1.0" encoding="UTF-8"?>
<svg width="255px" height="331px" viewBox="0 0 255 331" version="1.1" xmlns="http://www.w3.org/2000/svg" xmlns:xlink="http://www.w3.org/1999/xlink">
    <!-- Generator: Sketch 41 (35326) - http://www.bohemiancoding.com/sketch -->
    <title>jenkins</title>
    <desc>Created with Sketch.</desc>
    <defs></defs>
    <g id="Page-1" stroke="none" stroke-width="1" fill="none" fill-rule="evenodd">
        <g id="jenkins" transform="translate(-1.000000, 0.000000)">
            <path d="M222.875685,130.57031 C222.875685,183.881996 180.607135,227.14062 128.437843,227.14062 C76.2685505,227.14062 34,183.881996 34,130.57031 C34,77.2586247 76.2685505,34 128.437843,34 C180.607135,34 222.875685,77.2586247 222.875685,130.57031" id="Shape" fill="#D33833"></path>
            <path d="M37.9503708,154.391645 C37.9503708,154.391645 31.0960112,53.7087191 123.934503,50.8146562 L117.460942,40 L67.1194786,56.9074202 L52.7253236,73.4340427 L40.1589978,97.5004604 L33,125.527175 L35.1324674,144.262424" id="Shape" fill="#EF3D3A"></path>
            <path d="M63.6724472,64.2817236 C47.1458247,81.2653035 36.8642854,104.646285 36.8642854,130.540532 L36.8642854,130.540532 C36.8642854,156.43478 47.1458247,179.815762 63.6724472,196.799342 L63.6724472,196.799342 C80.2752292,213.782922 103.046935,224.21678 128.331906,224.21678 L128.331906,224.21678 C153.616876,224.21678 176.388582,213.782922 192.991364,196.799342 L192.991364,196.799342 C209.517986,179.815762 219.799526,156.43478 219.799526,130.540532 L219.799526,130.540532 C219.799526,104.646285 209.517986,81.2653035 192.991364,64.2817236 L192.991364,64.2817236 C176.388582,47.3743033 153.616876,36.8642854 128.331906,36.8642854 L128.331906,36.8642854 C103.123094,36.8642854 80.2752292,47.2981438 63.6724472,64.2817236 L63.6724472,64.2817236 L63.6724472,64.2817236 Z M59.4836719,200.835798 C41.8908157,182.862144 31,157.957971 31,130.540532 L31,130.540532 C31,103.123094 41.8908157,78.2189217 59.4836719,60.1691079 L59.4836719,60.1691079 C77.0765281,42.1954539 101.447584,31 128.331906,31 L128.331906,31 C155.216227,31 179.587283,42.1954539 197.180139,60.1691079 L197.180139,60.1691079 C214.772996,78.142762 225.663811,103.046934 225.663811,130.540532 L225.663811,130.540532 C225.663811,157.957971 214.772996,182.862144 197.180139,200.835798 L197.180139,200.835798 C179.587283,218.885611 155.216227,230.004905 128.331906,230.004905 L128.331906,230.004905 C101.447584,230.004905 77.0765281,218.885611 59.4836719,200.835798 L59.4836719,200.835798 L59.4836719,200.835798 Z" id="Shape" fill="#231F20"></path>
            <polyline id="Shape" fill="#F0D6B7" points="168.444521 130.501013 154.050366 132.633481 134.62968 134.842108 122.063355 135.146746 109.801668 134.765948 100.434043 131.871886 92.1326516 122.885058 85.6590899 104.530607 84.2120584 100.57031 75.6060292 97.6762475 70.5794988 89.3748564 67 77.4939663 70.9602966 67.0601079 80.3279213 63.7852472 87.8677168 67.364746 91.4472156 75.2853393 95.7883101 74.5999033 97.2353415 72.7720741 95.7883101 64.4706831 95.4075123 54.0368247 97.5399797 39.6426696 97.4638201 31.4174382 104.013542 20.9074202 115.513634 12.6060292 135.619755 4 157.934503 7.27486067 177.355189 21.2882179 186.342016 35.682373 192.130141 46.1162315 193.577173 72.0104786 189.236079 94.3252268 181.315486 114.12671 173.85185 124.712888"></polyline>
            <polyline id="Shape" fill="#335061" points="155.52068 193.325043 104.112984 195.45751 104.112984 204.063539 108.454078 234.298881 106.321611 236.812146 70.3743033 224.550458 67.8610382 220.209364 64.2815393 179.540164 55.8278292 155.169108 54 149.380982 82.7883101 129.579499 91.775137 126 99.6957303 135.748422 106.55009 141.841187 114.470683 144.354451 118.050182 145.420686 122.391277 164.155935 125.666137 168.116232 133.967528 165.222168 128.179402 176.417623 159.404818 191.192575 155.52068 193.325043"></polyline>
            <polyline id="Shape" fill="#6D6B6D" points="70.4470314 67.7852472 79.8146561 64.5103865 87.3544517 68.0898854 90.9339505 76.0104786 95.2750449 75.3250427 96.3412786 70.9839482 94.2088112 62.6825573 96.3412786 42.8810741 94.5134494 32.066418 100.987011 24.5266224 115.000368 13.4073281 111.040072 8 91.2385887 17.7484225 82.9371977 24.2219842 78.2914651 34.2750449 71.1324674 44.0234674 69 55.5235595 70.4470314 67.7852472"></polyline>
            <path d="M85.301391,33.6852913 C85.301391,33.6852913 90.7087191,20.3573699 112.261872,13.8838081 C133.815024,7.41024636 113.328106,9.23807555 113.328106,9.23807555 L89.9471236,18.2249026 L80.9602966,27.2117295 L77,34.3707273 L85.301391,33.6852913" id="Shape" fill="#DCD9D8"></path>
            <path d="M74.4073281,65.1294045 C74.4073281,65.1294045 66.8675326,39.9205932 95.6558426,36.3410943 L94.5896089,32 L74.7881258,36.6457325 L69,55.380982 L70.4470314,67.6426696 L74.4073281,65.1294045" id="Shape" fill="#DCD9D8"></path>
            <path d="M86,98.5695727 L90.7218921,94 C90.7218921,94 92.8543596,94.2284783 93.2351573,96.7417438 C93.6159551,99.2550093 94.6821888,121.950555 110.142578,134.136083 C111.589609,135.278476 98.6424854,132.308254 98.6424854,132.308254 L87.1423933,114.3346" id="Shape" fill="#F7E4CD"></path>
            <path d="M152.01467,91.0990284 C152.01467,91.0990284 152.852425,80.2082129 155.822647,81.0459673 C158.792869,81.8837224 158.792869,84.8539453 158.792869,84.8539453 C158.792869,84.8539453 151.633872,89.4235181 152.01467,91.0990284" id="Shape" fill="#F7E4CD"></path>
            <path d="M182.502459,52 C182.502459,52 176.562014,53.2185528 176.028897,58.4735618 C175.495781,63.7285707 182.502459,59.5397955 183.568693,59.1589978" id="Shape" fill="#F7E4CD"></path>
            <path d="M138.920593,52 C138.920593,52 131,53.0662337 131,58.092764 C131,63.1192944 139.986827,62.7384966 142.500092,60.6060292" id="Shape" fill="#F7E4CD"></path>
            <path d="M89.380982,75.4338584 C89.380982,75.4338584 75.7484225,67.1324674 74.301391,75.0530607 C72.8543596,82.9736541 69.6556584,88.68562 76.4338585,96.9870111 L71.7881259,95.5399799 L67.4470315,84.4206853 L66,73.6060292 L74.301391,65 L83.6690158,65.6854359 L89.0763438,70.0265303 L89.380982,75.4338584" id="Shape" fill="#F7E4CD"></path>
            <path d="M96.3875191,52.2169354 C96.3875191,52.2169354 102.480283,20.5345624 133.40106,14.4417983 C158.83835,9.415268 172.242431,15.508032 177.268962,21.2961578 C177.268962,21.2961578 154.573415,-5.66432302 133.020263,2.56090844 C111.46711,10.8622994 95.6259235,25.9418904 96.0067213,35.6141533 C96.6159977,52.2169354 96.3875191,52.2169354 96.3875191,52.2169354" id="Shape" fill="#F7E4CD"></path>
            <path d="M179.814656,25.0021527 C179.814656,25.0021527 169.380798,24.621355 169,33.9889797 C169,33.9889797 169,35.4360112 169.685436,36.8830426 C169.685436,36.8830426 177.986827,27.5154179 183.013357,32.5419483" id="Shape" fill="#F7E4CD"></path>
            <path d="M133.671299,38.6054668 C133.671299,38.6054668 131.84347,24.2874713 119.657942,32.5888623 C111.737348,37.9961904 112.498944,45.535986 113.869816,46.9830174 C115.316847,48.4300488 114.93605,51.3241117 116.002283,49.3439635 C117.068517,47.3638151 116.763879,40.8902534 120.724175,39.0624241 C124.608312,37.2345949 131.158034,35.2544466 133.671299,38.6054668" id="Shape" fill="#F7E4CD"></path>
            <path d="M99.6957303,135.05306 L65.8808898,150.132652 C65.8808898,150.132652 79.8942472,205.881442 72.7352494,223.16966 L67.7087191,221.341832 L67.3279214,200.093317 L57.9602966,159.881074 L54,148.761779 L89.2618718,125 L99.6957303,135.05306" id="Shape" fill="#49728B"></path>
            <path d="M103.599351,166 L108.397402,171.864285 L108.397402,193.417438 L102.685436,193.417438 C102.685436,193.417438 102,178.337847 102,176.510018 C102,174.682189 102.685436,168.208627 102.685436,168.208627" id="Shape" fill="#49728B"></path>
            <polyline id="Shape" fill="#49728B" points="103.221984 197 87 197.685436 91.6457325 200.960297 103.145825 202.788126"></polyline>
            <polyline id="Shape" fill="#335061" points="159 193.380798 172.327921 193 175.602782 226.053245 161.970223 227.881074 159 193.380798"></polyline>
            <path d="M163,193.037009 L183.106121,191.970775 C183.106121,191.970775 191.407513,171.103058 191.407513,170.036824 C191.407513,168.970591 198.56651,139.801483 198.56651,139.801483 L182.344526,122.894062 L179.069665,120 L170.463636,128.606029 L170.463636,162.040072 L163,193.037009" id="Shape" fill="#335061"></path>
            <path d="M171.566326,191 L159,193.513265 L160.82783,203.566326 C165.473562,205.698794 173.394156,199.986827 173.394156,199.986827" id="Shape" fill="#49728B"></path>
            <polyline id="Shape" fill="#49728B" points="172 127.463636 197.208811 146.198886 197.894247 137.592857 178.85436 120 172 127.463636"></polyline>
            <polyline id="Shape" fill="#FFFFFF" points="115.80473 263.904541 108.341094 233.6692 104.609276 211.354451 104 194.827829 137.738681 193 158.682557 193 156.778568 230.775137 160.053429 259.944245 159.672632 265.351573 132.331353 267.48404 115.80473 263.904541"></polyline>
            <path d="M154.000184,193.132468 C154.000184,193.132468 152.172355,230.526807 157.579683,257.18265 C157.579683,257.18265 146.765027,264.037009 131,265.788679 L161.235342,264.722445 L164.81484,262.589978 L160.473746,203.642486 L159.331353,191" id="Shape" fill="#DCD9D8"></path>
            <polyline id="Shape" fill="#FFFFFF" points="175.807978 222.983765 189.821335 219.023468 216.401018 217.576437 220.361315 205.314749 213.202317 184.066234 204.900926 183 193.400834 186.579499 182.433859 191.986828 176.569574 190.920593 172 192.748423"></polyline>
            <path d="M176,215.589609 C176,215.589609 185.367625,211.248515 186.814657,211.629312 L182.85436,191.82783 L187.500092,190 C187.500092,190 190.774953,208.73525 190.774953,210.867717 C190.774953,210.867717 210.881075,211.93395 212.708904,211.93395 C212.708904,211.93395 217.049998,203.63256 215.983765,195.02653 L219.944061,206.526623 L220.324858,213.000185 L214.536733,221.606214 L208.063171,223.053245 L197.248515,222.672447 L193.669016,218.026715 L181.10269,219.854544 L177.142393,221.301576" id="Shape" fill="#DCD9D8"></path>
            <path d="M162.221984,190.013542 L154.30139,169.90742 L146,158.02653 C146,158.02653 147.827829,153 150.341094,153 L158.642485,153 L166.563078,155.894063 L165.877642,169.221984 L162.221984,190.013542" id="Shape" fill="#FFFFFF"></path>
            <path d="M163.354451,183.996938 C163.354451,183.996938 153.301391,164.576252 153.301391,161.682189 C153.301391,161.682189 155.12922,157.341094 157.642486,158.407329 C160.15575,159.473562 165.563079,162.367625 165.563079,162.367625 L165.563079,155.513265 L153.301391,153 L145,154.066234 L159.013357,187.271798 L161.90742,187.652596" id="Shape" fill="#DCD9D8"></path>
            <polyline id="Shape" fill="#FFFFFF" points="119.344526 135.960297 109.367625 134.894063 100 132 100 135.274861 104.569573 140.301391 118.963728 146.774953"></polyline>
            <path d="M102.990074,137 C102.990074,137 114.109369,141.645732 117.765027,140.579498 L118.145825,144.920593 L108.092764,142.788126 L102,138.447031 L102.990074,137" id="Shape" fill="#DCD9D8"></path>
            <path d="M175.897495,154.933533 C169.80473,154.781214 164.245083,154.019618 159.447032,152.648746 C159.75167,150.668598 159.142393,148.764609 159.67551,147.317578 C161.046382,146.327503 163.255009,146.327503 165.311317,146.099025 C163.559647,145.26127 161.046382,144.880472 159.066234,145.413589 C158.990075,144.042717 158.380798,143.204962 158,142.138728 C161.42718,140.920175 169.500092,132.923422 174.069665,135.512848 C176.278293,136.807559 177.192207,143.966557 177.344526,147.546056 C177.496845,150.440119 177.039888,153.334182 175.897495,154.933533" id="Shape" fill="#D33833"></path>
            <path d="M175.897495,154.933533 C169.80473,154.781214 164.245083,154.019618 159.447032,152.648746 C159.75167,150.668598 159.142393,148.764609 159.67551,147.317578 C161.046382,146.327503 163.255009,146.327503 165.311317,146.099025 C163.559647,145.26127 161.046382,144.880472 159.066234,145.413589 C158.990075,144.042717 158.380798,143.204962 158,142.138728 C161.42718,140.920175 169.500092,132.923422 174.069665,135.512848 C176.278293,136.807559 177.192207,143.966557 177.344526,147.546056 C177.496845,150.440119 177.039888,153.334182 175.897495,154.933533 L175.897495,154.933533 Z" id="Shape" stroke="#D33833" stroke-width="2" fill="#000000"></path>
            <path d="M146.713163,144.473117 C146.713163,144.930074 146.713163,145.387031 146.637003,145.843989 C144.733015,147.062541 141.686633,147.062541 139.554165,148.128775 C142.600547,148.281094 145.037653,149.04269 147.17012,150.032764 C147.093961,151.175158 147.093961,152.39371 147.017801,153.536103 C143.514462,155.897049 140.315761,159.476548 136.203145,161.761335 C134.222997,162.827569 127.444797,165.569312 125.388489,165.036195 C124.246095,164.731557 124.093776,163.284526 123.636819,161.913654 C122.646745,159.019591 120.361958,154.297699 120.13348,149.880445 C119.905001,144.320798 119.295725,134.953173 125.312329,136.095566 C130.186541,137.009481 135.822348,139.218108 139.554165,141.274416 C141.915111,142.645287 143.209824,144.168478 146.713163,144.473117" id="Shape" fill="#D33833"></path>
            <path d="M146.713163,144.473117 C146.713163,144.930074 146.713163,145.387031 146.637003,145.843989 C144.733015,147.062541 141.686633,147.062541 139.554165,148.128775 C142.600547,148.281094 145.037653,149.04269 147.17012,150.032764 C147.093961,151.175158 147.093961,152.39371 147.017801,153.536103 C143.514462,155.897049 140.315761,159.476548 136.203145,161.761335 C134.222997,162.827569 127.444797,165.569312 125.388489,165.036195 C124.246095,164.731557 124.093776,163.284526 123.636819,161.913654 C122.646745,159.019591 120.361958,154.297699 120.13348,149.880445 C119.905001,144.320798 119.295725,134.953173 125.312329,136.095566 C130.186541,137.009481 135.822348,139.218108 139.554165,141.274416 C141.915111,142.645287 143.209824,144.168478 146.713163,144.473117 L146.713163,144.473117 Z" id="Shape" stroke="#D33833" stroke-width="2" fill="#000000"></path>
            <path d="M149.963271,151.755108 C149.430155,148.708725 148.820878,147.870971 149.049357,145.205386 C157.198429,139.798058 158.64546,154.496851 149.963271,151.755108" id="Shape" fill="#D33833"></path>
            <path d="M149.963271,151.755108 C149.430155,148.708725 148.820878,147.870971 149.049357,145.205386 C157.198429,139.798058 158.64546,154.496851 149.963271,151.755108 L149.963271,151.755108 Z" id="Shape" stroke="#D33833" stroke-width="2" fill="#000000"></path>
            <path d="M161.95037,153.629312 C161.95037,153.629312 159.437106,150.049813 161.264935,148.983579 C163.092764,147.917346 164.844434,148.983579 165.910667,147.15575 C166.976901,145.327921 165.910667,144.261687 166.291465,142.12922 C166.672263,139.996752 168.423933,139.615955 170.251762,139.235157 C172.079591,138.854359 177.106121,138.168923 177.791557,139.920593 L175.659089,133.447031 L171.317996,132 L157.685436,139.920593 L157,143.880889 L157,151.801483" id="Shape" fill="#EF3D3A"></path>
            <path d="M124.707717,165.295507 C124.25076,159.659701 123.793803,154.100053 123.336846,148.464246 C122.57525,140.086696 125.316994,141.533728 132.62831,141.533728 C133.770704,141.533728 139.48267,142.828439 139.863468,143.666195 C141.843616,147.702651 136.588607,146.788736 142.148254,149.835119 C146.793987,152.348383 155.095378,148.311927 153.191389,142.599961 C152.125156,141.305249 147.707902,142.219163 146.108551,141.381408 C143.290648,139.934377 140.472744,138.487345 137.654841,137.040314 C134.075342,135.212485 125.850111,132.470741 122.042133,135.060165 C112.36987,141.609887 122.65141,158.06035 126.078589,164.914709" id="Shape" fill="#EF3D3A"></path>
            <path d="M134.383249,37.7990397 C124.558667,35.5142532 119.684456,41.9116554 116.714233,48.5375363 C114.048649,47.9282599 115.114882,44.2726015 115.800319,42.4447723 C117.551988,37.6467206 124.634826,31.1731587 130.422952,32.0870734 C132.860058,32.3917115 136.211078,34.6764981 134.383249,37.7990397" id="Shape" fill="#231F20"></path>
            <path d="M181.627288,49 L182.084245,49 C184.292872,53.5695731 186.196861,58.4437843 189.014764,62.5564 C187.110775,66.9736539 174.849088,70.7816315 175.001407,63.0133573 C177.666991,61.870964 182.236564,62.7848786 184.59751,61.2616876 C183.226638,57.5298697 181.32265,54.3311685 181.627288,49" id="Shape" fill="#231F20"></path>
            <path d="M138.97226,49 C141.104727,52.8841371 141.790163,56.9205933 144.760385,59.8146562 C146.131257,61.1093685 148.720682,62.7087191 147.42597,66.3643775 C147.121332,67.2021326 144.912705,69.1061213 143.617992,69.4869191 C138.97226,70.857791 128.081444,69.7915573 131.737102,63.9272719 C135.621239,64.079591 140.800089,66.4405371 143.694152,63.6226337 C141.485525,60.1192944 137.525228,53.1126157 138.97226,49" id="Shape" fill="#231F20"></path>
            <path d="M179.82369,88.3290225 C172.817012,92.8224364 164.972578,97.7728068 153.396326,96.6304136 C150.959221,94.4979459 149.969146,89.6998948 152.406252,86.5773533 C153.624805,88.7098203 152.86321,92.670117 156.366549,93.2793938 C162.91627,94.421787 170.532225,89.2429374 175.254118,87.4912674 C178.14818,82.5408969 175.025638,80.7892269 172.360054,77.5905264 C166.952726,71.1169643 159.793728,63.0440519 160.022208,53.371789 C162.230834,51.7724384 162.383154,55.8088946 162.687792,56.4943306 C165.505695,63.0440519 172.588533,71.497762 177.691223,77.133569 C178.985935,78.5044405 181.042243,79.8753128 181.270722,80.7892269 C181.956158,83.3786521 179.519052,86.5773533 179.82369,88.3290225" id="Shape" fill="#231F20"></path>
            <path d="M86.7848786,83.4756912 C84.5762517,82.1809794 84.0431348,76.697491 81.4537101,76.5451722 C77.7218921,76.3166936 78.4073281,83.7041703 78.4073281,88.0452647 C75.8940629,85.7604776 75.4371056,78.6014804 77.2649349,74.9458217 C75.1324674,73.879588 74.2185528,76.088215 73,76.8498104 C74.5993505,65.8066757 89.2219842,71.7471206 86.7848786,83.4756912" id="Shape" fill="#231F20"></path>
            <path d="M184.748641,93 C181.47378,99.2450831 176.828048,106.099443 167.231945,106.327921 C167.003466,104.347773 166.851146,101.225231 167.231945,100.006679 C174.619421,99.2450831 179.188994,95.5132655 184.748641,93" id="Shape" fill="#231F20"></path>
            <path d="M138,97 C144.092764,100.198701 155.364378,100.579499 163.741928,100.351021 C164.198885,102.17885 164.198885,104.463636 164.198885,106.672263 C153.460389,107.12922 140.817903,104.463636 138,97" id="Shape" fill="#231F20"></path>
            <path d="M137.600489,103 C141.865424,113.662337 156.411898,112.443784 168.673586,112.139146 C168.140469,113.510018 166.998076,115.185528 165.474885,115.718645 C161.514588,117.317996 150.699932,118.536548 145.216445,115.642486 C141.789264,113.814656 139.504478,109.625881 137.600489,107.188775 C136.762734,106.046382 132.193161,103.07616 137.600489,103" id="Shape" fill="#231F20"></path>
            <path d="M179.612708,161.851932 C174.662337,170.381802 169.864285,179.14015 164,186.603786 C166.437106,179.368629 167.503339,167.183101 167.884137,157.891636 C173.062987,155.45453 177.480241,158.424752 179.612708,161.851932" id="Shape" fill="#81B0C4"></path>
            <path d="M205.927272,193 C200.367625,194.142393 196.483488,199.549721 191,199.168923 C194.046382,194.980148 199.225231,193.152319 205.927272,193" id="Shape" fill="#231F20"></path>
            <path d="M208.470314,201.326161 C203.900742,201.783118 198.569574,202.544713 194,202.163916 C196.208627,198.812896 204.586177,200.031449 208.470314,201.326161" id="Shape" fill="#231F20"></path>
            <path d="M210.298143,209.035643 C205.195454,209.111803 198.874211,209.035643 194,208.654845 C196.894062,205.532304 207.023283,207.512452 210.298143,209.035643" id="Shape" fill="#231F20"></path>
            <path d="M170.13186,229.08961 C170.893455,235.487013 173.406721,241.960574 173.102082,248.967253 C170.284179,249.881168 168.684829,250.718923 164.876851,250.718923 C164.648372,244.778478 163.810617,235.639332 164.039096,229.927366 C165.866925,230.079685 168.608669,228.632653 170.13186,229.08961" id="Shape" fill="#DCD9D8"></path>
            <path d="M161.649164,135 C159.059739,136.67551 156.927272,138.731818 154.414006,140.559647 C148.930519,140.864285 145.960297,140.17885 142,137.056308 C142.07616,136.82783 142.456957,136.903989 142.456957,136.599351 C148.321243,139.188776 155.784879,135.533117 161.649164,135" id="Shape" fill="#F0D6B7"></path>
            <path d="M131,174.394155 C132.599351,167.463636 138.920593,163.807977 144.632559,160 C150.496845,167.463636 154.076344,177.059739 158.03664,186.351205 C148.669016,183.533301 139.149072,179.039887 131,174.394155" id="Shape" fill="#81B0C4"></path>
            <path d="M163.514161,229.774654 C163.285683,235.486619 164.047278,244.549606 164.351916,250.566211 C168.159894,250.566211 169.759245,249.728456 172.577148,248.814541 C172.881786,241.807862 170.368521,235.334301 169.606925,228.936898 C168.083735,228.403781 165.341991,229.850813 163.514161,229.774654 L163.514161,229.774654 Z M104.718988,197.483004 C107.232254,220.407029 110.811753,239.599236 117.437634,259.933835 C132.136426,264.427249 149.805442,264.808047 162.828725,260.771591 C160.467779,249.347658 161.457854,235.41046 160.086981,223.148773 C159.020748,213.933467 159.553865,204.718161 158.106833,195.350536 C142.341806,192.075676 120.103218,194.588941 104.718988,197.483004 L104.718988,197.483004 Z M161.838651,195.502856 C161.686332,205.327438 162.295609,215.07586 163.057204,224.900442 C166.865182,224.367325 169.378447,223.986527 172.881786,223.148773 C171.739393,213.704988 171.891712,202.966492 169.530766,194.588941 C166.865182,194.665101 164.504236,194.588941 161.838651,195.502856 L161.838651,195.502856 Z M180.954698,193.903505 C179.126869,193.522707 177.070561,193.903505 175.395051,193.903505 C176.232806,201.900258 178.136795,210.734766 178.822231,219.188476 C181.487816,219.264635 182.934847,217.969923 185.143473,217.589125 C185.295793,210.201649 184.534197,199.996269 180.954698,193.903505 L180.954698,193.903505 L180.954698,193.903505 Z M209.971487,220.407029 C215.607294,219.036157 219.110633,212.181797 217.511283,205.098959 C216.445049,200.377067 214.617219,191.39024 212.560912,188.343858 C211.11388,186.135231 207.077425,183.165008 203.802564,185.221316 C198.547554,188.572337 189.332249,189.562411 185.524271,193.598867 C187.428261,199.996269 188.037537,208.678458 188.799132,216.75137 C195.348853,217.132168 203.345606,214.923541 208.829094,217.284487 C205.021117,218.50304 200.146905,218.50304 196.872045,220.330869 C199.613789,221.625581 205.858872,221.397103 209.971487,220.407029 L209.971487,220.407029 L209.971487,220.407029 Z M157.726035,186.211391 C153.765739,176.919925 150.18624,167.323822 144.321954,159.860186 C138.609988,163.668164 132.364905,167.323822 130.689395,174.254341 C138.914627,178.900073 148.434571,183.393487 157.726035,186.211391 L157.726035,186.211391 Z M167.474458,157.49924 C167.09366,166.790705 166.027426,178.976233 163.590321,186.211391 C169.454606,178.671595 174.252658,169.989406 179.203029,161.459537 C177.070561,158.032357 172.653307,155.062134 167.474458,157.49924 L167.474458,157.49924 Z M156.431323,153.615103 C154.222696,153.386624 152.318707,156.204528 149.424644,154.985975 C148.739209,155.74757 148.129932,156.509166 147.444496,157.270761 C153.841898,165.039035 156.812121,176.006011 161.762492,185.068997 C164.428076,176.310649 164.123438,166.790705 164.732714,157.270761 C161.077056,157.42308 159.020748,153.843582 156.431323,153.615103 L156.431323,153.615103 Z M149.348485,144.247478 C149.120006,146.913063 149.729283,147.750817 150.262399,150.7972 C158.944588,153.538944 157.497557,138.84015 149.348485,144.247478 L149.348485,144.247478 Z M139.676222,141.048777 C135.944404,138.992469 130.308597,136.783842 125.434386,135.869928 C119.417782,134.727535 120.027058,144.095159 120.255537,149.654807 C120.484015,154.07206 122.768802,158.717793 123.758876,161.688015 C124.215833,163.058887 124.368152,164.505919 125.510546,164.810557 C127.566854,165.267514 134.421213,162.60193 136.325202,161.535696 C140.437817,159.327069 143.636519,155.74757 147.139858,153.310464 C147.216018,152.168071 147.216018,150.949518 147.292177,149.807125 C145.15971,148.740892 142.798764,148.055456 139.676222,147.903137 C141.73253,146.836903 144.855072,146.836903 146.75906,145.61835 C146.75906,145.161393 146.75906,144.704435 146.83522,144.247478 C143.331881,143.86668 142.037168,142.343489 139.676222,141.048777 L139.676222,141.048777 Z M103.881233,134.575215 C100.758692,137.773916 112.639582,142.038851 116.371399,142.26733 C116.371399,140.287181 117.513793,138.383193 117.285314,136.936161 C112.791901,136.174566 106.927615,136.707683 103.881233,134.575215 L103.881233,134.575215 Z M142.265647,136.022246 C142.265647,136.326885 141.884849,136.250726 141.80869,136.479204 C145.845145,139.601745 148.815368,140.287181 154.222696,139.982543 C156.659802,138.230874 158.868429,136.098406 161.457854,134.422896 C155.517409,134.956013 148.053773,138.611672 142.265647,136.022246 L142.265647,136.022246 Z M177.451359,146.684584 C177.29904,143.181244 176.385126,135.946087 174.176498,134.651375 C169.606925,131.985791 161.534013,140.058703 158.106833,141.277256 C158.487631,142.343489 159.096908,143.181244 159.173067,144.552117 C161.229375,144.019 163.66648,144.399797 165.41815,145.237552 C163.361842,145.466031 161.153215,145.466031 159.782343,146.456105 C159.325386,147.903137 159.934663,149.807125 159.553865,151.787273 C164.351916,153.158146 169.911563,153.843582 176.004328,154.07206 C177.146721,152.548869 177.603679,149.654807 177.451359,146.684584 L177.451359,146.684584 Z M98.6262244,137.621597 C97.6361502,136.936161 91.0102693,128.330132 90.0963547,128.71093 C78.1393053,133.432822 66.9438513,141.581894 56.9669502,149.350168 C66.4868941,169.837087 70.3710311,194.893579 71.056467,219.036157 C81.9472828,224.138847 91.5433862,231.526323 106.394498,232.287918 C104.642829,220.17855 103.119638,209.287734 102.129564,197.863802 C98.3977457,196.264451 93.0665771,197.939961 89.5632378,197.406844 C89.5632378,193.218069 94.8944064,195.579015 95.3513637,192.761112 C95.6560019,190.628644 92.3811412,190.476325 93.4473749,187.125305 C96.1891187,188.115379 97.6361502,190.324006 100.530213,191.161761 C103.195797,185.373636 100.530213,175.092096 100.911011,170.217885 C100.98717,169.303971 101.367968,165.191354 103.424276,165.87679 C105.252105,166.486067 103.348117,176.919925 103.500436,181.489499 C103.652755,185.754433 102.967319,189.790889 104.718988,192.456474 C119.036984,190.476325 133.583458,189.257773 149.120006,188.800815 C145.692827,187.353784 141.65637,185.982912 137.239116,183.469647 C134.802011,182.098775 127.262216,179.280871 126.576779,176.996085 C125.434386,173.340426 129.470842,171.436438 130.156278,168.313896 C122.921121,172.274193 121.550249,164.505919 119.79858,159.098591 C118.275389,154.14822 117.361474,150.416402 116.980676,147.598498 C110.659433,144.399797 103.957393,141.429575 98.6262244,137.621597 L98.6262244,137.621597 L98.6262244,137.621597 Z M171.130116,129.701004 C181.107018,124.902953 182.934847,147.750817 178.97455,155.138294 C179.583827,157.346921 181.640134,158.184676 182.477889,160.164824 C176.918242,170.141725 170.749319,179.433191 165.037353,189.257773 C169.226128,186.592189 175.318891,188.800815 180.269263,186.820667 C182.097092,186.135231 183.391804,181.946455 184.762676,178.595435 C188.570654,169.456289 192.53095,157.880038 194.28262,149.197849 C194.663417,147.217701 195.805811,142.876606 195.501173,141.124936 C195.044215,137.926235 190.77928,135.565289 188.570654,133.6613 C184.534197,130.005642 182.020932,126.883101 177.755997,123.455921 C176.156647,125.969186 172.500989,127.644696 171.130116,129.701004 L171.130116,129.701004 L171.130116,129.701004 Z M75.8545187,41.2797659 C71.1326266,46.5347748 72.1227008,56.2831973 72.6558177,63.289876 C81.2618469,57.8825478 92.6096199,63.7468332 92.5334603,72.8859793 C96.646076,72.8098197 94.0566513,67.7832894 93.2950558,64.5084288 C90.8579502,53.9222512 97.4076716,42.4983187 93.599694,32.8260557 C86.2122176,33.4353321 80.1956131,36.4055546 75.8545187,41.2797659 L75.8545187,41.2797659 L75.8545187,41.2797659 Z M109.821678,10.8921052 C99.0831816,13.9384872 85.298303,21.7829209 80.8810491,31.4551838 C84.3082288,30.9220669 86.6691749,29.2465569 90.0201952,29.0180782 C91.3149075,28.9419187 92.9904176,29.551195 94.437449,29.1703973 C97.331512,28.4088018 99.8447772,21.8590805 102.053404,19.4219748 C104.185872,17.0610288 106.775296,15.9947951 108.526966,13.8623276 C109.669359,13.3292108 111.344869,13.3292108 111.421029,11.6537007 C110.964071,11.1205838 110.430955,10.7397861 109.821678,10.8921052 L109.821678,10.8921052 Z M165.798948,13.7861681 C154.603494,7.4649254 135.715925,2.74303328 123.835035,8.6834782 C114.238932,13.4815299 101.291809,21.4021232 96.8745547,31.3790243 C100.98717,41.0512872 95.6560019,49.8857951 95.2752041,59.7103771 C95.122885,64.965386 97.7123097,69.4587995 97.9407884,75.1707658 C96.4937569,77.5317118 92.2288221,77.7601909 89.2585996,77.6078715 C88.2685255,72.5813411 86.5168558,66.9455344 81.3380064,66.3362579 C74.0266896,65.4985029 68.6193614,71.5912669 68.3147232,77.9125095 C67.9339255,85.3761455 74.0266896,97.7139929 82.7088783,96.8762378 C86.0598986,96.5715998 86.8976536,93.2205791 90.553312,93.2205791 C92.5334603,97.1808758 87.50693,98.3994287 86.9738131,101.217332 C86.821494,101.978928 87.3546109,104.796831 87.7354086,106.167703 C89.3347592,112.641265 92.8380985,121.094975 96.2652783,126.045346 C100.682532,132.366589 109.288561,133.280503 118.580027,133.889779 C120.255537,130.310281 126.348301,130.614919 130.308597,131.528833 C125.510546,129.624845 121.093291,125.055271 117.437634,121.018815 C113.248858,116.373082 108.983923,111.422712 108.755445,105.329948 C116.752197,116.373082 123.301919,126.045346 137.772233,130.919557 C148.739209,134.575215 161.534013,129.244047 169.987723,123.303602 C173.491062,120.866496 175.54737,116.9062 178.060635,113.40286 C187.352101,99.9987793 191.693195,80.9588913 190.77928,62.4521209 C190.398483,54.8361658 190.398483,47.2202108 187.809058,42.1175209 C185.143473,36.7863524 176.080487,31.9121411 170.749319,36.7863524 C169.759245,31.5313434 175.166573,28.3326422 181.487816,30.236631 C176.994402,24.3723456 172.27251,17.4418265 165.798948,13.7861681 L165.798948,13.7861681 L165.798948,13.7861681 Z M186.666665,185.982912 C195.425013,181.641817 211.723157,174.330501 217.130485,185.982912 C219.186793,190.324006 221.547739,197.559164 222.537813,202.052577 C223.984845,208.29766 220.938462,221.549422 214.464901,223.605729 C208.752934,225.433559 202.127053,225.357399 195.272694,223.986527 C194.434939,223.301091 193.597184,222.158698 192.911748,220.940145 C188.037537,220.787827 183.391804,221.168624 179.583827,223.224932 C179.964625,226.88059 177.527519,227.413707 175.166573,228.175303 C173.491062,234.953503 178.593752,243.788011 177.375199,249.880775 C176.537444,254.298028 171.130116,254.983465 167.16982,255.74506 C167.017501,258.182165 167.322139,260.238473 167.626777,262.294781 C166.712862,265.645801 162.676407,267.549791 158.792269,268.006747 C146.073624,269.529939 126.805258,270.215375 114.61973,265.798121 C111.19255,257.42057 108.526966,247.29135 105.709063,237.771406 C93.8281727,239.066118 84.1559098,232.668716 75.0929233,228.403781 C71.9703817,226.95675 67.6292873,226.118995 66.4107345,223.605729 C65.2683413,221.168624 65.7252985,216.522891 65.4206603,212.181797 C64.7352244,200.986343 64.0497884,190.171687 61.1557255,178.747755 C59.8610131,173.568905 57.5000671,169.075491 55.9007165,164.125121 C54.3775255,159.555547 51.7881008,153.843582 51.1026648,149.274009 C50.1125907,142.495809 56.509993,142.115011 60.5464491,139.144788 C66.8676918,134.575215 71.8180626,132.06195 78.6724222,127.949334 C80.72873,126.730782 86.821494,123.6844 87.50693,122.237368 C88.8778019,119.419465 85.1459839,115.459168 84.1559098,113.250541 C82.5565592,109.747202 81.7188041,106.776979 81.4903255,103.349799 C75.7783592,102.435885 71.3611053,99.0087048 68.7716806,95.2007275 C64.4305862,88.803325 61.3842041,76.9985947 65.1921817,68.0879276 C65.4968199,67.4024917 66.9438513,65.9554602 67.17233,64.8892265 C67.6292873,62.7567591 66.334575,59.9388557 66.2584154,57.6540692 C65.8776176,46.001658 68.2385637,35.9485973 76.0829974,32.445258 C79.2816985,19.726613 90.7056311,15.5378378 101.444128,9.2165951 C105.480584,6.85564901 109.897838,5.332458 114.467411,3.65694789 C130.841715,-2.3596566 156.050525,-1.21726334 169.683085,9.06427601 C175.471211,13.4053703 184.686517,22.620676 187.961377,29.3227164 C196.719725,46.9155725 196.03429,76.3893186 189.941525,97.8663116 C189.10377,100.760375 187.961377,104.94915 186.285867,108.452489 C185.143473,110.889595 181.563975,115.687647 181.944773,117.820114 C182.40173,120.028741 190.170004,125.893026 191.845514,127.492377 C194.815737,130.38644 200.527703,134.194418 200.98466,137.850076 C201.517777,141.734213 199.30915,147.065381 198.166757,150.7972 C194.511099,163.287366 190.85544,174.787458 186.666665,185.982912 L186.666665,185.982912 Z" id="Shape" fill="#231F20"></path>
            <path d="M128.248768,99.8351967 C128.705725,99.2259207 131.295149,98.2358461 134.950808,99.9875161 C134.950808,99.9875161 130.609714,100.672952 130.990511,107.90811 L129.162682,107.527312 C129.238841,107.603471 127.334853,101.05375 128.248768,99.8351967" id="Shape" fill="#F7E4CD"></path>
            <path d="M159.960297,161.980148 C159.960297,163.046382 159.046382,163.960297 157.980148,163.960297 C156.913914,163.960297 156,163.046382 156,161.980148 C156,160.913915 156.913914,160 157.980148,160 C159.122542,160 159.960297,160.913915 159.960297,161.980148" id="Shape" fill="#1D1919"></path>
            <path d="M161.960297,170.980148 C161.960297,172.046382 161.046382,172.960296 159.980148,172.960296 C158.913914,172.960296 158,172.046382 158,170.980148 C158,169.913914 158.913914,169 159.980148,169 C161.122542,169 161.960297,169.837754 161.960297,170.980148" id="Shape" fill="#1D1919"></path>
            <g id="Group" transform="translate(0.992248, 281.131783)" fill="#FFFFFF">
                <path d="M35.6217054,7.14418605 C34.827907,7.24341085 34.1333333,7.34263566 33.5379845,7.44186047 C32.9426357,7.54108527 32.3472868,7.64031008 31.5534884,7.83875969 C30.6604651,8.0372093 30.1643411,8.43410853 29.9658915,9.02945736 C29.7674419,9.6248062 29.5689922,10.220155 29.5689922,11.0139535 L29.5689922,35.2248062 C29.5689922,37.4077519 29.0728682,39.4914729 28.179845,41.3767442 C27.2868217,43.2620155 26.096124,44.7503876 24.5085271,46.0403101 C22.9209302,47.2310078 21.1348837,48.2232558 19.1503876,48.8186047 C17.1658915,49.4139535 15.0821705,49.8108527 12.8992248,49.8108527 C9.02945736,49.8108527 5.95348837,48.9178295 3.57209302,47.0325581 C1.19069767,45.1472868 0,42.6666667 0,39.3922481 C0,37.5069767 0.496124031,35.9193798 1.5875969,34.6294574 C2.67906977,33.3395349 4.16744186,32.744186 6.05271318,32.744186 C7.83875969,32.744186 9.22790698,33.2403101 10.3193798,34.3317829 C11.4108527,35.4232558 11.9069767,36.7131783 11.9069767,38.2015504 C11.9069767,39.4914729 11.4108527,40.7813953 10.5178295,41.8728682 C9.6248062,42.9643411 8.53333333,44.055814 7.34263566,44.9488372 L7.34263566,45.3457364 C7.54108527,45.7426357 7.9379845,46.1395349 8.53333333,46.4372093 C9.12868217,46.7348837 9.82325581,46.8341085 10.4186047,46.8341085 C12.8992248,46.8341085 14.8837209,45.9410853 16.2728682,44.1550388 C17.6620155,42.3689922 18.3565891,39.6899225 18.3565891,36.1178295 L18.3565891,11.3116279 C18.3565891,10.6170543 18.2573643,9.92248062 18.0589147,9.42635659 C17.8604651,8.93023256 17.2651163,8.53333333 16.372093,8.13643411 C15.7767442,7.83875969 14.9829457,7.64031008 14.0899225,7.44186047 C13.1968992,7.24341085 12.5023256,7.14418605 11.9069767,7.04496124 L11.9069767,4.66356589 L35.324031,4.66356589 L35.324031,7.14418605 L35.6217054,7.14418605 Z" id="Shape"></path>
                <path d="M72.3348837,41.2775194 C71.6403101,42.4682171 70.7472868,43.5596899 69.7550388,44.6511628 C68.7627907,45.7426357 67.572093,46.5364341 66.2821705,47.3302326 C64.8930233,48.124031 63.503876,48.7193798 62.1147287,49.1162791 C60.7255814,49.5131783 59.0387597,49.7116279 57.2527132,49.7116279 C54.1767442,49.7116279 51.5968992,49.3147287 49.3147287,48.4217054 C47.1317829,47.5286822 45.2465116,46.4372093 43.8573643,44.9488372 C42.3689922,43.4604651 41.3767442,41.7736434 40.5829457,39.7891473 C39.8883721,37.8046512 39.4914729,35.6217054 39.4914729,33.3395349 C39.4914729,31.255814 39.8883721,29.172093 40.6821705,27.2868217 C41.475969,25.4015504 42.5674419,23.6155039 43.9565891,22.1271318 C45.3457364,20.6387597 47.1317829,19.448062 49.3147287,18.5550388 C51.4976744,17.6620155 53.8790698,17.1658915 56.4589147,17.1658915 C59.3364341,17.1658915 61.7178295,17.5627907 63.6031008,18.2573643 C65.4883721,18.951938 66.9767442,19.944186 68.1674419,21.1348837 C69.3581395,22.3255814 70.151938,23.7147287 70.7472868,25.3023256 C71.2434109,26.8899225 71.5410853,28.5767442 71.5410853,30.3627907 L71.5410853,32.3472868 L50.6046512,32.3472868 C50.6046512,36.6139535 51.3984496,39.7891473 53.0852713,41.972093 C54.6728682,44.1550388 57.351938,45.2465116 60.8248062,45.2465116 C62.8093023,45.2465116 64.496124,44.7503876 66.0837209,43.6589147 C67.6713178,42.5674419 68.9612403,41.2775194 70.0527132,39.5906977 L72.3348837,41.2775194 L72.3348837,41.2775194 Z M60.5271318,29.4697674 C60.5271318,28.2790698 60.427907,26.9891473 60.3286822,25.6992248 C60.2294574,24.4093023 60.0310078,23.3178295 59.6341085,22.524031 C59.2372093,21.5317829 58.8403101,20.8372093 58.1457364,20.3410853 C57.5503876,19.8449612 56.7565891,19.6465116 55.8635659,19.6465116 C54.275969,19.6465116 52.9860465,20.4403101 52.0930233,22.027907 C51.1007752,23.6155039 50.6046512,26.1953488 50.5054264,29.6682171 L60.5271318,29.4697674 L60.5271318,29.4697674 Z" id="Shape"></path>
                <path d="M116.093023,48.620155 L97.4387597,48.620155 L97.4387597,46.3379845 C97.8356589,46.3379845 98.3317829,46.2387597 98.827907,46.1395349 C99.4232558,46.0403101 99.820155,45.9410853 100.117829,45.8418605 C100.514729,45.6434109 100.812403,45.2465116 101.010853,44.8496124 C101.209302,44.4527132 101.308527,43.7581395 101.308527,42.9643411 L101.308527,28.4775194 C101.308527,26.3937984 100.911628,24.8062016 100.117829,23.7147287 C99.324031,22.6232558 98.2325581,22.1271318 96.6449612,22.1271318 C95.8511628,22.1271318 95.0573643,22.2263566 94.3627907,22.524031 C93.6682171,22.7224806 92.9736434,23.1193798 92.2790698,23.6155039 C91.6837209,24.0124031 91.1875969,24.4093023 90.7906977,24.9054264 C90.3937984,25.3023256 90.096124,25.6992248 89.8976744,26.096124 L89.8976744,42.6666667 C89.8976744,43.3612403 89.9968992,43.9565891 90.1953488,44.4527132 C90.3937984,44.9488372 90.7906977,45.3457364 91.1875969,45.544186 C91.4852713,45.7426357 91.8821705,45.9410853 92.3782946,46.0403101 C92.8744186,46.1395349 93.3705426,46.2387597 93.8666667,46.3379845 L93.8666667,48.620155 L75.0139535,48.620155 L75.0139535,46.3379845 C75.5100775,46.3379845 76.0062016,46.2387597 76.6015504,46.1395349 C77.0976744,46.0403101 77.5937984,45.9410853 77.9906977,45.8418605 C78.6852713,45.6434109 79.0821705,45.2465116 79.379845,44.7503876 C79.5782946,44.2542636 79.7767442,43.6589147 79.7767442,42.8651163 L79.7767442,24.8062016 C79.7767442,24.2108527 79.5782946,23.5162791 79.2806202,22.9209302 C78.9829457,22.3255814 78.4868217,21.8294574 77.9906977,21.4325581 C77.5937984,21.2341085 77.1968992,20.9364341 76.6015504,20.8372093 C76.0062016,20.6387597 75.4108527,20.5395349 74.7162791,20.5395349 L74.7162791,18.2573643 L89.5007752,17.4635659 L89.9968992,17.9596899 L89.9968992,22.4248062 L90.096124,22.4248062 C90.6914729,21.9286822 91.3860465,21.3333333 92.179845,20.5395349 C92.9736434,19.8449612 93.7674419,19.2496124 94.4620155,18.7534884 C95.255814,18.2573643 96.248062,17.8604651 97.4387597,17.4635659 C98.6294574,17.0666667 100.018605,16.9674419 101.407752,16.9674419 C104.781395,16.9674419 107.262016,17.9596899 108.948837,19.8449612 C110.635659,21.7302326 111.429457,24.3100775 111.429457,27.4852713 L111.429457,42.6666667 C111.429457,43.4604651 111.528682,44.055814 111.727132,44.4527132 C111.925581,44.9488372 112.421705,45.2465116 113.017054,45.544186 C113.314729,45.6434109 113.711628,45.8418605 114.207752,45.9410853 C114.703876,46.0403101 115.2,46.1395349 115.894574,46.2387597 L115.894574,48.620155 L116.093023,48.620155 Z" id="Shape"></path>
                <path d="M158.75969,48.620155 L144.173643,48.620155 C142.387597,45.4449612 140.700775,42.7658915 139.212403,40.5829457 C137.724031,38.4 136.334884,36.3162791 135.044961,34.5302326 L133.258915,36.1178295 L133.258915,42.8651163 C133.258915,43.5596899 133.35814,44.2542636 133.556589,44.6511628 C133.755039,45.1472868 134.151938,45.4449612 134.846512,45.7426357 C135.243411,45.9410853 135.64031,46.0403101 136.136434,46.1395349 C136.632558,46.2387597 137.128682,46.3379845 137.624806,46.3379845 L137.624806,48.620155 L118.375194,48.620155 L118.375194,46.3379845 C118.871318,46.3379845 119.367442,46.2387597 119.962791,46.1395349 C120.458915,46.0403101 120.955039,45.9410853 121.351938,45.8418605 C122.046512,45.6434109 122.443411,45.2465116 122.741085,44.7503876 C122.939535,44.2542636 123.137984,43.6589147 123.137984,42.8651163 L123.137984,8.33488372 C123.137984,7.64031008 122.939535,6.94573643 122.64186,6.25116279 C122.344186,5.55658915 121.947287,4.96124031 121.351938,4.56434109 C120.955039,4.36589147 120.35969,4.06821705 119.565891,3.96899225 C118.772093,3.77054264 118.077519,3.67131783 117.382946,3.67131783 L117.382946,1.38914729 L132.762791,0.595348837 L133.258915,1.09147287 L133.258915,33.0418605 C134.747287,31.6527132 136.533333,30.0651163 138.418605,28.2790698 C140.303876,26.4930233 141.891473,25.0046512 142.982946,23.8139535 C143.677519,23.1193798 144.074419,22.6232558 144.074419,22.2263566 C144.173643,21.8294574 144.173643,21.6310078 144.173643,21.5317829 C144.173643,21.1348837 143.875969,20.8372093 143.181395,20.6387597 C142.486822,20.4403101 141.593798,20.1426357 140.204651,19.944186 L140.204651,17.7612403 L155.882171,17.7612403 L155.882171,19.944186 C153.79845,20.5395349 152.210853,21.0356589 151.11938,21.5317829 C150.027907,22.027907 148.837209,22.7224806 147.547287,23.5162791 C146.654264,24.1116279 145.860465,24.7069767 145.066667,25.3023256 C144.272868,25.8976744 143.379845,26.6914729 142.288372,27.5844961 C144.272868,30.5612403 146.15814,33.2403101 147.844961,35.7209302 C149.531783,38.2015504 151.317829,40.8806202 153.203101,43.6589147 C153.79845,44.6511628 154.592248,45.2465116 155.584496,45.6434109 C156.576744,45.9410853 157.469767,46.1395349 158.462016,46.2387597 L158.462016,48.620155 L158.75969,48.620155 Z" id="Shape"></path>
                <path d="M178.604651,48.620155 L159.057364,48.620155 L159.057364,46.3379845 C159.553488,46.3379845 160.148837,46.2387597 160.644961,46.1395349 C161.141085,46.0403101 161.637209,45.9410853 161.934884,45.8418605 C162.629457,45.6434109 163.026357,45.2465116 163.324031,44.7503876 C163.621705,44.2542636 163.72093,43.6589147 163.72093,42.8651163 L163.72093,24.8062016 C163.72093,24.1116279 163.522481,23.4170543 163.224806,22.9209302 C162.927132,22.3255814 162.530233,21.9286822 162.034109,21.6310078 C161.637209,21.4325581 161.141085,21.1348837 160.347287,20.9364341 C159.553488,20.7379845 158.858915,20.5395349 158.263566,20.5395349 L158.263566,18.2573643 L173.444961,17.4635659 L173.941085,17.9596899 L173.941085,42.5674419 C173.941085,43.2620155 174.139535,43.8573643 174.437209,44.4527132 C174.734884,44.9488372 175.231008,45.3457364 175.727132,45.544186 C176.124031,45.7426357 176.620155,45.9410853 177.116279,46.0403101 C177.612403,46.1395349 178.108527,46.2387597 178.703876,46.3379845 L178.703876,48.620155 L178.604651,48.620155 Z M174.139535,6.4496124 C174.139535,8.0372093 173.544186,9.32713178 172.353488,10.4186047 C171.162791,11.5100775 169.674419,12.1054264 168.086822,12.1054264 C166.4,12.1054264 165.010853,11.5100775 163.72093,10.4186047 C162.530233,9.32713178 161.934884,7.9379845 161.934884,6.4496124 C161.934884,4.8620155 162.530233,3.57209302 163.72093,2.38139535 C164.911628,1.28992248 166.4,0.694573643 168.086822,0.694573643 C169.773643,0.694573643 171.162791,1.28992248 172.353488,2.38139535 C173.544186,3.47286822 174.139535,4.8620155 174.139535,6.4496124 L174.139535,6.4496124 Z" id="Shape"></path>
                <path d="M222.362791,48.620155 L203.708527,48.620155 L203.708527,46.3379845 C204.105426,46.3379845 204.60155,46.2387597 205.097674,46.1395349 C205.693023,46.0403101 206.089922,45.9410853 206.387597,45.8418605 C206.784496,45.6434109 207.082171,45.2465116 207.28062,44.8496124 C207.47907,44.4527132 207.578295,43.7581395 207.578295,42.9643411 L207.578295,28.4775194 C207.578295,26.3937984 207.181395,24.8062016 206.387597,23.7147287 C205.593798,22.6232558 204.502326,22.1271318 202.914729,22.1271318 C202.12093,22.1271318 201.327132,22.2263566 200.632558,22.524031 C199.937984,22.8217054 199.243411,23.1193798 198.548837,23.6155039 C197.953488,24.0124031 197.457364,24.4093023 197.060465,24.9054264 C196.663566,25.3023256 196.365891,25.6992248 196.167442,26.096124 L196.167442,42.6666667 C196.167442,43.3612403 196.266667,43.9565891 196.465116,44.4527132 C196.663566,44.9488372 197.060465,45.3457364 197.457364,45.544186 C197.755039,45.7426357 198.151938,45.9410853 198.648062,46.0403101 C199.144186,46.1395349 199.64031,46.2387597 200.136434,46.3379845 L200.136434,48.620155 L181.283721,48.620155 L181.283721,46.3379845 C181.779845,46.3379845 182.275969,46.2387597 182.871318,46.1395349 C183.367442,46.0403101 183.863566,45.9410853 184.260465,45.8418605 C184.955039,45.6434109 185.351938,45.2465116 185.649612,44.7503876 C185.848062,44.2542636 186.046512,43.6589147 186.046512,42.8651163 L186.046512,24.8062016 C186.046512,24.2108527 185.848062,23.5162791 185.550388,22.9209302 C185.252713,22.3255814 184.756589,21.8294574 184.260465,21.4325581 C183.863566,21.2341085 183.466667,20.9364341 182.871318,20.8372093 C182.275969,20.6387597 181.68062,20.5395349 180.986047,20.5395349 L180.986047,18.2573643 L195.770543,17.4635659 L196.266667,17.9596899 L196.266667,22.4248062 L196.365891,22.4248062 C196.96124,21.9286822 197.655814,21.3333333 198.449612,20.5395349 C199.243411,19.8449612 200.037209,19.2496124 200.731783,18.7534884 C201.525581,18.2573643 202.517829,17.8604651 203.708527,17.4635659 C204.899225,17.0666667 206.288372,16.9674419 207.677519,16.9674419 C211.051163,16.9674419 213.531783,17.9596899 215.218605,19.8449612 C216.905426,21.7302326 217.699225,24.3100775 217.699225,27.4852713 L217.699225,42.6666667 C217.699225,43.4604651 217.79845,44.055814 217.996899,44.4527132 C218.195349,44.9488372 218.691473,45.2465116 219.286822,45.544186 C219.584496,45.6434109 219.981395,45.8418605 220.477519,45.9410853 C220.973643,46.0403101 221.469767,46.1395349 222.164341,46.2387597 L222.164341,48.620155 L222.362791,48.620155 Z" id="Shape"></path>
                <path d="M239.528682,49.7116279 C237.544186,49.7116279 235.55969,49.4139535 233.674419,48.8186047 C231.789147,48.2232558 230.300775,47.627907 229.209302,46.9333333 L228.316279,49.0170543 L225.934884,49.0170543 L225.537984,37.5069767 L227.820155,37.5069767 C228.117829,38.4 228.613953,39.4914729 229.407752,40.6821705 C230.102326,41.8728682 230.995349,42.8651163 231.888372,43.8573643 C232.88062,44.7503876 233.972093,45.544186 235.262016,46.2387597 C236.551938,46.8341085 237.84186,47.2310078 239.231008,47.2310078 C241.116279,47.2310078 242.505426,46.8341085 243.39845,46.1395349 C244.291473,45.4449612 244.787597,44.2542636 244.787597,42.7658915 C244.787597,41.972093 244.589147,41.2775194 244.192248,40.6821705 C243.795349,40.1860465 243.2,39.6899225 242.505426,39.2930233 C241.711628,38.896124 240.818605,38.4992248 239.826357,38.2015504 C238.834109,37.903876 237.643411,37.6062016 236.254264,37.1100775 C234.865116,36.7131783 233.674419,36.3162791 232.682171,35.820155 C231.689922,35.4232558 230.59845,34.7286822 229.606202,33.8356589 C228.713178,33.0418605 227.91938,32.0496124 227.423256,30.9581395 C226.827907,29.8666667 226.629457,28.4775194 226.629457,26.8899225 C226.629457,24.0124031 227.820155,21.6310078 230.300775,19.8449612 C232.781395,18.0589147 235.956589,17.1658915 239.925581,17.1658915 C241.810853,17.1658915 243.497674,17.3643411 245.085271,17.7612403 C246.672868,18.1581395 247.962791,18.5550388 249.054264,19.0511628 L249.748837,17.2651163 L252.130233,17.2651163 L252.626357,27.7829457 L250.443411,27.7829457 C249.748837,25.6 248.458915,23.8139535 246.772093,22.2263566 C244.986047,20.6387597 243.100775,19.8449612 241.116279,19.8449612 C239.528682,19.8449612 238.23876,20.1426357 237.345736,20.8372093 C236.452713,21.5317829 235.956589,22.4248062 235.956589,23.6155039 C235.956589,25.2031008 236.651163,26.2945736 237.941085,26.9891473 C239.231008,27.6837209 241.116279,28.3782946 243.497674,28.9736434 C247.168992,29.9658915 249.848062,31.255814 251.634109,32.8434109 C253.32093,34.5302326 254.213953,36.6139535 254.213953,39.0945736 C254.213953,42.4682171 252.924031,45.1472868 250.244961,46.9333333 C247.268217,48.7193798 243.795349,49.7116279 239.528682,49.7116279 L239.528682,49.7116279 Z" id="Shape"></path>
            </g>
        </g>
    </g>
</svg>