<svg width="100%" height="100%" viewBox="0 0 146 146" xmlns="http://www.w3.org/2000/svg"><title>JS</title><g fill="none" fill-rule="evenodd"><path fill="#F7DF1E" d="M0 0h85v85H0z"/><path d="M22.35 71.032l6.504-3.936c1.255 2.225 2.397 4.107 5.135 4.107 2.625 0 4.28-1.027 4.28-5.02v-27.16h7.987v27.273c0 8.273-4.85 12.039-11.925 12.039-6.39 0-10.099-3.31-11.982-7.303m28.246-.856L57.1 66.41c1.712 2.797 3.938 4.85 7.874 4.85 3.31 0 5.42-1.654 5.42-3.937 0-2.738-2.167-3.708-5.82-5.306l-1.996-.856c-5.763-2.453-9.586-5.534-9.586-12.039 0-5.99 4.565-10.555 11.697-10.555 5.078 0 8.73 1.768 11.354 6.39l-6.219 3.994c-1.37-2.453-2.852-3.423-5.135-3.423-2.339 0-3.823 1.483-3.823 3.423 0 2.396 1.484 3.367 4.907 4.85l1.997.856c6.79 2.91 10.613 5.877 10.613 12.552 0 7.19-5.649 11.126-13.237 11.126-7.418 0-12.21-3.537-14.55-8.159" fill="#000"/><path fill="#F26522" d="M85 0h61v61H85z"/><path d="M110.147 38.115h9.33v-2.538h-6.448v-3.934h5.946v-2.538h-5.946v-3.682h6.449v-2.538h-9.33v15.23zm21.794-4.139c0-3.041-.206-3.705-4.3-4.688-2.63-.64-2.675-.686-2.675-2.424 0-1.326.343-1.738 2.287-1.738 1.326 0 2.813.183 4.07.457l.32-2.424a20.783 20.783 0 0 0-4.436-.503c-3.865 0-5.122 1.372-5.122 4.14 0 3.224.503 3.933 4.185 4.756 2.744.595 2.79.732 2.79 2.424 0 1.464-.343 1.898-2.425 1.898-1.509 0-2.881-.274-4.299-.709l-.503 2.264c1.006.48 3.019.915 4.757.915 4.505 0 5.351-1.487 5.351-4.368zm5.305-5.671c0-2.333 1.121-2.79 3.82-2.79.48 0 1.486.068 2.15.205l.182-2.332c-.686-.16-1.784-.275-2.63-.275-4.162 0-6.311 1.281-6.311 5.306v5.557c0 2.63.777 4.368 4.71 4.368 3.59 0 4.688-1.784 4.688-4.162v-1.098c0-2.63-1.12-3.773-3.887-3.773-.984 0-1.921.137-2.722.411v-1.417zm2.287 3.407c1.007 0 1.533.343 1.533 1.44v1.121c0 1.167-.458 1.67-1.899 1.67-1.44 0-1.92-.412-1.92-1.67v-2.08a5.993 5.993 0 0 1 2.286-.481z" fill="#FFF"/><g><path d="M100.444 94.955l-.032-.307-.504.043.032.306.504-.042zm3.384 8.047l.01.17.354-.032c-.01-.106.032-.276.107-.487l-.032-.308c-.15.011-.3.233-.44.657zm-13.204 10.132c-.022-.285-.921-1.397-2.699-3.356-.032-.36.578-.9 1.831-1.61l3.577-3.08c.803-1.006 1.274-2.637 1.414-4.902l-.043-.52c-.14-1.566-1.285-2.826-3.46-3.79-1.284-.857-3.597-1.334-6.939-1.418-2.763.233-6.371 1.206-10.816 2.932a44.422 44.422 0 0 1-4.176 2.605l.021.265a1 1 0 0 0 .418-.18c.182-.022.289.063.3.233l.267-.138.129-.01.01.116c.011.138-.953.89-2.902 2.234l.15.275-.128.01-.321-.116c.01.095-.129.159-.397.18l.011.117.31.38c-.096.012-.246-.03-.449-.105-.45.042-.889.275-1.328.72l.182-.784c.653-2.784 1.103-5.251 1.339-7.39l-.032-.138a5.413 5.413 0 0 1-1.296-1.196c.01-.328.01-.519 0-.561l-.032-.117-.129.032c-1.413 2.097-4.134 5.675-8.17 10.736-3.074 3.6-4.66 5.601-4.756 6.004-1.252 1.28-1.852 2.054-1.788 2.318-.332.212-.471.424-.418.657-.096.021-.16-.01-.182-.106-.535.858-1.328 1.408-2.388 1.652l-1.114.254c-.15.032-.225.137-.214.317l.032.138.418-.095.032.116-.942.36-1.67.381-.88.053c-.128.127.697-.01.376.064l-1.092.254c-.665.148-1.028.095-1.093-.17l-.128.032c.021.117.032.202.01.276l-.064-.265-.878.201c-.064-.402-1.253-1.863-3.555-4.383-.043-.487.77-1.197 2.43-2.118l4.691-4.076c1.05-1.334 1.67-3.473 1.874-6.416l-.064-.689c-.182-2.075-1.703-3.748-4.562-5.04-1.692-1.132-4.734-1.736-9.124-1.831-3.641.307-8.396 1.588-14.243 3.822-1.607 1.154-3.438 2.297-5.494 3.43l.032.36c.14-.01.321-.084.546-.211.236-.022.364.084.386.296l.364-.201.182-.01.01.169c.011.17-1.263 1.154-3.844 2.954l.204.318-.182.01-.397-.138c.011.106-.171.18-.546.212l.022.19.428.467c-.14.01-.332-.032-.578-.117-.835.074-1.65.667-2.453 1.79l.204.317c.696-.635 1.103-.953 1.22-.963l.043.519c-.117.01-.3.084-.546.211l.44.657c.845-.9 1.777-1.673 2.795-2.32.503.128.77.287.781.456l.386-.031c2.763-2.023 5.494-3.484 8.203-4.384l.032.36c-.503.741-.846 1.122-1.028 1.143.021.255.107.477.268.668.043.455-1.19 3.525-3.684 9.2-5.665 13.193-10.42 22.955-14.286 29.266.01.126.086.296.225.508.953-.223 1.553-.456 1.81-.678l.203-.021.032.36.354-.032.364-.201c.01.106.128.159.374.137l.033.36c.032.35-.172.88-.6 1.61-.385.434-.803 1.345-1.242 2.732l.01.169.354-.032c1.542-1.705 2.71-3.378 3.512-5.008 4.498-1.302 7.925-2.583 10.302-3.843 2.389-.202 4.21-.826 5.451-1.853l-.021-.19-.9.264-.203.021-.022-.19c1.757-.265 2.967-.646 3.641-1.176 3.417-2.604 5.998-4.447 7.743-5.537 3.588-2.605 5.922-5.146 6.982-7.613.193-.042.386-.085.6-.138.503-.02.782-.031.857-.053-.022-.095.021-.148.118-.169.803-.084.417.053.931-.063l1.35-.307c-.086.02-.118.063-.097.148l.204-.127a.32.32 0 0 1-.107-.021l.224-.053-.107.063c.15.021.311.01.493-.032l.096.392-6.136 9.646-1.36 1.683-.664 2.202.129-.031.664-.276-.214.858.064.254.182.222c-.086.022-.118.075-.097.17l.033.138.278-.064c.407-.35.578-.667.514-.953.439.074.728.106.878.064l.032.137c-.267.064-.407.275-.428.636l.032.137.15-.032c2.228-2.403 7.69-10.63 12.07-16.21-.14-.603 2.14-1.44 6.853-2.52l.15-.031c.171.73-.193 2.498-1.093 5.304-.578 1.694-.856 2.626-.813 2.774-.75 2.255-1.104 3.473-1.06 3.664l-1.671 5.41a48.976 48.976 0 0 0-2.485 8.756c.097-.02.246-.01.46.043l.236-.202c.022.096.086.127.182.106l-.096-.392.728-.02c.214-.053.396-.318.546-.805-.032-.73.118-1.123.45-1.207.45-1.737.728-2.605.825-2.637.417-1.725.728-2.71.931-2.954.632-2.244 1.093-3.398 1.392-3.473l.065.276-.46 1.175c-.804 3.526-1.618 6.31-2.442 8.354l.235 1.016.15-.031c1.992-4.236 4.862-12.621 8.6-25.157.107-1.102.642-1.96 1.595-2.563l-.214-.222-.032-.116c.428-.096.728-.265.9-.498-.022-.095-.397-.233-1.125-.424l1.863-7.898c.407-.36.643-.55.718-.55l.032.402a.995.995 0 0 0-.418.18l.354.497a11.415 11.415 0 0 1 2.099-1.778c.385.105.578.232.6.36l.278-.022c2.12-1.535 4.198-2.636 6.243-3.303l.022.264c-.375.562-.632.847-.772.858.022.19.076.36.172.508.032.35-.889 2.68-2.774 6.999-4.305 10.005-7.914 17.406-10.848 22.213.01.096.075.223.193.392.717-.17 1.178-.35 1.36-.519l.128-.01.022.265.3-.022.267-.137c.01.074.107.106.29.095l.02.286c.022.254-.127.656-.46 1.207-.31.328-.631 1.016-.974 2.064l.01.138.279-.021c1.167-1.292 2.056-2.562 2.667-3.812 3.416-.995 6.018-1.958 7.817-2.911 1.831-.16 3.213-.625 4.155-1.409l-.01-.137-.697.201-.15.01-.01-.137c1.328-.19 2.26-.487 2.763-.879 2.591-1.97 4.551-3.377 5.88-4.203 4.133-2.975 6.06-5.834 5.825-8.577zm-.707.18l.096 1.07c-.128.265-.267.402-.396.413l-.16-1.821c.3.106.45.211.46.338zm-81.089-8.618l-.182.01-.032-.328.74-.063.01.17c-.118.01-.3.073-.536.211zM5.22 140.388c-.428-.19-.813-.265-1.145-.233l-.043-.52c-.022-.2.096-.338.353-.39.236-.022.375.148.396.486.622-.751.964-1.133 1.029-1.143l.396.159c-.129 1.059-.46 1.598-.986 1.64zm38.564-39.885c-.182.021-.547-.54-1.071-1.652l-.032-.328c.342-.031.696.519 1.07 1.652l.033.328zm-.515-3.949l-.15.35-5.236-2.16c3.49.116 5.29.72 5.386 1.81zm-22.114 18.772l-.738.064-.033-.329.74-.063.031.328zm-.6-11.276l.183-.01.042.518c-.17.011-.396.265-.674.752l-.032-.36c.332-.392.503-.688.482-.9zm-1.552 3.621l.064.688-.182.011-.064-.688.182-.01zm-.814 1.292l.353-.032c-.032.572-.192.879-.481.9l-.183.01c.225-.38.332-.677.31-.878zm-.61 1.8l.203-.021.01.169-.331.55-.354.032-.01-.169c.353-.032.514-.212.482-.561zm-.6 1.62l-.107.868-.182.01-.075-.857.364-.021zM10.97 129.27c-.235 1.185-.493 1.789-.76 1.81l-.011-.17c-.064-.582.193-1.132.771-1.64zm-1.103 2.36l.01.17c.022.233-.085.37-.32.381l-.011-.17c-.022-.2.085-.328.321-.38zm-.321 4.903l.557-.053.021.19c-.14.01-.321.085-.546.212l-.353.032c-.022-.18.096-.318.32-.381zm15.85-4.839c-3.128 1.525-4.97 2.562-5.516 3.102-3.384 1.165-5.065 1.885-5.033 2.17-3.01 1.176-4.99 2.044-5.944 2.584-.225.022-.546-.063-.974-.254-.054-.603.225-1.09.813-1.482a3.193 3.193 0 0 1 1.51.233c.558-.286 1.532-.604 2.914-.942l-.033-.36-1.113.095c.139-.19 1.21-.688 3.223-1.493l.557-.053.01.17c-.953.084-1.477.36-1.595.857.021.222.15.318.386.297.717-.445 1.07-.71 1.06-.784 1.36-.254 5.118-2.202 11.276-5.834l.032.328c.011.159-.514.604-1.574 1.366zm-9.446 3.07a3.66 3.66 0 0 0 2.313-1.058c.257-.021.396.074.407.296-.44.043-1.285.402-2.517 1.101l-.182.011-.021-.35zm15.239-11.572l-4.723 3.695c-3.513 2.277-5.397 3.42-5.665 3.441-5.59 3.04-9.07 4.617-10.42 4.733l-.203.021c.171-.624 2.655-5.654 7.475-15.12 2.12-.18 5.461-1.153 10.013-2.932l1.113-.096c2.303-.2 4.027.244 5.162 1.303l.064.688c-.857 2.435-1.799 3.854-2.816 4.267zm-9.231-5.135l.76-.064.01.17-.76.063-.01-.169zm10.676-1.79l.557-.052c.514.243.782.455.804.646l.01.169c-.492.042-.953-.212-1.37-.763zm1.51-8.501c-.492.582-1.842 1.577-4.048 2.975-.728.063-3.437 1.1-8.128 3.134a1.499 1.499 0 0 0-.75-.127l-.032-.329c-.053-.667.247-1.503.91-2.52.365-1.905.761-2.996 1.2-3.26l3.91-8.693c-.044-.54.791-.953 2.505-1.24l.557-.052.043.498c1.68-.254 2.73-.403 3.137-.435 3.106-.264 4.723.36 4.852 1.854l.353-.032-.075-.879.385-.032c.91.498 1.403 1.101 1.468 1.81.042.488-.225 1.091-.793 1.811-.235.021-.375-.148-.396-.487l-.386.032-.085 1.059c-1.575 2.329-2.72 3.525-3.427 3.589-.643.879-1.039 1.313-1.2 1.324zm2.4 6.088c-.322-.212-.58-.308-.772-.297l-.043-.519.354-.031.782.455c.032.243-.075.37-.322.392zm2.484 2.911c.342.138.546.286.589.424l-.172.042.011.01a.384.384 0 0 0-.107.022l-.257.2-.064-.698zm.235 1.461l-.032-.137.45-.106.032.138-.45.105zm1.082 1.197c.46-.074.685-.106 1.542-.297l.032.138-1.628.37c.022-.074.043-.148.054-.211zm1.585.667c-.685.063-.536-.022-1.628.222l-.032-.137 1.36-.435.653-.148.064.254c-.289.064-.074.064-.417.244zm1.446-.339c-.161.042-.29-.032-.365-.212l.418-.095c.182-.042.3.032.343.212l-.396.095zm3.919-4.172l-.032-.137.675-.159.064.254-.707.042zm4.187 25.39c.043-.19.054-.328.032-.424l.15-.031c.182-.042.29.021.332.19l.032.138-.546.127zm2.935-24.3l-.3-.052c-.482.19-.89.328-1.221.402l-.279.064c-.16.042-.289-.021-.353-.19l1.96-.445.642-.297.214.244c-.31.063-.535.158-.663.275zm1.51-.476l-.033-.137c.097-.021.225-.095.365-.233l1.392-.318.032.138c-.74.18-1.328.36-1.757.55zm.214-2.784c-.097.021-.225.106-.386.233-.021-.096-.214-.096-.578-.01-.064-.266.964-.636 3.095-1.123l.3-.064.064.254c-1.5.434-2.335.678-2.495.71zm3.748-4.002c-.15 1.683-.75 2.636-1.81 2.88l-.032-.138-.942.36-.418.095a1.063 1.063 0 0 1-.579-.01l-.085-.371c-.032-.138 1.328-2.001 4.09-5.58l.322.053c.118.487-.064 1.387-.546 2.71zm6.629-5.612l-.129.01-.021-.264.557-.053.01.137a1.816 1.816 0 0 0-.417.17zm-2.731 27.116c-.321-.149-.61-.212-.857-.191l-.032-.402c-.01-.138.075-.233.257-.286.182-.021.29.106.31.381.461-.582.718-.879.772-.879l.289.117c-.107.804-.354 1.228-.739 1.26zm29.278-30.282c-.139.01-.407-.413-.824-1.27l-.022-.265c.268-.021.546.392.825 1.239l.021.296zm-.385-3.028l-.129.275-3.962-1.64c2.645.084 4.016.54 4.09 1.365zm-16.803 14.262l-.557.053-.02-.265.556-.042.021.254zm-.46-8.566l.15-.01.032.402c-.14.01-.31.201-.514.572l-.021-.265c.246-.307.363-.54.353-.699zm-1.167 2.753l.042.52-.15.01-.042-.52.15-.01zm-.632.985l.278-.021c-.032.444-.15.677-.353.699l-.15.01c.16-.296.236-.53.225-.688zm-.45 1.355l.129-.01.01.137-.246.424-.279.021-.01-.138c.289-.021.417-.17.396-.434zm-.45 1.228l-.096.678-.129.01-.053-.666.278-.022zm-4.573 12.843c-.182.89-.374 1.345-.578 1.366l-.01-.116c-.033-.445.16-.868.588-1.25zm-.845 1.79l.01.116c.022.19-.064.297-.257.307l-.01-.137c-.011-.138.074-.233.257-.286zm-.236 3.727l.428-.032.01.137a1.257 1.257 0 0 0-.417.16l-.278.02c-.011-.148.075-.243.257-.285zm12.026-3.674c-2.356 1.154-3.759 1.937-4.198 2.34-2.57.889-3.844 1.44-3.823 1.662-2.28.9-3.78 1.546-4.487 1.959-.171.01-.418-.053-.739-.201-.043-.456.171-.826.621-1.102.407-.031.793.022 1.146.17.428-.212 1.167-.445 2.217-.71l-.022-.264-.878.063c.107-.148.932-.53 2.463-1.143l.429-.032.01.117c-.728.063-1.135.275-1.22.656.01.17.117.254.3.233.535-.35.792-.55.792-.614 1.028-.18 3.877-1.663 8.557-4.437l.02.265c.012.117-.385.455-1.188 1.038zm-7.175 2.33a2.89 2.89 0 0 0 1.778-.795c.182-.021.289.064.3.233-.322.032-.953.296-1.907.805l-.15.01-.02-.254zm11.587-8.8l-3.566 2.838c-2.667 1.726-4.112 2.594-4.337 2.615-4.24 2.308-6.875 3.505-7.914 3.59l-.15.01c.128-.476 2.024-4.299 5.687-11.477 1.595-.138 4.122-.89 7.592-2.245l.868-.074c1.745-.148 3.052.19 3.909 1.006l.042.519c-.653 1.82-1.36 2.89-2.13 3.219zM76.5 113.94l.556-.053.011.138-.557.053-.01-.138zm8.106-1.366l.429-.031c.396.19.6.36.61.497l.01.117c-.374.031-.728-.159-1.049-.583zm1.125-6.448c-.375.445-1.392 1.207-3.052 2.266-.557.053-2.613.837-6.169 2.361a1.42 1.42 0 0 0-.568-.074l-.02-.265c-.044-.508.181-1.143.674-1.916.278-1.461.589-2.276.91-2.467l2.988-6.607c-.032-.392.6-.71 1.885-.953l.428-.031.032.402c1.264-.201 2.056-.318 2.378-.35 2.356-.2 3.587.265 3.683 1.409l.279-.022-.054-.635.279-.02c.685.37 1.05.814 1.092 1.344.032.381-.16.847-.568 1.387-.181.02-.288-.106-.31-.381l-.278.02-.086.795c-1.189 1.79-2.056 2.71-2.602 2.753-.482.646-.782.974-.921.984zm1.253 4.405l-.033-.402.279-.021.6.36c.01.169-.075.264-.257.285-.257-.159-.45-.233-.59-.222zm-49.85 25.718l-.28.063-.235.201c.043.17.15.233.332.191.182-.042.257-.148.214-.317l-.032-.138zm-1.06-2.086l.031.138c.182-.043.257-.148.214-.318l-.032-.138c-.171.043-.246.149-.214.318zm7.538-17.735l.321-.074-.064-.275-.321.074.064.275zm97.174 8.068c-3.256.72-3.663.593-4.348.646l.021.265.3-.021.16-.01-.042-.033.353-.137c3.224-.35 3.599-.223 3.566-.583l-.01-.127zm-17.531 2.298l.021.265h.043l-.021-.265h-.043zm-2.013-6.977l-.29-.096c-.235.625-.353.995-.342 1.101l.01.117c.225-.01.43-.392.622-1.122zm20.208 4.627l.021.264.471.085-.021-.265-.471-.084zm-22.157 2.678l-.728-.085-.129.276.01.137 4.338-.36-.022-.264-3.47.296zm-1.97-9.391l-.011-.138-.15.01-.268.17.15.254c.203-.021.3-.116.278-.296zm26.183 4.764l.203-.021c.118-.01.172-.106.16-.275l-.117-.254c-.739.063-1.081.095-1.681.423l-.011-.137-.889.084c-.021-.264-.096-.402-.214-.391l-.46.042c-.536.042-.793.021-1.06.222-.011-.095-.043-.137-.097-.137l-.514.042-.3.17c-.01-.096-.043-.138-.096-.138l-.182.159-.011-.138-.718-.053-.171.01.022.265.364.095.342-.02a.626.626 0 0 0 .397.084l.3-.148.01.116c-1.681.413-1.67.34-2.827.53-.129-.085-.225-.127-.29-.117l-.02.021c-.13-.01-.204-.095-.215-.233l.6-.074c.043 0 .075.043.407.106.482-.233.503-.328.76-.35l-.021-.264c-1.65.318-.986.106-3.052.286l-.097.01-.021-.264c2.656-.318 1.767-.138 2.677-.392.01.095.043.138.096.138a.625.625 0 0 1 .365-.18l.182-.01c.931-.075 1.242.105 3.084-.403l.01.116.3-.148.279-.021c-.022-.265.385-.307.525-.318l-.022-.286c-3.234.646-4.08.466-4.98.72l-.01-.116c-.846.148-.878.084-1.092.095-.065.01-.161.064-.268.17-.01-.096-.043-.138-.107-.138-.032 0-.043.01-.054.01l-2.741.445c-.011-.074-.043-.116-.107-.106-1.425.297-1.04.35-2.945.519a.9.9 0 0 0-.354.148c-.01-.074-.053-.116-.15-.106l-1.167.096-.782.19c-.01-.074-.053-.116-.15-.106a6.23 6.23 0 0 1-1.135.212h-.021c-.193.021.096-.053-.054-.116l-.236.137c-.342.032-.16-.02-1.338-.01-2.067.254-1.842.286-2.067.296l-.77-.053c.01.074-.033.127-.119.127-.878-.116-1.328-.254-1.338-.413.117-.825.321-1.249.61-1.27l.15-.01-.129.275.15-.011c.279-.148.407-.286.397-.413l-.022-.286-.278.021-.022-.264a.943.943 0 0 1 .086-.53l.632-1.005.021.264.3-.021-.021-.265-.172-.243c.225-.19.397-.297.536-.307l-.01-.138-.408.032-.032-.402c.814-1.673 1.2-2.648 1.178-2.923l.29.117c.181-.01.267-.117.256-.307l-.278.02-.011-.116a1.002 1.002 0 0 1 .107-.56c.44-.456.643-.911.6-1.388.086-.01.128.032.14.127.374-.211.663-.773.877-1.704.664-1.186 1.606-3.558 2.838-7.105 2.356-6.268 2.26-6.935 2.592-8.417l-.279.02a.949.949 0 0 1-.107.54c-.193-.073-.342-.116-.45-.105l-.01-.116c-.043-.54.182-1.186.696-1.949l.128-.01.236.91.278-.02c-.01-.064.064-.424.215-1.091-.011-.138-.118-.223-.333-.233l-.267.17c-.022-.192-.011-.69.021-1.483l-.14.01c-.235-.233-.353-.423-.363-.582l-1.532.148c-.01-.106-.064-.264-.17-.465-.012-.138.331-.276 1.038-.413l.31.116.29-.17c.01.096.064.138.17.128l.29-.17c.01.096.064.138.172.127l.139-.01-.022-.307c-.214.02-.782.02-1.681-.011l-.29.19-.01-.169c-7.186.582-11.266.91-12.24 1.006-.129.01-.632 0-1.521-.021.01.116-.096.18-.31.201l-.311-.138-1.05.265c-.246.021-.664.01-1.242-.053-.16.127-.353.201-.589.223-.128.01 1.531-.085 3.073-.191-.16.127-.406.201-.749.233-.236.021-.44-.01-.61-.106-.236.106-.996.275-2.27.53l-.311-.117-5.012.762a1.264 1.264 0 0 0-.675-.106c-.268.022-.717.117-1.338.286l-2.42.995.181.297c.118-.01.29-.074.493-.19l.857.073-.107.794c-.793.35-1.253.869-1.382 1.525-1.189.519-1.778.89-1.778 1.112l.011.138.182-.01.321-.17.375.444.054.614c.021.191-1.981 4.352-5.986 12.484-3.47 7.835-5.29 12.123-5.462 12.896-1.189.328-1.874.804-2.078 1.44.022.2.375.338 1.06.391l.033.307-.311.508.054.615c.032.317.9.56 2.602.73-.01-.106.043-.17.16-.18.033.381-.074 1.122-.32 2.224l.181-.011c.707-.953 1.04-1.61 1.007-1.97l.15-.01c.171-.01.353.18.568.593-.215.085-.964 1.768-2.25 5.061l.183.296.182-.01c1.574-3.939 2.56-6.12 2.966-6.533 2.067-.18 5.644-.54 10.72-1.08l.321-.19c.01.106.075.159.193.148l.332-.032.321-.19c.01.105.075.158.193.148l3.844-.328c1.018-.085 1.5-.392 1.457-.911-.01-.138.589-.297 1.8-.466.117-.01.288.021.524.096-.01-.096.6-.191 1.82-.297.033-.635.236-.974.6-1.006l-.032-.307a5.369 5.369 0 0 0-1.178.265c-.803-.043-1.317-.106-1.532-.18-.214.116-.374.18-.492.19l-2.678.085-.32.17c-.011-.096-.076-.138-.194-.128l-.15.011-.342.17c-.01-.096-.29-.17-.846-.244l-.343.2-.664.054-.01-.17c3.448-.37 5.15-.836 5.108-1.386.225-.022.343.084.364.307l1.007-.254-.033-.308-8.256.223c.01.106-.043.17-.16.18l-1.008-.085a1.222 1.222 0 0 0-.642.222l-.375-.137c-1.039.085-1.81.212-2.324.37a14.794 14.794 0 0 0-2.356.032l-1.852.159-.857-.095c-.043-.54 1.017-3.198 3.202-7.962.632-1.61 1.21-2.616 1.767-2.997.118-.01.29.032.525.127l1.317-.445.675.106c1.135-.095 2.452-.412 3.962-.963.375-.032.653-.01.856.074l1.007-.233 2.999-.254c1.274-.106 2.655-.381 4.155-.837l-.032-.306c-.557.053-.846-.043-.868-.265-.032-.413-.439-.582-1.22-.52l-.033-.306.825-.233 2.163-.18-.032-.307c-.086.01-.525 0-1.339-.032l-.032-.328.836-.074c.224-.021.32-.127.3-.339-1.125.032-1.693-.021-1.703-.17-7.84.382-11.77.456-11.791.212-.118.011-.278.085-.492.212l-.204-.318c2.078-4.362 3.298-6.564 3.652-6.596.01.17-.075.445-.268.816l.01.137.333-.032c.824-1.948 1.52-2.954 2.099-2.996 2.463-.212-.343-.37 4.926-1.186.214.096.364.138.471.127 2.067-.413 4.948-.847 8.642-1.291l-.021-.308-1.97.18-.022-.306c.236-.022.428-.096.589-.223l.01.17c.108-.011.258-.085.45-.212.343-.032.6 0 .782.095a11.52 11.52 0 0 1 1.65-.328l1.23-.117c.3-.19.44-.36.43-.518l-.011-.138c-.311.032-.665.01-1.082-.064-.01-.169.075-.286.278-.338l2.292-.212 1.05-.265c.01.116.064.159.15.159.107-.01.257-.085.45-.212.053.01.117.01.17.021-.139.286-.3.7-.46 1.24l-.3.02a1.28 1.28 0 0 0-.171-.54l-.15.01c-2.784 7.666-4.027 11.235-6.597 17.121-.47 1.504-.867 2.34-1.21 2.52.011.17.118.254.3.233.064.742-.107 1.472-.525 2.192-1.189 3.388-1.981 5.241-2.388 5.58l.268 1.599c.01.169-.075.264-.257.286l-.279.02c-.043-.444-.203-.656-.492-.624l-.15.01a6.262 6.262 0 0 0-.825 1.96l.279-.022c.375-.243.546-.53.514-.858l.557-.052.32.116c-.256.402-.374.72-.353.963l.15.255-.364.847.011.137c.321-.031.675.074 1.05.297.256-.021.535-.138.845-.34.322-.03 1.521-.041 3.588-.041l1.039-.35c1.264-.01 1.467.021 2.56-.074l.449-.042.236-.159.01.138c1.146-.096 1.221-.022 2.12.084l.011.138-.631.053.02.265a.914.914 0 0 0 .504-.19c.16-.011.257.073.268.264a3.806 3.806 0 0 0-.867.19l-.279-.095c-.439.116-.343.148-.642.17l-.44-.085c.011.074-.032.127-.106.127.01.17.107.254.267.243l.45-.042 2.345-.201.89-.19c.01.073.042.116.117.105l.428-.159.804-.063c.62-.053.61-.095 1.959-.307-.01-.085.022-.117.086-.127l.01.116c2.196-.37 2.335-.392 2.688-.508l.032.063c.547-.127.236-.095.386-.2.011.094.043.137.096.137l.386-.032-.021-.286-.782-.01-.01-.021c-.033.01-.055.01-.087.02h-.107v.022c-.524.106-.535.032-.878.063l-1.96.106-.01-.137 1.092-.149.396-.032.225-.158.01.137c1.543-.127 2.09.254 9.221-1.249.386-.032.354-.35.6-1.006a.673.673 0 0 1-.375-.084c-.589.222-.9.116-2.034.296-.097.01-.172-.074-.204-.244l-.01-.116 1.092.032c.203-.021.6-.053 1.189-.381 0 .095-.215.148-.086.137zm-52.731.837l-.504.042c-.021-.201.247-.964.803-2.266l.333-.031c.01.306-.193 1.058-.632 2.255zm.61-2.414l-.01-.138c-.012-.17.096-.286.331-.339l.01.138c.012.201-.095.317-.331.339zm6.693 5.114l.011.137-.835.074-.011-.137.835-.074zm-1.007-.085c.011.17-.246.36-.803.55l-1.028-.074-.332.032-.032-.307 2.195-.201zm6.769-30.8l-.504.042-.01-.17c-.011-.169.085-.285.3-.338l.181-.01.343.137c.01.201-.085.318-.31.339zm7.657-1.482l.16-.011.021.307-.46.042c-.01-.17.075-.286.279-.338zm-1.928.666l-.76-.084-.011-.138c.996-.085 1.328-.19 1.938-.36.011.117.118.159.31.138l.022.307-.3.032c-.235.02-.439-.011-.61-.106a1.32 1.32 0 0 1-.59.211zm.953 2.743l-.01-.138 1.23-.116.012.137-1.232.117zm1.317-1.06l-.01-.169.6-.052.01.169-.6.053zm.14-2.074l-.161.01.14-.328 1.37-.127.01.17c-.353.031-.813.126-1.36.275zm.696 2.922l-.022-.307.6-.053c.203-.021.31.074.321.286l-.9.074zm3.63-4.892l-.771.212-.14.01a7.963 7.963 0 0 1-1.392-.031c.996-.064 1.95-.138 2.303-.19zm-.825 3.389l.011.137-1.06.095-.01-.137 1.06-.095zm1.735.815c-.01-.127-.214-.212-.632-.254l-1.06.296-.814.032c-.182-.127-.278-.212-.289-.275l.943.052 2.12-.338 1.082.042.01.17a6.138 6.138 0 0 0-1.36.275zm10.913-2.785c.128.01.214.01.246.01a4.12 4.12 0 0 1 1.274-.846c-.385 1.673-.985 2.911-1.81 3.716l-.6-.36c.504-1.26.804-2.096.89-2.52zm-1.842 3.124l.15-.011c-.204.381-.386.582-.536.593l-.032-.403c.096 0 .236-.063.418-.18zm-1.19 2.805c.29-1.143.568-1.789.826-1.958l.01.137c-.15 1.06-.385 1.62-.696 1.663l.054.666c-.257.36-.375.636-.364.847l-.15.011-.086-.921c.171-.021.31-.17.407-.445zm-.46 1.525c.011.159-.096.53-.31 1.101l-.15.01-.032-.402c.203-.466.375-.698.492-.71zm-8.642 24.797l-.01-.117.278-.02.032.402c-.15.01-.257-.075-.3-.265zm12.348.317c-.01-.095-.054-.137-.15-.127l-.696.064-.01-.138h.063l1.65-.137.01.137c-.482.021-.77.096-.867.201zm-.825-.338c.064.031.032.063 0 .084-.032-.01-.075-.042 0-.084zm.086-1.906l-.921.074-.01-.138.834-.074.729-.18c.01.085.053.117.15.106.867-.148.782-.19 1.199-.222.14-.01.225.074.236.243l-2.217.19zm3.223-.276c-.514-.052-.546-.095-.91-.063l-.01-.117.824-.073.01.116c-.085.01.225.032.086.137zm.065-.148l-.011-.116.45-.042.01.116-.45.042zm.995-.084l-.01-.117c.075-.01.182-.063.321-.17.225-.02.343.128.364.297l-.675-.01zm1.275-.16l-.01-.137.545-.042.011.137-.546.043zm.76-.063c-.01-.159.054-.254.193-.275l.182.233c-.01-.074.021-.117.086-.127l.14.254-.6-.085zm-8.085 3.452l-.021-.265-.086.01.021.265.086-.01zm18.816-4.818c.085-.053.128-.105-.075-.137-.097.106.107.137-.107.148l.01.095c.022-.02.075-.053.118-.084l-.118.095v.01l-.225.286.45-.158h.054l-.022-.265-.085.01zm.781.604l-.085.01.021.265.632-.053c-.01-.169-.428-.222-.568-.222zm-.974-.466l.01-.01v-.011s-.01.01-.01.021z" fill="#000"/><path d="M103.346 102.155l.01.17.354-.032c-.01-.106.032-.276.107-.488l-.032-.307c-.15.011-.3.233-.44.657zm-3.384-8.047l-.032-.307-.504.042.033.307.503-.042zm-9.82 18.18c-.022-.286-.921-1.398-2.699-3.357-.032-.36.579-.9 1.831-1.61l3.577-3.08c.803-1.006 1.274-2.637 1.414-4.902l-.043-.52c-.14-1.566-1.285-2.826-3.46-3.79-1.284-.857-3.597-1.334-6.938-1.419-2.763.233-6.372 1.207-10.816 2.933a44.486 44.486 0 0 1-4.177 2.605l.021.265a1 1 0 0 0 .418-.18c.182-.022.29.063.3.233l.268-.138.128-.01.01.116c.011.138-.952.889-2.901 2.234l.15.275-.13.01-.32-.116c.01.095-.129.159-.396.18l.01.117.31.38c-.096.012-.245-.03-.449-.105-.45.042-.889.275-1.328.72l.182-.784c.654-2.784 1.103-5.251 1.339-7.39l-.032-.138a5.412 5.412 0 0 1-1.296-1.196c.01-.328.01-.519 0-.561l-.032-.117-.129.032c-1.413 2.097-4.134 5.675-8.17 10.736-3.074 3.6-4.66 5.601-4.756 6.004-1.253 1.28-1.852 2.054-1.788 2.318-.332.212-.471.424-.417.657-.097.021-.161-.01-.183-.106-.535.858-1.328 1.408-2.388 1.652l-1.114.254c-.15.032-.225.137-.214.317l.033.138.417-.095.032.116-.942.36-1.67.381-.879.053c-.128.127.696-.01.375.064l-1.092.254c-.664.148-1.028.095-1.093-.17l-.128.032c.021.117.032.201.01.276l-.064-.265-.878.201c-.064-.402-1.253-1.863-3.555-4.383-.043-.487.77-1.197 2.43-2.118l4.691-4.076c1.05-1.334 1.67-3.473 1.874-6.416l-.064-.689c-.182-2.075-1.703-3.748-4.562-5.04-1.692-1.132-4.733-1.736-9.124-1.831-3.641.307-8.396 1.588-14.243 3.822-1.607 1.154-3.438 2.297-5.494 3.43l.032.36c.14-.01.322-.084.546-.211.236-.022.365.084.386.296l.364-.201.182-.01.01.169c.011.17-1.263 1.154-3.844 2.954l.204.318-.182.01-.396-.138c.01.106-.172.18-.547.212l.022.19.428.467c-.14.01-.332-.032-.578-.117-.835.074-1.65.667-2.453 1.79l.204.317c.696-.635 1.103-.953 1.22-.963l.044.519c-.118.01-.3.084-.547.211l.44.657c.846-.9 1.777-1.673 2.795-2.32.503.128.77.287.781.456l.386-.031c2.763-2.023 5.494-3.484 8.203-4.384l.032.36c-.503.741-.846 1.122-1.028 1.143.021.255.107.477.268.668.043.455-1.19 3.525-3.684 9.2C9.62 123.966 4.866 133.728 1 140.038c.01.127.086.297.225.508.953-.222 1.553-.455 1.81-.677l.203-.021.032.36.354-.032.364-.201c.01.106.128.159.375.137l.032.36c.032.35-.172.88-.6 1.61-.386.434-.803 1.345-1.242 2.732l.01.169.354-.032c1.542-1.705 2.71-3.378 3.513-5.008 4.497-1.302 7.924-2.584 10.302-3.843 2.388-.202 4.208-.826 5.45-1.853l-.021-.19-.9.264-.203.021-.021-.19c1.756-.265 2.966-.646 3.64-1.176 3.417-2.604 5.998-4.447 7.743-5.537 3.588-2.605 5.922-5.146 6.983-7.613.192-.042.385-.085.6-.138.502-.02.781-.031.856-.053-.021-.095.021-.148.118-.169.803-.084.417.053.931-.063l1.35-.307.225-.054-.107.064c.15.021.31.01.492-.032l.096.392-6.136 9.646-1.36 1.683-.664 2.202.129-.031.664-.276-.214.858.064.254.182.222c-.086.022-.118.075-.097.17l.033.138.278-.064c.407-.35.578-.667.514-.953.439.074.728.106.878.064l.032.137c-.267.064-.407.275-.428.636l.032.137.15-.032c2.228-2.403 7.69-10.63 12.07-16.21-.14-.603 2.141-1.44 6.853-2.52l.15-.031c.171.73-.193 2.498-1.093 5.304-.578 1.694-.856 2.626-.813 2.774-.75 2.255-1.104 3.473-1.06 3.663l-1.671 5.41a48.95 48.95 0 0 0-2.485 8.757c.097-.02.247-.01.46.043l.236-.202c.022.096.086.127.183.106l-.097-.392.728-.02c.214-.053.397-.318.546-.805-.032-.73.118-1.123.45-1.207.45-1.737.729-2.605.825-2.637.418-1.725.728-2.71.932-2.954.631-2.244 1.092-3.398 1.392-3.473l.064.276-.46 1.175c-.804 3.526-1.618 6.31-2.442 8.354l.235 1.016.15-.031c1.992-4.236 4.862-12.621 8.6-25.157.107-1.102.642-1.96 1.595-2.563l-.214-.222-.032-.116c.428-.096.728-.265.9-.498-.022-.095-.397-.233-1.125-.424l1.863-7.898c.407-.36.643-.55.718-.55l.032.401a1.018 1.018 0 0 0-.418.18l.354.498a11.434 11.434 0 0 1 2.099-1.778c.385.105.578.232.6.36l.278-.022c2.12-1.535 4.198-2.636 6.243-3.303l.022.264c-.375.562-.632.847-.771.858.021.19.074.36.171.508.032.35-.889 2.68-2.774 6.999-4.305 10.005-7.914 17.406-10.848 22.213.01.096.075.223.193.392.717-.17 1.178-.35 1.36-.519l.128-.01.022.264.3-.02.267-.138c.011.074.107.105.29.095l.021.286c.021.254-.128.656-.46 1.207-.311.328-.632 1.016-.975 2.064l.01.138.28-.021c1.166-1.292 2.055-2.562 2.666-3.812 3.416-.995 6.018-1.959 7.817-2.911 1.832-.16 3.213-.625 4.155-1.409l-.01-.137-.697.201-.15.01-.01-.137c1.328-.19 2.26-.487 2.763-.879 2.591-1.97 4.551-3.377 5.88-4.203 4.133-2.975 6.06-5.834 5.825-8.577zm-.707.18l.096 1.069c-.128.265-.267.402-.396.413l-.16-1.821c.3.106.45.211.46.338zm-81.089-8.619l-.182.01-.032-.328.74-.063.01.17c-.118.01-.3.073-.536.211zm-3.609 35.692c-.428-.191-.813-.265-1.145-.233l-.043-.52c-.022-.2.096-.338.353-.39.236-.022.375.148.396.486.622-.751.964-1.133 1.028-1.143l.397.159c-.129 1.058-.46 1.598-.986 1.64zm38.564-39.885c-.182.021-.547-.54-1.071-1.652l-.032-.328c.342-.031.696.519 1.07 1.652l.033.328zm-.514-3.949l-.15.35-5.237-2.16c3.491.116 5.29.72 5.387 1.81zm-22.115 18.772l-.738.064-.032-.329.738-.063.032.328zm-.6-11.276l.183-.01.043.518c-.172.011-.396.265-.675.752l-.032-.36c.332-.392.503-.688.482-.9zm-1.552 3.621l.064.688-.182.011-.064-.688.182-.01zm-.814 1.292l.354-.032c-.033.572-.193.879-.482.9l-.183.01c.225-.38.332-.677.311-.878zm-.61 1.8l.203-.021.01.169-.331.55-.354.032-.01-.169c.353-.032.514-.212.482-.561zm-.6 1.62l-.107.868-.182.01-.075-.857.364-.021zm-6.008 16.888c-.235 1.185-.492 1.789-.76 1.81l-.01-.17c-.065-.582.192-1.132.77-1.64zm-1.103 2.36l.01.17c.022.233-.085.37-.32.381l-.011-.17c-.022-.2.085-.328.321-.38zm-.321 4.903l.557-.053.021.19c-.14.01-.321.085-.546.212l-.354.032c-.02-.18.097-.318.322-.381zm15.85-4.839c-3.128 1.525-4.97 2.562-5.516 3.102-3.384 1.165-5.065 1.885-5.033 2.17-3.01 1.176-4.99 2.044-5.944 2.584-.225.021-.546-.063-.974-.254-.054-.603.225-1.09.814-1.482a3.197 3.197 0 0 1 1.51.233c.557-.286 1.531-.604 2.913-.942l-.032-.36-1.114.095c.139-.19 1.21-.688 3.223-1.493l.557-.053.01.17c-.952.084-1.477.36-1.595.857.021.222.15.318.386.296.717-.444 1.07-.709 1.06-.783 1.36-.254 5.119-2.202 11.276-5.834l.032.328c.011.159-.514.604-1.574 1.366zm-9.446 3.07a3.66 3.66 0 0 0 2.313-1.058c.257-.021.396.074.407.296-.44.043-1.285.402-2.517 1.101l-.182.011-.021-.35zm15.239-11.572l-4.723 3.706c-3.512 2.276-5.397 3.42-5.676 3.44-5.59 3.04-9.07 4.617-10.42 4.734l-.203.02c.171-.624 2.656-5.653 7.475-15.119 2.12-.18 5.461-1.154 10.013-2.932l1.114-.096c2.302-.201 4.026.244 5.161 1.302l.065.689c-.846 2.424-1.789 3.843-2.806 4.256zm-9.231-5.135l.76-.064.01.17-.76.063-.01-.169zm10.677-1.79l.556-.052c.514.243.782.455.804.646l.01.169c-.492.042-.953-.212-1.37-.763zm1.51-8.501c-.493.582-1.843 1.577-4.048 2.975-.729.063-3.438 1.1-8.129 3.134a1.502 1.502 0 0 0-.75-.128l-.031-.328c-.054-.667.246-1.503.91-2.52.364-1.905.76-2.996 1.2-3.26l3.908-8.693c-.043-.54.792-.953 2.506-1.24l.557-.052.043.498c1.681-.254 2.73-.403 3.137-.435 3.106-.264 4.723.36 4.852 1.854l.353-.032-.075-.879.386-.032c.91.498 1.402 1.101 1.467 1.81.042.488-.225 1.091-.793 1.811-.235.021-.375-.148-.396-.487l-.386.032-.085 1.059c-1.575 2.329-2.72 3.525-3.427 3.589-.643.879-1.039 1.313-1.2 1.324zm2.398 6.088c-.321-.212-.578-.308-.77-.297l-.044-.519.354-.032.782.456c.032.243-.076.37-.322.392zm2.485 2.911c.343.138.546.286.589.424l-.172.042.011.01a.382.382 0 0 0-.107.022l-.257.2-.064-.698zm.235 1.461l-.032-.137.45-.106.032.138-.45.105zm1.082 1.197c.46-.074.685-.106 1.542-.297l.032.138-1.627.37c.02-.074.042-.148.053-.211zm1.585.667c-.685.063-.536-.022-1.628.222l-.032-.138 1.37-.434.654-.148.064.254c-.3.064-.085.064-.428.244zm1.446-.339c-.16.042-.29-.032-.365-.212l.418-.095c.182-.042.3.032.343.212l-.396.095zm3.92-4.172l-.033-.137.675-.16.064.255-.707.042zM51 140.123c.043-.19.054-.328.032-.424l.15-.031c.183-.042.29.021.332.19l.033.138-.547.127zm2.935-24.3l-.3-.052c-.482.19-.889.328-1.221.402l-.279.064c-.16.042-.289-.021-.353-.19l1.96-.445.642-.297.215.244c-.31.063-.536.158-.664.275zm1.51-.476l-.033-.137c.097-.021.225-.095.365-.233l1.392-.318.032.138c-.74.18-1.328.36-1.756.55zm.214-2.784c-.097.021-.225.106-.386.233-.021-.096-.214-.096-.578-.011-.064-.265.964-.635 3.095-1.122l.3-.064.064.254c-1.5.434-2.335.678-2.495.71zm3.748-4.002c-.15 1.683-.75 2.636-1.81 2.88l-.032-.138-.942.36-.418.095a1.063 1.063 0 0 1-.578-.01l-.086-.371c-.032-.138 1.328-2.001 4.09-5.58l.322.053c.118.487-.064 1.387-.546 2.71zm6.629-5.612l-.129.01-.021-.264.557-.053.01.137a1.815 1.815 0 0 0-.417.17zm-2.731 27.116c-.321-.149-.61-.212-.857-.191l-.032-.402c-.01-.138.075-.233.257-.286.182-.021.29.106.31.38.461-.581.718-.878.772-.878l.289.117c-.107.804-.353 1.228-.739 1.26zm29.278-30.282c-.139.01-.407-.413-.824-1.27l-.022-.265c.268-.021.547.392.825 1.239l.021.296zm-.385-3.028l-.129.275-3.962-1.64c2.645.084 4.016.54 4.09 1.365zm-16.803 14.262l-.556.053-.022-.265.557-.053.021.265zm-.46-8.566l.15-.01.032.402c-.14.01-.31.201-.514.572l-.021-.265c.246-.307.364-.54.353-.699zm-1.167 2.753l.043.52-.15.01-.043-.52.15-.01zm-.632.985l.278-.021c-.032.444-.15.677-.353.698l-.15.011c.16-.296.236-.53.225-.688zm-.45 1.355l.129-.01.01.137-.246.424-.278.021-.011-.138c.289-.021.418-.17.396-.434zm-.45 1.228l-.096.678-.129.01-.053-.666.278-.022zm-4.573 12.843c-.181.89-.374 1.345-.578 1.366l-.01-.116c-.033-.445.16-.869.588-1.25zm-.845 1.79l.01.116c.022.19-.064.297-.257.307l-.01-.137c-.011-.138.074-.233.257-.286zm-.236 3.727l.428-.032.01.137a1.24 1.24 0 0 0-.417.16l-.278.02c-.01-.148.075-.243.257-.285zm12.026-3.674c-2.356 1.154-3.759 1.937-4.198 2.34-2.57.889-3.844 1.44-3.823 1.662-2.28.9-3.78 1.546-4.487 1.959-.171.01-.418-.053-.739-.201-.043-.456.171-.826.621-1.102.407-.031.793.022 1.146.17.428-.212 1.167-.445 2.217-.71l-.021-.264-.868.074c.107-.149.932-.53 2.463-1.144l.428-.032.011.117c-.728.063-1.135.275-1.22.657.01.169.117.253.3.232.535-.349.792-.55.792-.614 1.028-.18 3.876-1.662 8.556-4.436l.022.265c0 .106-.397.444-1.2 1.027zm-7.175 2.33a2.89 2.89 0 0 0 1.778-.795c.182-.01.289.064.3.233-.322.032-.953.296-1.906.805l-.15.01-.022-.254zm11.587-8.8l-3.566 2.838c-2.666 1.726-4.112 2.594-4.337 2.615-4.24 2.308-6.875 3.505-7.914 3.59l-.15.01c.129-.476 2.024-4.299 5.687-11.477 1.595-.138 4.123-.89 7.592-2.245l.868-.074c1.745-.148 3.052.19 3.908 1.006l.044.519c-.654 1.82-1.36 2.89-2.132 3.219zm-7.003-3.896l.557-.053.01.138-.557.053-.01-.138zm8.106-1.366l.429-.031c.396.19.6.36.61.497l.01.117c-.374.031-.727-.159-1.049-.583zm1.125-6.448c-.375.445-1.392 1.207-3.052 2.266-.557.053-2.613.837-6.169 2.361a1.423 1.423 0 0 0-.567-.074l-.022-.265c-.043-.508.182-1.143.675-1.916.279-1.461.589-2.276.91-2.467l2.988-6.607c-.032-.392.6-.71 1.885-.953l.428-.031.032.402c1.264-.201 2.056-.318 2.378-.35 2.356-.2 3.587.265 3.684 1.409l.278-.022-.053-.635.278-.02c.685.37 1.05.814 1.092 1.344.032.38-.16.847-.567 1.387-.182.02-.29-.106-.31-.382l-.28.022-.085.794c-1.189 1.79-2.056 2.71-2.602 2.753-.482.645-.782.974-.921.984zm1.253 4.405l-.032-.402.278-.021.6.36c.01.169-.075.264-.257.285-.257-.159-.45-.233-.59-.222zM36.65 135.4l-.28.063-.235.201c.043.17.15.233.332.191.182-.042.257-.148.214-.317l-.032-.138zm-1.06-2.086l.031.138c.182-.043.257-.148.215-.318l-.033-.138c-.171.043-.246.149-.214.318zm7.581-14.082l.204-.127a.32.32 0 0 1-.108-.021c-.074.021-.107.074-.096.148zm-.043-3.653l.321-.074-.064-.275-.321.074.064.275zm75.681 10.694l-.728-.085-.129.276.01.137 4.338-.36-.022-.264-3.469.296zm3.962-.328l.021.264h.043l-.021-.264h-.043zm18.195-2.35l.021.264.471.085-.021-.265-.471-.085zm-.664.052c-3.256.72-3.663.593-4.348.646l.021.265.3-.021.16-.01-.042-.033.353-.137c3.224-.35 3.599-.223 3.567-.583l-.011-.127zm-19.544-4.68l-.29-.095c-.235.625-.353.995-.342 1.101l.01.117c.226-.01.43-.392.622-1.122zm-3.92-2.085l-.01-.138-.15.01-.268.17.15.254c.203-.021.3-.116.278-.296zm8.514 8.703l-.021-.265-.086.01.021.265.086-.01zm17.67-3.939l.203-.021c.118-.01.172-.106.16-.275l-.117-.254c-.739.063-1.081.095-1.681.423l-.01-.138-.89.085c-.021-.265-.096-.402-.214-.391l-.46.042c-.536.042-.793.021-1.06.222-.011-.095-.043-.138-.097-.138l-.514.043-.3.17c-.01-.096-.043-.138-.096-.138l-.182.158-.011-.137-.717-.053-.172.01.022.265.364.095.342-.02a.629.629 0 0 0 .397.084l.3-.148.01.116c-1.681.413-1.67.34-2.827.53-.129-.085-.225-.127-.29-.117l-.02.021c-.129-.01-.204-.095-.215-.233l.6-.074c.043 0 .075.043.407.106.482-.233.503-.328.76-.35l-.021-.264c-1.65.318-.985.106-3.052.286l-.097.01-.02-.264c2.655-.318 1.766-.138 2.676-.392.01.095.043.138.097.138a.627.627 0 0 1 .364-.18l.182-.01c.931-.075 1.242.105 3.084-.403l.01.116.3-.148.279-.021c-.021-.265.386-.307.525-.318l-.022-.286c-3.234.646-4.08.466-4.98.72l-.01-.116c-.846.148-.878.084-1.092.095-.065.01-.161.064-.268.17-.01-.096-.043-.138-.107-.138-.032 0-.043.01-.054.01l-2.741.445c-.01-.074-.043-.116-.107-.106-1.425.297-1.04.35-2.945.519a.901.901 0 0 0-.354.148c-.01-.074-.053-.116-.15-.106l-1.167.096-.782.19c-.01-.074-.053-.116-.15-.106a6.23 6.23 0 0 1-1.135.212h-.021c-.193.021.096-.053-.054-.116l-.235.137c-.343.032-.16-.021-1.339-.01-2.067.254-1.842.286-2.067.296l-.771-.053c.01.074-.032.127-.118.127-.878-.116-1.327-.254-1.338-.413.118-.825.321-1.249.61-1.27l.15-.01-.128.275.15-.011c.278-.148.406-.286.396-.413l-.022-.286-.278.021-.021-.264a.943.943 0 0 1 .085-.53l.632-1.006.021.265.3-.021-.021-.265-.172-.243c.225-.191.397-.297.536-.307l-.01-.138-.408.032-.032-.403c.814-1.672 1.2-2.647 1.178-2.922l.29.117c.181-.01.267-.117.256-.307l-.278.02-.01-.116a.997.997 0 0 1 .106-.56c.44-.456.643-.911.6-1.388.086-.01.128.032.14.127.374-.211.663-.773.877-1.704.664-1.186 1.607-3.558 2.838-7.105 2.356-6.268 2.26-6.935 2.592-8.417l-.279.02a.944.944 0 0 1-.107.54c-.193-.073-.342-.116-.45-.105l-.01-.116c-.043-.54.182-1.186.696-1.949l.128-.01.236.91.278-.02c-.01-.064.065-.424.215-1.091-.011-.138-.118-.223-.332-.233l-.268.17c-.022-.192-.01-.69.021-1.483l-.14.01c-.234-.233-.352-.423-.363-.582l-1.532.148c-.01-.106-.064-.264-.17-.466-.011-.137.331-.275 1.038-.412l.31.116.29-.17c.01.096.064.138.171.127l.29-.169c.01.096.063.138.17.127l.14-.01-.022-.307c-.214.02-.781.02-1.681-.011l-.29.19-.01-.169c-7.186.582-11.266.91-12.24 1.006-.129.01-.632 0-1.52-.021.01.116-.097.18-.311.201l-.311-.138-1.05.265c-.246.021-.664.01-1.242-.053-.16.127-.353.201-.589.223-.128.01 1.532-.085 3.074-.191-.16.127-.407.201-.75.233-.236.02-.439-.01-.61-.106-.236.106-.996.275-2.27.53l-.311-.117-5.012.762a1.265 1.265 0 0 0-.675-.106c-.267.021-.717.117-1.338.286l-2.42.995.181.297c.118-.01.29-.074.493-.19l.857.073-.107.794c-.793.35-1.253.869-1.382 1.525-1.188.519-1.777.89-1.777 1.112l.01.137.182-.01.322-.17.374.445.054.614c.021.191-1.981 4.352-5.986 12.484-3.47 7.835-5.29 12.123-5.462 12.896-1.189.328-1.874.804-2.078 1.44.022.2.375.338 1.06.391l.033.307-.31.508.053.615c.032.317.9.56 2.602.73-.01-.106.043-.17.16-.18.033.381-.074 1.122-.32 2.224l.181-.011c.707-.953 1.04-1.61 1.007-1.97l.15-.01c.171-.01.353.18.568.593-.215.085-.964 1.768-2.25 5.06l.183.297.182-.01c1.574-3.939 2.56-6.12 2.966-6.533 2.067-.18 5.644-.54 10.72-1.08l.321-.19c.01.106.075.159.193.148l.332-.032.321-.19c.011.105.075.158.193.148l3.845-.328c1.017-.085 1.499-.392 1.456-.911-.01-.138.589-.297 1.799-.466.118-.01.29.021.525.095-.01-.095.6-.19 1.82-.296.033-.635.236-.974.6-1.006l-.032-.307a5.37 5.37 0 0 0-1.178.265c-.803-.043-1.317-.106-1.531-.18-.215.116-.375.18-.493.19l-2.677.085-.322.17c-.01-.096-.074-.138-.192-.128l-.15.01-.343.17c-.01-.095-.29-.17-.846-.243l-.343.2-.663.054-.011-.17c3.448-.37 5.15-.836 5.108-1.386.225-.022.343.084.364.306l1.007-.253-.032-.308-8.257.223c.01.106-.043.17-.16.18l-1.008-.085a1.222 1.222 0 0 0-.642.222l-.375-.137c-1.039.085-1.81.211-2.324.37a14.794 14.794 0 0 0-2.356.032l-1.852.159-.857-.095c-.043-.54 1.017-3.198 3.202-7.962.632-1.61 1.21-2.616 1.767-2.997.118-.01.29.032.525.127l1.317-.445.674.106c1.136-.095 2.453-.412 3.963-.963.375-.032.653-.01.857.074l1.006-.233 2.999-.254c1.274-.106 2.656-.381 4.155-.837l-.032-.306c-.557.053-.846-.043-.867-.265-.033-.413-.44-.583-1.221-.52l-.033-.306.825-.233 2.163-.18-.032-.307c-.086.01-.525 0-1.339-.032l-.032-.328.836-.074c.224-.021.321-.127.3-.339-1.125.032-1.693-.021-1.703-.17-7.84.382-11.77.456-11.79.212-.119.011-.28.085-.493.212l-.204-.318c2.077-4.362 3.298-6.564 3.652-6.596.01.17-.075.445-.257.816l.01.137.333-.032c.824-1.948 1.52-2.954 2.098-2.996 2.463-.212-.342-.37 4.927-1.186.214.096.364.138.47.127 2.068-.413 4.948-.847 8.643-1.291l-.022-.308-1.97.18-.021-.307c.235-.02.428-.095.589-.222l.01.17c.108-.011.257-.085.45-.212.343-.032.6 0 .782.095.685-.18 1.242-.286 1.65-.328l1.23-.117c.3-.19.44-.36.43-.519l-.012-.137c-.31.032-.664.01-1.081-.064-.011-.169.075-.286.278-.338l2.292-.212 1.05-.265c.01.116.064.159.15.159.106-.01.256-.085.449-.212.054.01.118.01.171.021-.139.286-.3.7-.46 1.24l-.3.02a1.287 1.287 0 0 0-.171-.54l-.15.01c-2.784 7.666-4.027 11.235-6.597 17.121-.471 1.504-.867 2.34-1.21 2.52.01.17.118.254.3.233.064.742-.107 1.472-.525 2.192-1.189 3.388-1.981 5.241-2.388 5.58l.268 1.599c.01.169-.075.264-.257.286l-.279.02c-.043-.444-.203-.656-.492-.624l-.15.01a6.257 6.257 0 0 0-.825 1.96l.279-.022c.374-.243.546-.53.514-.858l.556-.052.322.116c-.257.402-.375.72-.354.963l.15.255-.364.847.01.137c.322-.031.675.074 1.05.297.257-.021.536-.138.846-.34.322-.03 1.521-.041 3.588-.041l1.039-.35c1.263-.01 1.467.021 2.559-.074l.45-.042.235-.159.011.138c1.146-.096 1.221-.022 2.12.084l.011.138-.632.053.022.265a.915.915 0 0 0 .503-.191c.16-.01.257.074.268.265a3.804 3.804 0 0 0-.868.19l-.278-.095c-.44.116-.343.148-.643.17l-.439-.085c.011.074-.032.127-.107.127.011.169.107.254.268.243l.45-.042 2.345-.201.889-.19c.01.073.043.116.118.105l.428-.159.803-.063c.621-.053.61-.096 1.96-.307-.01-.085.021-.117.086-.128l.01.117c2.196-.37 2.335-.392 2.688-.508l.033.063c.546-.127.235-.095.385-.2.01.094.043.137.096.137l.386-.032-.022-.286-.781-.01-.011-.022c-.032.011-.053.011-.086.022h-.107v.02c-.525.107-.535.033-.878.064l-1.96.106-.01-.137 1.092-.149.396-.032.225-.158.01.137c1.543-.127 2.089.254 9.221-1.249.386-.032.354-.35.6-1.006a.671.671 0 0 1-.375-.084c-.589.222-.9.116-2.035.296-.096.01-.17-.074-.203-.244l-.01-.116 1.091.032c.204-.021.6-.053 1.19-.381 0 .095-.226.148-.097.137zm-52.731.837l-.504.042c-.021-.201.247-.964.804-2.266l.332-.031c.01.306-.193 1.058-.632 2.255zm.61-2.415l-.01-.137c-.011-.17.096-.286.331-.339l.011.138c.01.201-.096.317-.332.338zm6.693 5.114l.011.138-.835.074-.011-.137.835-.075zm-1.006-.084c.01.17-.247.36-.803.55l-1.029-.074-.332.032-.032-.307 2.196-.201zm6.768-30.8l-.504.042-.01-.17c-.011-.169.085-.285.3-.338l.182-.01.342.137c.01.201-.085.318-.31.339zm7.657-1.483l.16-.01.022.307-.46.042c-.011-.17.074-.286.278-.339zm-1.928.667l-.76-.084-.011-.138c.996-.085 1.328-.19 1.938-.36.011.117.118.159.31.138l.022.307-.3.032c-.235.02-.439-.011-.61-.106a1.32 1.32 0 0 1-.59.211zm.953 2.743l-.01-.138 1.231-.116.01.137-1.23.117zm1.317-1.06l-.01-.169.6-.052.01.169-.6.053zm.14-2.074l-.161.01.14-.328 1.37-.127.01.17c-.353.031-.813.126-1.36.275zm.696 2.922l-.022-.307.6-.053c.203-.021.31.074.321.286l-.9.074zm3.63-4.892l-.771.212-.14.01a7.964 7.964 0 0 1-1.392-.031c.996-.064 1.95-.138 2.303-.19zm-.825 3.389l.011.137-1.06.095-.01-.137 1.06-.095zm1.735.815c-.01-.127-.214-.212-.631-.254l-1.06.296-.815.032c-.182-.127-.278-.212-.289-.275l.943.052 2.12-.338 1.082.042.01.17a6.132 6.132 0 0 0-1.36.275zm10.913-2.785c.128.01.214.01.246.01.375-.36.793-.645 1.275-.846-.386 1.673-.986 2.911-1.81 3.716l-.6-.36c.503-1.26.803-2.096.889-2.52zm-1.842 3.123l.15-.01c-.204.381-.386.582-.536.593l-.032-.403c.097 0 .236-.063.418-.18zm-1.189 2.806c.29-1.143.568-1.789.825-1.958l.01.137c-.15 1.059-.385 1.62-.696 1.663l.054.666c-.257.36-.375.636-.364.847l-.15.011-.086-.921c.172-.021.31-.17.407-.445zm-.46 1.525c.01.159-.097.53-.311 1.101l-.15.01-.032-.402c.204-.466.375-.698.492-.71zm-8.643 24.797l-.01-.117.278-.02.032.402c-.15.01-.257-.075-.3-.265zm12.348.317c-.01-.095-.054-.137-.15-.127l-.696.064-.01-.138h.063l1.65-.137.01.137c-.481.021-.77.096-.867.201zm-.825-.338c.065.031.032.063 0 .084-.032-.01-.075-.042 0-.084zm.086-1.906l-.921.074-.01-.138.835-.074.728-.18c.01.085.053.117.15.106.867-.148.782-.19 1.2-.222.138-.01.224.074.235.243l-2.217.19zm3.223-.276c-.514-.052-.546-.095-.91-.063l-.01-.117.824-.073.01.116c-.085.01.226.032.086.137zm.065-.148l-.011-.116.45-.043.01.117-.45.042zm.996-.084l-.011-.117c.075-.01.182-.064.321-.17.225-.02.343.128.364.297l-.674-.01zm1.274-.16l-.01-.137.545-.042.011.137-.546.043zm.76-.063c-.01-.159.054-.254.193-.275l.182.233c-.01-.074.021-.117.086-.127l.14.254-.6-.085zm10.538-1.228l.01-.01v-.011s-.01.01-.01.021zm.193-.138c.085-.053.128-.105-.075-.137-.097.106.107.137-.107.148l.01.095c.022-.02.076-.053.118-.084l-.118.095v.01l-.224.286.45-.158h.053l-.022-.265-.085.01zm.781.604l-.085.01.021.265.632-.053c-.01-.169-.428-.222-.568-.222z" fill="#F9DC3E"/></g></g></svg>
