<?xml version="1.0" encoding="UTF-8"?>
<svg width="100%" height="100%" viewBox="0 0 146 146" version="1.1" xmlns="http://www.w3.org/2000/svg" xmlns:xlink="http://www.w3.org/1999/xlink">
    <!-- Generator: Sketch 40.3 (33839) - http://www.bohemiancoding.com/sketch -->
    <title>Group</title>
    <desc>Created with Sketch.</desc>
    <defs></defs>
    <g id="Page-1" stroke="none" stroke-width="1" fill="none" fill-rule="evenodd">
        <g id="Group">
            <g id="JS">
                <polygon id="Shape" fill="#F7DF1E" points="0 0 85 0 85 85 0 85"></polygon>
                <path d="M22.3496032,71.0322063 L28.8543968,67.0956269 C30.1092936,69.3206032 31.2508572,71.203151 33.9890715,71.203151 C36.6138174,71.203151 38.268619,70.1764047 38.268619,66.1827541 L38.268619,39.0232301 L46.2564604,39.0232301 L46.2564604,66.2956826 C46.2564604,74.5690158 41.4068731,78.3347858 34.3315,78.3347858 C27.9415238,78.3347858 24.2322857,75.0253174 22.3494683,71.0315316" id="Shape" fill="#000000"></path>
                <path d="M50.595238,70.1762699 L57.0992221,66.4105 C58.8113652,69.2065953 61.0366111,71.2604921 64.9733253,71.2604921 C68.2830636,71.2604921 70.3936269,69.6056905 70.3936269,67.3233731 C70.3936269,64.584619 68.2255873,63.6145396 64.5738253,62.0174842 L62.5774047,61.1610079 C56.8142699,58.7080158 52.9912937,55.6269684 52.9912937,49.1223095 C52.9912937,43.1312937 57.5557937,38.5665237 64.688238,38.5665237 C69.766381,38.5665237 73.4180079,40.3354684 76.042349,44.9571747 L69.8230475,48.9509604 C68.4536032,46.4976984 66.9705557,45.5278889 64.6883731,45.5278889 C62.3489842,45.5278889 60.8653968,47.0113411 60.8653968,48.9509604 C60.8653968,51.3474206 62.3489842,52.3176348 65.7720557,53.8012221 L67.768881,54.6570237 C74.558762,57.5671269 78.381738,60.533762 78.381738,67.2092301 C78.381738,74.398881 72.733151,78.3354604 65.1446747,78.3354604 C57.7272779,78.3354604 52.9343573,74.7981111 50.5953731,70.1762699" id="Shape" fill="#000000"></path>
            </g>
            <g id="ES6" transform="translate(85.000000, 0.000000)">
                <rect id="Rectangle-path" fill="#F26522" x="0" y="0" width="61" height="61"></rect>
                <path d="M25.1472774,38.1152157 L34.4776315,38.1152157 L34.4776315,35.5768103 L28.0287103,35.5768103 L28.0287103,31.6434257 L33.9745243,31.6434257 L33.9745243,29.1050205 L28.0287103,29.1050205 L28.0287103,25.4231897 L34.4776315,25.4231897 L34.4776315,22.8847845 L25.1472774,22.8847845 L25.1472774,38.1152157 L25.1472774,38.1152157 L25.1472774,38.1152157 Z M46.9409723,33.9760145 C46.9409723,30.9345018 46.7351557,30.2713148 42.6416914,29.2879688 C40.0118122,28.6476504 39.9660753,28.6019133 39.9660753,26.863906 C39.9660753,25.5375323 40.3091029,25.125899 42.2529267,25.125899 C43.5793007,25.125899 45.0657542,25.3088471 46.3235225,25.5832694 L46.6436815,23.1592067 C45.1343596,22.816179 43.5335636,22.6560994 42.2071898,22.6560994 C38.3424107,22.6560994 37.0846424,24.0282102 37.0846424,26.7953006 C37.0846424,30.0197613 37.5877496,30.7286852 41.2695805,31.5519517 C44.0138023,32.1465332 44.0595394,32.2837444 44.0595394,33.9760145 C44.0595394,35.4395994 43.7165116,35.8741012 41.6354768,35.8741012 C40.1261548,35.8741012 38.7540439,35.5996791 37.3361959,35.1651771 L36.8330886,37.4291599 C37.8393034,37.9093991 39.8517325,38.3439006 41.5897397,38.3439006 C46.0948373,38.3439006 46.9409723,36.8574474 46.9409723,33.9760145 L46.9409723,33.9760145 L46.9409723,33.9760145 L46.9409723,33.9760145 Z M52.2464678,28.3046226 C52.2464678,25.9720341 53.367025,25.5146637 56.0655098,25.5146637 C56.5457485,25.5146637 57.5519631,25.5832694 58.2151501,25.7204803 L58.3980984,23.3878918 C57.7120428,23.2278123 56.6143542,23.1134697 55.7682192,23.1134697 C51.6061494,23.1134697 49.4565089,24.3941066 49.4565089,28.4189652 L49.4565089,33.9760145 C49.4565089,36.6058936 50.2340385,38.3439006 54.1674231,38.3439006 C57.7577799,38.3439006 58.8554688,36.5601568 58.8554688,34.1818309 L58.8554688,33.0841423 C58.8554688,30.4542631 57.7349114,29.3108372 54.967821,29.3108372 C53.9844751,29.3108372 53.0468657,29.4480483 52.2464678,29.7224706 L52.2464678,28.3046226 L52.2464678,28.3046226 L52.2464678,28.3046226 Z M54.5333192,31.7120314 C55.539534,31.7120314 56.0655098,32.0550589 56.0655098,33.152748 L56.0655098,34.2733051 C56.0655098,35.4395994 55.6081397,35.9427067 54.1674231,35.9427067 C52.7267068,35.9427067 52.2464678,35.5310734 52.2464678,34.2733051 L52.2464678,32.1922703 C52.886786,31.917848 53.7100527,31.7120314 54.5333192,31.7120314 L54.5333192,31.7120314 L54.5333192,31.7120314 L54.5333192,31.7120314 Z" id="Shape" fill="#FFFFFF"></path>
            </g>
            <g id="Babel" transform="translate(1.000000, 90.000000)">
                <path d="M99.4439453,4.95516 L99.4116602,4.648 L98.9084082,4.69056 L98.9404102,4.99744 L99.4439453,4.95516 L99.4439453,4.95516 L99.4439453,4.95516 Z M102.827939,13.0018 L102.838701,13.1712 L103.192139,13.13956 C103.181377,13.03372 103.224141,12.86432 103.299189,12.65264 L103.266904,12.34548 C103.11709,12.35612 102.966992,12.57844 102.827939,13.0018 L102.827939,13.0018 L102.827939,13.0018 Z M89.6235937,23.13444 C89.6023535,22.84856 88.7026172,21.73696 86.9249512,19.77808 C86.8929492,19.41828 87.503252,18.87816 88.7561426,18.16892 L92.332998,15.0878 C93.1361621,14.08176 93.6074121,12.45132 93.746748,10.18556 L93.7037012,9.66672 C93.5646484,8.09984 92.4188086,6.83984 90.2449414,5.87636 C88.9597656,5.01872 86.6465625,4.54216 83.305332,4.4576 C80.5424023,4.69056 76.9335449,5.6644 72.4892383,7.39032 C71.2683496,8.2586 69.8764062,9.12688 68.3128418,9.99488 L68.334082,10.25976 C68.4306543,10.24912 68.5804687,10.1962 68.7518066,10.07972 C68.9339062,10.05844 69.040957,10.14328 69.0517187,10.31268 L69.3193457,10.17492 L69.4479199,10.16428 L69.4586816,10.28076 C69.4694434,10.41852 68.5054199,11.17032 66.556416,12.51488 L66.7065137,12.79012 L66.5779395,12.80076 L66.2565039,12.68428 C66.2672656,12.77948 66.1282129,12.84304 65.8603027,12.86432 L65.8710645,12.9808 L66.1817383,13.36188 C66.0854492,13.37252 65.9353516,13.33024 65.7320117,13.25604 C65.282002,13.29832 64.8430371,13.53128 64.4040723,13.97592 L64.5861719,13.19248 C65.2392383,10.40788 65.6889648,7.9408 65.9245898,5.80216 L65.8925879,5.6644 C65.4428613,5.37852 65.0036133,4.97616 64.5966504,4.46796 C64.6074121,4.1398 64.6074121,3.9494 64.5966504,3.90684 L64.5646484,3.79036 L64.4360742,3.82228 C63.0226074,5.91864 60.3024414,9.49732 56.2650977,14.55832 C53.1917773,18.15828 51.6066895,20.15944 51.5104004,20.5618 C50.2575098,21.8428 49.6576855,22.61588 49.7219727,22.88048 C49.3900586,23.09216 49.2507227,23.30384 49.304248,23.5368 C49.207959,23.55808 49.1436719,23.52644 49.1221484,23.43096 C48.5868945,24.2886 47.794209,24.83908 46.7341797,25.08268 L45.6203418,25.33692 C45.4705273,25.36856 45.3954785,25.4744 45.4062402,25.65444 L45.4382422,25.7922 L45.8559668,25.69672 L45.888252,25.8132 L44.945752,26.17328 L43.2751367,26.55436 L42.3969238,26.60728 C42.2683496,26.7344 43.0930371,26.59692 42.7718848,26.67084 L41.6795703,26.92508 C41.015459,27.0732 40.651543,27.02028 40.5872559,26.75568 L40.4586816,26.78732 C40.4802051,26.9038 40.4906836,26.98864 40.4694434,27.06256 L40.4051562,26.79796 L39.5269434,26.999 C39.4626562,26.59692 38.2740527,25.1356 35.9716113,22.61588 C35.9288477,22.12868 36.7424902,21.41916 38.402627,20.49824 L43.0930371,16.42172 C44.1425879,15.0878 44.7636523,12.94888 44.9672754,10.00552 L44.9029883,9.31728 C44.7208887,7.2422 43.2000879,5.5692 40.3408691,4.27756 C38.6487305,3.14468 35.6074121,2.541 31.2169141,2.4458 C27.5757715,2.75296 22.820791,4.03396 16.9737793,6.26808 C15.3674512,7.42196 13.5362598,8.56548 11.4802051,9.69836 L11.512207,10.05844 C11.651543,10.0478 11.8333594,9.97388 12.0582227,9.84676 C12.2938477,9.82548 12.4224219,9.93132 12.4439453,10.14328 L12.8078613,9.94196 L12.9899609,9.93132 L13.0007227,10.10072 C13.0114844,10.27012 11.7370703,11.25488 9.15624023,13.05472 L9.35958008,13.37252 L9.17776367,13.38316 L8.7812793,13.2454 C8.79204102,13.35124 8.60994141,13.42544 8.23526367,13.45708 L8.25650391,13.64776 L8.68499023,14.11368 C8.5459375,14.12432 8.35307617,14.08176 8.10668945,13.9972 C7.27152344,14.0714 6.45759766,14.66416 5.65443359,15.78668 L5.85777344,16.1042 C6.55388672,15.46888 6.96084961,15.15136 7.07866211,15.14072 L7.12142578,15.65956 C7.00361328,15.6702 6.82151367,15.74412 6.57541016,15.87124 L7.014375,16.52784 C7.86030273,15.62764 8.79204102,14.85484 9.80958984,14.20888 C10.3128418,14.336 10.5804687,14.49476 10.5912305,14.66416 L10.9766699,14.63252 C13.7395996,12.61008 16.4705273,11.14904 19.1799316,10.24912 L19.2119336,10.60892 C18.7086816,11.35008 18.3660059,11.73144 18.1839062,11.75244 C18.2054297,12.00668 18.290957,12.229 18.4515332,12.41968 C18.4945801,12.87496 17.2629297,15.94544 14.767627,21.62048 C9.10271484,34.81296 4.34773437,44.57488 0.482011719,50.88552 C0.492490234,51.01236 0.567539062,51.18176 0.706875,51.39372 C1.65985352,51.1714 2.25967773,50.93844 2.51654297,50.71584 L2.72016602,50.69484 L2.75216797,51.05492 L3.10560547,51.023 L3.46980469,50.82196 C3.48056641,50.9278 3.59837891,50.98072 3.84448242,50.95944 L3.87676758,51.31952 C3.90876953,51.66896 3.70542969,52.19816 3.27694336,52.92896 C2.89150391,53.36296 2.4737793,54.27352 2.03481445,55.66064 L2.04529297,55.83004 L2.39873047,55.79812 C3.94105469,54.09348 5.10813477,52.42048 5.91129883,50.79004 C10.4091309,49.48776 13.8361719,48.20676 16.2133789,46.94676 C18.6016309,46.74544 20.4220605,46.12076 21.6644727,45.09372 L21.6429492,44.90332 L20.7434961,45.16792 L20.539873,45.1892 L20.5183496,44.99852 C22.2747754,44.73392 23.4849023,44.35256 24.1594922,43.82336 C27.5757715,41.21852 30.1566016,39.3764 31.9022656,38.2858 C35.4895996,35.68124 37.8243262,33.13996 38.8843555,30.67316 C39.0772168,30.63088 39.2697949,30.58832 39.4841797,30.5354 C39.9874316,30.5144 40.2658203,30.50376 40.3408691,30.48248 C40.3193457,30.38728 40.3623926,30.33436 40.4586816,30.31308 C41.2618457,30.22852 40.8764062,30.366 41.3904199,30.24952 L42.7395996,29.94264 C42.6540723,29.96364 42.6217871,30.0062 42.6433105,30.09076 L42.8466504,29.96364 C42.8038867,29.96364 42.7718848,29.95328 42.7395996,29.94264 L42.9644629,29.88972 L42.8574121,29.95328 C43.0075098,29.97428 43.1680859,29.96364 43.3501855,29.92136 L43.4464746,30.31308 L37.3103125,39.9588 L35.9500879,41.64216 L35.2862598,43.84436 L35.414834,43.81272 L36.0786621,43.53748 L35.8645605,44.39512 L35.9288477,44.64908 L36.1106641,44.8714 C36.0251367,44.89268 35.9931348,44.9456 36.014375,45.0408 L36.0466602,45.17856 L36.3250488,45.115 C36.7320117,44.76556 36.9033496,44.44804 36.8390625,44.16216 C37.2780273,44.23608 37.5671777,44.268 37.7172754,44.22572 L37.7492773,44.3632 C37.4816504,44.42676 37.3423145,44.63844 37.320791,44.99852 L37.3530762,45.13628 L37.5028906,45.10436 C39.7305664,42.70084 45.1921387,34.47416 49.5721582,28.89432 C49.4328223,28.29092 51.7137402,27.45428 56.4256738,26.37432 L56.5757715,26.34268 C56.7471094,27.0732 56.3829102,28.8414 55.483457,31.64728 C54.9051562,33.34128 54.6267676,34.27312 54.6695312,34.42124 C53.9198926,36.67636 53.5664551,37.89408 53.6092187,38.08476 L51.9386035,43.49492 C50.8570508,46.26916 50.0326465,49.18088 49.4543457,52.25136 C49.5506348,52.23008 49.7004492,52.24072 49.914834,52.29364 L50.1501758,52.09232 C50.1716992,52.1878 50.2359863,52.21944 50.3322754,52.19816 L50.2359863,51.80644 L50.9641016,51.78544 C51.1782031,51.73252 51.3603027,51.46764 51.5104004,50.98072 C51.4781152,50.2502 51.6282129,49.85848 51.960127,49.77364 C52.4098535,48.03736 52.6882422,47.16908 52.7848145,47.13716 C53.2022559,45.41152 53.5129297,44.42676 53.7162695,44.18316 C54.3483789,41.93868 54.808584,40.78452 55.1084961,40.71032 L55.1727832,40.98584 L54.7122949,42.161 C53.9091309,45.68676 53.0952051,48.47136 52.2708008,50.5148 L52.5064258,51.5312 L52.6562402,51.49956 C54.6480078,47.26428 57.5179883,38.87884 61.2554199,26.34268 C61.3627539,25.24144 61.8980078,24.3838 62.8512695,23.7804 L62.6368848,23.55808 L62.6048828,23.4416 C63.0333691,23.3464 63.332998,23.177 63.5043359,22.94404 C63.4830957,22.84856 63.1081348,22.71108 62.3800195,22.5204 L64.2434961,14.62188 C64.6501758,14.2618 64.8858008,14.0714 64.9608496,14.0714 L64.9931348,14.47376 C64.8965625,14.48412 64.746748,14.53704 64.5754102,14.65352 L64.9288477,15.15136 C65.5711523,14.46312 66.2672656,13.87008 67.027666,13.37252 C67.4131055,13.47836 67.6059668,13.60548 67.6274902,13.7326 L67.9058789,13.71132 C70.0262207,12.17608 72.1037988,11.07484 74.1490918,10.40788 L74.1706152,10.67248 C73.7959375,11.2336 73.5387891,11.51948 73.3994531,11.53012 C73.4209766,11.7208 73.474502,11.8902 73.570791,12.03832 C73.6030762,12.38776 72.6820996,14.71708 70.7973828,19.03692 C66.4921289,29.04244 62.8832715,36.4434 59.9490039,41.25044 C59.9597656,41.34564 60.0240527,41.47276 60.1418652,41.64216 C60.8592187,41.47276 61.319707,41.29272 61.5018066,41.12332 L61.6303809,41.11268 L61.6519043,41.37756 L61.9515332,41.35628 L62.2194434,41.21852 C62.2299219,41.29272 62.3264941,41.32464 62.5085937,41.314 L62.529834,41.59988 C62.5513574,41.85384 62.401543,42.2562 62.0693457,42.80668 C61.7589551,43.13512 61.4375195,43.82336 61.0948437,44.8714 L61.1056055,45.00916 L61.3839941,44.98788 C62.5513574,43.69624 63.4400488,42.4256 64.0506348,41.17624 C67.4666309,40.18112 70.0689844,39.21764 71.8681738,38.26452 C73.6993652,38.10576 75.0808301,37.63984 76.0233301,36.8564 L76.0125684,36.71892 L75.3164551,36.91996 L75.1666406,36.9306 L75.1558789,36.79284 C76.4838184,36.60244 77.4155566,36.30592 77.9188086,35.9142 C80.5104004,33.94468 82.470166,32.53656 83.7981055,31.71084 C87.9317383,28.73556 89.8592187,25.87676 89.6235937,23.13444 L89.6235937,23.13444 L89.6235937,23.13444 Z M88.917002,23.31448 L89.013291,24.3838 C88.8847168,24.64868 88.7456641,24.78616 88.6170898,24.7968 L88.4565137,22.97568 C88.7561426,23.08152 88.9062402,23.18736 88.917002,23.31448 L88.917002,23.31448 L88.917002,23.31448 Z M7.82830078,14.69608 L7.64620117,14.70644 L7.61419922,14.37828 L8.35307617,14.31472 L8.36383789,14.48412 C8.24602539,14.49476 8.06392578,14.55832 7.82830078,14.69608 L7.82830078,14.69608 L7.82830078,14.69608 Z M4.21944336,50.38768 C3.79095703,50.19728 3.40551758,50.12308 3.07360352,50.15472 L3.03055664,49.63588 C3.00931641,49.43484 3.12712891,49.29708 3.38399414,49.24416 C3.61961914,49.22316 3.75895508,49.39256 3.78019531,49.73136 C4.40154297,48.97956 4.74421875,48.59848 4.80850586,48.58784 L5.20470703,48.7466 C5.07613281,49.80556 4.74421875,50.3454 4.21944336,50.38768 L4.21944336,50.38768 L4.21944336,50.38768 Z M42.7826465,10.50308 C42.6005469,10.52436 42.2363477,9.96324 41.7115723,8.85136 L41.6795703,8.5232 C42.0222461,8.49156 42.3756836,9.04204 42.7503613,10.17492 L42.7826465,10.50308 L42.7826465,10.50308 L42.7826465,10.50308 Z M42.2683496,6.55396 L42.1185352,6.9034 L36.8818262,4.74348 C40.3728711,4.85996 42.1720605,5.46336 42.2683496,6.55396 L42.2683496,6.55396 L42.2683496,6.55396 Z M20.1544336,25.32628 L19.4155566,25.38984 L19.3832715,25.0614 L20.1221484,24.99812 L20.1544336,25.32628 L20.1544336,25.32628 L20.1544336,25.32628 Z M19.5546094,14.05012 L19.736709,14.03948 L19.7794727,14.55832 C19.6081348,14.56896 19.3832715,14.82292 19.1048828,15.31012 L19.0725977,14.95004 C19.4047949,14.55832 19.5761328,14.2618 19.5546094,14.05012 L19.5546094,14.05012 L19.5546094,14.05012 Z M18.0018066,17.67108 L18.0660937,18.35932 L17.8839941,18.36996 L17.819707,17.68172 L18.0018066,17.67108 L18.0018066,17.67108 L18.0018066,17.67108 Z M17.1878809,18.963 L17.5413184,18.93108 C17.5093164,19.50284 17.3487402,19.81 17.0595898,19.831 L16.8774902,19.84164 C17.1023535,19.46056 17.2094043,19.16404 17.1878809,18.963 L17.1878809,18.963 L17.1878809,18.963 Z M16.5775781,20.76284 L16.780918,20.74156 L16.7916797,20.91096 L16.4597656,21.46172 L16.1063281,21.49336 L16.0955664,21.32396 C16.4490039,21.29232 16.6095801,21.11228 16.5775781,20.76284 L16.5775781,20.76284 L16.5775781,20.76284 Z M15.9777539,22.38292 L15.8707031,23.25092 L15.6886035,23.26156 L15.6138379,22.40392 L15.9777539,22.38292 L15.9777539,22.38292 L15.9777539,22.38292 Z M9.97016602,39.27056 C9.73454102,40.45636 9.47739258,41.05976 9.20976562,41.08104 L9.19900391,40.91164 C9.1347168,40.32924 9.39186523,39.77876 9.97016602,39.27056 L9.97016602,39.27056 L9.97016602,39.27056 Z M8.86708984,41.63152 L8.87785156,41.80092 C8.8990918,42.03388 8.79204102,42.17164 8.55641602,42.182 L8.5459375,42.0126 C8.52441406,41.81156 8.63146484,41.68444 8.86708984,41.63152 L8.86708984,41.63152 L8.86708984,41.63152 Z M8.5459375,46.53376 L9.10271484,46.48084 L9.12395508,46.67152 C8.98490234,46.68188 8.80280273,46.75608 8.57793945,46.8832 L8.22450195,46.91484 C8.20297852,46.73508 8.32079102,46.59732 8.5456543,46.53376 L8.5459375,46.53376 L8.5459375,46.53376 L8.5459375,46.53376 Z M24.3951172,41.69508 C21.2679883,43.21968 19.4260352,44.25736 18.8800195,44.7972 C15.4960254,45.962 13.8146484,46.68188 13.8466504,46.96776 C10.8376172,48.1432 8.85632812,49.01148 7.90334961,49.55132 C7.67848633,49.5726 7.35705078,49.48776 6.92884766,49.29708 C6.87532227,48.69368 7.15371094,48.20676 7.74249023,47.81504 C8.26726562,47.77248 8.77051758,47.84668 9.2525293,48.04772 C9.80958984,47.76184 10.7840918,47.44432 12.1655566,47.10552 L12.1332715,46.74544 L11.0197168,46.84092 C11.1587695,46.65024 12.2295605,46.15268 14.2428516,45.34796 L14.7999121,45.29504 L14.8106738,45.46444 C13.8574121,45.549 13.3326367,45.82452 13.2148242,46.32208 C13.2363477,46.5444 13.3649219,46.6396 13.6005469,46.6186 C14.3179004,46.17368 14.6713379,45.90908 14.6605762,45.83488 C16.0208008,45.58092 19.7794727,43.63268 25.9371582,40.00108 L25.9694434,40.32924 C25.9802051,40.488 25.4554297,40.93264 24.3951172,41.69508 L24.3951172,41.69508 L24.3951172,41.69508 Z M14.9497266,44.76556 C15.8494629,44.69136 16.6203418,44.33156 17.2629297,43.70688 C17.5197949,43.6856 17.6591309,43.7808 17.6698926,44.00312 C17.2306445,44.04568 16.3847168,44.40548 15.1533496,45.10436 L14.97125,45.115 L14.9497266,44.76556 L14.9497266,44.76556 L14.9497266,44.76556 Z M30.1886035,33.19288 L25.4659082,36.88832 C21.9533398,39.16472 20.068623,40.30796 19.8009961,40.32924 C14.2108496,43.36808 10.7305664,44.9456 9.38110352,45.06208 L9.17776367,45.08308 C9.34910156,44.45868 11.8333594,39.42932 16.652627,29.96364 C18.7729687,29.7836 22.1141992,28.80976 26.6655566,27.03092 L27.7791113,26.93544 C30.0815527,26.7344 31.8056934,27.17904 32.9410547,28.238 L33.0050586,28.92596 C32.1483691,31.3614 31.2061523,32.78016 30.1886035,33.19288 L30.1886035,33.19288 L30.1886035,33.19288 Z M20.9575977,28.05796 L21.717998,27.9944 L21.7284766,28.1638 L20.9683594,28.22736 L20.9575977,28.05796 L20.9575977,28.05796 L20.9575977,28.05796 Z M31.6343555,26.26848 L32.191416,26.21556 C32.7054297,26.45916 32.9730566,26.67084 32.9945801,26.86152 L33.0050586,27.03092 C32.5125684,27.0732 32.0520801,26.81924 31.6343555,26.26848 L31.6343555,26.26848 L31.6343555,26.26848 Z M33.1443945,17.76656 C32.6519043,18.34868 31.3024414,19.34408 29.0962891,20.74156 C28.3681738,20.80512 25.6587695,21.8428 20.9683594,23.8756 C20.7327344,23.76976 20.4863477,23.72748 20.2187207,23.74876 L20.1864355,23.42032 C20.1329102,22.75336 20.4328223,21.917 21.0966504,20.9006 C21.4608496,18.99464 21.8570508,17.90404 22.2962988,17.63944 L26.2050684,8.94684 C26.1620215,8.40672 26.9974707,7.99372 28.7108496,7.70784 L29.267627,7.65492 L29.3106738,8.15276 C30.9917676,7.89852 32.0413184,7.7504 32.4482812,7.71848 C35.5538867,7.45388 37.1709766,8.07856 37.2995508,9.57152 L37.6529883,9.5396 L37.5779395,8.66096 L37.9633789,8.62904 C38.8735938,9.12688 39.3663672,9.73028 39.4306543,10.43952 C39.473418,10.92672 39.205791,11.53012 38.6379687,12.25028 C38.402627,12.27128 38.263291,12.10188 38.2417676,11.76308 L37.8563281,11.795 L37.7708008,12.85368 C36.1964746,15.183 35.0506348,16.37944 34.3437598,16.443 C33.7011719,17.32192 33.3049707,17.75592 33.1443945,17.76656 L33.1443945,17.76656 L33.1443945,17.76656 Z M35.543125,23.8546 C35.2219727,23.64264 34.9648242,23.54744 34.7722461,23.55808 L34.7291992,23.03924 L35.0826367,23.0076 L35.8645605,23.46288 C35.8965625,23.7062 35.7895117,23.83332 35.543125,23.8546 L35.543125,23.8546 L35.543125,23.8546 Z M38.027666,26.76604 C38.3703418,26.9038 38.5739648,27.05192 38.6167285,27.18968 L38.4453906,27.23196 L38.4561523,27.2426 C38.4238672,27.2426 38.3811035,27.25324 38.3488184,27.26388 L38.0919531,27.46492 L38.027666,26.76604 L38.027666,26.76604 L38.027666,26.76604 Z M38.263291,28.22736 L38.2312891,28.0896 L38.6810156,27.98376 L38.7130176,28.12152 L38.263291,28.22736 L38.263291,28.22736 L38.263291,28.22736 Z M39.3448437,29.4238 C39.805332,29.3496 40.0301953,29.31796 40.8868848,29.12728 L40.9191699,29.26504 L39.2913184,29.63548 C39.3128418,29.56128 39.334082,29.48736 39.3448437,29.4238 L39.3448437,29.4238 L39.3448437,29.4238 Z M40.9299316,30.09076 C40.2445801,30.15432 40.3943945,30.06948 39.3020801,30.31308 L39.2697949,30.1756 L40.6300195,29.74132 L41.2833691,29.5932 L41.347373,29.84716 C41.0582227,29.91072 41.2726074,29.91072 40.9299316,30.09076 L40.9299316,30.09076 L40.9299316,30.09076 Z M42.3756836,29.75196 C42.2148242,29.79424 42.0865332,29.72032 42.0114844,29.54028 L42.429209,29.4448 C42.6110254,29.40252 42.7288379,29.47672 42.7718848,29.65676 L42.3756836,29.75196 L42.3756836,29.75196 L42.3756836,29.75196 Z M46.2949316,25.58024 L46.2629297,25.44276 L46.9375195,25.284 L47.0018066,25.53796 L46.2949316,25.58024 L46.2949316,25.58024 L46.2949316,25.58024 Z M50.482373,50.97008 C50.5251367,50.7794 50.5358984,50.64192 50.514375,50.54644 L50.6644727,50.5148 C50.8462891,50.47252 50.9533398,50.53608 50.9963867,50.70548 L51.0283887,50.84296 L50.482373,50.97008 L50.482373,50.97008 L50.482373,50.97008 Z M53.4166406,26.67084 L53.1167285,26.61792 C52.6347168,26.8086 52.2277539,26.94608 51.8958398,27.02028 L51.6174512,27.08384 C51.456875,27.12612 51.3283008,27.06256 51.2640137,26.89316 L53.2237793,26.44852 L53.8663672,26.152 L54.0804687,26.3956 C53.7697949,26.45916 53.5449316,26.55436 53.4166406,26.67084 L53.4166406,26.67084 L53.4166406,26.67084 Z M54.9263965,26.19428 L54.8943945,26.0568 C54.9906836,26.03552 55.1192578,25.9616 55.2585937,25.82384 L56.6505371,25.50632 L56.6828223,25.6438 C55.9439453,25.82384 55.3548828,26.00388 54.9263965,26.19428 L54.9263965,26.19428 L54.9263965,26.19428 Z M55.1407812,23.40968 C55.044209,23.43096 54.915918,23.5158 54.7550586,23.64264 C54.7338184,23.54744 54.540957,23.54744 54.1767578,23.63228 C54.1127539,23.3674 55.1407812,22.99696 57.2718848,22.50976 L57.5715137,22.4462 L57.6358008,22.70044 C56.1365234,23.13444 55.3013574,23.37804 55.1407812,23.40968 L55.1407812,23.40968 L55.1407812,23.40968 Z M58.8889746,19.40764 C58.738877,21.091 58.1393359,22.04412 57.0790234,22.28744 L57.0470215,22.14996 L56.1045215,22.50976 L55.6867969,22.60524 C55.4726953,22.65816 55.279834,22.64752 55.1084961,22.5946 L55.0229687,22.22388 C54.9906836,22.0864 56.3509082,20.22272 59.1138379,16.64404 L59.4349902,16.69724 C59.5528027,17.18416 59.3707031,18.08408 58.8889746,19.40764 L58.8889746,19.40764 L58.8889746,19.40764 Z M65.517627,13.79588 L65.3893359,13.80652 L65.3678125,13.54192 L65.9245898,13.489 L65.9353516,13.62648 C65.8390625,13.64776 65.6997266,13.70068 65.517627,13.79588 L65.517627,13.79588 L65.517627,13.79588 Z M62.7869824,40.91164 C62.4655469,40.76324 62.1763965,40.69996 61.930293,40.72096 L61.8980078,40.3186 C61.8872461,40.18112 61.9730566,40.08564 62.1551563,40.03272 C62.3372559,40.01172 62.4443066,40.13856 62.4655469,40.41408 C62.9260352,39.83168 63.1831836,39.53516 63.236709,39.53516 L63.5258594,39.65164 C63.4188086,40.45636 63.1724219,40.87972 62.7869824,40.91164 L62.7869824,40.91164 L62.7869824,40.91164 Z M92.0653711,10.6302 C91.9260352,10.64084 91.6584082,10.2172 91.2406836,9.35956 L91.2194434,9.09496 C91.4870703,9.07368 91.765459,9.48668 92.0438477,10.33368 L92.0653711,10.6302 L92.0653711,10.6302 L92.0653711,10.6302 Z M91.6799316,7.602 L91.5513574,7.87724 L87.5890625,6.23616 C90.2341797,6.321 91.6048828,6.77628 91.6799316,7.602 L91.6799316,7.602 L91.6799316,7.602 Z M74.8774902,21.86408 L74.3204297,21.917 L74.2991895,21.65212 L74.8559668,21.60984 L74.8774902,21.86408 L74.8774902,21.86408 L74.8774902,21.86408 Z M74.417002,13.29832 L74.5668164,13.28768 L74.5988184,13.69004 C74.4597656,13.70068 74.2884277,13.89136 74.0848047,14.2618 L74.0635645,13.9972 C74.3099512,13.69004 74.4274805,13.45708 74.417002,13.29832 L74.417002,13.29832 L74.417002,13.29832 Z M73.2496387,16.05128 L73.2924023,16.57012 L73.1425879,16.58076 L73.099541,16.06192 L73.2496387,16.05128 L73.2496387,16.05128 L73.2496387,16.05128 Z M72.6178125,17.03604 L72.8962012,17.01476 C72.8641992,17.4594 72.7463867,17.69236 72.5427637,17.71364 L72.3929492,17.724 C72.5535254,17.42776 72.6285742,17.1948 72.6178125,17.03604 L72.6178125,17.03604 L72.6178125,17.03604 Z M72.1680859,18.39124 L72.2966602,18.3806 L72.3071387,18.51808 L72.0610352,18.94172 L71.7823633,18.963 L71.7718848,18.82524 C72.0610352,18.80396 72.1893262,18.65584 72.1680859,18.39124 L72.1680859,18.39124 L72.1680859,18.39124 Z M71.7183594,19.61932 L71.6217871,20.29692 L71.4932129,20.30756 L71.4396875,19.6406 L71.7183594,19.61932 L71.7183594,19.61932 L71.7183594,19.61932 Z M67.1454785,32.46236 C66.9633789,33.35192 66.7708008,33.8072 66.5671777,33.8282 L66.556416,33.71172 C66.5244141,33.26708 66.7169922,32.84372 67.1454785,32.46236 L67.1454785,32.46236 L67.1454785,32.46236 Z M66.2995508,34.25184 L66.3100293,34.36832 C66.3315527,34.55872 66.2460254,34.66484 66.0531641,34.6752 L66.0424023,34.53772 C66.0316406,34.39996 66.1174512,34.30476 66.2995508,34.25184 L66.2995508,34.25184 L66.2995508,34.25184 Z M66.0639258,37.97864 L66.4921289,37.947 L66.5028906,38.08448 C66.4066016,38.09512 66.2565039,38.14804 66.085166,38.24352 L65.8067773,38.26452 C65.7960156,38.1164 65.8818262,38.0212 66.0639258,37.97864 L66.0639258,37.97864 L66.0639258,37.97864 Z M78.0901465,34.30476 C75.7341797,35.45892 74.3311914,36.24236 73.8922266,36.64472 C71.321875,37.534 70.0477441,38.08476 70.0689844,38.30708 C67.7880664,39.207 66.2887891,39.85268 65.5819141,40.26568 C65.4105762,40.27632 65.1641895,40.21276 64.8430371,40.06464 C64.8002734,39.60936 65.014375,39.23864 65.4641016,38.9634 C65.8710645,38.93176 66.2565039,38.98468 66.6099414,39.1328 C67.0384277,38.92112 67.7773047,38.68816 68.8268555,38.42356 L68.805332,38.15868 L67.9271191,38.22224 C68.0344531,38.07412 68.8588574,37.69276 70.3904199,37.07872 L70.818623,37.04708 L70.8293848,37.16356 C70.1012695,37.22712 69.6943066,37.4388 69.6084961,37.81988 C69.6192578,37.98928 69.7263086,38.07412 69.9084082,38.05284 C70.4439453,37.7034 70.7008105,37.50236 70.7008105,37.4388 C71.7288379,37.25876 74.5775781,35.77644 79.2575098,33.00248 L79.27875,33.26708 C79.2895117,33.38356 78.8933105,33.72236 78.0901465,34.30476 L78.0901465,34.30476 L78.0901465,34.30476 Z M70.9151953,36.63408 C71.6110254,36.57052 72.2000879,36.30592 72.6928613,35.84 C72.8746777,35.81872 72.9820117,35.90356 72.9924902,36.07296 C72.6713379,36.1046 72.0395117,36.36948 71.08625,36.87768 L70.9364355,36.88832 L70.9151953,36.63408 L70.9151953,36.63408 L70.9151953,36.63408 Z M82.502168,27.83564 L78.9360742,30.67316 C76.2694336,32.3988 74.8239648,33.26708 74.5988184,33.28836 C70.3581348,35.5964 67.7237793,36.79284 66.6849902,36.87768 L66.5351758,36.88832 C66.6634668,36.41176 68.5592285,32.58948 72.2216113,25.41084 C73.8171777,25.27336 76.3444824,24.52156 79.8142871,23.16636 L80.6817383,23.09216 C82.4271191,22.94404 83.7338184,23.28284 84.5905078,24.09792 L84.6332715,24.61676 C83.9799219,26.43788 83.2733301,27.5072 82.502168,27.83564 L82.502168,27.83564 L82.502168,27.83564 Z M75.4985547,23.93916 L76.055332,23.88624 L76.0660937,24.024 L75.5093164,24.07692 L75.4985547,23.93916 L75.4985547,23.93916 L75.4985547,23.93916 Z M83.6052441,22.57332 L84.0337305,22.54168 C84.4299316,22.73208 84.6332715,22.90176 84.6440332,23.03924 L84.6547949,23.15572 C84.279834,23.18736 83.9263965,22.99696 83.6052441,22.57332 L83.6052441,22.57332 L83.6052441,22.57332 Z M84.7295605,16.12548 C84.3548828,16.57012 83.3376172,17.33228 81.6777637,18.39124 C81.1207031,18.44416 79.0646484,19.2276 75.5093164,20.7522 C75.3379785,20.68864 75.1451172,20.66764 74.9414941,20.67828 L74.9202539,20.4134 C74.8774902,19.9052 75.1023535,19.26988 75.5948438,18.49708 C75.8732324,17.03604 76.1839063,16.22068 76.5050586,16.03 L79.4928516,9.42312 C79.4608496,9.0314 80.0926758,8.71388 81.3778516,8.47028 L81.8060547,8.43864 L81.8383398,8.841 C83.1019922,8.63968 83.8943945,8.5232 84.2155469,8.49156 C86.5715137,8.29024 87.8031641,8.75616 87.8994531,9.89968 L88.1778418,9.8784 L88.1243164,9.24308 L88.4029883,9.22208 C89.0883398,9.59252 89.4522559,10.03744 89.4953027,10.56664 C89.5273047,10.948 89.3344434,11.41364 88.9274805,11.95376 C88.7456641,11.97476 88.6386133,11.84792 88.6170898,11.57268 L88.3387012,11.59368 L88.2528906,12.38776 C87.0642871,14.17724 86.1968359,15.09844 85.6505371,15.14072 C85.1688086,15.78668 84.8688965,16.11484 84.7295605,16.12548 L84.7295605,16.12548 L84.7295605,16.12548 Z M85.9827344,20.52988 L85.9504492,20.12752 L86.2288379,20.10652 L86.8286621,20.46632 C86.8394238,20.63572 86.7536133,20.7312 86.5715137,20.7522 C86.3146484,20.59344 86.1217871,20.51924 85.9827344,20.52988 L85.9827344,20.52988 L85.9827344,20.52988 Z M36.1321875,46.24788 L35.8537988,46.31144 L35.6181738,46.51248 C35.6609375,46.68188 35.7679883,46.74544 35.9500879,46.70316 C36.1321875,46.66088 36.2072363,46.55504 36.1644727,46.38564 L36.1321875,46.24788 L36.1321875,46.24788 L36.1321875,46.24788 Z M35.0721582,44.16216 L35.1041602,44.29964 C35.2862598,44.25736 35.3610254,44.15152 35.3182617,43.98212 L35.2862598,43.84436 C35.1149219,43.88692 35.039873,43.99276 35.0721582,44.16216 L35.0721582,44.16216 L35.0721582,44.16216 Z M42.6110254,26.42724 L42.9324609,26.35332 L42.8681738,26.07808 L42.5470215,26.152 L42.6110254,26.42724 L42.6110254,26.42724 L42.6110254,26.42724 Z M139.784814,34.49544 C136.529111,35.21532 136.122148,35.0882 135.436797,35.14112 L135.45832,35.406 L135.758232,35.38472 L135.918809,35.37408 L135.876045,35.34244 L136.229199,35.20468 C139.452617,34.85524 139.827578,34.98236 139.795293,34.62228 L139.784814,34.49544 L139.784814,34.49544 L139.784814,34.49544 Z M122.253975,36.79284 L122.275498,37.05772 L122.318262,37.05772 L122.297021,36.79284 L122.253975,36.79284 L122.253975,36.79284 L122.253975,36.79284 Z M120.240684,29.81552 L119.951533,29.72032 C119.715908,30.345 119.598096,30.71544 119.608857,30.82128 L119.619619,30.93776 C119.844482,30.92712 120.048105,30.54604 120.240684,29.81552 L120.240684,29.81552 L120.240684,29.81552 Z M140.448643,34.44252 L140.470166,34.70712 L140.941133,34.79168 L140.919893,34.52708 L140.448643,34.44252 L140.448643,34.44252 L140.448643,34.44252 Z M118.29168,37.121 L117.563564,37.03644 L117.43499,37.31168 L117.445752,37.44944 L121.782725,37.08936 L121.761484,36.82476 L118.29168,37.121 L118.29168,37.121 L118.29168,37.121 Z M116.321152,27.7298 L116.310674,27.59204 L116.160576,27.60268 L115.892949,27.77208 L116.042764,28.02604 C116.246387,28.00504 116.342676,27.90956 116.321152,27.7298 L116.321152,27.7298 L116.321152,27.7298 Z M142.504697,32.49428 L142.70832,32.473 C142.826133,32.46236 142.879658,32.36716 142.868896,32.19776 L142.751084,31.94352 C142.012207,32.00708 141.669531,32.039 141.069707,32.36716 L141.058945,32.22968 L140.170254,32.31424 C140.14873,32.04964 140.073965,31.91188 139.956152,31.92252 L139.495664,31.9648 C138.960127,32.00708 138.702979,31.98608 138.435352,32.18712 C138.42459,32.09192 138.392588,32.04964 138.339062,32.04964 L137.825049,32.09192 L137.525137,32.26132 C137.514375,32.16612 137.482373,32.12356 137.428564,32.12356 L137.246748,32.2826 L137.235986,32.14484 L136.51835,32.09192 L136.347012,32.10256 L136.368535,32.36716 L136.732734,32.46236 L137.07541,32.44136 C137.193223,32.51556 137.321514,32.53656 137.471611,32.52592 L137.771523,32.3778 L137.782002,32.49428 C136.100908,32.90728 136.111387,32.83308 134.954785,33.02376 C134.826494,32.93892 134.729922,32.89664 134.665635,32.90728 L134.644395,32.92828 C134.51582,32.91764 134.440771,32.83308 134.430293,32.69532 L135.029834,32.6214 C135.072598,32.6214 135.104883,32.66368 135.436797,32.72724 C135.918809,32.49428 135.940049,32.3988 136.197197,32.3778 L136.175674,32.11292 C134.526582,32.43072 135.19041,32.21904 133.123594,32.3988 L133.027305,32.40944 L133.005781,32.14484 C135.66166,31.82732 134.772969,32.00708 135.683184,31.75312 C135.693945,31.84832 135.725947,31.8906 135.779473,31.8906 C135.886523,31.78476 136.004336,31.73184 136.143672,31.71084 L136.325771,31.7002 C137.257227,31.626 137.5679,31.80604 139.409854,31.29784 L139.420615,31.41432 L139.720527,31.26592 L139.998916,31.24492 C139.977393,30.98004 140.384355,30.93776 140.523691,30.92712 L140.502168,30.64124 C137.267988,31.2872 136.422061,31.10716 135.522607,31.3614 L135.511846,31.24492 C134.665918,31.39304 134.633633,31.32948 134.419531,31.34012 C134.355244,31.35076 134.258955,31.40368 134.151621,31.50952 C134.141143,31.41432 134.108857,31.37176 134.04457,31.37176 C134.012568,31.37176 134.001807,31.3824 133.991045,31.3824 L131.249639,31.82704 C131.238877,31.75312 131.206875,31.71084 131.142588,31.7212 C129.718359,32.01772 130.103799,32.07064 128.197559,32.24004 C128.111748,32.25068 127.994219,32.29296 127.844121,32.38844 C127.833359,32.31424 127.790596,32.27196 127.694307,32.28232 L126.526943,32.3778 L125.745303,32.5682 C125.734541,32.49428 125.691777,32.452 125.595205,32.46236 C125.15624,32.57884 124.770801,32.65304 124.460127,32.67432 L124.438604,32.67432 C124.246025,32.69532 124.535176,32.6214 124.385078,32.55784 L124.149453,32.69532 C123.806777,32.72724 123.988877,32.67432 122.811035,32.68468 C120.744219,32.93892 120.969082,32.97056 120.744219,32.9812 L119.973057,32.92828 C119.983818,33.00248 119.941055,33.0554 119.855244,33.0554 C118.977031,32.93892 118.527305,32.80116 118.516543,32.6424 C118.634355,31.81668 118.837979,31.39304 119.127129,31.37176 L119.276943,31.3614 L119.148369,31.63664 L119.298467,31.626 C119.576855,31.47788 119.70543,31.34012 119.694668,31.213 L119.673145,30.92712 L119.394756,30.9484 L119.373232,30.6838 C119.351992,30.48248 119.383994,30.30244 119.459043,30.15432 L120.090869,29.14856 L120.112393,29.41316 L120.412021,29.39188 L120.390781,29.12728 L120.219443,28.88368 C120.444307,28.69328 120.615645,28.58716 120.754697,28.5768 L120.744219,28.43904 L120.337256,28.47096 L120.304971,28.0686 C121.118896,26.3956 121.504336,25.42148 121.483096,25.14624 L121.772246,25.26272 C121.954346,25.25208 122.039873,25.14624 122.029111,24.95556 L121.750723,24.97684 L121.739961,24.86036 C121.718721,24.65904 121.761484,24.46864 121.847012,24.29924 C122.28626,23.84396 122.4896,23.38868 122.446836,22.91212 C122.532646,22.90148 122.57541,22.94404 122.586172,23.03924 C122.96085,22.82756 123.25,22.26644 123.464102,21.3346 C124.128213,20.1488 125.07043,17.7772 126.30208,14.23016 C128.658047,7.96208 128.561758,7.29512 128.893672,5.8128 L128.615283,5.8338 C128.636523,6.02448 128.59376,6.20452 128.508232,6.37392 C128.315371,6.29972 128.165557,6.25744 128.058506,6.26808 L128.047744,6.1516 C128.004697,5.61148 128.229844,4.9658 128.743857,4.20336 L128.872148,4.19272 L129.107773,5.10328 L129.386162,5.08228 C129.375684,5.01872 129.450449,4.65864 129.600547,3.99168 C129.589785,3.85392 129.482734,3.76936 129.26835,3.75872 L129.000723,3.92812 C128.979482,3.73744 128.989961,3.23988 129.022246,2.4458 L128.88291,2.45644 C128.647285,2.22348 128.529473,2.0328 128.518711,1.87404 L126.987432,2.02216 C126.97667,1.91632 126.923145,1.75756 126.816094,1.55652 C126.805332,1.41876 127.148008,1.281 127.854883,1.14352 L128.165557,1.26 L128.454707,1.0906 C128.465186,1.1858 128.518711,1.22808 128.625762,1.21772 L128.914912,1.04832 C128.925674,1.14352 128.979199,1.1858 129.086533,1.17516 L129.225586,1.1648 L129.204062,0.85764 C128.989961,0.87892 128.422422,0.87892 127.522969,0.847 L127.233818,1.03768 L127.223057,0.86828 C120.037344,1.4504 115.957236,1.77884 114.982734,1.87404 C114.85416,1.88468 114.350908,1.87404 113.461934,1.85276 C113.472695,1.96924 113.365645,2.0328 113.151543,2.05408 L112.840869,1.91632 L111.791318,2.1812 C111.544932,2.2022 111.12749,2.19156 110.549189,2.12828 C110.388613,2.25512 110.195752,2.32932 109.960127,2.3506 C109.831553,2.36096 111.491406,2.26576 113.033447,2.15992 C112.872871,2.28704 112.626768,2.36096 112.284092,2.39288 C112.048467,2.41416 111.844844,2.38224 111.673506,2.28704 C111.437881,2.39288 110.677764,2.56228 109.40335,2.81624 L109.092676,2.70004 L104.08083,3.4622 C103.887969,3.367 103.663105,3.33508 103.40624,3.35636 C103.13833,3.37764 102.688604,3.47284 102.067539,3.64224 L99.6472852,4.63736 L99.8293848,4.93388 C99.9471973,4.92324 100.118535,4.85996 100.321875,4.74348 L101.178848,4.8174 L101.071514,5.61148 C100.279111,5.96092 99.818623,6.47976 99.6900488,7.13636 C98.5014453,7.65492 97.9123828,8.02564 97.9123828,8.24796 L97.9231445,8.38572 L98.1052441,8.37508 L98.4263965,8.20568 L98.8013574,8.65032 L98.8548828,9.26436 C98.876123,9.45504 96.8735937,13.61612 92.8685352,21.7476 C89.3987305,29.58256 87.5783008,33.87076 87.4069629,34.64356 C86.2183594,34.97172 85.5327246,35.44828 85.3293848,36.0836 C85.3509082,36.28464 85.7040625,36.4224 86.3894141,36.47532 L86.4216992,36.7822 L86.1110254,37.2904 L86.1645508,37.90472 C86.1968359,38.22224 87.0642871,38.46584 88.7669043,38.63524 C88.7561426,38.5294 88.8099512,38.46584 88.9274805,38.4552 C88.9597656,38.83628 88.8527148,39.57744 88.6063281,40.67868 L88.7884277,40.66804 C89.4950195,39.7152 89.8272168,39.0586 89.7949316,38.6988 L89.9450293,38.68816 C90.1163672,38.67752 90.2984668,38.8682 90.5125684,39.28092 C90.2984668,39.36576 89.5488281,41.04912 88.2636523,44.3422 L88.445752,44.63844 L88.6278516,44.62808 C90.2018945,40.68932 91.1871582,38.50812 91.5941211,38.09512 C93.6609375,37.91508 97.237793,37.55528 102.313926,37.01516 L102.635078,36.82476 C102.64584,36.9306 102.710127,36.98352 102.827939,36.97288 L103.159854,36.94124 L103.481289,36.75056 C103.491768,36.8564 103.556055,36.90932 103.673867,36.89868 L107.51835,36.57052 C108.535898,36.48596 109.017627,36.1788 108.974863,35.65996 C108.964102,35.52248 109.563926,35.36344 110.774053,35.19404 C110.891865,35.1834 111.063203,35.21532 111.298828,35.28952 C111.288066,35.19404 111.898369,35.09884 113.119258,34.993 C113.151543,34.35768 113.354883,34.01888 113.719082,33.98724 L113.686797,33.68008 C113.344121,33.71172 112.958682,33.79656 112.508955,33.94468 C111.705791,33.9024 111.191777,33.83884 110.977393,33.76464 C110.763291,33.88112 110.602715,33.94468 110.484902,33.95532 L107.8075,34.04016 L107.486348,34.20956 C107.475586,34.11408 107.411299,34.0718 107.293486,34.08244 L107.143672,34.09308 L106.800996,34.26248 C106.790234,34.167 106.511846,34.09308 105.954785,34.01888 L105.612393,34.21992 L104.948281,34.27284 L104.93752,34.10344 C108.385801,33.733 110.088701,33.26708 110.045654,32.7166 C110.270801,32.69532 110.388613,32.80116 110.409854,33.02376 L111.416641,32.76952 L111.384355,32.46236 L103.127852,32.68468 C103.13833,32.7908 103.084805,32.85408 102.967275,32.86472 L101.960488,32.78016 C101.70334,32.80116 101.489238,32.87536 101.3179,33.00248 L100.943223,32.86472 C99.9044336,32.94956 99.1332715,33.07668 98.6192578,33.23544 C97.9123828,33.18252 97.1307422,33.19288 96.263291,33.26708 L94.4105762,33.42584 L93.5538867,33.33064 C93.511123,32.7908 94.5711523,30.13304 96.7557812,25.36856 C97.3878906,23.75912 97.9659082,22.75336 98.5229687,22.37228 C98.6407812,22.36164 98.8121191,22.40392 99.0477441,22.49912 L100.364922,22.05448 L101.039512,22.16032 C102.17459,22.06512 103.491768,21.7476 105.001807,21.19684 C105.376768,21.1652 105.655156,21.18648 105.858496,21.27104 L106.865283,21.03808 L109.863838,20.78412 C111.137969,20.67828 112.519434,20.40276 114.018711,19.94748 L113.986709,19.6406 C113.429932,19.69352 113.140781,19.59832 113.119258,19.37572 C113.087256,18.963 112.680293,18.7936 111.898369,18.85688 L111.866367,18.55 L112.691055,18.31704 L114.85416,18.137 L114.821875,17.83012 C114.736348,17.84048 114.297383,17.83012 113.483457,17.7982 L113.451172,17.47004 L114.286621,17.39584 C114.511484,17.37484 114.607773,17.26872 114.586533,17.05704 C113.461934,17.08896 112.894395,17.03604 112.883633,16.88764 C105.04457,17.26872 101.114561,17.34292 101.093037,17.09932 C100.975225,17.10996 100.814648,17.18416 100.600547,17.31128 L100.396924,16.99348 C102.474502,12.63136 103.695391,10.42916 104.048828,10.39724 C104.059307,10.56664 103.973779,10.84188 103.780918,11.2126 L103.79168,11.35008 L104.123594,11.31844 C104.948281,9.3702 105.644395,8.36444 106.222695,8.32216 C108.685713,8.1102 105.88002,7.95144 111.14873,7.13636 C111.363115,7.23156 111.51293,7.27384 111.61998,7.2632 C113.686797,6.85048 116.567539,6.4162 120.262207,5.97156 L120.240684,5.6644 L118.270156,5.84444 L118.248916,5.53756 C118.484541,5.51628 118.677119,5.44208 118.837979,5.31524 L118.848457,5.48464 C118.955791,5.474 119.105605,5.3998 119.298467,5.27268 C119.641143,5.24104 119.898008,5.27268 120.080107,5.36816 C120.765459,5.18812 121.322236,5.08228 121.729199,5.03972 L122.96085,4.92324 C123.260762,4.73284 123.399814,4.56344 123.389336,4.40468 L123.378574,4.26692 C123.0679,4.29856 122.714463,4.27756 122.297021,4.20336 C122.28626,4.03396 122.371787,3.91748 122.57541,3.86456 L124.86709,3.65288 L125.916641,3.388 C125.927119,3.50448 125.980928,3.54704 126.066455,3.54704 C126.173506,3.5364 126.323604,3.4622 126.516182,3.33508 C126.569707,3.34572 126.633994,3.34572 126.68752,3.35636 C126.548467,3.64224 126.387607,4.05524 126.227031,4.59508 L125.927119,4.61636 C125.905879,4.41504 125.852354,4.23528 125.755781,4.07624 L125.605967,4.08688 C122.821514,11.75244 121.579385,15.32076 119.009316,21.20748 C118.538066,22.71108 118.141865,23.54744 117.799189,23.72748 C117.809951,23.89688 117.917002,23.98144 118.099102,23.96044 C118.163105,24.7016 117.991768,25.43212 117.574326,26.152 C116.385439,29.54028 115.593037,31.39304 115.186074,31.73184 L115.453701,33.33064 C115.464463,33.50004 115.378936,33.59524 115.196836,33.61652 L114.918447,33.6378 C114.8754,33.19288 114.714824,32.9812 114.425674,33.01312 L114.275859,33.02376 C113.91166,33.58488 113.633271,34.23056 113.451172,34.98236 L113.729561,34.96108 C114.104521,34.71776 114.275859,34.43188 114.243574,34.10344 L114.800635,34.05052 L115.121787,34.167 C114.864922,34.56936 114.747109,34.88716 114.76835,35.13048 L114.918447,35.38472 L114.554248,36.23172 L114.56501,36.36948 C114.886162,36.33756 115.2396,36.4434 115.614561,36.66572 C115.871426,36.64472 116.149814,36.52824 116.460488,36.32692 C116.781641,36.29528 117.981006,36.28464 120.048105,36.28464 L121.086611,35.9352 C122.350547,35.92456 122.553887,35.95648 123.646201,35.86128 L124.095928,35.81872 L124.331553,35.65996 L124.342314,35.79772 C125.488154,35.70224 125.563203,35.77644 126.462656,35.88228 L126.473418,36.02004 L125.841592,36.07296 L125.862832,36.33756 C126.055693,36.31656 126.227031,36.26336 126.366367,36.14716 C126.526943,36.13652 126.623232,36.22108 126.633994,36.41176 C126.377129,36.43304 126.087979,36.49632 125.766543,36.60244 L125.488154,36.50696 C125.049189,36.62344 125.145479,36.65536 124.845566,36.67636 L124.406602,36.5918 C124.417363,36.66572 124.374316,36.71864 124.299551,36.71864 C124.310029,36.88832 124.406602,36.97288 124.567178,36.96224 L125.016904,36.91996 L127.362109,36.71864 L128.251084,36.52824 C128.261846,36.60244 128.293848,36.64472 128.368896,36.63408 L128.7971,36.47532 L129.600547,36.41176 C130.221611,36.35884 130.21085,36.31656 131.560029,36.1046 C131.549551,36.02004 131.581553,35.98812 131.64584,35.97776 L131.656602,36.09396 C133.851992,35.72352 133.991045,35.70224 134.344482,35.58576 L134.376484,35.64932 C134.922783,35.52248 134.612109,35.55412 134.762207,35.44828 C134.772969,35.54348 134.804971,35.58576 134.858496,35.58576 L135.243936,35.55412 L135.222695,35.26824 L134.440771,35.2576 L134.430293,35.2366 C134.398008,35.24696 134.376484,35.24696 134.344482,35.2576 L134.237432,35.2576 L134.237432,35.27888 C133.712656,35.38472 133.701895,35.31052 133.359219,35.34244 L131.399453,35.44828 L131.388691,35.31052 L132.481006,35.1624 L132.877207,35.13048 L133.102354,34.97172 L133.112832,35.10948 C134.655156,34.98236 135.201172,35.36344 142.333359,33.86012 C142.718799,33.8282 142.686797,33.51068 142.933184,32.85408 C142.804609,32.86472 142.676035,32.83308 142.558223,32.76952 C141.969443,32.99184 141.65877,32.886 140.523691,33.06604 C140.427119,33.07668 140.352354,32.99184 140.320068,32.82244 L140.309307,32.70596 L141.401621,32.7376 C141.605244,32.7166 142.001445,32.68468 142.590508,32.35652 C142.590508,32.452 142.376123,32.50492 142.504697,32.49428 L142.504697,32.49428 L142.504697,32.49428 Z M89.7736914,33.33064 L89.2701562,33.37292 C89.248916,33.17188 89.516543,32.40944 90.0733203,31.10716 L90.4055176,31.07552 C90.4162793,31.3824 90.2126562,32.1342 89.7736914,33.33064 L89.7736914,33.33064 L89.7736914,33.33064 Z M90.3839941,30.91676 L90.3732324,30.779 C90.3624707,30.6096 90.4698047,30.49312 90.7054297,30.4402 L90.7159082,30.57768 C90.7266699,30.779 90.6196191,30.89548 90.3839941,30.91676 L90.3839941,30.91676 L90.3839941,30.91676 Z M97.0772168,36.03068 L97.0879785,36.16816 L96.2525293,36.24236 L96.2417676,36.1046 L97.0772168,36.03068 L97.0772168,36.03068 L97.0772168,36.03068 Z M96.0704297,35.94584 C96.0811914,36.11524 95.8243262,36.30592 95.2672656,36.49632 L94.2392383,36.4224 L93.9073242,36.45404 L93.8753223,36.14716 L96.0704297,35.94584 L96.0704297,35.94584 L96.0704297,35.94584 Z M102.838701,5.14584 L102.335166,5.18812 L102.324688,5.01872 C102.313926,4.84932 102.410215,4.73284 102.624316,4.67992 L102.806416,4.66928 L103.149092,4.80676 C103.159854,5.00808 103.063564,5.12456 102.838701,5.14584 L102.838701,5.14584 L102.838701,5.14584 Z M110.495664,3.66352 L110.65624,3.65288 L110.67748,3.95976 L110.216992,4.00232 C110.206514,3.83292 110.292041,3.71644 110.495664,3.66352 L110.495664,3.66352 L110.495664,3.66352 Z M108.5679,4.33048 L107.8075,4.24564 L107.796738,4.10816 C108.792764,4.02332 109.124678,3.91748 109.735264,3.74808 C109.746025,3.86456 109.853076,3.90684 110.045654,3.88584 L110.067178,4.19272 L109.767266,4.22464 C109.531641,4.24564 109.328301,4.214 109.156963,4.1188 C108.974863,4.23528 108.782002,4.3092 108.5679,4.33048 L108.5679,4.33048 L108.5679,4.33048 Z M109.521162,7.0728 L109.5104,6.93504 L110.741768,6.81856 L110.752529,6.95632 L109.521162,7.0728 L109.521162,7.0728 L109.521162,7.0728 Z M110.83834,6.01384 L110.827578,5.84444 L111.427119,5.79152 L111.437881,5.96092 L110.83834,6.01384 L110.83834,6.01384 L110.83834,6.01384 Z M110.977393,3.93876 L110.816816,3.9494 L110.956152,3.62096 L112.326855,3.49412 L112.337617,3.66352 C111.98418,3.69516 111.523691,3.79036 110.977393,3.93876 L110.977393,3.93876 L110.977393,3.93876 Z M111.673506,6.86084 L111.651982,6.55396 L112.251807,6.50104 C112.45543,6.47976 112.56248,6.57496 112.573242,6.78692 L111.673506,6.86084 L111.673506,6.86084 L111.673506,6.86084 Z M115.303887,1.96924 L114.532725,2.1812 L114.393672,2.19156 C114.029473,2.22348 113.558223,2.21284 113.001445,2.15992 C113.997471,2.09636 114.950449,2.02216 115.303887,1.96924 L115.303887,1.96924 L115.303887,1.96924 Z M114.479199,5.35752 L114.489961,5.495 L113.429932,5.59048 L113.41917,5.45272 L114.479199,5.35752 L114.479199,5.35752 L114.479199,5.35752 Z M116.214102,6.1726 C116.20334,6.04576 116,5.96092 115.582275,5.91864 L114.522246,6.21516 L113.70832,6.2468 C113.526221,6.11968 113.429932,6.03512 113.41917,5.97156 L114.36167,6.02448 L116.482012,5.68568 L117.563564,5.72796 L117.574326,5.89736 C117.038789,5.95028 116.589063,6.04576 116.214102,6.1726 L116.214102,6.1726 L116.214102,6.1726 Z M127.126768,3.388 C127.255059,3.39864 127.340869,3.39864 127.372871,3.39864 C127.747832,3.03884 128.165557,2.75296 128.647285,2.55164 C128.261846,4.22464 127.662021,5.46336 126.837617,6.26808 L126.237793,5.908 C126.741045,4.648 127.040957,3.81164 127.126768,3.388 L127.126768,3.388 L127.126768,3.388 Z M125.284814,6.51168 L125.434629,6.50104 C125.231006,6.88212 125.049189,7.08316 124.899092,7.0938 L124.86709,6.69144 C124.963379,6.69144 125.102715,6.62788 125.284814,6.51168 L125.284814,6.51168 L125.284814,6.51168 Z M124.095928,9.31728 C124.385078,8.17376 124.663467,7.52808 124.920615,7.35868 L124.931377,7.49616 C124.781279,8.55512 124.545654,9.11624 124.235264,9.15852 L124.288789,9.82548 C124.031641,10.18556 123.913828,10.4608 123.92459,10.67248 L123.774775,10.68312 L123.688965,9.76192 C123.860303,9.74092 123.999639,9.59252 124.095928,9.31728 L124.095928,9.31728 L124.095928,9.31728 Z M123.635439,10.84188 C123.646201,11.00092 123.53915,11.37136 123.325049,11.94312 L123.174951,11.95376 L123.142949,11.5514 C123.346289,11.08548 123.517627,10.85252 123.635439,10.84188 L123.635439,10.84188 L123.635439,10.84188 Z M114.993496,35.63868 L114.982734,35.52248 L115.261123,35.5012 L115.293125,35.90356 C115.143311,35.9142 115.03626,35.82936 114.993496,35.63868 L114.993496,35.63868 L114.993496,35.63868 Z M127.340869,35.95648 C127.330107,35.86128 127.287344,35.81872 127.191055,35.82936 L126.494941,35.89292 L126.48418,35.75516 L126.548467,35.75516 L128.197559,35.61768 L128.20832,35.75516 C127.726309,35.77644 127.437158,35.85064 127.340869,35.95648 L127.340869,35.95648 L127.340869,35.95648 Z M126.516182,35.61768 C126.580469,35.64932 126.548467,35.68124 126.516182,35.70224 C126.48418,35.69188 126.441416,35.65996 126.516182,35.61768 L126.516182,35.61768 L126.516182,35.61768 Z M126.601992,33.71172 L125.681016,33.78592 L125.670254,33.64816 L126.50542,33.57424 L127.233818,33.3942 C127.24458,33.47876 127.287344,33.51068 127.383633,33.50004 C128.251084,33.35192 128.165557,33.30964 128.582998,33.27772 C128.722334,33.26708 128.808145,33.35192 128.818623,33.52132 L126.601992,33.71172 L126.601992,33.71172 L126.601992,33.71172 Z M129.82541,33.43648 C129.311396,33.38356 129.279111,33.34128 128.915195,33.37292 L128.904434,33.25644 L129.728838,33.18252 L129.7396,33.299 C129.654072,33.30964 129.964463,33.33064 129.82541,33.43648 L129.82541,33.43648 L129.82541,33.43648 Z M129.889697,33.28836 L129.878936,33.17188 L130.328662,33.1296 L130.339424,33.24608 L129.889697,33.28836 L129.889697,33.28836 L129.889697,33.28836 Z M130.885439,33.20352 L130.874961,33.08704 C130.949727,33.07668 131.056777,33.02376 131.196113,32.91764 C131.420977,32.89664 131.538789,33.04476 131.560312,33.21416 L130.885439,33.20352 L130.885439,33.20352 L130.885439,33.20352 Z M132.159854,33.04476 L132.149092,32.90728 L132.695391,32.86472 L132.706152,33.00248 L132.159854,33.04476 L132.159854,33.04476 L132.159854,33.04476 Z M132.920254,32.9812 C132.909492,32.82244 132.973779,32.72724 133.113115,32.70596 L133.294932,32.93892 C133.284453,32.86472 133.316455,32.82244 133.380742,32.8118 L133.520078,33.06604 L132.920254,32.9812 L132.920254,32.9812 L132.920254,32.9812 Z M124.835088,36.43304 L124.813564,36.16816 L124.727754,36.1788 L124.749277,36.4434 L124.835088,36.43304 L124.835088,36.43304 L124.835088,36.43304 Z M143.65082,31.61536 C143.736348,31.56244 143.779111,31.50952 143.575771,31.47788 C143.479199,31.58372 143.682822,31.61536 143.468721,31.626 L143.479199,31.7212 C143.500723,31.7002 143.554248,31.66828 143.597012,31.63664 L143.479199,31.73184 L143.479199,31.74248 L143.254336,32.02836 L143.704062,31.8696 L143.757871,31.8696 L143.736348,31.60472 L143.65082,31.61536 L143.65082,31.61536 L143.65082,31.61536 Z M144.432461,32.21904 L144.34665,32.22968 L144.368174,32.49428 L145,32.44136 C144.989238,32.27196 144.571514,32.21904 144.432461,32.21904 L144.432461,32.21904 L144.432461,32.21904 Z M143.457959,31.75312 L143.468721,31.74248 L143.468721,31.73184 C143.468721,31.73184 143.457959,31.74248 143.457959,31.75312 L143.457959,31.75312 L143.457959,31.75312 Z" id="Shape" fill="#000000"></path>
                <path d="M102.345928,12.1548 L102.356689,12.3242 L102.710127,12.29256 C102.699365,12.18672 102.742129,12.01732 102.817178,11.80536 L102.785176,11.49848 C102.635078,11.50912 102.485264,11.73144 102.345928,12.1548 L102.345928,12.1548 L102.345928,12.1548 Z M98.9619336,4.10816 L98.9299316,3.801 L98.4263965,3.84328 L98.4586816,4.15044 L98.9619336,4.10816 L98.9619336,4.10816 L98.9619336,4.10816 Z M89.1418652,22.28744 C89.1203418,22.00156 88.2208887,20.88996 86.4432227,18.93108 C86.4109375,18.57128 87.0215234,18.03116 88.2744141,17.32192 L91.8512695,14.2408 C92.6544336,13.23476 93.1254004,11.60432 93.2647363,9.33856 L93.2219727,8.81972 C93.0826367,7.25256 91.9367969,5.99284 89.7629297,5.02936 C88.4777539,4.17172 86.1645508,3.69516 82.8236035,3.61032 C80.0606738,3.84328 76.4515332,4.8174 72.0075098,6.54332 C70.7866211,7.4116 69.3943945,8.2796 67.8308301,9.14788 L67.8523535,9.41276 C67.9486426,9.40212 68.098457,9.3492 68.2700781,9.23272 C68.4518945,9.21144 68.5592285,9.29628 68.569707,9.46568 L68.8376172,9.32792 L68.9659082,9.31728 L68.9766699,9.43376 C68.9874316,9.57152 68.0236914,10.32304 66.0746875,11.66788 L66.224502,11.94312 L66.0959277,11.95376 L65.7747754,11.83728 C65.7855371,11.93248 65.6462012,11.99604 65.3785742,12.01732 L65.3893359,12.1338 L65.6997266,12.51488 C65.6034375,12.52552 65.453623,12.48324 65.25,12.40904 C64.8002734,12.45132 64.3610254,12.68428 63.9220605,13.12892 L64.1041602,12.34548 C64.7575098,9.56088 65.2072363,7.0938 65.4428613,4.95516 L65.4105762,4.8174 C64.9608496,4.53152 64.5218848,4.12916 64.1149219,3.62096 C64.1256836,3.2928 64.1256836,3.10212 64.1149219,3.05984 L64.0826367,2.94336 L63.9543457,2.97528 C62.5405957,5.07164 59.8204297,8.65032 55.7833691,13.71132 C52.7097656,17.31128 51.1246777,19.31216 51.0283887,19.71452 C49.775498,20.9958 49.1756738,21.7686 49.2399609,22.03348 C48.9080469,22.24516 48.7687109,22.45684 48.8225195,22.6898 C48.7259473,22.71108 48.6616602,22.67916 48.6404199,22.58396 C48.1048828,23.4416 47.3124805,23.99208 46.252168,24.23568 L45.1383301,24.48964 C44.9885156,24.52156 44.9134668,24.6274 44.9242285,24.80744 L44.9565137,24.94492 L45.3739551,24.84972 L45.4062402,24.9662 L44.4637402,25.32628 L42.793125,25.70736 L41.9151953,25.76028 C41.7866211,25.8874 42.6110254,25.74964 42.289873,25.82384 L41.1975586,26.07808 C40.5337305,26.2262 40.1695312,26.17328 40.1052441,25.90868 L39.9766699,25.94032 C39.9981934,26.0568 40.0089551,26.14136 39.9874316,26.21556 L39.9231445,25.95096 L39.0449316,26.152 C38.9809277,25.74964 37.792041,24.2886 35.4895996,21.7686 C35.4468359,21.28168 36.2607617,20.57216 37.9206152,19.65124 L42.6110254,15.57472 C43.6605762,14.2408 44.2816406,12.10188 44.4852637,9.15852 L44.4209766,8.47028 C44.238877,6.3952 42.7183594,4.7222 39.8588574,3.43056 C38.167002,2.29768 35.1256836,1.694 30.7349023,1.5988 C27.0937598,1.90568 22.3390625,3.18696 16.4917676,5.42108 C14.8854395,6.57496 13.054248,7.71848 10.9981934,8.85136 L11.0301953,9.21144 C11.1695312,9.2008 11.3516309,9.12688 11.5764941,8.99976 C11.8121191,8.97848 11.9406934,9.08432 11.9619336,9.29628 L12.3261328,9.09496 L12.5082324,9.08432 L12.5187109,9.25372 C12.5294727,9.42312 11.2550586,10.40788 8.67422852,12.20772 L8.87785156,12.52552 L8.69575195,12.53616 L8.29955078,12.3984 C8.3103125,12.50424 8.12821289,12.57844 7.75325195,12.61008 L7.77477539,12.80076 L8.20297852,13.26668 C8.06392578,13.27732 7.87106445,13.23476 7.62496094,13.1502 C6.78951172,13.22412 5.97558594,13.81716 5.17242187,14.9394 L5.37604492,15.2572 C6.0721582,14.62188 6.47883789,14.30436 6.59665039,14.29372 L6.63969727,14.81256 C6.52188477,14.82292 6.33978516,14.89712 6.09339844,15.02424 L6.53264648,15.68056 C7.37857422,14.78064 8.3103125,14.00784 9.32757812,13.36188 C9.83083008,13.489 10.0987402,13.64776 10.1092187,13.81716 L10.4949414,13.78552 C13.2578711,11.76308 15.9885156,10.30204 18.6979199,9.40212 L18.7302051,9.76192 C18.2266699,10.50308 17.8839941,10.88444 17.7018945,10.90544 C17.723418,11.15968 17.8092285,11.382 17.9698047,11.57268 C18.0125684,12.02796 16.780918,15.09844 14.2858984,20.77348 C8.62070312,33.96596 3.86600586,43.72788 0,50.03824 C0.0107617187,50.16536 0.0858105469,50.33476 0.224863281,50.54644 C1.178125,50.32412 1.77766602,50.09144 2.03481445,49.86884 L2.2381543,49.84784 L2.27043945,50.20764 L2.62359375,50.176 L2.98779297,49.97496 C2.99855469,50.0808 3.11636719,50.13372 3.36275391,50.11244 L3.39475586,50.47252 C3.42675781,50.82196 3.22341797,51.35116 2.79493164,52.08168 C2.40949219,52.51596 1.99176758,53.42652 1.55280273,54.81364 L1.56356445,54.98276 L1.91700195,54.95112 C3.45904297,53.24648 4.62640625,51.57348 5.42957031,49.94304 C9.92740234,48.64076 13.3541602,47.35948 15.7316504,46.09976 C18.1196191,45.89844 19.9400488,45.27376 21.1824609,44.24672 L21.1609375,44.05632 L20.2614844,44.32092 L20.0578613,44.3422 L20.0366211,44.15152 C21.7927637,43.88692 23.0028906,43.50556 23.6777637,42.97636 C27.0937598,40.37152 29.6745898,38.5294 31.4202539,37.4388 C35.0078711,34.83424 37.3423145,32.29296 38.402627,29.82616 C38.5952051,29.7836 38.7880664,29.74132 39.002168,29.6884 C39.5054199,29.6674 39.7840918,29.65676 39.8588574,29.63548 C39.8376172,29.54028 39.8803809,29.48736 39.9766699,29.46608 C40.779834,29.38152 40.3943945,29.519 40.9084082,29.40252 L42.2578711,29.09564 L42.4827344,29.04244 L42.3756836,29.106 C42.525498,29.12728 42.6860742,29.11664 42.8681738,29.07436 L42.9644629,29.46608 L36.8283008,39.11152 L35.4683594,40.79516 L34.804248,42.99736 L34.9328223,42.96572 L35.5966504,42.69048 L35.3825488,43.54812 L35.4468359,43.80208 L35.6289355,44.0244 C35.543125,44.04568 35.511123,44.0986 35.5323633,44.1938 L35.5646484,44.33156 L35.8430371,44.268 C36.25,43.91856 36.4213379,43.60104 36.3570508,43.31516 C36.7960156,43.38908 37.085166,43.421 37.2352637,43.37872 L37.2672656,43.5162 C36.9996387,43.57976 36.8603027,43.79144 36.8390625,44.15152 L36.8710645,44.289 L37.0211621,44.25736 C39.2485547,41.85384 44.710127,33.62716 49.0901465,28.04732 C48.9508105,27.44392 51.2320117,26.60728 55.9439453,25.52732 L56.0937598,25.49568 C56.2650977,26.2262 55.9011816,27.9944 55.0014453,30.80028 C54.4231445,32.49428 54.1447559,33.42584 54.1875195,33.57424 C53.4378809,35.82936 53.0844434,37.04708 53.1274902,37.23748 L51.456875,42.64792 C50.3750391,45.42216 49.5506348,48.3336 48.972334,51.40408 C49.068623,51.38308 49.2187207,51.39372 49.4328223,51.44664 L49.6684473,51.24532 C49.6896875,51.3408 49.7539746,51.37244 49.8505469,51.35116 L49.7539746,50.95944 L50.482373,50.93844 C50.6964746,50.88552 50.8785742,50.62064 51.0283887,50.13372 C50.9963867,49.4032 51.1462012,49.01148 51.4781152,48.92664 C51.9278418,47.19036 52.2065137,46.32208 52.3028027,46.29016 C52.7205273,44.56452 53.030918,43.57976 53.234541,43.33616 C53.8663672,41.09168 54.3268555,39.93752 54.6267676,39.86332 L54.6910547,40.13856 L54.2305664,41.314 C53.4271191,44.83976 52.6134766,47.62436 51.7887891,49.6678 L52.0244141,50.6842 L52.1742285,50.65256 C54.1662793,46.41728 57.0362598,38.03156 60.7736914,25.49568 C60.8807422,24.39444 61.4162793,23.5368 62.3692578,22.9334 L62.1551562,22.71108 L62.1228711,22.5946 C62.5513574,22.49912 62.8512695,22.33 63.0226074,22.09704 C63.001084,22.00156 62.6264062,21.86408 61.8980078,21.6734 L63.7614844,13.77488 C64.1684473,13.4148 64.4040723,13.2244 64.4788379,13.2244 L64.511123,13.62648 C64.414834,13.63712 64.2647363,13.69004 64.0933984,13.80652 L64.4468359,14.30436 C65.0894238,13.61612 65.7855371,13.02308 66.5456543,12.52552 C66.931377,12.63136 67.1239551,12.75848 67.1454785,12.88532 L67.4238672,12.86432 C69.544209,11.32908 71.6217871,10.22784 73.6673633,9.56088 L73.6886035,9.82548 C73.3139258,10.3866 73.0567773,10.67248 72.9177246,10.68312 C72.9389648,10.8738 72.9924902,11.0432 73.0890625,11.19132 C73.1210645,11.54076 72.2000879,13.87008 70.3153711,18.18992 C66.0104004,28.19544 62.4012598,35.5964 59.4669922,40.40344 C59.4777539,40.49864 59.542041,40.62576 59.6598535,40.79516 C60.3774902,40.62576 60.8379785,40.44572 61.0200781,40.27632 L61.1483691,40.26568 L61.1698926,40.53028 L61.4698047,40.50928 L61.7374316,40.37152 C61.7481934,40.44572 61.8444824,40.47736 62.026582,40.467 L62.0481055,40.75288 C62.0693457,41.00684 61.9195312,41.4092 61.5876172,41.95968 C61.2769434,42.28812 60.955791,42.97636 60.6131152,44.0244 L60.6235937,44.16216 L60.9022656,44.14088 C62.0693457,42.84924 62.9583203,41.5786 63.568623,40.32924 C66.9849023,39.33412 69.5872559,38.37036 71.3861621,37.41752 C73.2176367,37.25876 74.5988184,36.79284 75.5413184,36.0094 L75.5305566,35.87164 L74.8344434,36.07296 L74.6846289,36.0836 L74.6738672,35.94584 C76.0018066,35.75516 76.9335449,35.45892 77.4367969,35.0672 C80.0283887,33.09768 81.9881543,31.68956 83.3160937,30.86356 C87.4497266,27.88856 89.3774902,25.02976 89.1418652,22.28744 L89.1418652,22.28744 L89.1418652,22.28744 Z M88.4349902,22.46748 L88.5312793,23.5368 C88.4029883,23.80168 88.2636523,23.93916 88.1350781,23.9498 L87.974502,22.12868 C88.2744141,22.23452 88.4242285,22.34036 88.4349902,22.46748 L88.4349902,22.46748 L88.4349902,22.46748 Z M7.34628906,13.84908 L7.16447266,13.85944 L7.1321875,13.53128 L7.87106445,13.46772 L7.88182617,13.63712 C7.76401367,13.64776 7.58191406,13.71132 7.34628906,13.84908 L7.34628906,13.84908 L7.34628906,13.84908 Z M3.73743164,49.54068 C3.30922852,49.35 2.92350586,49.27608 2.5915918,49.30772 L2.54882812,48.78888 C2.52730469,48.58784 2.64511719,48.45008 2.90226562,48.39716 C3.13760742,48.37616 3.27694336,48.54556 3.2984668,48.88436 C3.91953125,48.13256 4.26220703,47.75148 4.32649414,47.74084 L4.72269531,47.8996 C4.59412109,48.95828 4.26220703,49.4984 3.73743164,49.54068 L3.73743164,49.54068 L3.73743164,49.54068 Z M42.3006348,9.65608 C42.1185352,9.67736 41.7543359,9.11624 41.2298437,8.00436 L41.1975586,7.6762 C41.5402344,7.64456 41.8936719,8.19504 42.2683496,9.32792 L42.3006348,9.65608 L42.3006348,9.65608 L42.3006348,9.65608 Z M41.7866211,5.70696 L41.6365234,6.0564 L36.3998145,3.8962 C39.8911426,4.01268 41.690332,4.61636 41.7866211,5.70696 L41.7866211,5.70696 L41.7866211,5.70696 Z M19.6724219,24.47928 L18.9335449,24.54284 L18.901543,24.2144 L19.6404199,24.15084 L19.6724219,24.47928 L19.6724219,24.47928 L19.6724219,24.47928 Z M19.0725977,13.20312 L19.2546973,13.19248 L19.2977441,13.71132 C19.1264063,13.72196 18.901543,13.97592 18.6228711,14.46312 L18.5908691,14.10304 C18.9227832,13.71132 19.0941211,13.4148 19.0725977,13.20312 L19.0725977,13.20312 L19.0725977,13.20312 Z M17.5197949,16.82408 L17.584082,17.51232 L17.4022656,17.52296 L17.3379785,16.83472 L17.5197949,16.82408 L17.5197949,16.82408 L17.5197949,16.82408 Z M16.7061523,18.116 L17.0595898,18.08408 C17.0273047,18.65584 16.8667285,18.963 16.5775781,18.984 L16.3954785,18.99464 C16.6203418,18.61356 16.7273926,18.31704 16.7061523,18.116 L16.7061523,18.116 L16.7061523,18.116 Z M16.0955664,19.91584 L16.2991895,19.89456 L16.309668,20.06396 L15.9777539,20.61472 L15.6243164,20.64636 L15.6138379,20.47696 C15.9672754,20.44532 16.1278516,20.26528 16.0955664,19.91584 L16.0955664,19.91584 L16.0955664,19.91584 Z M15.4960254,21.53592 L15.3889746,22.40392 L15.206875,22.41456 L15.1318262,21.55692 L15.4960254,21.53592 L15.4960254,21.53592 L15.4960254,21.53592 Z M9.4881543,38.42356 C9.2525293,39.60936 8.99566406,40.21276 8.72775391,40.23404 L8.71727539,40.06464 C8.65298828,39.48224 8.90985352,38.93176 9.4881543,38.42356 L9.4881543,38.42356 L9.4881543,38.42356 Z M8.38507813,40.78452 L8.39583984,40.95392 C8.41736328,41.18688 8.3103125,41.32464 8.0746875,41.335 L8.06392578,41.1656 C8.04240234,40.96456 8.14945313,40.83744 8.38507813,40.78452 L8.38507813,40.78452 L8.38507813,40.78452 Z M8.06392578,45.68676 L8.62070312,45.63384 L8.64222656,45.82452 C8.50289062,45.83488 8.32079102,45.90908 8.09592773,46.0362 L7.74249023,46.06784 C7.72125,45.8878 7.8390625,45.75032 8.06392578,45.68676 L8.06392578,45.68676 L8.06392578,45.68676 Z M23.9131055,40.84808 C20.7862598,42.37268 18.9443066,43.41036 18.3980078,43.9502 C15.0140137,45.115 13.3326367,45.83488 13.3649219,46.12076 C10.3556055,47.2962 8.37431641,48.1642 7.42133789,48.70432 C7.19647461,48.72532 6.87532227,48.64076 6.44683594,48.45008 C6.39331055,47.84668 6.67169922,47.35948 7.26076172,46.96776 C7.78553711,46.92548 8.28878906,46.99968 8.77080078,47.20072 C9.32757812,46.91484 10.3020801,46.59732 11.6835449,46.25852 L11.651543,45.89844 L10.5377051,45.99364 C10.6767578,45.80324 11.747832,45.30568 13.761123,44.50096 L14.3179004,44.44804 L14.3286621,44.61744 C13.3756836,44.702 12.8509082,44.97724 12.7330957,45.47508 C12.7543359,45.6974 12.8829102,45.7926 13.1185352,45.77132 C13.8361719,45.32668 14.1893262,45.06208 14.1788477,44.98788 C15.5387891,44.73392 19.2977441,42.78568 25.4554297,39.15408 L25.4874316,39.48224 C25.4981934,39.641 24.973418,40.08564 23.9131055,40.84808 L23.9131055,40.84808 L23.9131055,40.84808 Z M14.467998,43.91856 C15.3674512,43.84436 16.1386133,43.48456 16.780918,42.85988 C17.0380664,42.8386 17.1774023,42.9338 17.1878809,43.15612 C16.748916,43.19868 15.9029883,43.55848 14.6713379,44.25736 L14.4892383,44.268 L14.467998,43.91856 L14.467998,43.91856 L14.467998,43.91856 Z M29.706875,32.34588 L24.9841797,36.05168 C21.4716113,38.32808 19.5868945,39.4716 19.3082227,39.49288 C13.7183594,42.53144 10.237793,44.10924 8.88861328,44.22572 L8.68499023,44.24672 C8.85632812,43.62204 11.3408691,38.59296 16.1598535,29.12728 C18.2801953,28.94724 21.6214258,27.97312 26.1727832,26.19456 L27.2866211,26.09908 C29.5890625,25.89804 31.3132031,26.34268 32.4482813,27.40136 L32.5125684,28.0896 C31.6666406,30.5144 30.7241406,31.93316 29.706875,32.34588 L29.706875,32.34588 L29.706875,32.34588 Z M20.4755859,27.21096 L21.2359863,27.1474 L21.246748,27.3168 L20.4863477,27.38036 L20.4755859,27.21096 L20.4755859,27.21096 L20.4755859,27.21096 Z M31.152627,25.42148 L31.7094043,25.36856 C32.223418,25.61216 32.4910449,25.82384 32.5125684,26.01452 L32.5233301,26.18392 C32.0305566,26.2262 31.5700684,25.97196 31.152627,25.42148 L31.152627,25.42148 L31.152627,25.42148 Z M32.6623828,16.91956 C32.1698926,17.50168 30.8204297,18.49708 28.6145605,19.89456 C27.8861621,19.95812 25.1767578,20.9958 20.4863477,23.0286 C20.2507227,22.92276 20.0043359,22.88048 19.736709,22.90148 L19.704707,22.57332 C19.6511816,21.90636 19.9508105,21.07 20.6149219,20.0536 C20.9788379,18.14764 21.3753223,17.05704 21.8142871,16.79244 L25.7230566,8.09984 C25.680293,7.55972 26.515459,7.14672 28.2288379,6.86084 L28.7858984,6.80792 L28.8286621,7.30576 C30.5100391,7.05152 31.5593066,6.9034 31.9662695,6.87148 C35.0721582,6.60688 36.6889648,7.23156 36.8175391,8.72452 L37.1709766,8.6926 L37.0959277,7.81396 L37.4816504,7.78204 C38.3918652,8.2796 38.8843555,8.88328 38.9486426,9.59252 C38.9914062,10.07972 38.7237793,10.68312 38.1562402,11.40328 C37.9206152,11.42428 37.7812793,11.25488 37.7600391,10.91608 L37.3743164,10.948 L37.2887891,12.00668 C35.7144629,14.336 34.568623,15.53244 33.8620313,15.596 C33.2194434,16.47464 32.8232422,16.90892 32.6623828,16.91956 L32.6623828,16.91956 L32.6623828,16.91956 Z M35.0613965,23.0076 C34.7399609,22.79564 34.4830957,22.70044 34.2902344,22.71108 L34.2474707,22.19224 L34.6009082,22.16032 L35.3825488,22.61588 C35.414834,22.8592 35.3075,22.98632 35.0613965,23.0076 L35.0613965,23.0076 L35.0613965,23.0076 Z M37.5459375,25.91904 C37.8886133,26.0568 38.0919531,26.20492 38.1347168,26.34268 L37.9633789,26.38496 L37.9741406,26.3956 C37.9421387,26.3956 37.8990918,26.40624 37.8670898,26.41688 L37.6099414,26.61792 L37.5459375,25.91904 L37.5459375,25.91904 L37.5459375,25.91904 Z M37.7812793,27.38036 L37.7492773,27.2426 L38.1990039,27.13676 L38.2312891,27.27452 L37.7812793,27.38036 L37.7812793,27.38036 L37.7812793,27.38036 Z M38.8631152,28.5768 C39.3236035,28.5026 39.5484668,28.47096 40.4051563,28.28028 L40.4371582,28.41776 L38.8095898,28.78848 C38.8308301,28.71428 38.8523535,28.64036 38.8631152,28.5768 L38.8631152,28.5768 L38.8631152,28.5768 Z M40.4479199,29.24376 C39.7625684,29.30732 39.9123828,29.22248 38.8200684,29.46608 L38.7880664,29.32832 L40.1587695,28.89432 L40.8121191,28.7462 L40.8764063,29.00016 C40.5764941,29.06372 40.7905957,29.06372 40.4479199,29.24376 L40.4479199,29.24376 L40.4479199,29.24376 Z M41.8936719,28.90496 C41.7330957,28.94724 41.6045215,28.87332 41.5294727,28.69328 L41.9471973,28.5978 C42.1292969,28.55552 42.2471094,28.62972 42.289873,28.80976 L41.8936719,28.90496 L41.8936719,28.90496 L41.8936719,28.90496 Z M45.8132031,24.73324 L45.780918,24.59576 L46.455791,24.43672 L46.5200781,24.69096 L45.8132031,24.73324 L45.8132031,24.73324 L45.8132031,24.73324 Z M50.0003613,50.12308 C50.043125,49.9324 50.0538867,49.79492 50.0323633,49.69944 L50.1824609,49.6678 C50.3645605,49.62552 50.4716113,49.68908 50.514375,49.85848 L50.5466602,49.99596 L50.0003613,50.12308 L50.0003613,50.12308 L50.0003613,50.12308 Z M52.9346289,25.82384 L52.6347168,25.77092 C52.1529883,25.9616 51.7460254,26.09908 51.4138281,26.17328 L51.1354395,26.23684 C50.9748633,26.27912 50.8462891,26.21556 50.782002,26.04616 L52.7417676,25.60152 L53.3843555,25.305 L53.5987402,25.5486 C53.2880664,25.61216 53.0632031,25.70736 52.9346289,25.82384 L52.9346289,25.82384 L52.9346289,25.82384 Z M54.444668,25.34728 L54.4123828,25.2098 C54.5089551,25.18852 54.6372461,25.1146 54.776582,24.97684 L56.1688086,24.65904 L56.2008105,24.7968 C55.4619336,24.97684 54.8728711,25.15688 54.444668,25.34728 L54.444668,25.34728 L54.444668,25.34728 Z M54.6587695,22.56268 C54.5624805,22.58396 54.4339063,22.66852 54.2733301,22.79564 C54.2518066,22.70044 54.0592285,22.70044 53.6950293,22.785 C53.6307422,22.5204 54.6587695,22.14996 56.789873,21.66276 L57.0897852,21.5992 L57.1540723,21.85344 C55.6547949,22.28744 54.8193457,22.53104 54.6587695,22.56268 L54.6587695,22.56268 L54.6587695,22.56268 Z M58.4069629,18.56064 C58.2571484,20.244 57.6573242,21.19684 56.5970117,21.44044 L56.5650098,21.30296 L55.6225098,21.66276 L55.2050684,21.75824 C54.9906836,21.81116 54.7981055,21.80052 54.6267676,21.7476 L54.540957,21.37688 C54.5089551,21.2394 55.8688965,19.37572 58.6318262,15.79704 L58.9529785,15.84996 C59.070791,16.33716 58.8889746,17.23708 58.4069629,18.56064 L58.4069629,18.56064 L58.4069629,18.56064 Z M65.0358984,12.94888 L64.9073242,12.95952 L64.8858008,12.69492 L65.4428613,12.642 L65.4533398,12.77948 C65.3570508,12.80076 65.217998,12.85368 65.0358984,12.94888 L65.0358984,12.94888 L65.0358984,12.94888 Z M62.3049707,40.06464 C61.9838184,39.91624 61.694668,39.85268 61.4482812,39.87396 L61.4162793,39.4716 C61.4055176,39.33412 61.4910449,39.23864 61.6731445,39.18572 C61.8552441,39.16472 61.9622949,39.29156 61.9838184,39.5668 C62.4443066,38.98468 62.7011719,38.68816 62.7546973,38.68816 L63.0438477,38.80464 C62.9367969,39.60936 62.6906934,40.03272 62.3049707,40.06464 L62.3049707,40.06464 L62.3049707,40.06464 Z M91.5833594,9.7832 C91.4443066,9.79384 91.1763965,9.3702 90.7589551,8.51256 L90.7374316,8.24796 C91.0050586,8.22668 91.2837305,8.63968 91.5621191,9.48668 L91.5833594,9.7832 L91.5833594,9.7832 L91.5833594,9.7832 Z M91.1979199,6.755 L91.0693457,7.03024 L87.1070508,5.38916 C89.752168,5.474 91.1228711,5.92928 91.1979199,6.755 L91.1979199,6.755 L91.1979199,6.755 Z M74.3954785,21.01708 L73.8387012,21.07 L73.8171777,20.80512 L74.3739551,20.7522 L74.3954785,21.01708 L74.3954785,21.01708 L74.3954785,21.01708 Z M73.9349902,12.45132 L74.0848047,12.44068 L74.1170898,12.84304 C73.9777539,12.85368 73.806416,13.04436 73.6030762,13.4148 L73.5815527,13.1502 C73.8279395,12.84304 73.945752,12.61008 73.9349902,12.45132 L73.9349902,12.45132 L73.9349902,12.45132 Z M72.767627,15.20428 L72.8106738,15.72312 L72.6605762,15.73376 L72.6178125,15.21492 L72.767627,15.20428 L72.767627,15.20428 L72.767627,15.20428 Z M72.1358008,16.18876 L72.4141895,16.16776 C72.3821875,16.6124 72.264375,16.84536 72.0610352,16.86636 L71.9109375,16.877 C72.0715137,16.58076 72.1465625,16.3478 72.1358008,16.18876 L72.1358008,16.18876 L72.1358008,16.18876 Z M71.6860742,17.54424 L71.8146484,17.5336 L71.8254102,17.67108 L71.5790234,18.09472 L71.3006348,18.116 L71.289873,17.97824 C71.5790234,17.95696 71.7075977,17.80884 71.6860742,17.54424 L71.6860742,17.54424 L71.6860742,17.54424 Z M71.2363477,18.77232 L71.1400586,19.44992 L71.0114844,19.46056 L70.957959,18.7936 L71.2363477,18.77232 L71.2363477,18.77232 L71.2363477,18.77232 Z M66.6634668,31.61536 C66.4816504,32.50492 66.2887891,32.9602 66.085166,32.9812 L66.0746875,32.86472 C66.0424023,32.42008 66.2352637,31.99644 66.6634668,31.61536 L66.6634668,31.61536 L66.6634668,31.61536 Z M65.8175391,33.40484 L65.8283008,33.52132 C65.8498242,33.71172 65.7640137,33.81756 65.5711523,33.8282 L65.5606738,33.69072 C65.5499121,33.55296 65.6354395,33.45776 65.8175391,33.40484 L65.8175391,33.40484 L65.8175391,33.40484 Z M65.5819141,37.13164 L66.0104004,37.1 L66.0208789,37.23748 C65.9245898,37.24812 65.7747754,37.30104 65.6034375,37.39652 L65.3250488,37.41752 C65.3142871,37.2694 65.3998145,37.1742 65.5819141,37.13164 L65.5819141,37.13164 L65.5819141,37.13164 Z M77.6081348,33.45776 C75.252168,34.61192 73.8491797,35.39536 73.4102148,35.79772 C70.8401465,36.687 69.5657324,37.23748 69.5872559,37.4598 C67.3060547,38.36 65.8067773,39.00568 65.1001855,39.41868 C64.9288477,39.42932 64.6824609,39.36576 64.3610254,39.21764 C64.3182617,38.76236 64.5323633,38.39164 64.982373,38.1164 C65.3893359,38.08476 65.7747754,38.13768 66.1282129,38.2858 C66.556416,38.07412 67.295293,37.84116 68.3448437,37.57628 L68.3236035,37.31168 L67.4561523,37.38588 C67.5632031,37.23748 68.3876074,36.8564 69.9191699,36.24236 L70.347373,36.21044 L70.3581348,36.32692 C69.6300195,36.39048 69.2230566,36.60244 69.1372461,36.98352 C69.1480078,37.15292 69.2550586,37.23748 69.4371582,37.21648 C69.9726953,36.86704 70.2295605,36.66572 70.2295605,36.60244 C71.2578711,36.4224 74.1063281,34.94008 78.7862598,32.16612 L78.8075,32.43072 C78.8075,32.53656 78.4112988,32.87536 77.6081348,33.45776 L77.6081348,33.45776 L77.6081348,33.45776 Z M70.4331836,35.78708 C71.1292969,35.72352 71.7183594,35.45892 72.2108496,34.993 C72.3929492,34.98236 72.5,35.05656 72.5107617,35.22596 C72.1893262,35.2576 71.5575,35.52248 70.6045215,36.03068 L70.454707,36.04104 L70.4331836,35.78708 L70.4331836,35.78708 L70.4331836,35.78708 Z M82.0204395,26.98864 L78.4543457,29.82616 C75.7877051,31.5518 74.3419531,32.42008 74.1170898,32.44136 C69.8764062,34.7494 67.2417676,35.94584 66.2029785,36.03068 L66.0531641,36.04104 C66.1817383,35.56476 68.0772168,31.74248 71.7395996,24.56384 C73.335166,24.42636 75.8627539,23.67456 79.3322754,22.31936 L80.1997266,22.24516 C81.9453906,22.09704 83.2518066,22.43584 84.1084961,23.25092 L84.151543,23.76976 C83.4981934,25.59088 82.7913184,26.6602 82.0204395,26.98864 L82.0204395,26.98864 L82.0204395,26.98864 Z M75.016543,23.09216 L75.5736035,23.03924 L75.584082,23.177 L75.0273047,23.22992 L75.016543,23.09216 L75.016543,23.09216 L75.016543,23.09216 Z M83.1232324,21.72632 L83.5517187,21.69468 C83.9479199,21.88508 84.151543,22.05448 84.1620215,22.19224 L84.1727832,22.30872 C83.7981055,22.34036 83.444668,22.14996 83.1232324,21.72632 L83.1232324,21.72632 L83.1232324,21.72632 Z M84.247832,15.2782 C83.8728711,15.72312 82.8556055,16.48528 81.195752,17.54424 C80.6389746,17.59716 78.5826367,18.3806 75.0273047,19.9052 C74.8559668,19.84164 74.6631055,19.82064 74.4597656,19.831 L74.4382422,19.5664 C74.3954785,19.0582 74.6203418,18.42288 75.1131152,17.65008 C75.3915039,16.18876 75.7018945,15.37368 76.0233301,15.183 L79.011123,8.57612 C78.9788379,8.1844 79.6106641,7.86688 80.8958398,7.62328 L81.3243262,7.59164 L81.3563281,7.99372 C82.6199805,7.79268 83.4123828,7.6762 83.7338184,7.64456 C86.0897852,7.44324 87.3211523,7.90916 87.4177246,9.05268 L87.6961133,9.0314 L87.6425879,8.39608 L87.9209766,8.37508 C88.6063281,8.74552 88.9705273,9.19016 89.013291,9.71964 C89.045293,10.10072 88.8527148,10.56664 88.445752,11.10676 C88.2636523,11.12776 88.1566016,11.00092 88.1350781,10.7254 L87.8566895,10.74668 L87.7711621,11.54076 C86.5822754,13.33024 85.7148242,14.25116 85.1688086,14.29372 C84.6867969,14.9394 84.3868848,15.26784 84.247832,15.2782 L84.247832,15.2782 L84.247832,15.2782 Z M85.5007227,19.68288 L85.4687207,19.28052 L85.7471094,19.25952 L86.3466504,19.61932 C86.3574121,19.78872 86.2718848,19.8842 86.0897852,19.9052 C85.8326367,19.74644 85.6400586,19.67224 85.5007227,19.68288 L85.5007227,19.68288 L85.5007227,19.68288 Z M35.6501758,45.40088 L35.3717871,45.46444 L35.1361621,45.66548 C35.179209,45.83488 35.2862598,45.89844 35.4683594,45.85616 C35.6501758,45.81388 35.7252246,45.70804 35.6824609,45.53864 L35.6501758,45.40088 L35.6501758,45.40088 L35.6501758,45.40088 Z M34.5901465,43.31516 L34.6221484,43.45264 C34.804248,43.41036 34.8792969,43.30452 34.8365332,43.13512 L34.804248,42.99736 C34.6329102,43.03964 34.5578613,43.14576 34.5901465,43.31516 L34.5901465,43.31516 L34.5901465,43.31516 Z M42.1720605,29.23312 L42.3756836,29.106 C42.3326367,29.106 42.3006348,29.09536 42.2683496,29.085 C42.193584,29.106 42.1612988,29.15892 42.1720605,29.23312 L42.1720605,29.23312 L42.1720605,29.23312 Z M42.1292969,25.58024 L42.4504492,25.50632 L42.3861621,25.2308 L42.0650098,25.305 L42.1292969,25.58024 L42.1292969,25.58024 L42.1292969,25.58024 Z M117.809951,36.274 L117.081553,36.18944 L116.952979,36.46468 L116.96374,36.60244 L121.300996,36.24236 L121.279473,35.97776 L117.809951,36.274 L117.809951,36.274 L117.809951,36.274 Z M121.772246,35.94584 L121.793486,36.21044 L121.83625,36.21044 L121.81501,35.94584 L121.772246,35.94584 L121.772246,35.94584 L121.772246,35.94584 Z M139.966631,33.59524 L139.988154,33.86012 L140.459404,33.94468 L140.437881,33.68008 L139.966631,33.59524 L139.966631,33.59524 L139.966631,33.59524 Z M139.302803,33.64816 C136.047383,34.36832 135.64042,34.2412 134.955068,34.29412 L134.976309,34.55872 L135.276221,34.53772 L135.436797,34.52708 L135.394033,34.49544 L135.747471,34.35768 C138.970889,34.00824 139.345566,34.13536 139.313564,33.77528 L139.302803,33.64816 L139.302803,33.64816 L139.302803,33.64816 Z M119.758955,28.96852 L119.469805,28.87332 C119.23418,29.49772 119.116367,29.86844 119.127129,29.97428 L119.137607,30.09076 C119.362754,30.08012 119.566094,29.69904 119.758955,28.96852 L119.758955,28.96852 L119.758955,28.96852 Z M115.839424,26.8828 L115.828662,26.74504 L115.678848,26.75568 L115.410938,26.92508 L115.561035,27.17904 C115.764375,27.15804 115.860664,27.06256 115.839424,26.8828 L115.839424,26.8828 L115.839424,26.8828 Z M124.353076,35.58576 L124.331553,35.32116 L124.246025,35.3318 L124.267266,35.5964 L124.353076,35.58576 L124.353076,35.58576 L124.353076,35.58576 Z M142.022969,31.64728 L142.226309,31.626 C142.344121,31.61536 142.397646,31.52016 142.386885,31.35076 L142.269072,31.09652 C141.530195,31.16008 141.18752,31.192 140.587979,31.52016 L140.577217,31.3824 L139.688242,31.46724 C139.667002,31.20236 139.591953,31.06488 139.474141,31.07552 L139.013652,31.1178 C138.478115,31.16008 138.22125,31.13908 137.95334,31.34012 C137.942861,31.24492 137.910576,31.20236 137.857051,31.20236 L137.343037,31.24492 L137.043125,31.41432 C137.032363,31.31884 137.000361,31.27656 136.946836,31.27656 L136.764736,31.43532 L136.753975,31.29784 L136.036621,31.24492 L135.865283,31.25556 L135.886523,31.52016 L136.250723,31.61536 L136.593398,31.59436 C136.711211,31.66828 136.839785,31.68956 136.9896,31.67892 L137.289512,31.5308 L137.300273,31.64728 C135.618896,32.06 135.629658,31.98608 134.473057,32.17648 C134.344482,32.09192 134.248193,32.04964 134.183906,32.06 L134.162383,32.08128 C134.034092,32.07064 133.959043,31.98608 133.948281,31.84832 L134.548105,31.77412 C134.590869,31.77412 134.622871,31.81668 134.954785,31.88024 C135.436797,31.64728 135.45832,31.5518 135.715186,31.5308 L135.693945,31.26592 C134.04457,31.58372 134.708682,31.37176 132.641865,31.5518 L132.545293,31.56244 L132.524053,31.29784 C135.179932,30.98004 134.290957,31.16008 135.201172,30.90612 C135.211934,31.00132 135.244219,31.0436 135.297744,31.0436 C135.404795,30.93776 135.522607,30.88484 135.66166,30.86356 L135.84376,30.8532 C136.775498,30.779 137.086172,30.95904 138.928125,30.45084 L138.938604,30.56732 L139.238516,30.41892 L139.516904,30.39792 C139.495664,30.13304 139.902627,30.09076 140.04168,30.08012 L140.020439,29.79424 C136.78626,30.4402 135.940049,30.26016 135.040596,30.5144 L135.029834,30.39792 C134.183906,30.54604 134.151904,30.48248 133.93752,30.49312 C133.873232,30.50376 133.776943,30.55668 133.669893,30.66252 C133.659131,30.56732 133.627129,30.52476 133.562842,30.52476 C133.530557,30.52476 133.520078,30.5354 133.509316,30.5354 L130.767627,30.98004 C130.757148,30.90612 130.724863,30.86356 130.660576,30.8742 C129.236348,31.17072 129.621787,31.22364 127.715547,31.39304 C127.63002,31.40368 127.512207,31.44596 127.362393,31.54116 C127.351631,31.46724 127.308584,31.42496 127.212295,31.43532 L126.044932,31.5308 L125.263291,31.7212 C125.252529,31.64728 125.209766,31.60472 125.113477,31.61536 C124.674229,31.73184 124.288789,31.80604 123.978115,31.82704 L123.956875,31.82704 C123.764014,31.84832 124.053164,31.77412 123.90335,31.71084 L123.667725,31.84832 C123.325049,31.88024 123.507148,31.82704 122.329023,31.83768 C120.262207,32.09192 120.48707,32.12356 120.262207,32.1342 L119.491045,32.08128 C119.501807,32.15548 119.459043,32.2084 119.373232,32.2084 C118.495303,32.09192 118.045576,31.95416 118.034814,31.7954 C118.152627,30.96968 118.355967,30.54604 118.645117,30.52476 L118.795215,30.5144 L118.666641,30.78964 L118.816455,30.779 C119.094844,30.6306 119.223418,30.49312 119.212656,30.366 L119.191416,30.08012 L118.912744,30.1014 L118.891504,29.83652 C118.86998,29.63548 118.902266,29.45544 118.977031,29.30732 L119.608857,28.30128 L119.630381,28.56616 L119.930293,28.54488 L119.90877,28.28028 L119.737432,28.03668 C119.962295,27.846 120.133633,27.74016 120.272969,27.72952 L120.262207,27.59204 L119.855244,27.62368 L119.823242,27.22132 C120.637168,25.5486 121.022607,24.57448 121.001084,24.29924 L121.290234,24.41572 C121.472334,24.40508 121.557861,24.29924 121.547383,24.10856 L121.268711,24.12984 L121.258232,24.01336 C121.236709,23.81204 121.279473,23.62164 121.365283,23.45224 C121.804248,22.99696 122.007871,22.54168 121.964824,22.06512 C122.050635,22.05448 122.093398,22.09704 122.10416,22.19224 C122.479121,21.98056 122.768271,21.41916 122.982373,20.4876 C123.646201,19.3018 124.588701,16.92992 125.820068,13.38316 C128.176318,7.11508 128.079746,6.44812 128.41166,4.9658 L128.133271,4.9868 C128.154795,5.17748 128.112031,5.35752 128.026221,5.52692 C127.833359,5.45272 127.683545,5.41044 127.576494,5.42108 L127.565732,5.3046 C127.522969,4.76448 127.747832,4.1188 128.261846,3.35636 L128.39042,3.34572 L128.626045,4.25628 L128.904434,4.23528 C128.893672,4.17172 128.968721,3.81164 129.118535,3.14468 C129.107773,3.00692 129.000723,2.92236 128.786621,2.91172 L128.518994,3.08112 C128.497471,2.89044 128.508232,2.39288 128.540234,1.5988 L128.400898,1.60944 C128.165557,1.37648 128.047744,1.1858 128.036982,1.02704 L126.50542,1.17516 C126.494941,1.06932 126.441416,0.91056 126.334082,0.70924 C126.323604,0.57176 126.666279,0.434 127.372871,0.29652 L127.683545,0.413 L127.972695,0.2436 C127.983457,0.3388 128.036982,0.38108 128.144033,0.37044 L128.433184,0.20104 C128.443945,0.29652 128.497471,0.3388 128.604521,0.32816 L128.743857,0.31752 L128.722334,0.01064 C128.508232,0.03164 127.940693,0.03164 127.040957,0 L126.751807,0.19068 L126.741045,0.02128 C119.555332,0.6034 115.475225,0.93184 114.500723,1.02704 C114.372148,1.03768 113.868896,1.02704 112.980205,1.00576 C112.990684,1.12224 112.883633,1.1858 112.669531,1.20708 L112.358857,1.06932 L111.30959,1.3342 C111.063203,1.3552 110.645479,1.34456 110.067178,1.281 C109.906602,1.40812 109.71374,1.48232 109.478115,1.5036 C109.349824,1.51396 111.009678,1.41876 112.551719,1.31292 C112.391143,1.44004 112.144756,1.51396 111.80208,1.54588 C111.566455,1.56688 111.363115,1.53524 111.191777,1.44004 C110.956152,1.54588 110.195752,1.71528 108.921338,1.96924 L108.610947,1.85276 L103.599102,2.6152 C103.40624,2.52 103.181377,2.48808 102.924229,2.50936 C102.656602,2.53036 102.206875,2.62584 101.585811,2.79524 L99.1655566,3.79036 L99.347373,4.08688 C99.4651855,4.07624 99.6365234,4.01268 99.8401465,3.8962 L100.696836,3.9704 L100.589785,4.76448 C99.7973828,5.11392 99.3368945,5.63276 99.2083203,6.28908 C98.0197168,6.80792 97.4306543,7.17864 97.4306543,7.40096 L97.441416,7.53844 L97.6232324,7.52808 L97.944668,7.35868 L98.3193457,7.80332 L98.3728711,8.41736 C98.3943945,8.60804 96.3918652,12.76884 92.3865234,20.9006 C88.917002,28.73556 87.0962891,33.02376 86.9249512,33.79656 C85.7363477,34.12472 85.0509961,34.60128 84.847373,35.2366 C84.8688965,35.43764 85.222334,35.5754 85.9076855,35.62832 L85.9396875,35.9352 L85.6292969,36.4434 L85.6828223,37.05772 C85.7148242,37.37524 86.5822754,37.61884 88.2851758,37.78824 C88.2744141,37.6824 88.3279395,37.61884 88.445752,37.6082 C88.4777539,37.98928 88.3707031,38.73044 88.1243164,39.83168 L88.306416,39.82104 C89.013291,38.8682 89.3452051,38.2116 89.3132031,37.8518 L89.4630176,37.84116 C89.6343555,37.83052 89.8164551,38.0212 90.0305566,38.43392 C89.8164551,38.51876 89.0668164,40.20212 87.7816406,43.49492 L87.9637402,43.79144 L88.1458398,43.7808 C89.720166,39.84232 90.7054297,37.66112 91.1121094,37.24812 C93.179209,37.06808 96.7557812,36.70828 101.831914,36.16816 L102.15335,35.97748 C102.163828,36.0836 102.228115,36.13652 102.345928,36.12588 L102.678125,36.09396 L102.999277,35.90356 C103.010039,36.0094 103.074326,36.06232 103.192139,36.05168 L107.036621,35.72352 C108.053887,35.63868 108.535898,35.3318 108.492852,34.81296 C108.482373,34.6752 109.081914,34.51644 110.292041,34.34704 C110.409854,34.3364 110.581191,34.36832 110.816816,34.44224 C110.806055,34.34704 111.416641,34.25184 112.637529,34.146 C112.669531,33.51068 112.872871,33.17188 113.23707,33.13996 L113.205068,32.83308 C112.862393,32.86472 112.47667,32.94956 112.026943,33.09768 C111.223779,33.0554 110.709766,32.99184 110.495664,32.91764 C110.281279,33.03412 110.120703,33.09768 110.002891,33.10832 L107.325771,33.19288 L107.004336,33.36228 C106.993574,33.26708 106.92957,33.2248 106.811758,33.23544 L106.66166,33.2458 L106.318984,33.41548 C106.308223,33.32 106.029834,33.2458 105.473057,33.17188 L105.130381,33.37292 L104.466553,33.42584 L104.455791,33.25644 C107.904072,32.886 109.606689,32.42008 109.563926,31.8696 C109.788789,31.84832 109.906602,31.95416 109.927842,32.17648 L110.934629,31.92252 L110.902627,31.61536 L102.64584,31.83768 C102.656602,31.94352 102.603076,32.00708 102.485264,32.01772 L101.478477,31.93316 C101.221611,31.95416 101.00751,32.02836 100.836172,32.15548 L100.461211,32.01772 C99.4224219,32.10256 98.6512598,32.2294 98.1372461,32.38844 C97.4306543,32.33552 96.6487305,32.34588 95.7812793,32.42008 L93.9288477,32.57884 L93.0721582,32.48364 C93.0291113,31.94352 94.0894238,29.28604 96.2740527,24.52156 C96.9058789,22.91212 97.4841797,21.90636 98.040957,21.52528 C98.1587695,21.51464 98.3301074,21.55692 98.5657324,21.65212 L99.8829102,21.20748 L100.5575,21.31332 C101.692861,21.21812 103.010039,20.9006 104.520078,20.34984 C104.894756,20.3182 105.173145,20.33948 105.376768,20.42404 L106.383271,20.19108 L109.381826,19.93684 C110.65624,19.831 112.037705,19.55576 113.536982,19.10048 L113.504697,18.7936 C112.94792,18.84652 112.65877,18.75104 112.637529,18.52872 C112.605244,18.116 112.198281,17.94632 111.416641,18.00988 L111.384355,17.703 L112.209043,17.47004 L114.372148,17.29 L114.340146,16.98312 C114.254336,16.99348 113.815371,16.98312 113.001445,16.9512 L112.969443,16.62304 L113.804609,16.54884 C114.029473,16.52784 114.126045,16.42172 114.104521,16.21004 C112.980205,16.24168 112.412383,16.18876 112.401904,16.04064 C104.562842,16.42172 100.632549,16.49592 100.611309,16.25232 C100.493496,16.26296 100.332637,16.33716 100.118535,16.46428 L99.9151953,16.14648 C101.99249,11.78436 103.213379,9.58188 103.566816,9.55024 C103.577578,9.71964 103.491768,9.99488 103.309668,10.3656 L103.32043,10.50308 L103.652627,10.47144 C104.477031,8.5232 105.173145,7.51744 105.751445,7.47516 C108.214463,7.2632 105.40877,7.10444 110.677764,6.28908 C110.891865,6.38456 111.04168,6.42684 111.14873,6.4162 C113.215547,6.0032 116.096289,5.5692 119.790957,5.12456 L119.769434,4.8174 L117.799189,4.99744 L117.777666,4.69028 C118.013291,4.66928 118.206152,4.59508 118.366729,4.46796 L118.37749,4.63736 C118.484541,4.627 118.634355,4.5528 118.827217,4.42568 C119.169893,4.39404 119.426758,4.42568 119.608857,4.52088 C120.294209,4.34112 120.85127,4.235 121.258232,4.19272 L122.4896,4.07624 C122.789512,3.88584 122.928848,3.71644 122.918086,3.5574 L122.907324,3.41992 C122.59665,3.45156 122.243496,3.43056 121.825771,3.35636 C121.81501,3.18696 121.900537,3.07048 122.10416,3.01756 L124.39584,2.80588 L125.445391,2.541 C125.456152,2.65748 125.509678,2.69976 125.595205,2.69976 C125.702256,2.6894 125.852354,2.6152 126.044932,2.48808 C126.09874,2.49872 126.162744,2.49872 126.21627,2.50936 C126.077217,2.79524 125.916641,3.20824 125.755781,3.74808 L125.456152,3.76936 C125.434629,3.56804 125.381104,3.388 125.284814,3.22924 L125.134717,3.23988 C122.350547,10.90544 121.108135,14.47376 118.538066,20.36048 C118.066816,21.86408 117.670615,22.70044 117.327939,22.88048 C117.338701,23.04988 117.445752,23.13444 117.627852,23.11344 C117.692139,23.8546 117.520801,24.58512 117.103076,25.305 C115.914189,28.69328 115.121787,30.54604 114.714824,30.88484 L114.982734,32.48364 C114.993213,32.65304 114.907686,32.74824 114.725586,32.76952 L114.447197,32.7908 C114.404434,32.34588 114.243574,32.1342 113.954707,32.16612 L113.804609,32.17648 C113.44041,32.7376 113.162021,33.38356 112.980205,34.13536 L113.258594,34.11408 C113.633271,33.87076 113.804609,33.58488 113.772607,33.25644 L114.329385,33.20352 L114.650537,33.32 C114.393672,33.72236 114.275859,34.04016 114.297383,34.28348 L114.447197,34.53772 L114.082998,35.38472 L114.09376,35.52248 C114.415195,35.49056 114.76835,35.5964 115.143311,35.81872 C115.400176,35.79772 115.678848,35.68124 115.989238,35.47992 C116.310674,35.44828 117.510039,35.43764 119.576855,35.43764 L120.615645,35.0882 C121.879297,35.07756 122.082637,35.10948 123.174951,35.014 L123.624678,34.97172 L123.860303,34.81296 L123.871064,34.95072 C125.016904,34.85524 125.091953,34.92944 125.991406,35.03528 L126.002168,35.17304 L125.370342,35.22596 L125.391865,35.49056 C125.584443,35.46928 125.755781,35.41636 125.895117,35.29988 C126.055693,35.28952 126.151982,35.37408 126.162744,35.56476 C125.905879,35.58576 125.616729,35.64932 125.295293,35.75516 L125.016904,35.65996 C124.577939,35.77644 124.674229,35.80808 124.374316,35.82936 L123.935352,35.7448 C123.946113,35.81872 123.90335,35.87164 123.828301,35.87164 C123.839062,36.04104 123.935352,36.12588 124.095928,36.11524 L124.545654,36.07296 L126.891143,35.87164 L127.779834,35.68124 C127.790596,35.75516 127.822598,35.79772 127.897646,35.78708 L128.326133,35.62832 L129.129297,35.56476 C129.750361,35.51184 129.7396,35.46928 131.089063,35.2576 C131.078301,35.17304 131.110303,35.14112 131.17459,35.13048 L131.185352,35.24696 C133.380742,34.87652 133.519795,34.85524 133.873232,34.73876 L133.905518,34.80232 C134.451533,34.6752 134.141143,34.70712 134.290957,34.60128 C134.301719,34.69648 134.333721,34.73876 134.387246,34.73876 L134.772969,34.70712 L134.751445,34.42124 L133.969805,34.4106 L133.959043,34.38932 C133.926758,34.39996 133.905518,34.39996 133.873232,34.4106 L133.766182,34.4106 L133.766182,34.43188 C133.241406,34.53772 133.230645,34.46352 132.887969,34.49544 L130.928203,34.60128 L130.917725,34.46352 L132.010039,34.3154 L132.40624,34.28348 L132.631104,34.12472 L132.641865,34.26248 C134.183906,34.13536 134.729922,34.51644 141.862109,33.01312 C142.247832,32.9812 142.215547,32.66368 142.461934,32.00708 C142.333359,32.01772 142.204785,31.98608 142.087256,31.92252 C141.498193,32.14484 141.18752,32.039 140.052441,32.21904 C139.956152,32.22968 139.881104,32.14484 139.848818,31.97544 L139.838057,31.85896 L140.930371,31.8906 C141.133994,31.8696 141.530195,31.83768 142.119258,31.50952 C142.119258,31.60472 141.894395,31.65764 142.022686,31.64728 L142.022969,31.64728 L142.022969,31.64728 Z M89.2916797,32.48364 L88.7884277,32.52592 C88.7669043,32.32488 89.0348145,31.56244 89.5915918,30.26016 L89.9235059,30.22852 C89.9342676,30.5354 89.7306445,31.2872 89.2916797,32.48364 L89.2916797,32.48364 L89.2916797,32.48364 Z M89.9022656,30.06948 L89.8915039,29.932 C89.8807422,29.7626 89.987793,29.64612 90.223418,29.5932 L90.2341797,29.73068 C90.2449414,29.932 90.1376074,30.04848 89.9022656,30.06948 L89.9022656,30.06948 L89.9022656,30.06948 Z M96.5952051,35.1834 L96.6059668,35.32116 L95.7708008,35.39536 L95.7600391,35.2576 L96.5952051,35.1834 L96.5952051,35.1834 L96.5952051,35.1834 Z M95.5887012,35.09884 C95.5994629,35.26824 95.3423145,35.45892 94.7855371,35.64932 L93.7572266,35.5754 L93.4253125,35.60704 L93.3933105,35.29988 L95.5887012,35.09884 L95.5887012,35.09884 L95.5887012,35.09884 Z M102.356689,4.29856 L101.853437,4.34112 L101.842676,4.17172 C101.831914,4.00232 101.928486,3.88584 102.142588,3.83292 L102.324687,3.82228 L102.667363,3.95976 C102.677842,4.16108 102.581553,4.27756 102.356689,4.29856 L102.356689,4.29856 L102.356689,4.29856 Z M110.013652,2.81624 L110.174229,2.80588 L110.195752,3.11276 L109.735264,3.15504 C109.724502,2.98564 109.810029,2.86944 110.013652,2.81624 L110.013652,2.81624 L110.013652,2.81624 Z M108.085889,3.48348 L107.325771,3.39864 L107.31501,3.26116 C108.311035,3.17632 108.642949,3.07048 109.253252,2.90108 C109.264014,3.01756 109.371064,3.05984 109.563926,3.03884 L109.585166,3.34572 L109.285537,3.37764 C109.049912,3.39864 108.846289,3.367 108.674951,3.27152 C108.492852,3.388 108.300273,3.4622 108.085889,3.48348 L108.085889,3.48348 L108.085889,3.48348 Z M109.03915,6.2258 L109.028389,6.08804 L110.260039,5.97156 L110.270801,6.10932 L109.03915,6.2258 L109.03915,6.2258 L109.03915,6.2258 Z M110.356328,5.16684 L110.345566,4.99744 L110.945391,4.94452 L110.956152,5.11392 L110.356328,5.16684 L110.356328,5.16684 L110.356328,5.16684 Z M110.495664,3.09176 L110.334805,3.10212 L110.474141,2.77396 L111.844844,2.64684 L111.855605,2.81624 C111.502168,2.84816 111.04168,2.94336 110.495664,3.09176 L110.495664,3.09176 L110.495664,3.09176 Z M111.191777,6.01384 L111.170254,5.70696 L111.770078,5.65404 C111.973418,5.63276 112.080469,5.72796 112.09123,5.93992 L111.191777,6.01384 L111.191777,6.01384 L111.191777,6.01384 Z M114.821875,1.12224 L114.050996,1.3342 L113.91166,1.34456 C113.547744,1.37648 113.076494,1.36584 112.519434,1.31292 C113.515459,1.24936 114.468721,1.17516 114.821875,1.12224 L114.821875,1.12224 L114.821875,1.12224 Z M113.997471,4.51052 L114.008232,4.648 L112.94792,4.74348 L112.937158,4.60572 L113.997471,4.51052 L113.997471,4.51052 L113.997471,4.51052 Z M115.732373,5.3256 C115.721611,5.19876 115.517988,5.11392 115.100547,5.07164 L114.040234,5.36816 L113.226309,5.3998 C113.044209,5.27268 112.94792,5.18812 112.937158,5.12456 L113.879658,5.17748 L116,4.83868 L117.081553,4.88096 L117.092314,5.05036 C116.556777,5.10328 116.107051,5.19876 115.732373,5.3256 L115.732373,5.3256 L115.732373,5.3256 Z M126.644756,2.541 C126.77333,2.55164 126.858857,2.55164 126.891143,2.55164 C127.26582,2.19156 127.683545,1.90568 128.165557,1.70464 C127.779834,3.37764 127.180293,4.61636 126.355605,5.42108 L125.755781,5.061 C126.259316,3.801 126.559229,2.96464 126.644756,2.541 L126.644756,2.541 L126.644756,2.541 Z M124.802803,5.6644 L124.952617,5.65404 C124.749277,6.03512 124.567178,6.23616 124.417363,6.2468 L124.385078,5.84444 C124.48165,5.84444 124.620703,5.78088 124.802803,5.6644 L124.802803,5.6644 L124.802803,5.6644 Z M123.614199,8.47028 C123.90335,7.32676 124.181738,6.68108 124.438604,6.51168 L124.449365,6.64916 C124.299551,7.70784 124.063926,8.26924 123.753252,8.31152 L123.806777,8.97848 C123.549912,9.33856 123.4321,9.6138 123.442578,9.82548 L123.292764,9.83612 L123.207236,8.91492 C123.378574,8.89392 123.517627,8.74552 123.614199,8.47028 L123.614199,8.47028 L123.614199,8.47028 Z M123.153711,9.99488 C123.164189,10.15364 123.057139,10.52436 122.843037,11.09612 L122.693223,11.10676 L122.660938,10.7044 C122.864561,10.23848 123.035898,10.00552 123.153428,9.99488 L123.153711,9.99488 L123.153711,9.99488 Z M114.511484,34.79168 L114.500723,34.6752 L114.779111,34.6542 L114.811396,35.05656 C114.661299,35.0672 114.554248,34.98236 114.511484,34.79168 L114.511484,34.79168 L114.511484,34.79168 Z M126.858857,35.10948 C126.848096,35.014 126.805332,34.97172 126.709043,34.98236 L126.01293,35.04592 L126.002168,34.90816 L126.066455,34.90816 L127.715547,34.77068 L127.726309,34.90816 C127.24458,34.92944 126.95543,35.00364 126.858857,35.10948 L126.858857,35.10948 L126.858857,35.10948 Z M126.034453,34.77068 C126.09874,34.80232 126.066455,34.83424 126.034453,34.85524 C126.002168,34.8446 125.959404,34.81296 126.034453,34.77068 L126.034453,34.77068 L126.034453,34.77068 Z M126.11998,32.86472 L125.199004,32.93892 L125.188242,32.80116 L126.023691,32.72724 L126.751807,32.5472 C126.762568,32.63176 126.805332,32.66368 126.901904,32.65304 C127.769355,32.50492 127.683545,32.46236 128.10127,32.43072 C128.240322,32.42008 128.326133,32.50492 128.336895,32.67432 L126.11998,32.86472 L126.11998,32.86472 L126.11998,32.86472 Z M129.343398,32.58948 C128.829385,32.53656 128.797383,32.49428 128.433184,32.52592 L128.422422,32.40944 L129.247109,32.33552 L129.257871,32.452 C129.172061,32.46236 129.482734,32.48364 129.343398,32.58948 L129.343398,32.58948 L129.343398,32.58948 Z M129.407686,32.44136 L129.396924,32.32488 L129.84665,32.28232 L129.857412,32.3988 L129.407686,32.44136 L129.407686,32.44136 L129.407686,32.44136 Z M130.403711,32.35652 L130.392949,32.24004 C130.467998,32.22968 130.575049,32.17648 130.714102,32.07064 C130.938965,32.04964 131.056777,32.19776 131.078301,32.36716 L130.403711,32.35652 L130.403711,32.35652 L130.403711,32.35652 Z M131.678125,32.19776 L131.667363,32.06 L132.213379,32.01772 L132.224141,32.15548 L131.678125,32.19776 L131.678125,32.19776 L131.678125,32.19776 Z M132.438242,32.1342 C132.427764,31.97544 132.491768,31.88024 132.631104,31.85896 L132.813203,32.09192 C132.802441,32.01772 132.834443,31.97544 132.89873,31.9648 L133.038066,32.21904 L132.438242,32.1342 L132.438242,32.1342 L132.438242,32.1342 Z M142.975947,30.90612 L142.986709,30.89548 L142.986709,30.88484 C142.986709,30.88484 142.975947,30.89548 142.975947,30.90612 L142.975947,30.90612 L142.975947,30.90612 Z M143.168809,30.76836 C143.254336,30.71544 143.297383,30.66252 143.09376,30.63088 C142.997471,30.73672 143.200811,30.76836 142.986709,30.779 L142.997471,30.8742 C143.018711,30.8532 143.07252,30.82128 143.115283,30.78964 L142.997471,30.88484 L142.997471,30.89548 L142.772607,31.18136 L143.222334,31.0226 L143.275859,31.0226 L143.254336,30.75772 L143.168809,30.76836 L143.168809,30.76836 L143.168809,30.76836 Z M143.950449,31.37204 L143.864922,31.3824 L143.886162,31.64728 L144.517988,31.59436 C144.50751,31.42496 144.089785,31.37204 143.950449,31.37204 L143.950449,31.37204 L143.950449,31.37204 Z" id="Shape" fill="#F9DC3E"></path>
            </g>
        </g>
    </g>
</svg>
