<svg width="100%" height="100%" xmlns="http://www.w3.org/2000/svg" viewBox="0 0 139.2 38">
  <title>KohanaPHP</title>
  <description>PHP projects with the amazing KohanaPHP framework</description>
  <defs>
    <linearGradient id="linear-gradient" x1="69.51" y1="32" x2="69.51" y2="3" gradientUnits="userSpaceOnUse">
      <stop offset="0" stop-color="#e87f07"/><stop offset="1" stop-color="#f6bf14"/>
    </linearGradient>
  </defs>
  <path fill="#7a8a8f" d="M10 5h6a2.8 2.8 0 0 1 2.5 2s.7-2 2.5-2h7a2.1 2.1 0 0 1 2 2s.8-2 4-2h13c1.9 0 3 2 3 2s.4-4 3-4h7a5.4 5.4 0 0 1 4 2h5a3.2 3.2 0 0 1 3 2 4.6 4.6 0 0 1 4-2h15a3.1 3.1 0 0 1 3 2s2.4-2 4-2h6a1.5 1.5 0 0 1 1 1 1.7 1.7 0 0 1 1-1h7a3.1 3.1 0 0 1 3 2s2.1-2 4-2h15c2.3 0 5.5 1.5 5 6s-1.7 14.6-2 17-1.6 6-7 6h-13a2.9 2.9 0 0 1-2-1s-.3 5-5 5h-4c-4.8 0-5-5-5-5a1.4 1.4 0 0 1-1 1h-7c-1.7 0-3-2-3-2s-.9 2-4 2H75c-2.2 0-1.9-1-3-1s-.3 5-5 5h-3c-6.4 0-6-5-6-5a1.7 1.7 0 0 1-1 1h-7a3.8 3.8 0 0 1-3-2s-1.9 2-4 2H31a4.9 4.9 0 0 1-3-1s-.5 5-5 5h-3c-5.9 0-5.1-5-6-5a1.5 1.5 0 0 1-1 1H7c-3.3 0-4.5-1.3-4-4s2.6-17.5 3-20 1.2-5 4-5z" transform="translate(-.9)"/>
  <path fill="#fff" d="M8 2h6a2.8 2.8 0 0 1 2.5 2s.7-2 2.5-2h7a2.1 2.1 0 0 1 2 2s.8-2 4-2h13c1.9 0 3 2 3 2s.4-4 3-4h7a5.4 5.4 0 0 1 4 2h5a3.2 3.2 0 0 1 3 2 4.6 4.6 0 0 1 4-2h15a3.1 3.1 0 0 1 3 2s2.4-2 4-2h6a1.5 1.5 0 0 1 1 1 1.7 1.7 0 0 1 1-1h7a3.1 3.1 0 0 1 3 2s2.1-2 4-2h15c2.3 0 5.5 1.5 5 6s-1.7 14.6-2 17-1.6 6-7 6h-13a2.9 2.9 0 0 1-2-1s-.3 5-5 5h-4c-4.8 0-5-5-5-5a1.4 1.4 0 0 1-1 1h-7c-1.7 0-3-2-3-2s-.9 2-4 2H73c-2.2 0-1.9-1-3-1s-.3 5-5 5h-3c-6.4 0-6-5-6-5a1.7 1.7 0 0 1-1 1h-7a3.8 3.8 0 0 1-3-2s-1.9 2-4 2H29a4.9 4.9 0 0 1-3-1s-.5 5-5 5h-3c-5.9 0-5.1-5-6-5a1.5 1.5 0 0 1-1 1H5c-3.3 0-4.5-1.3-4-4S3.6 9.5 4 7s1.2-5 4-5z" transform="translate(-.9)"/>
  <path fill="url(#linear-gradient)" d="M135 8c-.1 1.4-1.7 15.3-2 17a3.9 3.9 0 0 1-4 3h-12c-2 0-3.2-1.3-3-3s.8-7 1-9 2-3 4-3h7.5s.4-2 .5-3-2-1-2-1h-8c-1.2 0-1.1-4 1-4h15c1.5 0 2.1 1.6 2 3zm-10 8c-.6 0-1.8.2-2 1s-.9 5.5-1 6a.9.9 0 0 0 .8 1h.2c.7 0 1.8-.2 2-1s.9-5.2 1-6-.4-1-1-1zm-14.6 16H105a2.2 2.2 0 0 1-2.3-2.6c.3-1.7 2.1-16.5 2.3-18.4s-.4-2-1-2-1.8-.1-2 1c-1.2 10-2.2 18-2.2 18H92l3-23h7c1.5 0 1 1 1 1a3.3 3.3 0 0 1 2-1h5c3.3 0 3.5 2.5 3 5s-2.6 22-2.6 22zM89 25a3.9 3.9 0 0 1-4 3H73c-2 0-3.2-1.3-3-3s.8-7 1-9 2-3 4-3h7.5s.4-2 .5-3-2-1-2-1h-8c-1.2 0-1.1-4 1-4h15c1.5 0 2.1 1.6 2 3s-1.7 15.3-2 17zm-8-9c-.6 0-1.8.2-2 1s-.9 5.5-1 6a.9.9 0 0 0 .8 1h.2c.7 0 1.8-.2 2-1s.9-5.2 1-6-.4-1-1-1zM66.3 32H61c-1.1 0-2.4-.4-2.1-2.1.5-3.6 1.9-17.1 2.1-18.9s-.4-2-1-2-1.9 0-2 1-2.2 18-2.2 18H48l3-25h7c1.5 0 1 2 1 2h7c3.3 0 3.5 2.5 3 5s-2.7 22-2.7 22zM45 24c-.3 1.8-1.3 4-4 4H29c-2.9 0-3-4-3-4l2-14c.3-2.1 2.1-5 5-5h11c2.3 0 3.1 2.1 3 4s-1.7 13.2-2 15zM38 9a2.2 2.2 0 0 0-2.3 1.9c-.1 1.2-1.4 9.7-1.7 11.1s0 2 1 2 1.6-.1 2-2 1.6-10 1.8-11 .1-2-.8-2zM21 22c-.8 0-1.6 2-1 2h3c1.5 0 1 2 1 2l-1 6h-6a2 2 0 0 1-2-2c.1-1 .9-6 1-7a.9.9 0 0 0-.8-1H15s-2.3-.1-2.4.9-.7 5.1-.6 5.1H4L7 5h8s-1.3 9-1.6 10.8.8 2.2 1.6 2.2 1.2-.4 1.5-2 2-11 2-11H26s-1.5 10.9-2 14-2.2 3-3 3z" transform="translate(-.9)"/>
</svg>
