<svg id="Layer_1" data-name="Layer 1" xmlns="http://www.w3.org/2000/svg" xmlns:xlink="http://www.w3.org/1999/xlink" viewBox="0 0 139.2 38"><defs><style>.cls-1{fill:#7a8a8f;}.cls-2{fill:#fff;}.cls-3{fill:url(#linear-gradient);}</style><linearGradient id="linear-gradient" x1="69.51" y1="32" x2="69.51" y2="3" gradientUnits="userSpaceOnUse"><stop offset="0" stop-color="#e87f07"/><stop offset="1" stop-color="#f6bf14"/></linearGradient></defs><title>kohana</title><path id="Shape_3_copy" data-name="Shape 3 copy" class="cls-1" d="M10,5h6a2.8,2.8,0,0,1,2.5,2S19.2,5,21,5h7a2.1,2.1,0,0,1,2,2s0.8-2,4-2H47c1.9,0,3,2,3,2s0.4-4,3-4h7a5.4,5.4,0,0,1,4,2h5a3.2,3.2,0,0,1,3,2,4.6,4.6,0,0,1,4-2H91a3.1,3.1,0,0,1,3,2s2.4-2,4-2h6a1.5,1.5,0,0,1,1,1,1.7,1.7,0,0,1,1-1h7a3.1,3.1,0,0,1,3,2s2.1-2,4-2h15c2.3,0,5.5,1.5,5,6s-1.7,14.6-2,17-1.6,6-7,6H118a2.9,2.9,0,0,1-2-1s-0.3,5-5,5h-4c-4.8,0-5-5-5-5a1.4,1.4,0,0,1-1,1H94c-1.7,0-3-2-3-2s-0.9,2-4,2H75c-2.2,0-1.9-1-3-1s-0.3,5-5,5H64c-6.4,0-6-5-6-5a1.7,1.7,0,0,1-1,1H50a3.8,3.8,0,0,1-3-2s-1.9,2-4,2H31a4.9,4.9,0,0,1-3-1s-0.5,5-5,5H20c-5.9,0-5.1-5-6-5a1.5,1.5,0,0,1-1,1H7c-3.3,0-4.5-1.3-4-4S5.6,12.5,6,10,7.2,5,10,5Z" transform="translate(-0.9)"/><path class="cls-2" d="M8,2h6a2.8,2.8,0,0,1,2.5,2S17.2,2,19,2h7a2.1,2.1,0,0,1,2,2s0.8-2,4-2H45c1.9,0,3,2,3,2s0.4-4,3-4h7a5.4,5.4,0,0,1,4,2h5a3.2,3.2,0,0,1,3,2,4.6,4.6,0,0,1,4-2H89a3.1,3.1,0,0,1,3,2s2.4-2,4-2h6a1.5,1.5,0,0,1,1,1,1.7,1.7,0,0,1,1-1h7a3.1,3.1,0,0,1,3,2s2.1-2,4-2h15c2.3,0,5.5,1.5,5,6s-1.7,14.6-2,17-1.6,6-7,6H116a2.9,2.9,0,0,1-2-1s-0.3,5-5,5h-4c-4.8,0-5-5-5-5a1.4,1.4,0,0,1-1,1H92c-1.7,0-3-2-3-2s-0.9,2-4,2H73c-2.2,0-1.9-1-3-1s-0.3,5-5,5H62c-6.4,0-6-5-6-5a1.7,1.7,0,0,1-1,1H48a3.8,3.8,0,0,1-3-2s-1.9,2-4,2H29a4.9,4.9,0,0,1-3-1s-0.5,5-5,5H18c-5.9,0-5.1-5-6-5a1.5,1.5,0,0,1-1,1H5c-3.3,0-4.5-1.3-4-4S3.6,9.5,4,7,5.2,2,8,2Z" transform="translate(-0.9)"/><path id="Shape_6_copy" data-name="Shape 6 copy" class="cls-3" d="M135,8c-0.1,1.4-1.7,15.3-2,17a3.9,3.9,0,0,1-4,3H117c-2,0-3.2-1.3-3-3s0.8-7,1-9,2-3,4-3h7.5s0.4-2,.5-3-2-1-2-1h-8c-1.2,0-1.1-4,1-4h15C134.5,5,135.1,6.6,135,8Zm-10,8c-0.6,0-1.8.2-2,1s-0.9,5.5-1,6a0.9,0.9,0,0,0,.8,1H123c0.7,0,1.8-.2,2-1s0.9-5.2,1-6S125.6,16,125,16ZM110.4,32H105a2.2,2.2,0,0,1-2.3-2.6c0.3-1.7,2.1-16.5,2.3-18.4s-0.4-2-1-2-1.8-.1-2,1c-1.2,10-2.2,18-2.2,18H92L95,5h7c1.5,0,1,1,1,1a3.3,3.3,0,0,1,2-1h5c3.3,0,3.5,2.5,3,5S110.4,32,110.4,32ZM89,25a3.9,3.9,0,0,1-4,3H73c-2,0-3.2-1.3-3-3s0.8-7,1-9,2-3,4-3h7.5s0.4-2,.5-3-2-1-2-1H73c-1.2,0-1.1-4,1-4H89c1.5,0,2.1,1.6,2,3S89.3,23.3,89,25Zm-8-9c-0.6,0-1.8.2-2,1s-0.9,5.5-1,6a0.9,0.9,0,0,0,.8,1H79c0.7,0,1.8-.2,2-1s0.9-5.2,1-6S81.6,16,81,16ZM66.3,32H61c-1.1,0-2.4-.4-2.1-2.1C59.4,26.3,60.8,12.8,61,11s-0.4-2-1-2-1.9,0-2,1-2.2,18-2.2,18H48L51,3h7c1.5,0,1,2,1,2h7c3.3,0,3.5,2.5,3,5S66.3,32,66.3,32ZM45,24c-0.3,1.8-1.3,4-4,4H29c-2.9,0-3-4-3-4s1.7-11.9,2-14,2.1-5,5-5H44c2.3,0,3.1,2.1,3,4S45.3,22.2,45,24ZM38,9a2.2,2.2,0,0,0-2.3,1.9C35.6,12.1,34.3,20.6,34,22s0,2,1,2,1.6-.1,2-2,1.6-10,1.8-11S38.9,9,38,9ZM21,22c-0.8,0-1.6,2-1,2h3c1.5,0,1,2,1,2l-1,6H17a2,2,0,0,1-2-2c0.1-1,.9-6,1-7a0.9,0.9,0,0,0-.8-1H15s-2.3-.1-2.4.9S11.9,28,12,28H4L7,5h8s-1.3,9-1.6,10.8S14.2,18,15,18s1.2-.4,1.5-2,2-11,2-11H26s-1.5,10.9-2,14S21.8,22,21,22Z" transform="translate(-0.9)"/></svg>