<svg width="100%" height="100%" viewBox="0 0 299 274" xmlns="http://www.w3.org/2000/svg"><title>Group</title><g fill="none" fill-rule="evenodd"><path d="M175.65 169.302c1.578 2.35 2.543 2.17 3.77 1.627 1.228-.542 64.378-22.519 66.307-23.242 1.93-.724 1.316-1.357.702-2.352-.613-.995-21.664-30.477-22.716-32.196-1.053-1.719-1.579-1.357-3.246-.814l-66.942 17.961s20.546 36.664 22.124 39.016zm75.427-30.022v-34.511c-7.531 2.07-17.057 4.685-20.817 5.717 5.673 7.826 14.542 20.075 20.817 28.793zm-20.882-71.298c-1.032.242-23.876 4.499-25.283 4.692-1.407.193-.939 1.016-.375 1.838l20.103 28.441s24.58-6.288 26.08-6.626c.122-.028.241-.057.357-.087v-3.766c-4.467-5.842-16.64-21.747-17.692-23.233-1.266-1.79-2.158-1.5-3.19-1.259z" fill="#F35045"/><path d="M86.46 23.307c4.947-.232 5.398.929 7.572 4.252l54.6 94.126 68.654-16.958c-3.803-5.56-21.072-30.805-22.74-33.214-1.877-2.709.046-3.967 3.095-4.498 3.05-.532 29.317-5.079 31.569-5.417 2.252-.34 4.035-1.161 7.693 3.386 1.872 2.326 8.219 10.475 14.174 18.114V39.07c0-10.762-3.705-19.965-11.116-27.607C232.55 3.821 223.625 0 213.188 0H86.89C76.453 0 67.528 3.821 60.117 11.463c-4.251 4.384-7.276 9.282-9.09 14.692 12.376-1.048 31.971-2.686 35.433-2.848z" fill="#F35045"/><path d="M181.841 181.97c-5.789 1.808-8.385 2.706-12.156-2.72-2.824-4.065-18.098-32.43-25.586-46.415-14.173 3.828-40.111 10.809-47.59 12.662-7.301 1.808-10.419-2.705-11.618-5.487C84.05 138.06 62.648 90.478 49 59.948v109.354c0 10.762 3.706 19.964 11.117 27.606 7.411 7.642 16.336 11.463 26.773 11.463h126.298c10.437 0 19.362-3.821 26.773-11.463 7.41-7.642 11.116-16.844 11.116-27.606v-12.846c-15.503 5.848-65.335 24.295-69.236 25.514z" fill="#F35045"/><path d="M96.687 134.536c2.052-.484 40.505-9.973 41.326-10.155.82-.181 1.348-.665.468-2.236-.879-1.57-51.256-91.235-51.256-91.235-.465-.823-.332-1.097-1.596-1.029-1.127.061-29.631 2.684-36.23 3.253a42.806 42.806 0 0 0-.364 4.339c6.7 14.142 45.15 95.913 45.366 96.58.235.725.234.967 2.286.483z" fill="#F35045"/><path d="M11.321 271.055c-.63-.63-.945-1.395-.945-2.295v-58.41h-8.37c-.36 0-.66-.12-.9-.36s-.36-.54-.36-.9v-4.14c0-.36.12-.66.36-.9s.54-.36.9-.36h12.15c.9 0 1.665.315 2.295.945.63.63.945 1.395.945 2.295v58.41h9.54c.36 0 .66.12.9.36s.36.54.36.9v4.14c0 .36-.12.66-.36.9s-.54.36-.9.36h-13.32c-.9 0-1.665-.315-2.295-.945zm29.448-1.8c-2.94-2.61-4.41-6.045-4.41-10.305 0-3.96 1.335-7.23 4.005-9.81s6.405-4.2 11.205-4.86l11.7-1.62c1.74-.24 3-.825 3.78-1.755.78-.93 1.17-2.265 1.17-4.005v-.72c0-2.88-1.125-5.205-3.375-6.975-2.25-1.77-5.055-2.655-8.415-2.655-2.64 0-4.935.525-6.885 1.575-1.95 1.05-3.495 2.505-4.635 4.365-.48.78-1.08 1.17-1.8 1.17-.36 0-.75-.15-1.17-.45l-2.43-1.62c-.54-.48-.81-.99-.81-1.53 0-.24.09-.54.27-.9 1.74-2.88 4.125-5.145 7.155-6.795 3.03-1.65 6.525-2.475 10.485-2.475 3.6 0 6.81.675 9.63 2.025 2.82 1.35 4.995 3.255 6.525 5.715 1.53 2.46 2.295 5.31 2.295 8.55v34.56c0 .36-.12.66-.36.9s-.54.36-.9.36h-3.78c-.36 0-.66-.12-.9-.36s-.36-.54-.36-.9v-6.21a19.686 19.686 0 0 1-7.155 6.345c-2.91 1.53-6.075 2.295-9.495 2.295-4.62 0-8.4-1.305-11.34-3.915zm20.07-4.725c2.4-1.56 4.275-3.525 5.625-5.895 1.35-2.37 2.025-4.695 2.025-6.975v-3.69c-1.44.18-6.06.81-13.86 1.89l-2.52.36c-6 .9-9 3.72-9 8.46 0 2.46.9 4.44 2.7 5.94 1.8 1.5 4.14 2.25 7.02 2.25 2.94 0 5.61-.78 8.01-2.34zm25.892 7.11c-.24-.24-.36-.54-.36-.9v-4.14c0-.36.12-.66.36-.9s.54-.36.9-.36h7.47v-37.89h-7.47c-.36 0-.66-.12-.9-.36s-.36-.54-.36-.9v-3.87c0-.36.12-.66.36-.9s.54-.36.9-.36h11.25c.9 0 1.665.315 2.295.945.63.63.945 1.395.945 2.295v4.5l5.22-4.05c2.16-1.68 3.915-2.805 5.265-3.375 1.35-.57 2.775-.855 4.275-.855h2.7c.42 0 .735.12.945.36.21.24.315.54.315.9v4.41c0 .36-.12.66-.36.9s-.54.36-.9.36h-1.98c-1.5 0-2.91.315-4.23.945-1.32.63-3.3 1.995-5.94 4.095l-5.31 4.23v28.62h10.44c.36 0 .66.12.9.36s.36.54.36.9v4.14c0 .36-.12.66-.36.9s-.54.36-.9.36h-24.93c-.36 0-.66-.12-.9-.36zm45.333-2.385c-2.94-2.61-4.41-6.045-4.41-10.305 0-3.96 1.335-7.23 4.005-9.81s6.405-4.2 11.205-4.86l11.7-1.62c1.74-.24 3-.825 3.78-1.755.78-.93 1.17-2.265 1.17-4.005v-.72c0-2.88-1.125-5.205-3.375-6.975-2.25-1.77-5.055-2.655-8.415-2.655-2.64 0-4.935.525-6.885 1.575-1.95 1.05-3.495 2.505-4.635 4.365-.48.78-1.08 1.17-1.8 1.17-.36 0-.75-.15-1.17-.45l-2.43-1.62c-.54-.48-.81-.99-.81-1.53 0-.24.09-.54.27-.9 1.74-2.88 4.125-5.145 7.155-6.795 3.03-1.65 6.525-2.475 10.485-2.475 3.6 0 6.81.675 9.63 2.025 2.82 1.35 4.995 3.255 6.525 5.715 1.53 2.46 2.295 5.31 2.295 8.55v34.56c0 .36-.12.66-.36.9s-.54.36-.9.36h-3.78c-.36 0-.66-.12-.9-.36s-.36-.54-.36-.9v-6.21a19.686 19.686 0 0 1-7.155 6.345c-2.91 1.53-6.075 2.295-9.495 2.295-4.62 0-8.4-1.305-11.34-3.915zm20.07-4.725c2.4-1.56 4.275-3.525 5.625-5.895 1.35-2.37 2.025-4.695 2.025-6.975v-3.69c-1.44.18-6.06.81-13.86 1.89l-2.52.36c-6 .9-9 3.72-9 8.46 0 2.46.9 4.44 2.7 5.94 1.8 1.5 4.14 2.25 7.02 2.25 2.94 0 5.61-.78 8.01-2.34zm41.417 7.155a1.583 1.583 0 0 1-.675-.855l-16.92-47.79c-.06-.12-.09-.33-.09-.63 0-.36.135-.675.405-.945.27-.27.615-.405 1.035-.405h4.14a1.9 1.9 0 0 1 1.035.315c.33.21.555.495.675.855l14.22 41.04 13.95-41.04c.12-.36.345-.645.675-.855a1.9 1.9 0 0 1 1.035-.315h3.96c.54 0 .945.195 1.215.585.27.39.315.855.135 1.395l-16.92 47.79c-.12.36-.345.645-.675.855a1.9 1.9 0 0 1-1.035.315h-5.13a1.9 1.9 0 0 1-1.035-.315zm42.318-2.295c-3-1.74-5.37-4.125-7.11-7.155-1.74-3.03-2.61-6.315-2.61-9.855v-12.87c0-3.54.87-6.825 2.61-9.855 1.74-3.03 4.11-5.415 7.11-7.155 3-1.74 6.27-2.61 9.81-2.61 3.54 0 6.81.87 9.81 2.61 3 1.74 5.37 4.125 7.11 7.155 1.74 3.03 2.61 6.315 2.61 9.855v6.12c0 .9-.315 1.665-.945 2.295-.63.63-1.395.945-2.295.945h-28.8v3.96c0 2.28.555 4.38 1.665 6.3a12.237 12.237 0 0 0 4.545 4.545c1.92 1.11 4.02 1.665 6.3 1.665h13.05c.36 0 .66.12.9.36s.36.54.36.9v4.14c0 .36-.12.66-.36.9s-.54.36-.9.36h-13.05c-3.54 0-6.81-.87-9.81-2.61zm22.32-27v-3.33c0-2.28-.555-4.38-1.665-6.3a12.237 12.237 0 0 0-4.545-4.545c-1.92-1.11-4.02-1.665-6.3-1.665-2.28 0-4.38.555-6.3 1.665a12.237 12.237 0 0 0-4.545 4.545c-1.11 1.92-1.665 4.02-1.665 6.3v3.33h25.02zm23.777 28.665c-.63-.63-.945-1.395-.945-2.295v-58.41h-8.37c-.36 0-.66-.12-.9-.36s-.36-.54-.36-.9v-4.14c0-.36.12-.66.36-.9s.54-.36.9-.36h12.15c.9 0 1.665.315 2.295.945.63.63.945 1.395.945 2.295v58.41h9.54c.36 0 .66.12.9.36s.36.54.36.9v4.14c0 .36-.12.66-.36.9s-.54.36-.9.36h-13.32c-.9 0-1.665-.315-2.295-.945z" fill="#FFF"/></g></svg>
