<svg xmlns="http://www.w3.org/2000/svg" viewBox="0 0 402.94662 96.671127" width="100%" height="100%"><path d="M239.059 0l84.435 89.437s2.877 2.03 5.076-.338c2.2-2.367.508-4.734.508-4.734L239.059 0zm26.735 8.453l64.3 69.319s2.876 2.028 5.076-.339c2.2-2.367.507-4.734.507-4.734L265.794 8.453zm-18.782 18.091l64.3 69.318s2.876 2.029 5.075-.338c2.2-2.367.508-4.734.508-4.734l-69.883-64.246zm41.383-10.821l44.922 48.429s2.01 1.417 3.546-.236c1.537-1.654.355-3.308.355-3.308l-48.823-44.885zM253.2 47.508l44.922 48.429s2.01 1.417 3.546-.237c1.537-1.653.355-3.307.355-3.307l-48.824-44.885zm58.28-21.302l20.36 22.016s.995.664 1.755-.111c.76-.775.175-1.55.175-1.55l-22.29-20.355zm-47.04 43.619l20.36 22.016s.995.665 1.755-.11c.76-.775.175-1.55.175-1.55l-22.29-20.356z" fill="#de4f4f" fill-rule="evenodd"/><path d="M351.14 36.214V95.58h13.43V76.43h10.074l12.952 19.15h15.35l-14.39-20.587s12.779-5.05 12.779-18.75c0-19.342-17.576-20.028-17.576-20.028l-32.62-.002zm13.43 11.492V64.94h17.27s6.6-.001 6.6-8.619c0-8.944-8.04-8.616-8.04-8.616h-15.83zm-162.137-11.49V95.58h45.091V84.09h-31.66V71.643h27.343v-11.49h-27.343V47.697h31.66V36.216h-45.091zm-65.239 0v11.49h17.749V95.58h13.431V47.706h17.749v-11.49h-48.93zm-61.402 0V95.58h45.092V84.09h-31.66V71.643h27.343v-11.49H89.224V47.697h31.66V36.216H75.792zM0 36.214v59.368h13.423V58.236l16.31 23.937L46.05 58.237v37.345h13.432V36.214H46.05L29.732 60.63l-16.31-24.416H0z" fill="#fff" fill-rule="evenodd"/></svg>
