<svg viewBox="0 0 169 115" xmlns="http://www.w3.org/2000/svg"><title>mysql-word</title><g fill="none" fill-rule="evenodd"><path d="M115.769 11.683c-.794 0-1.354.096-1.919.235v.094h.091c.378.747 1.034 1.266 1.498 1.92.377.749.705 1.496 1.079 2.244.046-.045.091-.094.091-.094.66-.466.987-1.215.987-2.34-.283-.329-.327-.654-.563-.983-.28-.467-.889-.701-1.264-1.076" fill="#5A7F93"/><path d="M41.308 104.068h-6.484c-.228-10.943-.86-21.233-1.893-30.872h-.057l-9.871 30.872h-4.937L8.255 73.196h-.058c-.727 9.257-1.185 19.547-1.376 30.872H.91c.382-13.773 1.338-26.684 2.868-38.736h8.035l9.354 28.462h.058l9.411-28.462h7.688c1.684 14.115 2.678 27.03 2.984 38.736m28.118-28.579c-2.64 14.325-6.122 24.735-10.445 31.229-3.368 5.004-7.057 7.506-11.075 7.506-1.071 0-2.391-.323-3.959-.964v-3.453c.766.112 1.664.172 2.698.172 1.874 0 3.384-.518 4.534-1.552 1.376-1.26 2.064-2.676 2.064-4.245 0-1.072-.537-3.271-1.606-6.598l-7.116-22.095h6.37l5.106 16.525c1.148 3.752 1.626 6.371 1.435 7.864 2.793-7.46 4.744-15.59 5.854-24.389h6.14" fill="#186C80"/><path fill="#E6892D" d="M155.73 104.068h-18.419V65.332h6.198v33.971h12.221v4.765m-46.307-7.749c-1.569-2.525-2.355-6.577-2.355-12.164 0-9.754 2.966-14.634 8.895-14.634 3.1 0 5.375 1.167 6.83 3.499 1.567 2.526 2.353 6.543 2.353 12.052 0 9.832-2.966 14.75-8.895 14.75-3.099 0-5.375-1.166-6.828-3.503m23.068 8.683l-7.12-3.511a13.325 13.325 0 0 0 1.781-1.73c3.023-3.554 4.536-8.814 4.536-15.778 0-12.815-5.031-19.226-15.092-19.226-4.935 0-8.781 1.625-11.535 4.88-3.024 3.558-4.534 8.798-4.534 15.723 0 6.809 1.338 11.804 4.016 14.977 2.449 2.868 6.141 4.304 11.077 4.304 1.843 0 3.534-.227 5.071-.681l9.272 5.396 2.528-4.354M97.826 93.331c0 3.285-1.207 5.982-3.613 8.092-2.408 2.101-5.643 3.154-9.694 3.154-3.789 0-7.461-1.212-11.018-3.617l1.664-3.327c3.061 1.53 5.831 2.294 8.318 2.294 2.333 0 4.159-.519 5.48-1.545 1.318-1.033 2.108-2.474 2.108-4.302 0-2.3-1.604-4.266-4.547-5.915-2.717-1.491-8.147-4.604-8.147-4.604-2.942-2.146-4.417-4.449-4.417-8.243 0-3.138 1.1-5.674 3.297-7.604 2.202-1.933 5.043-2.9 8.522-2.9 3.596 0 6.866.96 9.811 2.872l-1.496 3.324c-2.52-1.068-5.005-1.604-7.455-1.604-1.988 0-3.52.477-4.588 1.437-1.074.952-1.738 2.177-1.738 3.67 0 2.294 1.639 4.284 4.665 5.965 2.751 1.492 8.314 4.665 8.314 4.665 3.026 2.142 4.534 4.426 4.534 8.188"/><path d="M163.508 52.357c-3.746-.094-6.647.28-9.08 1.31-.702.281-1.824.281-1.92 1.17.377.374.422.982.752 1.499.56.936 1.541 2.197 2.432 2.855.983.749 1.966 1.495 2.997 2.15 1.824 1.128 3.884 1.78 5.66 2.904 1.033.655 2.059 1.496 3.092 2.2.513.375.838.984 1.496 1.215v-.141c-.33-.42-.422-1.029-.748-1.499-.467-.465-.936-.889-1.405-1.355-1.358-1.825-3.045-3.415-4.866-4.725-1.499-1.033-4.777-2.437-5.383-4.163l-.095-.096c1.03-.095 2.249-.47 3.231-.754 1.589-.42 3.04-.325 4.678-.745.75-.189 1.499-.424 2.251-.654v-.424c-.847-.841-1.453-1.966-2.342-2.761-2.385-2.059-5.009-4.069-7.723-5.757-1.453-.936-3.325-1.542-4.87-2.34-.559-.281-1.494-.42-1.823-.89-.843-1.03-1.313-2.385-1.92-3.604-1.356-2.571-2.669-5.425-3.837-8.144-.842-1.824-1.357-3.648-2.387-5.334-4.823-7.958-10.063-12.776-18.113-17.504-1.732-.985-3.791-1.405-5.989-1.92-1.172-.049-2.341-.14-3.511-.186-.75-.329-1.5-1.219-2.154-1.64-2.669-1.684-9.546-5.334-11.513-.514-1.264 3.044 1.872 6.038 2.949 7.583.795 1.075 1.826 2.294 2.385 3.509.328.796.422 1.64.751 2.481.748 2.059 1.449 4.353 2.434 6.273.513.983 1.074 2.014 1.729 2.899.378.518 1.031.749 1.172 1.594-.653.935-.704 2.339-1.078 3.51-1.684 5.289-1.03 11.841 1.358 15.725.747 1.17 2.528 3.745 4.915 2.76 2.106-.841 1.638-3.509 2.246-5.848.14-.565.046-.936.326-1.31v.095c.655 1.308 1.312 2.569 1.92 3.883 1.453 2.291 3.978 4.679 6.086 6.269 1.12.845 2.01 2.294 3.414 2.81v-.141h-.092c-.282-.42-.702-.609-1.077-.935-.842-.843-1.776-1.873-2.434-2.808-1.965-2.62-3.699-5.524-5.24-8.519-.751-1.454-1.405-3.044-2.014-4.494-.28-.559-.28-1.404-.749-1.684-.704 1.029-1.731 1.919-2.245 3.179-.89 2.015-.983 4.495-1.313 7.07-.186.049-.092 0-.186.093-1.496-.374-2.011-1.918-2.574-3.225-1.404-3.327-1.64-8.662-.421-12.5.326-.981 1.734-4.07 1.17-5.006-.283-.893-1.218-1.403-1.732-2.108-.607-.889-1.266-2.01-1.683-2.995-1.124-2.62-1.689-5.523-2.902-8.143-.562-1.219-1.547-2.483-2.34-3.604-.891-1.264-1.873-2.153-2.576-3.649-.232-.516-.56-1.359-.187-1.919.092-.375.282-.516.657-.611.605-.514 2.339.14 2.946.421 1.733.7 3.184 1.359 4.633 2.34.656.469 1.358 1.358 2.199 1.594h.985c1.497.325 3.183.091 4.588.514 2.479.795 4.725 1.965 6.739 3.229 6.129 3.885 11.184 9.409 14.599 16.007.563 1.075.799 2.059 1.313 3.18.983 2.298 2.201 4.638 3.182 6.882.982 2.2 1.92 4.445 3.326 6.273.7.981 3.509 1.496 4.773 2.011.934.42 2.387.795 3.23 1.309 1.591.982 3.179 2.107 4.679 3.185.747.561 3.088 1.73 3.229 2.668" fill="#186C80"/><path d="M160.154 104.064h1.027v-3.941h1.344v-.805h-3.767v.805h1.396v3.941zm7.815 0h.968v-4.746h-1.456l-1.185 3.235-1.29-3.235h-1.403v4.746h.916v-3.612h.052l1.351 3.612h.698l1.349-3.612v3.612z" fill="#E6892D"/></g></svg>