<svg xmlns="http://www.w3.org/2000/svg" viewBox="0 0 800 300"><path fill="#008CC1" d="M244.7 139.2c0 60.7-49.2 109.8-109.8 109.8C74.2 249 25 199.8 25 139.2 25 78.5 74.2 29.3 134.8 29.3c60.7 0 109.9 49.2 109.9 109.9"/><path fill="#FFF" d="M73.7 103.2c0 4.9-3.9 8.8-8.8 8.8s-8.8-3.9-8.8-8.8 3.9-8.8 8.8-8.8 8.8 3.9 8.8 8.8m1.5 24.1c0 4.9-3.9 8.8-8.8 8.8s-8.8-3.9-8.8-8.8 3.9-8.8 8.8-8.8 8.8 3.9 8.8 8.8m5.4 25.5c0 4.9-3.9 8.8-8.8 8.8s-8.8-3.9-8.8-8.8 3.9-8.8 8.8-8.8c4.8 0 8.8 3.9 8.8 8.8m12 22.9c0 4.9-3.9 8.8-8.8 8.8s-8.8-3.9-8.8-8.8 3.9-8.8 8.8-8.8 8.8 3.9 8.8 8.8m94 32c0 4.9-3.9 8.8-8.8 8.8s-8.8-3.9-8.8-8.8 3.9-8.8 8.8-8.8 8.8 3.9 8.8 8.8m16-18.9c0 4.9-3.9 8.8-8.8 8.8s-8.8-3.9-8.8-8.8 3.9-8.8 8.8-8.8 8.8 3.9 8.8 8.8M156.3 55.2c0 4.9-3.9 8.8-8.8 8.8s-8.8-3.9-8.8-8.8 3.9-8.8 8.8-8.8 8.8 4 8.8 8.8m-23.1-8.1c0 4.9-3.9 8.8-8.8 8.8s-8.8-3.9-8.8-8.8 3.9-8.8 8.8-8.8 8.8 4 8.8 8.8"/><circle fill="#66B245" stroke="#FFF" stroke-width="3.5" stroke-miterlimit="10" cx="195.5" cy="113" r="58.5"/><circle fill="#66B245" stroke="#FFF" stroke-width="3.5" stroke-miterlimit="10" cx="115.3" cy="232.3" r="47.9"/><circle fill="#66B245" stroke="#FFF" stroke-width="3.5" stroke-miterlimit="10" cx="75.9" cy="54.2" r="31.9"/><path d="M281 74.8h10.6v20.6c5.1-12.6 15.8-22.3 37.5-22.3 24.7 0 41.3 16.6 41.3 42.8v66.2h-10.6V118c0-21.5-13.2-34.9-33-34.9-21.5 0-35.1 16.6-35.1 41.3v57.7H281V74.8zm108.3 53.9c0-33.4 22.8-56.4 52.4-56.4 29.2 0 49.8 24.1 49.8 53.4 0 0 0 3.2-.2 5.3h-91.5c.6 25.8 17.9 44.1 42.4 44.1 20 0 33.8-8.5 40.2-16.6V171c-10 8.9-22.1 14-40.2 14-30.9 0-52.8-22.6-52.8-55.8v-.5zm90.9-7.3c-.2-21.9-17.2-39.1-38.5-39.1-22.3 0-40.7 17.2-41.5 39.2h80zM564.5 72c31.5 0 56.4 24.1 56.4 56.4 0 32.4-24.9 56.4-56.4 56.4s-56.4-24.1-56.4-56.4S533 72 564.5 72zm0 102.8c26.2 0 45.8-20 45.8-46.4S590.7 82 564.5 82c-26.2 0-45.8 20-45.8 46.4s19.6 46.4 45.8 46.4zm112.6-100H689l-45.6 97.1h66.2v-35.1h11.1v86.4h-11.1v-41.1h-83l50.5-107.3zm80 0h10.6V197c0 24.1-13.8 28.9-27.2 28.9-2.6 0-5.3-.2-7-.6v-10c2.6.4 5.5.6 8.1.6 10.9 0 15.5-5.3 15.5-18.9V74.8zm-2.3-28.7c0-4.5 3.6-7.7 7.7-7.7 4 0 7.7 3.2 7.7 7.7 0 4.3-3.6 7.4-7.7 7.4s-7.7-3.2-7.7-7.4z" fill="#FFF"/></svg>