<svg viewBox="0 0 206 74" xmlns="http://www.w3.org/2000/svg"><title>sailsLogoDark</title><g fill="none" fill-rule="evenodd"><path d="M21.896 50.189c-2.277-1.601-4.433-2.218-7.205-2.218-2.894 0-4.372 1.047-4.372 2.525 0 1.663 1.54 2.587 4.496 2.648 5.973.184 13.179 1.417 13.241 9.792.06 4.927-3.634 10.222-13.302 10.222-4.496 0-9.115-.862-14.287-5.173l3.816-6.282c3.757 3.08 7.391 3.757 10.593 3.819 2.587.062 4.62-.985 4.558-2.586 0-1.417-1.047-2.586-5.173-2.709-5.666-.247-12.747-2.588-12.747-9.731 0-6.898 6.526-9.791 13.117-9.791 4.68 0 8.436 1.169 11.639 3.941l-4.374 5.543M38.953 56.778c0 5.05 3.572 8.005 8.006 8.005 4.989 0 8.067-3.879 8.067-7.698 0-4.372-2.77-8.375-8.067-8.375-4.434 0-8.006 3.018-8.006 8.068zm16.382-15.211h8.313v30.422h-8.005l-.493-3.819c-2.033 3.202-6.405 4.435-9.361 4.496-9.113.062-15.703-5.85-15.703-15.888 0-10.101 6.959-16.012 15.95-15.889 3.818 0 7.39 1.478 8.99 4.187l.309-3.509zM69.621 71.989h8.868V41.505h-8.868v30.484zm9.483-38.49c0 6.652-10.099 6.652-10.099 0 0-6.651 10.099-6.651 10.099 0zM84.584 71.989h8.807V28.942h-8.807zM118.639 50.189c-2.279-1.601-4.434-2.218-7.205-2.218-2.895 0-4.372 1.047-4.372 2.525 0 1.663 1.539 2.587 4.495 2.648 5.972.184 13.178 1.417 13.24 9.792.061 4.927-3.633 10.222-13.302 10.222-4.495 0-9.114-.862-14.287-5.173l3.817-6.282c3.757 3.08 7.391 3.757 10.593 3.819 2.587.062 4.619-.985 4.558-2.586 0-1.417-1.047-2.586-5.173-2.709-5.667-.247-12.748-2.588-12.748-9.731 0-6.898 6.527-9.791 13.117-9.791 4.681 0 8.437 1.169 11.64 3.941l-4.373 5.543" fill="#FFF"/><path d="M139.27 73.52S111.326 29.053 168.811.42v73.1H139.27M177.711 73.52V28.212s9.175 14.973 27.821 45.308h-27.821" fill="#29A3B2"/></g></svg>