<?xml version="1.0" encoding="UTF-8"?>
<svg width="997px" height="293px" viewBox="0 0 997 293" version="1.1" xmlns="http://www.w3.org/2000/svg" xmlns:xlink="http://www.w3.org/1999/xlink">
    <!-- Generator: Sketch 41 (35326) - http://www.bohemiancoding.com/sketch -->
    <title>socketio</title>
    <desc>Created with Sketch.</desc>
    <defs></defs>
    <g id="Page-1" stroke="none" stroke-width="1" fill="none" fill-rule="evenodd">
        <g id="socketio" transform="translate(-3.000000, -5.000000)">
            <path d="M113.44086,9.96264738 C151.612903,0.318221563 193.548387,5.6762359 226.88172,26.5724918 C269.354839,51.7551592 296.774194,99.4414869 297.311828,148.199417 C298.924731,197.493149 273.11828,246.786881 231.182796,273.576953 C184.946237,304.653436 120.967742,305.725039 73.655914,276.25596 C25.2688172,247.322683 -2.68817204,189.991929 4.30107527,134.26858 C10.7526882,75.8662238 56.4516129,23.8934847 113.44086,9.96264738 L113.44086,9.96264738 Z" id="Shape" fill="#FFFFFF"></path>
            <path d="M108.064516,33.6344086 C180.107527,4.60215054 268.27957,57.827957 275.268817,135.247312 C287.096774,204.602151 229.569892,275.032258 159.139785,277.182796 C92.4731183,283.634409 27.9569892,227.182796 25.8064516,159.978495 C20.9677419,105.677419 56.4516129,51.9139785 108.064516,33.6344086 L108.064516,33.6344086 Z" id="Shape" fill="#000000"></path>
            <path d="M115.053763,144.387097 C147.311828,118.043011 178.494624,90.6236559 211.827957,65.3548387 C194.623656,91.6989247 176.88172,118.043011 159.677419,144.387097 C144.623656,144.924731 129.569892,144.924731 115.053763,144.387097 L115.053763,144.387097 Z M142.473118,158.903226 L187.096774,158.903226 C154.83871,185.247312 123.11828,212.666667 90.3225806,237.935484 C107.526882,212.129032 125.268817,185.784946 142.473118,158.903226 Z" id="Shape" fill="#FFFFFF"></path>
            <path d="M419.892473,200.301075 C425.806452,203.526882 434.946237,206.215054 444.623656,206.215054 C466.129032,206.215054 477.956989,195.462366 477.956989,180.408602 C477.956989,168.043011 470.967742,160.516129 455.913978,155.139785 C445.698925,151.376344 441.397849,148.688172 441.397849,143.849462 C441.397849,139.010753 445.698925,135.247312 452.688172,135.247312 C459.677419,135.247312 466.666667,137.935484 469.892473,140.086022 L474.193548,125.569892 C469.354839,122.88172 461.827957,120.731183 452.688172,120.731183 C433.870968,120.731183 421.505376,132.021505 421.505376,146.537634 C421.505376,156.215054 427.956989,164.817204 444.086022,170.193548 C454.301075,173.956989 457.526882,176.645161 457.526882,182.021505 C457.526882,187.397849 453.225806,191.16129 444.623656,191.16129 C437.096774,191.16129 428.494624,187.935484 423.655914,185.247312 L419.892473,200.301075 L419.892473,200.301075 Z M525.268817,120.731183 C500.537634,120.731183 482.795699,137.397849 482.795699,164.27957 C482.795699,190.623656 500.537634,206.752688 523.655914,206.752688 C544.623656,206.752688 565.591398,193.311828 565.591398,163.204301 C566.129032,137.935484 550,120.731183 525.268817,120.731183 Z M524.731183,135.784946 C538.709677,135.784946 544.623656,150.301075 544.623656,163.204301 C544.623656,179.870968 536.55914,191.16129 524.731183,191.16129 C512.365591,191.16129 504.301075,179.333333 504.301075,163.204301 C504.301075,149.763441 510.215054,135.784946 524.731183,135.784946 L524.731183,135.784946 Z M633.870968,186.860215 C629.569892,188.473118 624.731183,190.086022 617.741935,190.086022 C603.763441,190.086022 592.473118,180.408602 592.473118,163.741935 C592.473118,148.688172 601.612903,137.397849 617.741935,137.397849 C625.268817,137.397849 630.107527,139.010753 633.333333,140.623656 L637.096774,125.032258 C632.258065,122.88172 624.731183,121.268817 617.204301,121.268817 C588.172043,121.268817 571.505376,140.623656 571.505376,164.817204 C571.505376,190.086022 588.172043,206.752688 613.978495,206.752688 C624.193548,206.752688 632.795699,204.602151 637.096774,202.451613 L633.870968,186.860215 L633.870968,186.860215 Z M665.591398,85.2473118 L644.623656,85.2473118 L644.623656,204.602151 L665.591398,204.602151 L665.591398,176.645161 L672.580645,168.580645 L696.236559,204.602151 L721.505376,204.602151 L686.55914,156.215054 L716.666667,122.88172 L691.935484,122.88172 L672.043011,149.225806 C669.892473,151.913978 667.741935,155.677419 665.591398,158.903226 L665.053763,158.903226 L665.053763,85.2473118 L665.591398,85.2473118 Z M791.935484,169.11828 C792.473118,167.505376 792.473118,164.27957 792.473118,160.516129 C792.473118,142.236559 783.870968,120.731183 756.989247,120.731183 C730.645161,120.731183 716.666667,142.236559 716.666667,164.817204 C716.666667,190.086022 732.258065,206.215054 759.139785,206.215054 C770.967742,206.215054 780.645161,204.064516 787.634409,201.376344 L784.408602,186.860215 C777.956989,189.010753 771.505376,190.623656 761.827957,190.623656 C748.924731,190.623656 737.096774,184.172043 736.55914,169.655914 L791.935484,169.655914 L791.935484,169.11828 Z M737.096774,154.602151 C738.172043,146 743.548387,134.709677 755.913978,134.709677 C769.892473,134.709677 773.11828,147.075269 773.11828,154.602151 L737.096774,154.602151 Z M805.913978,104.064516 L805.913978,122.344086 L794.086022,122.344086 L794.086022,137.935484 L805.913978,137.935484 L805.913978,176.645161 C805.913978,187.397849 808.064516,194.924731 812.365591,199.763441 C816.129032,204.064516 822.580645,206.752688 830.107527,206.752688 C836.55914,206.752688 841.935484,205.677419 845.16129,204.602151 L844.623656,189.010753 C843.010753,189.548387 840.322581,190.086022 836.55914,190.086022 C828.494624,190.086022 825.806452,184.709677 825.806452,175.032258 L825.806452,139.010753 L845.698925,139.010753 L845.698925,123.419355 L825.806452,123.419355 L825.806452,99.7634409 L805.913978,104.064516 L805.913978,104.064516 Z M863.44086,206.215054 C870.967742,206.215054 876.344086,200.301075 876.344086,192.774194 C876.344086,184.709677 870.967742,179.333333 863.44086,179.333333 C855.913978,179.333333 850.537634,184.709677 850.537634,192.774194 C850.537634,200.83871 855.913978,206.215054 863.44086,206.215054 Z M906.989247,204.602151 L906.989247,122.344086 L886.021505,122.344086 L886.021505,204.602151 L906.989247,204.602151 Z M896.236559,88.4731183 C889.247312,88.4731183 884.408602,93.311828 884.408602,99.7634409 C884.408602,106.215054 888.709677,111.053763 895.698925,111.053763 C902.688172,111.053763 907.526882,106.215054 907.526882,99.7634409 C908.064516,93.311828 903.225806,88.4731183 896.236559,88.4731183 Z M959.139785,120.731183 C934.408602,120.731183 916.666667,137.397849 916.666667,164.27957 C916.666667,190.623656 934.408602,206.752688 957.526882,206.752688 C978.494624,206.752688 999.462366,193.311828 999.462366,163.204301 C1000,137.935484 983.870968,120.731183 959.139785,120.731183 L959.139785,120.731183 Z M958.602151,135.784946 C972.580645,135.784946 978.494624,150.301075 978.494624,163.204301 C978.494624,179.870968 970.430108,191.16129 958.602151,191.16129 C946.236559,191.16129 938.172043,179.333333 938.172043,163.204301 C938.172043,149.763441 944.086022,135.784946 958.602151,135.784946 Z" id="Shape" fill="#FFFFFF"></path>
        </g>
    </g>
</svg>