<svg width="100%" height="100%" viewBox="0 0 997 293" xmlns="http://www.w3.org/2000/svg"><title>socketio</title><g fill="none" fill-rule="evenodd"><path d="M110.44 4.963c38.173-9.645 80.108-4.287 113.442 16.61 42.473 25.182 69.892 72.868 70.43 121.626 1.613 49.294-24.194 98.588-66.13 125.378-46.236 31.076-110.214 32.148-157.526 2.679C22.269 242.323-5.688 184.992 1.3 129.269 7.753 70.866 53.451 18.893 110.441 4.963z" fill="#FFF"/><path d="M105.065 28.634C177.108-.398 265.28 52.828 272.269 130.247c11.828 69.355-45.7 139.785-116.13 141.936-66.666 6.451-131.182-50-133.333-117.205-4.838-54.3 30.646-108.064 82.259-126.344z" fill="#000"/><path d="M112.054 139.387c32.258-26.344 63.44-53.763 96.774-79.032-17.204 26.344-34.946 52.688-52.15 79.032-15.054.538-30.108.538-44.624 0zm27.42 14.516h44.623c-32.258 26.344-63.979 53.764-96.774 79.032 17.204-25.806 34.946-52.15 52.15-79.032zm277.418 41.398c5.914 3.226 15.054 5.914 24.732 5.914 21.505 0 33.333-10.753 33.333-25.806 0-12.366-6.99-19.893-22.043-25.27-10.215-3.763-14.516-6.45-14.516-11.29 0-4.838 4.3-8.602 11.29-8.602 6.99 0 13.979 2.688 17.204 4.839l4.302-14.516c-4.84-2.688-12.366-4.839-21.506-4.839-18.817 0-31.183 11.29-31.183 25.807 0 9.677 6.452 18.28 22.581 23.656 10.215 3.763 13.44 6.451 13.44 11.828 0 5.376-4.3 9.14-12.902 9.14-7.527 0-16.13-3.227-20.968-5.915l-3.764 15.054zm105.377-79.57c-24.731 0-42.473 16.667-42.473 43.549 0 26.344 17.742 42.473 40.86 42.473 20.968 0 41.935-13.441 41.935-43.549.538-25.269-15.591-42.473-40.322-42.473zm-.538 15.054c13.979 0 19.893 14.516 19.893 27.42 0 16.666-8.065 27.956-19.893 27.956-12.365 0-20.43-11.828-20.43-27.957 0-13.44 5.914-27.42 20.43-27.42zm109.14 51.075c-4.301 1.613-9.14 3.226-16.13 3.226-13.978 0-25.268-9.677-25.268-26.344 0-15.054 9.14-26.344 25.269-26.344 7.527 0 12.366 1.613 15.591 3.226l3.764-15.592c-4.839-2.15-12.366-3.763-19.893-3.763-29.032 0-45.699 19.355-45.699 43.548 0 25.269 16.667 41.936 42.473 41.936 10.216 0 18.818-2.15 23.119-4.301l-3.226-15.592zm31.72-101.613h-20.967v119.355h20.967v-27.957l6.99-8.064 23.656 36.021h25.268l-34.946-48.387 30.108-33.333h-24.732l-19.892 26.344c-2.15 2.688-4.301 6.451-6.452 9.677h-.537V80.247h.537zm126.344 83.871c.538-1.613.538-4.838.538-8.602 0-18.28-8.602-39.785-35.484-39.785-26.344 0-40.322 21.506-40.322 44.086 0 25.269 15.591 41.398 42.473 41.398 11.828 0 21.505-2.15 28.494-4.839l-3.225-14.516c-6.452 2.15-12.904 3.764-22.581 3.764-12.903 0-24.731-6.452-25.269-20.968h55.376v-.538zm-54.838-14.516c1.075-8.602 6.451-19.892 18.817-19.892 13.978 0 17.204 12.365 17.204 19.892h-36.021zm68.817-50.537v18.28h-11.828v15.59h11.828v38.71c0 10.753 2.15 18.28 6.452 23.118 3.763 4.302 10.215 6.99 17.742 6.99 6.451 0 11.827-1.076 15.053-2.15l-.537-15.592c-1.613.537-4.301 1.075-8.065 1.075-8.064 0-10.753-5.376-10.753-15.054v-36.021H842.7v-15.592h-19.893V94.763l-19.892 4.302zm57.527 102.15c7.527 0 12.903-5.914 12.903-13.44 0-8.065-5.376-13.442-12.903-13.442s-12.903 5.377-12.903 13.441c0 8.065 5.376 13.441 12.903 13.441zm43.548-1.613v-82.258h-20.967v82.258h20.967zM893.237 83.473c-6.99 0-11.828 4.839-11.828 11.29 0 6.452 4.3 11.29 11.29 11.29 6.99 0 11.828-4.838 11.828-11.29.538-6.451-4.301-11.29-11.29-11.29zm62.903 32.258c-24.731 0-42.473 16.667-42.473 43.549 0 26.344 17.742 42.473 40.86 42.473 20.968 0 41.935-13.441 41.935-43.549.538-25.269-15.591-42.473-40.322-42.473zm-.538 15.054c13.979 0 19.893 14.516 19.893 27.42 0 16.666-8.065 27.956-19.893 27.956-12.365 0-20.43-11.828-20.43-27.957 0-13.44 5.914-27.42 20.43-27.42z" fill="#FFF"/></g></svg>
