<?xml version="1.0" encoding="UTF-8"?>
<svg width="681px" height="752px" viewBox="0 0 681 752" version="1.1" xmlns="http://www.w3.org/2000/svg" xmlns:xlink="http://www.w3.org/1999/xlink">
    <!-- Generator: Sketch 41 (35326) - http://www.bohemiancoding.com/sketch -->
    <title>strider-cd</title>
    <desc>Created with Sketch.</desc>
    <defs></defs>
    <g id="Page-1" stroke="none" stroke-width="1" fill="none" fill-rule="evenodd">
        <g id="strider-cd">
            <g id="Group" transform="translate(25.000000, 0.000000)">
                <path d="M50.6325,143.341025 L298.928,278.832025 L306.464,135.648025 L229.691,11.7750251 C155.127405,32.5515008 91.77592,79.9656014 50.6325,143.341025 Z M406.002,13.7375251 L324.048,135.648025 L326.56,288.880025 L580.115,147.894025 C540.449691,84.4724306 478.998159,36.0914362 406.002,13.7375251 Z" id="Shape" fill="#006EAF"></path>
                <path d="M147.266,579.722525 L301.44,329.072025 L50.554,143.419525 C18.6813923,192.551457 0,251.073622 0,314.000025 C0,426.084059 58.9043151,524.162261 147.266,579.722525 Z M580.115,147.894025 L326.56,329.072025 L483.3245,578.074025 C570.240981,522.229954 628,424.984605 628,314.000025 C628,252.952346 610.335967,196.103274 580.1935,147.894025 C580.185964,147.881465 580.122158,147.906585 580.115125,147.894025 L580.115,147.894025 Z" id="Shape" fill="#00A7E1"></path>
                <path d="M316.512,627.843025 L301.44,381.824025 L147.3445,579.722525 C195.684825,610.103683 252.690622,628.000025 314,628.000025 C314.848504,628.000025 315.665105,627.849807 316.512,627.843025 Z M483.3245,578.074025 L324.048,376.800025 L316.512,627.843025 C377.981317,627.355395 435.095331,609.061379 483.3245,578.074025 Z" id="Shape" fill="#5BC9EC"></path>
                <path d="M406.002,13.7375251 L316.512,120.576025 L229.7695,11.6965251 C229.738854,11.7040611 229.721772,11.7666099 229.691126,11.7748995 L306.464,135.648025 L298.928,278.832025 L50.6325,143.341025 C50.612404,143.371169 50.573468,143.389507 50.5541256,143.419399 L301.44,329.072025 L147.266,579.722525 C147.286096,579.735085 147.325534,579.709965 147.344374,579.722525 L301.44,381.824025 L316.512,627.843025 L324.048,376.800025 L483.3245,578.074025 L326.56,329.072025 L580.115,147.894025 L326.56,288.880025 L324.048,135.648025 L406.002,13.7375251 L406.002,13.7375251 Z" id="Shape" fill="#FFFFFF"></path>
                <path d="M314,2.51200003e-05 C284.769112,2.51200003e-05 256.618585,4.22412896 229.7695,11.6965251 L316.512,120.576025 L406.002,13.7375251 C376.885509,4.82105552 346.037069,2.51200003e-05 314,2.51200003e-05 L314,2.51200003e-05 Z" id="Shape" fill="#013A78"></path>
            </g>
            <path d="M61.171875,651.671875 C61.171875,655.140642 61.3710918,658.562483 61.7695312,661.9375 C62.1679707,665.312517 62.7890583,668.640609 63.6328125,671.921875 L58.1484375,672.976562 C57.3515585,667.164033 55.1132996,662.851577 51.4335938,660.039062 C47.7538879,657.226548 42.5625335,655.820312 35.859375,655.820312 C29.6718441,655.820312 24.6445506,657.320298 20.7773438,660.320312 C16.9101369,663.320327 14.9765625,667.187476 14.9765625,671.921875 C14.9765625,679.703164 23.22648,686.359347 39.7265625,691.890625 C41.9296985,692.593754 43.6171816,693.156248 44.7890625,693.578125 C52.3359752,696.203138 57.8906072,699.566386 61.453125,703.667969 C65.0156428,707.769552 66.796875,712.84372 66.796875,718.890625 C66.796875,728.218797 63.2578479,735.777315 56.1796875,741.566406 C49.1015271,747.355498 39.7266209,750.25 28.0546875,750.25 C23.6015402,750.25 19.2539275,749.886722 15.0117188,749.160156 C10.76951,748.43359 6.4687718,747.296883 2.109375,745.75 C2.15625023,745.281248 2.19140613,744.730472 2.21484375,744.097656 C2.23828137,743.464841 2.25,742.539069 2.25,741.320312 C2.25,737.992171 2.06250188,734.710954 1.6875,731.476562 C1.31249812,728.242171 0.75000375,725.007829 0,721.773438 L6.328125,720.296875 C7.12500398,727.984413 9.53904234,733.609357 13.5703125,737.171875 C17.6015827,740.734393 23.5780854,742.515625 31.5,742.515625 C38.4375347,742.515625 44.0859157,740.769549 48.4453125,737.277344 C52.8047093,733.785139 54.984375,729.296902 54.984375,723.8125 C54.984375,716.031211 48.187568,709.984397 34.59375,705.671875 C32.6718654,705.062497 31.1718804,704.570314 30.09375,704.195312 C20.6718279,701.148422 13.9218954,697.421897 9.84375,693.015625 C5.76560461,688.609353 3.7265625,682.984409 3.7265625,676.140625 C3.7265625,668.078085 6.91403063,661.351589 13.2890625,655.960938 C19.6640944,650.570286 27.656202,647.875 37.265625,647.875 C40.7812676,647.875 44.343732,648.156247 47.953125,648.71875 C51.562518,649.281253 55.968724,650.265618 61.171875,651.671875 Z M95.2328125,666.648438 L99.8734375,668.054688 C99.5921861,670.632825 99.3695321,672.941396 99.2054688,674.980469 C99.0414054,677.019541 98.9359377,679.023428 98.8890625,680.992188 L103.88125,680.992188 C106.553138,680.992188 109.271861,680.957032 112.0375,680.886719 C114.803139,680.816406 117.592173,680.710938 120.404688,680.570312 L118.717188,688.234375 C115.717173,687.999999 112.892982,687.847657 110.244531,687.777344 C107.596081,687.707031 104.959388,687.671875 102.334375,687.671875 L99.0296875,687.671875 C98.7484361,695.734415 98.5492193,701.910135 98.4320313,706.199219 C98.3148432,710.488303 98.25625,714.039048 98.25625,716.851562 C98.25625,727.445365 98.9828052,734.34764 100.435938,737.558594 C101.88907,740.769547 104.490606,742.375 108.240625,742.375 C109.787508,742.375 111.510147,742.046878 113.408594,741.390625 C115.307041,740.734372 117.615611,739.656258 120.334375,738.15625 L122.654688,742.796875 C118.154665,745.515639 114.076581,747.566399 110.420313,748.949219 C106.764044,750.332038 103.576576,751.023438 100.857813,751.023438 C95.8421624,751.023438 92.185949,749.300798 89.8890625,745.855469 C87.592176,742.410139 86.44375,736.867226 86.44375,729.226562 C86.44375,727.726555 86.5492177,722.37114 86.7601563,713.160156 C86.9710948,703.949173 87.0765625,695.500038 87.0765625,687.8125 C86.6546854,687.8125 86.0453165,687.835937 85.2484375,687.882812 C81.3577931,688.023438 78.6859448,688.09375 77.2328125,688.09375 L77.2328125,683.03125 C81.8265855,682.374997 85.6234225,680.675795 88.6234375,677.933594 C91.6234525,675.191393 93.8265555,671.429711 95.2328125,666.648438 Z M151.371875,677.125 C151.043748,680.312516 150.785938,683.53514 150.598438,686.792969 C150.410937,690.050798 150.270313,693.507794 150.176563,697.164062 C153.973457,690.460904 157.477328,685.632827 160.688281,682.679688 C163.899235,679.726548 167.215608,678.25 170.6375,678.25 C173.309388,678.25 175.418742,678.964837 176.965625,680.394531 C178.512508,681.824226 179.285938,683.7578 179.285938,686.195312 C179.285938,687.929696 178.782036,689.417963 177.774219,690.660156 C176.766401,691.90235 175.582819,692.523438 174.223438,692.523438 C173.379683,692.523438 172.078915,692.066411 170.321094,691.152344 C168.563272,690.238277 167.051569,689.78125 165.785938,689.78125 C163.348425,689.78125 160.91095,690.847646 158.473438,692.980469 C156.035925,695.113292 153.481263,698.429665 150.809375,702.929688 L150.809375,710.664062 C150.809375,718.1641 150.867968,724.24607 150.985156,728.910156 C151.102344,733.574242 151.278124,736.539056 151.5125,737.804688 C151.934377,740.195324 152.836712,741.835933 154.219531,742.726562 C155.602351,743.617192 157.957796,744.0625 161.285938,744.0625 L163.325,744.0625 L163.325,748.984375 C159.668732,748.703124 156.410952,748.492188 153.551563,748.351562 C150.692173,748.210937 148.278135,748.140625 146.309375,748.140625 C143.590611,748.140625 140.789858,748.210937 137.907031,748.351562 C135.024204,748.492188 132.012516,748.703124 128.871875,748.984375 L128.871875,744.0625 L130.489063,744.0625 C133.910955,744.0625 136.231244,743.242196 137.45,741.601562 C138.668756,739.960929 139.278125,736.140655 139.278125,730.140625 L139.278125,699.90625 C139.278125,694.843725 138.926566,691.585945 138.223438,690.132812 C137.520309,688.67968 136.231259,687.953125 134.35625,687.953125 C133.981248,687.953125 133.582815,687.964844 133.160938,687.988281 C132.73906,688.011719 132.035942,688.093749 131.051563,688.234375 L130.207813,683.875 C133.535954,683.124996 136.957795,682.187506 140.473438,681.0625 C143.98908,679.937494 147.621856,678.625008 151.371875,677.125 Z M209.057813,677.125 C209.010937,678.906259 208.940625,681.437484 208.846875,684.71875 C208.237497,703.562594 207.932813,716.828087 207.932813,724.515625 L207.932813,731.96875 C207.932813,737.406277 208.448432,740.828118 209.479688,742.234375 C210.510943,743.640632 212.526548,744.34375 215.526563,744.34375 C215.807814,744.34375 216.18281,744.320313 216.651563,744.273438 C217.120315,744.226562 217.471874,744.203125 217.70625,744.203125 L217.70625,748.984375 C213.721855,748.703124 210.51095,748.515625 208.073438,748.421875 C205.635925,748.328125 203.573446,748.28125 201.885938,748.28125 C200.38593,748.28125 198.475793,748.328125 196.155469,748.421875 C193.835145,748.515625 190.354711,748.703124 185.714063,748.984375 L185.714063,744.0625 L187.471875,744.0625 C193.284404,744.0625 196.214062,738.343807 196.260938,726.90625 L196.260938,723.039062 L196.542188,705.671875 C196.542188,704.406244 196.565625,702.81251 196.6125,700.890625 C196.659375,698.96874 196.682813,697.679691 196.682813,697.023438 C196.682813,693.226544 196.319535,690.718756 195.592969,689.5 C194.866403,688.281244 193.542197,687.671875 191.620313,687.671875 C191.245311,687.671875 190.694535,687.707031 189.967969,687.777344 C189.241403,687.847657 188.456254,687.929687 187.6125,688.023438 L186.909375,683.59375 C190.612519,682.890621 194.303888,682.000005 197.983594,680.921875 C201.6633,679.843745 205.354669,678.578132 209.057813,677.125 Z M201.464063,644.007812 L206.45625,647.734375 C207.768757,648.718755 208.729684,649.70312 209.339063,650.6875 C209.948441,651.67188 210.253125,652.70312 210.253125,653.78125 C210.253125,654.85938 210.007034,655.785152 209.514844,656.558594 C209.022654,657.332035 208.096882,658.23437 206.7375,659.265625 L201.464063,663.273438 L196.542188,659.40625 C195.182806,658.32812 194.198441,657.332036 193.589063,656.417969 C192.979684,655.503902 192.675,654.531255 192.675,653.5 C192.675,652.468745 192.909373,651.56641 193.378125,650.792969 C193.846877,650.019527 194.807805,649.093755 196.260938,648.015625 L201.464063,644.007812 Z M280.314063,691.257812 C277.173422,689.476554 274.196889,688.164067 271.384375,687.320312 C268.571861,686.476558 265.735952,686.054688 262.876563,686.054688 C255.657776,686.054688 250.079707,688.304665 246.142188,692.804688 C242.204668,697.30471 240.235938,703.656209 240.235938,711.859375 C240.235938,720.578169 242.169512,727.503881 246.036719,732.636719 C249.903926,737.769557 255.071843,740.335938 261.540625,740.335938 C264.118763,740.335938 266.896079,739.843755 269.872656,738.859375 C272.849234,737.874995 276.189044,736.351573 279.892188,734.289062 L280.314063,691.257812 Z M293.251563,640 L293.18125,641.265625 C292.618747,657.906333 292.173439,673.984297 291.845313,689.5 L291.704688,700.46875 C291.610937,703.046888 291.528907,706.480447 291.458594,710.769531 C291.388281,715.058615 291.353125,719.781224 291.353125,724.9375 L291.353125,727.679688 C291.353125,734.992224 291.610935,739.527335 292.126563,741.285156 C292.64219,743.042978 293.649993,743.921875 295.15,743.921875 C296.040629,743.921875 296.966401,743.828126 297.927344,743.640625 C298.888286,743.453124 299.88437,743.171877 300.915625,742.796875 L302.040625,747.226562 C298.759359,748.492194 295.548453,749.441403 292.407813,750.074219 C289.267172,750.707034 286.103141,751.023438 282.915625,751.023438 L280.876563,750.953125 C280.548436,748.93749 280.302345,747.074227 280.138281,745.363281 C279.974218,743.652335 279.892188,742.023445 279.892188,740.476562 C274.548411,743.898455 270.142205,746.265618 266.673438,747.578125 C263.20467,748.890632 259.829704,749.546875 256.548438,749.546875 C248.345272,749.546875 241.665651,746.441437 236.509375,740.230469 C231.353099,734.0195 228.775,725.945362 228.775,716.007812 C228.775,704.945257 232.079654,696.015659 238.689063,689.21875 C245.298471,682.421841 253.87651,679.023438 264.423438,679.023438 C266.814074,679.023438 269.333581,679.246092 271.982031,679.691406 C274.630482,680.136721 277.501547,680.82812 280.595313,681.765625 C280.595313,681.343748 280.61875,680.710942 280.665625,679.867188 C280.900001,671.664021 281.017188,664.281283 281.017188,657.71875 C281.017188,654.76561 280.560161,652.679694 279.646094,651.460938 C278.732027,650.242181 277.220323,649.632812 275.110938,649.632812 C274.642185,649.632812 274.056254,649.691406 273.353125,649.808594 C272.649997,649.925782 271.689069,650.101561 270.470313,650.335938 L269.626563,645.765625 C273.09533,645.156247 276.774981,644.371099 280.665625,643.410156 C284.556269,642.449214 288.75154,641.312507 293.251563,640 Z M370.554688,709.679688 L336.242188,709.679688 C333.570299,709.679688 331.109386,709.726562 328.859375,709.820312 C326.609364,709.914063 324.523447,710.054687 322.601563,710.242188 L322.601563,712.84375 C322.601563,722.031296 324.722635,729.132787 328.964844,734.148438 C333.207053,739.164088 339.195274,741.671875 346.929688,741.671875 C350.35158,741.671875 353.726546,741.097662 357.054688,739.949219 C360.382829,738.800776 363.921856,737.007825 367.671875,734.570312 L370.414063,739.070312 C365.585913,743.007832 360.769555,745.984365 355.964844,748 C351.160132,750.015635 346.414086,751.023438 341.726563,751.023438 C332.632767,751.023438 325.132842,747.777376 319.226563,741.285156 C313.320283,734.792936 310.367188,726.460988 310.367188,716.289062 C310.367188,705.460883 313.460907,696.367224 319.648438,689.007812 C325.835968,681.648401 333.382768,677.96875 342.289063,677.96875 C350.585979,677.96875 357.195288,680.734347 362.117188,686.265625 C367.039087,691.796903 369.851559,699.601512 370.554688,709.679688 Z M357.546875,702.296875 C356.140618,696.531221 354.007827,692.113297 351.148438,689.042969 C348.289048,685.972641 344.867207,684.4375 340.882813,684.4375 C336.38279,684.4375 332.52736,686.242169 329.316406,689.851562 C326.105453,693.460956 324.007817,698.335907 323.023438,704.476562 C332.304734,704.476562 339.605442,704.312502 344.925781,703.984375 C350.24612,703.656248 354.45311,703.093754 357.546875,702.296875 Z M401.873438,677.125 C401.545311,680.312516 401.287501,683.53514 401.1,686.792969 C400.912499,690.050798 400.771876,693.507794 400.678125,697.164062 C404.475019,690.460904 407.97889,685.632827 411.189844,682.679688 C414.400797,679.726548 417.71717,678.25 421.139063,678.25 C423.810951,678.25 425.920305,678.964837 427.467188,680.394531 C429.01407,681.824226 429.7875,683.7578 429.7875,686.195312 C429.7875,687.929696 429.283599,689.417963 428.275781,690.660156 C427.267964,691.90235 426.084382,692.523438 424.725,692.523438 C423.881246,692.523438 422.580478,692.066411 420.822656,691.152344 C419.064835,690.238277 417.553131,689.78125 416.2875,689.78125 C413.849988,689.78125 411.412512,690.847646 408.975,692.980469 C406.537488,695.113292 403.982826,698.429665 401.310938,702.929688 L401.310938,710.664062 C401.310938,718.1641 401.369531,724.24607 401.486719,728.910156 C401.603907,733.574242 401.779686,736.539056 402.014063,737.804688 C402.43594,740.195324 403.338274,741.835933 404.721094,742.726562 C406.103913,743.617192 408.459358,744.0625 411.7875,744.0625 L413.826563,744.0625 L413.826563,748.984375 C410.170294,748.703124 406.912514,748.492188 404.053125,748.351562 C401.193736,748.210937 398.779697,748.140625 396.810938,748.140625 C394.092174,748.140625 391.291421,748.210937 388.408594,748.351562 C385.525767,748.492188 382.514078,748.703124 379.373438,748.984375 L379.373438,744.0625 L380.990625,744.0625 C384.412517,744.0625 386.732806,743.242196 387.951563,741.601562 C389.170319,739.960929 389.779688,736.140655 389.779688,730.140625 L389.779688,699.90625 C389.779688,694.843725 389.428129,691.585945 388.725,690.132812 C388.021872,688.67968 386.732822,687.953125 384.857813,687.953125 C384.482811,687.953125 384.084377,687.964844 383.6625,687.988281 C383.240623,688.011719 382.537505,688.093749 381.553125,688.234375 L380.709375,683.875 C384.037517,683.124996 387.459357,682.187506 390.975,681.0625 C394.490643,679.937494 398.123419,678.625008 401.873438,677.125 Z M564.214063,651.8125 L564.214063,654.203125 C564.214063,657.484391 564.331249,660.894514 564.565625,664.433594 C564.800001,667.972674 565.15156,671.687481 565.620313,675.578125 L560.4875,676.421875 C559.549995,669.671841 556.362527,664.410175 550.925,660.636719 C545.487473,656.863262 538.385981,654.976562 529.620313,654.976562 C517.948379,654.976562 508.936751,658.550746 502.585156,665.699219 C496.233562,672.847692 493.057813,682.984309 493.057813,696.109375 C493.057813,710.12507 496.702307,721.456988 503.991406,730.105469 C511.280505,738.753949 520.737442,743.078125 532.3625,743.078125 C539.675037,743.078125 546.014817,741.390642 551.382031,738.015625 C556.749246,734.640608 560.932798,729.695345 563.932813,723.179688 L568.64375,725.5 C567.143743,728.54689 565.784381,731.652328 564.565625,734.816406 C563.346869,737.980485 562.268755,741.156234 561.33125,744.34375 C556.268725,746.640636 551.112526,748.374994 545.8625,749.546875 C540.612474,750.718756 535.339089,751.304688 530.042188,751.304688 C514.47961,751.304688 501.882079,746.488329 492.249219,736.855469 C482.616358,727.222608 477.8,714.554766 477.8,698.851562 C477.8,683.382735 482.885887,670.785205 493.057813,661.058594 C503.229738,651.331983 516.378044,646.46875 532.503125,646.46875 C537.284399,646.46875 542.33513,646.914058 547.655469,647.804688 C552.975808,648.695317 558.495284,650.031241 564.214063,651.8125 Z M579.15,748.984375 L579.15,744.132812 C579.431251,744.132812 579.735936,744.144531 580.064063,744.167969 C580.392189,744.191406 580.860935,744.203125 581.470313,744.203125 C587.704719,744.203125 590.86875,735.507899 590.9625,718.117188 C591.009375,713.710915 591.05625,710.265637 591.103125,707.78125 L591.384375,689.078125 C591.43125,685.046855 591.466406,681.121113 591.489844,677.300781 C591.513281,673.48045 591.525,669.1094 591.525,664.1875 C591.525,660.15623 590.775008,657.367195 589.275,655.820312 C587.774993,654.27343 585.103144,653.5 581.259375,653.5 L580.696875,653.5 L580.696875,648.648438 C583.790641,648.789063 586.661706,648.917968 589.310156,649.035156 C591.958607,649.152344 594.173429,649.210938 595.954688,649.210938 C601.110963,649.210938 606.7945,649.011721 613.005469,648.613281 C619.216437,648.214842 622.860932,648.015625 623.939063,648.015625 C641.37665,648.015625 655.110887,652.445268 665.142188,661.304688 C675.173488,670.164107 680.189063,682.210861 680.189063,697.445312 C680.189063,713.101641 675.161769,725.699171 665.107031,735.238281 C655.052294,744.777391 641.611022,749.546875 624.782813,749.546875 C622.298425,749.546875 617.775033,749.359377 611.2125,748.984375 C604.649967,748.609373 599.329708,748.421875 595.251563,748.421875 C593.329678,748.421875 590.985951,748.46875 588.220313,748.5625 C585.454674,748.65625 582.431266,748.796874 579.15,748.984375 Z M604.040625,740.476562 C607.462517,741.226566 610.825765,741.777342 614.130469,742.128906 C617.435173,742.480471 620.751546,742.65625 624.079688,742.65625 C637.298504,742.65625 647.435121,739.046911 654.489844,731.828125 C661.544567,724.609339 665.071875,714.296942 665.071875,700.890625 C665.071875,686.593679 661.275038,675.390666 653.68125,667.28125 C646.087462,659.171834 635.540693,655.117188 622.040625,655.117188 C619.274986,655.117188 616.462514,655.222655 613.603125,655.433594 C610.743736,655.644532 607.814078,655.960935 604.814063,656.382812 C604.532811,673.445398 604.333594,686.898388 604.216406,696.742188 C604.099218,706.585987 604.040625,714.78903 604.040625,721.351562 L604.040625,740.476562 Z" id="Strider-CD" fill="#FFFFFF"></path>
        </g>
    </g>
</svg>