<svg width="681" height="752" viewBox="0 0 681 752" xmlns="http://www.w3.org/2000/svg"><title>strider-cd</title><g fill="none" fill-rule="evenodd"><path d="M75.632 143.341l248.296 135.491 7.536-143.184-76.773-123.873c-74.564 20.777-137.915 68.19-179.059 131.566zm355.37-129.603l-81.954 121.91 2.512 153.232 253.555-140.986C565.45 84.472 503.998 36.091 431.002 13.738z" fill="#006EAF"/><path d="M172.266 579.723L326.44 329.072 75.554 143.42C43.681 192.55 25 251.074 25 314c0 112.084 58.904 210.162 147.266 265.723zm432.849-431.829L351.56 329.072l156.764 249.002C595.241 522.23 653 424.984 653 314c0-61.048-17.664-117.897-47.807-166.106-.007-.013-.07.013-.078 0z" fill="#00A7E1"/><path d="M341.512 627.843L326.44 381.824 172.345 579.723C220.685 610.103 277.69 628 339 628c.849 0 1.665-.15 2.512-.157zm166.813-49.769L349.048 376.8l-7.536 251.043c61.47-.488 118.583-18.782 166.813-49.769z" fill="#5BC9EC"/><path d="M431.002 13.738l-89.49 106.838-86.743-108.88c-.03.008-.047.07-.078.079l76.773 123.873-7.536 143.184L75.632 143.341c-.02.03-.059.049-.078.078L326.44 329.072l-154.174 250.65c.02.013.06-.012.078 0L326.44 381.825l15.072 246.019 7.536-251.043 159.276 201.274L351.56 329.072l253.555-181.178L351.56 288.88l-2.512-153.232 81.954-121.91z" fill="#FFF"/><path d="M339 0c-29.23 0-57.381 4.224-84.23 11.697l86.742 108.879 89.49-106.838C401.886 4.82 371.037 0 339 0z" fill="#013A78"/><path d="M61.172 651.672c0 3.469.2 6.89.598 10.265a75.667 75.667 0 0 0 1.863 9.985l-5.485 1.055c-.796-5.813-3.035-10.125-6.714-12.938-3.68-2.812-8.871-4.219-15.575-4.219-6.187 0-11.214 1.5-15.082 4.5-3.867 3-5.8 6.867-5.8 11.602 0 7.781 8.25 14.437 24.75 19.969 2.203.703 3.89 1.265 5.062 1.687 7.547 2.625 13.102 5.988 16.664 10.09 3.563 4.102 5.344 9.176 5.344 15.223 0 9.328-3.54 16.886-10.617 22.675-7.078 5.79-16.453 8.684-28.125 8.684-4.453 0-8.801-.363-13.043-1.09-4.242-.726-8.543-1.863-12.903-3.41.047-.469.082-1.02.106-1.652.023-.633.035-1.559.035-2.778 0-3.328-.187-6.609-.563-9.843A87.582 87.582 0 0 0 0 721.773l6.328-1.476c.797 7.687 3.211 13.312 7.242 16.875 4.032 3.562 10.008 5.344 17.93 5.344 6.938 0 12.586-1.746 16.945-5.239 4.36-3.492 6.54-7.98 6.54-13.465 0-7.78-6.797-13.828-20.391-18.14a181.688 181.688 0 0 1-4.5-1.477c-9.422-3.047-16.172-6.773-20.25-11.18-4.078-4.406-6.117-10.03-6.117-16.874 0-8.063 3.187-14.79 9.562-20.18 6.375-5.39 14.367-8.086 23.977-8.086 3.515 0 7.078.281 10.687.844 3.61.562 8.016 1.547 13.219 2.953zm34.06 14.976l4.641 1.407a247.813 247.813 0 0 0-.668 6.925c-.164 2.04-.27 4.043-.316 6.012h4.992c2.672 0 5.39-.035 8.156-.105 2.766-.07 5.555-.176 8.368-.317l-1.688 7.664c-3-.234-5.824-.386-8.472-.457-2.649-.07-5.286-.105-7.91-.105H99.03c-.282 8.062-.48 14.238-.598 18.527-.117 4.29-.176 7.84-.176 10.653 0 10.593.727 17.496 2.18 20.707 1.453 3.21 4.055 4.816 7.805 4.816 1.547 0 3.27-.328 5.168-.984 1.898-.657 4.207-1.735 6.925-3.235l2.32 4.64c-4.5 2.72-8.577 4.77-12.234 6.153-3.656 1.383-6.843 2.074-9.562 2.074-5.016 0-8.672-1.722-10.969-5.168-2.297-3.445-3.445-8.988-3.445-16.628 0-1.5.105-6.856.316-16.067.211-9.21.317-17.66.317-25.347-.422 0-1.032.023-1.829.07-3.89.14-6.562.21-8.015.21v-5.062c4.594-.656 8.39-2.355 11.39-5.097 3-2.743 5.204-6.504 6.61-11.286zm56.14 10.477c-.328 3.188-.586 6.41-.774 9.668a326.625 326.625 0 0 0-.421 10.371c3.796-6.703 7.3-11.531 10.511-14.484 3.211-2.953 6.528-4.43 9.95-4.43 2.671 0 4.78.715 6.328 2.145 1.547 1.43 2.32 3.363 2.32 5.8 0 1.735-.504 3.223-1.512 4.465s-2.191 1.863-3.55 1.863c-.844 0-2.145-.457-3.903-1.37-1.758-.915-3.27-1.372-4.535-1.372-2.438 0-4.875 1.067-7.313 3.2-2.437 2.132-4.992 5.449-7.664 9.949v7.734c0 7.5.059 13.582.176 18.246.117 4.664.293 7.63.527 8.895.422 2.39 1.325 4.03 2.708 4.922 1.382.89 3.738 1.336 7.066 1.336h2.039v4.921a358.542 358.542 0 0 0-9.773-.632c-2.86-.141-5.274-.211-7.243-.211-2.718 0-5.52.07-8.402.21-2.883.141-5.894.352-9.035.633v-4.922h1.617c3.422 0 5.742-.82 6.961-2.46 1.219-1.641 1.828-5.461 1.828-11.461v-30.235c0-5.062-.351-8.32-1.055-9.773-.703-1.453-1.992-2.18-3.867-2.18-.375 0-.773.012-1.195.035-.422.024-1.125.106-2.11.246l-.843-4.359c3.328-.75 6.75-1.687 10.265-2.813a163.894 163.894 0 0 0 10.899-3.937zm57.686 0c-.047 1.781-.117 4.312-.211 7.594-.61 18.844-.914 32.11-.914 39.797v7.453c0 5.437.515 8.86 1.547 10.265 1.03 1.407 3.047 2.11 6.047 2.11.28 0 .656-.024 1.125-.07.468-.047.82-.07 1.054-.07v4.78c-3.984-.28-7.195-.468-9.633-.562-2.437-.094-4.5-.14-6.187-.14-1.5 0-3.41.046-5.73.14-2.32.094-5.801.281-10.442.562v-4.922h1.758c5.812 0 8.742-5.718 8.789-17.156v-3.867l.281-17.367c0-1.266.024-2.86.07-4.781.047-1.922.07-3.211.07-3.868 0-3.796-.362-6.304-1.089-7.523-.727-1.219-2.05-1.828-3.973-1.828-.375 0-.925.035-1.652.105-.727.07-1.512.153-2.355.246l-.704-4.43a116.972 116.972 0 0 0 11.075-2.671 131.661 131.661 0 0 0 11.074-3.797zm-7.594-33.117l4.992 3.726c1.313.985 2.274 1.97 2.883 2.953.61.985.914 2.016.914 3.094 0 1.078-.246 2.004-.738 2.778-.492.773-1.418 1.675-2.777 2.707l-5.274 4.007-4.922-3.867c-1.36-1.078-2.344-2.074-2.953-2.988-.61-.914-.914-1.887-.914-2.918 0-1.031.234-1.934.703-2.707.469-.773 1.43-1.7 2.883-2.777l5.203-4.008zm78.85 47.25c-3.14-1.781-6.117-3.094-8.93-3.938a29.464 29.464 0 0 0-8.507-1.265c-7.22 0-12.797 2.25-16.735 6.75-3.937 4.5-5.906 10.851-5.906 19.054 0 8.72 1.934 15.645 5.8 20.778 3.868 5.133 9.036 7.699 15.505 7.699 2.578 0 5.355-.492 8.332-1.477 2.976-.984 6.316-2.507 10.02-4.57l.421-43.031zM293.252 640l-.07 1.266a3819.439 3819.439 0 0 0-1.337 48.234l-.14 10.969a541.896 541.896 0 0 0-.246 10.3 869.84 869.84 0 0 0-.106 14.168v2.743c0 7.312.258 11.847.774 13.605.515 1.758 1.523 2.637 3.023 2.637a14.5 14.5 0 0 0 2.777-.281c.961-.188 1.957-.47 2.989-.844l1.125 4.43c-3.282 1.265-6.493 2.214-9.633 2.847a47.94 47.94 0 0 1-9.492.95l-2.04-.07a86.19 86.19 0 0 1-.738-5.59 51.279 51.279 0 0 1-.246-4.887c-5.344 3.421-9.75 5.789-13.219 7.101-3.468 1.313-6.843 1.969-10.125 1.969-8.203 0-14.882-3.106-20.039-9.317-5.156-6.21-7.734-14.285-7.734-24.222 0-11.063 3.305-19.992 9.914-26.79 6.61-6.796 15.188-10.195 25.734-10.195 2.391 0 4.91.223 7.559.668 2.648.446 5.52 1.137 8.613 2.075 0-.422.024-1.055.07-1.899.235-8.203.352-15.586.352-22.148 0-2.953-.457-5.04-1.37-6.258-.915-1.219-2.427-1.828-4.536-1.828-.469 0-1.055.058-1.758.176-.703.117-1.664.293-2.883.527l-.843-4.57a165.91 165.91 0 0 0 11.039-2.356c3.89-.96 8.086-2.097 12.586-3.41zm77.303 69.68h-34.313c-2.672 0-5.133.047-7.383.14-2.25.094-4.336.235-6.257.422v2.602c0 9.187 2.12 16.289 6.363 21.304 4.242 5.016 10.23 7.524 17.965 7.524 3.422 0 6.797-.574 10.125-1.723 3.328-1.148 6.867-2.941 10.617-5.379l2.742 4.5c-4.828 3.938-9.644 6.914-14.45 8.93-4.804 2.016-9.55 3.023-14.237 3.023-9.094 0-16.594-3.246-22.5-9.738-5.907-6.492-8.86-14.824-8.86-24.996 0-10.828 3.094-19.922 9.281-27.281 6.188-7.36 13.735-11.04 22.641-11.04 8.297 0 14.906 2.766 19.828 8.298 4.922 5.53 7.735 13.336 8.438 23.414zm-13.008-7.383c-1.406-5.766-3.54-10.184-6.399-13.254-2.859-3.07-6.28-4.606-10.265-4.606-4.5 0-8.356 1.805-11.567 5.415-3.21 3.609-5.308 8.484-6.293 14.625 9.282 0 16.582-.164 21.903-.493 5.32-.328 9.527-.89 12.62-1.687zm44.326-25.172c-.328 3.188-.585 6.41-.773 9.668a326.628 326.628 0 0 0-.422 10.371c3.797-6.703 7.3-11.531 10.512-14.484 3.21-2.953 6.527-4.43 9.95-4.43 2.671 0 4.78.715 6.327 2.145 1.547 1.43 2.32 3.363 2.32 5.8 0 1.735-.503 3.223-1.511 4.465s-2.192 1.863-3.551 1.863c-.844 0-2.145-.457-3.902-1.37-1.758-.915-3.27-1.372-4.535-1.372-2.438 0-4.875 1.067-7.313 3.2-2.438 2.132-4.992 5.449-7.664 9.949v7.734c0 7.5.059 13.582.176 18.246.117 4.664.293 7.63.527 8.895.422 2.39 1.324 4.03 2.707 4.922 1.383.89 3.738 1.336 7.067 1.336h2.039v4.921a358.542 358.542 0 0 0-9.774-.632c-2.86-.141-5.273-.211-7.242-.211-2.719 0-5.52.07-8.402.21-2.883.141-5.895.352-9.036.633v-4.922h1.618c3.422 0 5.742-.82 6.96-2.46 1.22-1.641 1.829-5.461 1.829-11.461v-30.235c0-5.062-.352-8.32-1.055-9.773-.703-1.453-1.992-2.18-3.867-2.18-.375 0-.774.012-1.195.035-.422.024-1.125.106-2.11.246l-.844-4.359c3.329-.75 6.75-1.687 10.266-2.813a163.894 163.894 0 0 0 10.898-3.937zm162.341-25.313v2.391c0 3.281.117 6.692.352 10.23.234 3.54.586 7.254 1.054 11.145l-5.133.844c-.937-6.75-4.124-12.012-9.562-15.785-5.438-3.774-12.539-5.66-21.305-5.66-11.672 0-20.683 3.574-27.035 10.722-6.351 7.149-9.527 17.285-9.527 30.41 0 14.016 3.644 25.348 10.933 33.996 7.29 8.649 16.746 12.973 28.371 12.973 7.313 0 13.653-1.687 19.02-5.062 5.367-3.375 9.55-8.32 12.55-14.836l4.712 2.32c-1.5 3.047-2.86 6.152-4.078 9.316a123.265 123.265 0 0 0-3.235 9.528c-5.062 2.297-10.218 4.031-15.469 5.203a72.41 72.41 0 0 1-15.82 1.758c-15.562 0-28.16-4.817-37.793-14.45-9.633-9.632-14.449-22.3-14.449-38.003 0-15.47 5.086-28.067 15.258-37.793 10.172-9.727 23.32-14.59 39.445-14.59 4.781 0 9.832.445 15.152 1.336 5.32.89 10.84 2.226 16.56 4.008zm14.936 97.172v-4.851c.281 0 .586.012.914.035.328.023.797.035 1.406.035 6.235 0 9.399-8.695 9.492-26.086.047-4.406.094-7.851.141-10.336l.281-18.703c.047-4.031.082-7.957.106-11.777.023-3.82.035-8.192.035-13.114 0-4.03-.75-6.82-2.25-8.367-1.5-1.547-4.172-2.32-8.016-2.32h-.562v-4.852c3.094.141 5.965.27 8.613.387 2.649.117 4.863.176 6.645.176 5.156 0 10.84-.2 17.05-.598 6.211-.398 9.856-.597 10.934-.597 17.438 0 31.172 4.43 41.203 13.289 10.031 8.86 15.047 20.906 15.047 36.14 0 15.657-5.027 28.254-15.082 37.793-10.055 9.54-23.496 14.309-40.324 14.309-2.485 0-7.008-.188-13.57-.563-6.563-.375-11.883-.562-15.961-.562-1.922 0-4.266.047-7.032.14-2.765.094-5.789.235-9.07.422zm24.89-8.507c3.423.75 6.786 1.3 10.09 1.652 3.305.351 6.622.527 9.95.527 13.219 0 23.355-3.61 30.41-10.828 7.055-7.219 10.582-17.531 10.582-30.937 0-14.297-3.797-25.5-11.39-33.61-7.595-8.11-18.141-12.164-31.641-12.164-2.766 0-5.578.106-8.438.317-2.86.21-5.789.527-8.789.949-.281 17.062-.48 30.515-.598 40.36-.117 9.843-.175 18.046-.175 24.609v19.125z" fill="#FFF"/></g></svg>