<svg width="758" height="171" viewBox="0 0 758 171" xmlns="http://www.w3.org/2000/svg"><title>ubuntu</title><g fill="none" fill-rule="evenodd"><ellipse fill="#DD4814" cx="712.199" cy="45.326" rx="45.326" ry="45.326"/><path d="M681.379 39.273a6.052 6.052 0 1 0 0 12.104 6.053 6.053 0 0 0 0-12.104zm43.207 27.504a6.048 6.048 0 0 0-2.215 8.264 6.048 6.048 0 0 0 8.265 2.215 6.047 6.047 0 0 0 2.215-8.264 6.053 6.053 0 0 0-8.265-2.215zm-30.062-21.451c0-5.98 2.971-11.264 7.516-14.463l-4.424-7.41c-5.295 3.539-9.233 8.947-10.871 15.281a8.49 8.49 0 0 1 3.133 6.592 8.488 8.488 0 0 1-3.133 6.59c1.636 6.336 5.574 11.744 10.871 15.283l4.424-7.412c-4.546-3.197-7.516-8.48-7.516-14.461zm17.675-17.678c9.234 0 16.812 7.08 17.605 16.109l8.623-.127c-.425-6.666-3.337-12.65-7.812-17.051a8.488 8.488 0 0 1-7.256-.588 8.475 8.475 0 0 1-4.139-6 26.365 26.365 0 0 0-7.023-.955c-4.184 0-8.139.982-11.65 2.721l4.205 7.535a17.629 17.629 0 0 1 7.447-1.644zm0 35.354c-2.66 0-5.184-.592-7.445-1.645l-4.204 7.535a26.274 26.274 0 0 0 18.672 1.766 8.479 8.479 0 0 1 4.139-6 8.482 8.482 0 0 1 7.256-.588c4.476-4.4 7.387-10.385 7.812-17.051l-8.625-.127c-.794 9.032-8.37 16.11-17.605 16.11zm12.385-39.131a6.047 6.047 0 0 0 8.265-2.213 6.049 6.049 0 1 0-10.48-6.049 6.05 6.05 0 0 0 2.215 8.262zM90.823 164.257c-4.605 1.153-10.684 2.375-18.237 3.669-7.556 1.297-16.296 1.942-26.226 1.942-8.633 0-15.9-1.261-21.799-3.774-5.902-2.517-10.65-6.08-14.245-10.686-3.599-4.604-6.188-10.037-7.77-16.297C.961 132.853.172 125.914.172 118.285V55.262h20.072v58.707c0 13.672 2.158 23.455 6.477 29.354 4.316 5.902 11.581 8.851 21.799 8.851 2.158 0 4.387-.071 6.691-.218 2.3-.141 4.458-.323 6.475-.539 2.013-.216 3.848-.432 5.504-.646 1.652-.215 2.839-.465 3.562-.754V55.262h20.072l-.001 108.995zM139.817 60.225c2.445-1.581 6.151-3.237 11.115-4.963 4.964-1.728 10.684-2.59 17.159-2.59 8.057 0 15.216 1.438 21.476 4.315 6.259 2.88 11.547 6.907 15.863 12.088 4.317 5.18 7.588 11.368 9.821 18.562 2.229 7.196 3.346 15.107 3.346 23.74 0 9.066-1.333 17.234-3.993 24.5-2.664 7.266-6.44 13.417-11.332 18.452-4.894 5.039-10.792 8.923-17.698 11.655-6.906 2.731-14.677 4.101-23.311 4.101-9.355 0-17.627-.646-24.821-1.942-7.196-1.295-13.095-2.588-17.698-3.885V3.459L139.817.007v60.218zm0 89.789c2.014.575 4.856 1.114 8.526 1.616 3.669.507 8.234.757 13.705.757 10.792 0 19.425-3.562 25.899-10.684 6.476-7.124 9.713-17.23 9.713-30.327 0-5.751-.576-11.147-1.727-16.187-1.153-5.035-3.021-9.388-5.611-13.058s-5.936-6.547-10.037-8.635c-4.101-2.084-9.031-3.129-14.784-3.129-5.471 0-10.506.938-15.108 2.806-4.607 1.872-8.131 3.815-10.576 5.827v71.014zM330.613 164.257c-4.606 1.153-10.684 2.375-18.237 3.669-7.556 1.297-16.296 1.942-26.225 1.942-8.634 0-15.9-1.261-21.8-3.774-5.902-2.517-10.65-6.08-14.245-10.686-3.599-4.604-6.188-10.037-7.77-16.297-1.585-6.26-2.375-13.198-2.375-20.827V55.262h20.072v58.707c0 13.672 2.158 23.455 6.476 29.354 4.315 5.902 11.581 8.851 21.799 8.851 2.158 0 4.388-.071 6.691-.218 2.3-.141 4.458-.323 6.475-.539 2.013-.216 3.848-.432 5.504-.646 1.652-.215 2.84-.465 3.562-.754V55.262h20.072l.001 108.995zM359.531 58.499c4.604-1.151 10.718-2.375 18.348-3.671 7.625-1.294 16.401-1.941 26.329-1.941 8.922 0 16.33 1.261 22.232 3.776 5.897 2.52 10.609 6.043 14.137 10.576 3.523 4.533 6.006 9.967 7.447 16.296 1.436 6.333 2.158 13.312 2.158 20.938v63.022h-20.074v-58.708c0-6.905-.469-12.803-1.402-17.697-.938-4.89-2.479-8.849-4.641-11.87-2.158-3.023-5.037-5.216-8.633-6.584-3.601-1.367-8.062-2.051-13.381-2.051-2.16 0-4.394.074-6.691.216-2.304.145-4.499.325-6.583.541a82.61 82.61 0 0 0-5.61.755c-1.656.29-2.845.506-3.562.646v94.751h-20.073V58.499h-.001zM496.585 55.262h42.521v16.835h-42.521v51.799c0 5.61.431 10.252 1.295 13.92.863 3.672 2.158 6.55 3.886 8.635 1.727 2.088 3.885 3.562 6.475 4.425s5.611 1.296 9.064 1.296c6.186 0 11.08-.682 14.678-2.051 3.594-1.366 6.043-2.337 7.338-2.913l4.316 16.403c-2.017 1.008-5.578 2.304-10.685 3.884-5.108 1.582-10.897 2.374-17.375 2.374-7.627 0-13.92-.971-18.885-2.913-4.965-1.942-8.957-4.856-11.979-8.741-3.021-3.886-5.146-8.668-6.366-14.354-1.226-5.682-1.836-12.264-1.836-19.748V23.965l20.073-3.453.001 34.75zM648.316 164.257c-4.607 1.153-10.686 2.375-18.238 3.669-7.555 1.297-16.295 1.942-26.225 1.942-8.633 0-15.9-1.261-21.799-3.774-5.902-2.517-10.65-6.08-14.246-10.686-3.599-4.604-6.188-10.037-7.771-16.297-1.586-6.26-2.375-13.198-2.375-20.827V55.262h20.074v58.707c0 13.672 2.158 23.455 6.475 29.354 4.316 5.902 11.58 8.851 21.8 8.851 2.157 0 4.387-.071 6.69-.218 2.299-.141 4.459-.323 6.476-.539 2.014-.216 3.848-.432 5.504-.646 1.651-.215 2.84-.465 3.561-.754V55.262h20.074v108.995z" fill="#FFF"/></g></svg>